{
  "asset": {
    "generator": "glTF-Transform v4.5.0",
    "version": "2.0"
  },
  "accessors": [
    {
      "type": "SCALAR",
      "componentType": 5123,
      "count": 13566,
      "normalized": false,
      "byteOffset": 0,
      "bufferView": 0
    },
    {
      "type": "VEC2",
      "componentType": 5126,
      "count": 4144,
      "normalized": false,
      "byteOffset": 0,
      "bufferView": 1
    },
    {
      "type": "SCALAR",
      "componentType": 5123,
      "count": 36,
      "normalized": false,
      "byteOffset": 27132,
      "bufferView": 0
    },
    {
      "type": "VEC2",
      "componentType": 5126,
      "count": 24,
      "normalized": false,
      "byteOffset": 0,
      "bufferView": 2
    },
    {
      "type": "SCALAR",
      "componentType": 5123,
      "count": 285,
      "normalized": false,
      "byteOffset": 27204,
      "bufferView": 0
    },
    {
      "type": "VEC2",
      "componentType": 5126,
      "count": 66,
      "normalized": false,
      "byteOffset": 0,
      "bufferView": 3
    },
    {
      "type": "SCALAR",
      "componentType": 5123,
      "count": 120,
      "normalized": false,
      "byteOffset": 27774,
      "bufferView": 0
    },
    {
      "type": "SCALAR",
      "componentType": 5123,
      "count": 300,
      "normalized": false,
      "byteOffset": 28014,
      "bufferView": 0
    },
    {
      "type": "SCALAR",
      "componentType": 5123,
      "count": 732,
      "normalized": false,
      "byteOffset": 28614,
      "bufferView": 0
    },
    {
      "type": "VEC2",
      "componentType": 5126,
      "count": 464,
      "normalized": false,
      "byteOffset": 0,
      "bufferView": 4
    },
    {
      "type": "SCALAR",
      "componentType": 5123,
      "count": 372,
      "normalized": false,
      "byteOffset": 30078,
      "bufferView": 0
    },
    {
      "type": "SCALAR",
      "componentType": 5123,
      "count": 1164,
      "normalized": false,
      "byteOffset": 30822,
      "bufferView": 0
    },
    {
      "type": "VEC2",
      "componentType": 5126,
      "count": 432,
      "normalized": false,
      "byteOffset": 0,
      "bufferView": 5
    },
    {
      "type": "VEC4",
      "componentType": 5121,
      "count": 432,
      "normalized": true,
      "byteOffset": 0,
      "bufferView": 6
    },
    {
      "type": "SCALAR",
      "componentType": 5123,
      "count": 1164,
      "normalized": false,
      "byteOffset": 33150,
      "bufferView": 0
    },
    {
      "type": "VEC2",
      "componentType": 5126,
      "count": 432,
      "normalized": false,
      "byteOffset": 0,
      "bufferView": 7
    },
    {
      "type": "VEC3",
      "componentType": 5122,
      "count": 4144,
      "max": [
        17899,
        15009,
        24749
      ],
      "min": [
        -17899,
        -32767,
        -24749
      ],
      "normalized": true,
      "byteOffset": 0,
      "bufferView": 8
    },
    {
      "type": "VEC3",
      "componentType": 5122,
      "count": 4144,
      "normalized": true,
      "byteOffset": 0,
      "bufferView": 9
    },
    {
      "type": "VEC3",
      "componentType": 5121,
      "count": 4144,
      "normalized": true,
      "byteOffset": 0,
      "bufferView": 10
    },
    {
      "type": "VEC3",
      "componentType": 5122,
      "count": 24,
      "max": [
        11839,
        -15715,
        12016
      ],
      "min": [
        -11839,
        -25862,
        -20399
      ],
      "normalized": true,
      "byteOffset": 0,
      "bufferView": 11
    },
    {
      "type": "VEC3",
      "componentType": 5122,
      "count": 24,
      "normalized": true,
      "byteOffset": 0,
      "bufferView": 12
    },
    {
      "type": "VEC3",
      "componentType": 5121,
      "count": 24,
      "normalized": true,
      "byteOffset": 0,
      "bufferView": 13
    },
    {
      "type": "VEC3",
      "componentType": 5122,
      "count": 66,
      "max": [
        6756,
        12048,
        -15516
      ],
      "min": [
        -6765,
        -14434,
        -20550
      ],
      "normalized": true,
      "byteOffset": 0,
      "bufferView": 14
    },
    {
      "type": "VEC3",
      "componentType": 5122,
      "count": 66,
      "normalized": true,
      "byteOffset": 0,
      "bufferView": 15
    },
    {
      "type": "VEC3",
      "componentType": 5121,
      "count": 66,
      "normalized": true,
      "byteOffset": 0,
      "bufferView": 16
    },
    {
      "type": "VEC3",
      "componentType": 5122,
      "count": 66,
      "max": [
        6201,
        32767,
        24023
      ],
      "min": [
        -6201,
        -13570,
        -11265
      ],
      "normalized": true,
      "byteOffset": 0,
      "bufferView": 17
    },
    {
      "type": "VEC3",
      "componentType": 5122,
      "count": 66,
      "normalized": true,
      "byteOffset": 0,
      "bufferView": 18
    },
    {
      "type": "VEC3",
      "componentType": 5121,
      "count": 66,
      "normalized": true,
      "byteOffset": 0,
      "bufferView": 19
    },
    {
      "type": "VEC3",
      "componentType": 5122,
      "count": 246,
      "max": [
        12549,
        -3347,
        19028
      ],
      "min": [
        -12549,
        -11744,
        -11555
      ],
      "normalized": true,
      "byteOffset": 0,
      "bufferView": 20
    },
    {
      "type": "VEC3",
      "componentType": 5122,
      "count": 246,
      "normalized": true,
      "byteOffset": 0,
      "bufferView": 21
    },
    {
      "type": "VEC3",
      "componentType": 5121,
      "count": 246,
      "normalized": true,
      "byteOffset": 0,
      "bufferView": 22
    },
    {
      "type": "VEC3",
      "componentType": 5122,
      "count": 464,
      "max": [
        17601,
        32767,
        3988
      ],
      "min": [
        -17601,
        -32767,
        -4726
      ],
      "normalized": true,
      "byteOffset": 0,
      "bufferView": 23
    },
    {
      "type": "VEC3",
      "componentType": 5122,
      "count": 464,
      "normalized": true,
      "byteOffset": 0,
      "bufferView": 24
    },
    {
      "type": "VEC3",
      "componentType": 5121,
      "count": 464,
      "normalized": true,
      "byteOffset": 0,
      "bufferView": 25
    },
    {
      "type": "VEC3",
      "componentType": 5122,
      "count": 336,
      "max": [
        8884,
        16524,
        4726
      ],
      "min": [
        -8884,
        -19361,
        2313
      ],
      "normalized": true,
      "byteOffset": 0,
      "bufferView": 26
    },
    {
      "type": "VEC3",
      "componentType": 5122,
      "count": 336,
      "normalized": true,
      "byteOffset": 0,
      "bufferView": 27
    },
    {
      "type": "VEC3",
      "componentType": 5121,
      "count": 336,
      "normalized": true,
      "byteOffset": 0,
      "bufferView": 28
    },
    {
      "type": "VEC3",
      "componentType": 5122,
      "count": 432,
      "max": [
        8493,
        32767,
        32767
      ],
      "min": [
        -8493,
        -32767,
        -32767
      ],
      "normalized": true,
      "byteOffset": 0,
      "bufferView": 29
    },
    {
      "type": "VEC3",
      "componentType": 5122,
      "count": 432,
      "normalized": true,
      "byteOffset": 0,
      "bufferView": 30
    },
    {
      "type": "VEC3",
      "componentType": 5122,
      "count": 432,
      "max": [
        8493,
        32767,
        32767
      ],
      "min": [
        -8493,
        -32767,
        -32767
      ],
      "normalized": true,
      "byteOffset": 0,
      "bufferView": 31
    },
    {
      "type": "VEC3",
      "componentType": 5122,
      "count": 432,
      "normalized": true,
      "byteOffset": 0,
      "bufferView": 32
    }
  ],
  "bufferViews": [
    {
      "buffer": 1,
      "byteOffset": 0,
      "byteLength": 35478,
      "target": 34963,
      "extensions": {
        "EXT_meshopt_compression": {
          "buffer": 0,
          "byteOffset": 0,
          "byteLength": 6083,
          "mode": "TRIANGLES",
          "byteStride": 2,
          "count": 17739
        }
      }
    },
    {
      "buffer": 1,
      "byteOffset": 35480,
      "byteLength": 33152,
      "target": 34962,
      "byteStride": 8,
      "extensions": {
        "EXT_meshopt_compression": {
          "buffer": 0,
          "byteOffset": 6084,
          "byteLength": 24006,
          "mode": "ATTRIBUTES",
          "byteStride": 8,
          "count": 4144
        }
      }
    },
    {
      "buffer": 1,
      "byteOffset": 68632,
      "byteLength": 192,
      "target": 34962,
      "byteStride": 8,
      "extensions": {
        "EXT_meshopt_compression": {
          "buffer": 0,
          "byteOffset": 30092,
          "byteLength": 164,
          "mode": "ATTRIBUTES",
          "byteStride": 8,
          "count": 24
        }
      }
    },
    {
      "buffer": 1,
      "byteOffset": 68824,
      "byteLength": 528,
      "target": 34962,
      "byteStride": 8,
      "extensions": {
        "EXT_meshopt_compression": {
          "buffer": 0,
          "byteOffset": 30256,
          "byteLength": 526,
          "mode": "ATTRIBUTES",
          "byteStride": 8,
          "count": 66
        }
      }
    },
    {
      "buffer": 1,
      "byteOffset": 69352,
      "byteLength": 3712,
      "target": 34962,
      "byteStride": 8,
      "extensions": {
        "EXT_meshopt_compression": {
          "buffer": 0,
          "byteOffset": 30784,
          "byteLength": 3183,
          "mode": "ATTRIBUTES",
          "byteStride": 8,
          "count": 464
        }
      }
    },
    {
      "buffer": 1,
      "byteOffset": 73064,
      "byteLength": 3456,
      "target": 34962,
      "byteStride": 8,
      "extensions": {
        "EXT_meshopt_compression": {
          "buffer": 0,
          "byteOffset": 33968,
          "byteLength": 3001,
          "mode": "ATTRIBUTES",
          "byteStride": 8,
          "count": 432
        }
      }
    },
    {
      "buffer": 1,
      "byteOffset": 76520,
      "byteLength": 1728,
      "target": 34962,
      "byteStride": 4,
      "extensions": {
        "EXT_meshopt_compression": {
          "buffer": 0,
          "byteOffset": 36972,
          "byteLength": 61,
          "mode": "ATTRIBUTES",
          "byteStride": 4,
          "count": 432
        }
      }
    },
    {
      "buffer": 1,
      "byteOffset": 78248,
      "byteLength": 3456,
      "target": 34962,
      "byteStride": 8,
      "extensions": {
        "EXT_meshopt_compression": {
          "buffer": 0,
          "byteOffset": 37036,
          "byteLength": 2989,
          "mode": "ATTRIBUTES",
          "byteStride": 8,
          "count": 432
        }
      }
    },
    {
      "buffer": 1,
      "byteOffset": 81704,
      "byteLength": 33152,
      "target": 34962,
      "byteStride": 8,
      "extensions": {
        "EXT_meshopt_compression": {
          "buffer": 0,
          "byteOffset": 40028,
          "byteLength": 18489,
          "mode": "ATTRIBUTES",
          "byteStride": 8,
          "count": 4144
        }
      }
    },
    {
      "buffer": 1,
      "byteOffset": 114856,
      "byteLength": 33152,
      "target": 34962,
      "byteStride": 8,
      "extensions": {
        "EXT_meshopt_compression": {
          "buffer": 0,
          "byteOffset": 58520,
          "byteLength": 24531,
          "mode": "ATTRIBUTES",
          "byteStride": 8,
          "count": 4144
        }
      }
    },
    {
      "buffer": 1,
      "byteOffset": 148008,
      "byteLength": 16576,
      "target": 34962,
      "byteStride": 4,
      "extensions": {
        "EXT_meshopt_compression": {
          "buffer": 0,
          "byteOffset": 83052,
          "byteLength": 6310,
          "mode": "ATTRIBUTES",
          "byteStride": 4,
          "count": 4144
        }
      }
    },
    {
      "buffer": 1,
      "byteOffset": 164584,
      "byteLength": 192,
      "target": 34962,
      "byteStride": 8,
      "extensions": {
        "EXT_meshopt_compression": {
          "buffer": 0,
          "byteOffset": 89364,
          "byteLength": 159,
          "mode": "ATTRIBUTES",
          "byteStride": 8,
          "count": 24
        }
      }
    },
    {
      "buffer": 1,
      "byteOffset": 164776,
      "byteLength": 192,
      "target": 34962,
      "byteStride": 8,
      "extensions": {
        "EXT_meshopt_compression": {
          "buffer": 0,
          "byteOffset": 89524,
          "byteLength": 80,
          "mode": "ATTRIBUTES",
          "byteStride": 8,
          "count": 24
        }
      }
    },
    {
      "buffer": 1,
      "byteOffset": 164968,
      "byteLength": 96,
      "target": 34962,
      "byteStride": 4,
      "extensions": {
        "EXT_meshopt_compression": {
          "buffer": 0,
          "byteOffset": 89604,
          "byteLength": 37,
          "mode": "ATTRIBUTES",
          "byteStride": 4,
          "count": 24
        }
      }
    },
    {
      "buffer": 1,
      "byteOffset": 165064,
      "byteLength": 528,
      "target": 34962,
      "byteStride": 8,
      "extensions": {
        "EXT_meshopt_compression": {
          "buffer": 0,
          "byteOffset": 89644,
          "byteLength": 410,
          "mode": "ATTRIBUTES",
          "byteStride": 8,
          "count": 66
        }
      }
    },
    {
      "buffer": 1,
      "byteOffset": 165592,
      "byteLength": 528,
      "target": 34962,
      "byteStride": 8,
      "extensions": {
        "EXT_meshopt_compression": {
          "buffer": 0,
          "byteOffset": 90056,
          "byteLength": 446,
          "mode": "ATTRIBUTES",
          "byteStride": 8,
          "count": 66
        }
      }
    },
    {
      "buffer": 1,
      "byteOffset": 166120,
      "byteLength": 264,
      "target": 34962,
      "byteStride": 4,
      "extensions": {
        "EXT_meshopt_compression": {
          "buffer": 0,
          "byteOffset": 90504,
          "byteLength": 102,
          "mode": "ATTRIBUTES",
          "byteStride": 4,
          "count": 66
        }
      }
    },
    {
      "buffer": 1,
      "byteOffset": 166384,
      "byteLength": 528,
      "target": 34962,
      "byteStride": 8,
      "extensions": {
        "EXT_meshopt_compression": {
          "buffer": 0,
          "byteOffset": 90608,
          "byteLength": 419,
          "mode": "ATTRIBUTES",
          "byteStride": 8,
          "count": 66
        }
      }
    },
    {
      "buffer": 1,
      "byteOffset": 166912,
      "byteLength": 528,
      "target": 34962,
      "byteStride": 8,
      "extensions": {
        "EXT_meshopt_compression": {
          "buffer": 0,
          "byteOffset": 91028,
          "byteLength": 291,
          "mode": "ATTRIBUTES",
          "byteStride": 8,
          "count": 66
        }
      }
    },
    {
      "buffer": 1,
      "byteOffset": 167440,
      "byteLength": 264,
      "target": 34962,
      "byteStride": 4,
      "extensions": {
        "EXT_meshopt_compression": {
          "buffer": 0,
          "byteOffset": 91320,
          "byteLength": 41,
          "mode": "ATTRIBUTES",
          "byteStride": 4,
          "count": 66
        }
      }
    },
    {
      "buffer": 1,
      "byteOffset": 167704,
      "byteLength": 1968,
      "target": 34962,
      "byteStride": 8,
      "extensions": {
        "EXT_meshopt_compression": {
          "buffer": 0,
          "byteOffset": 91364,
          "byteLength": 1257,
          "mode": "ATTRIBUTES",
          "byteStride": 8,
          "count": 246
        }
      }
    },
    {
      "buffer": 1,
      "byteOffset": 169672,
      "byteLength": 1968,
      "target": 34962,
      "byteStride": 8,
      "extensions": {
        "EXT_meshopt_compression": {
          "buffer": 0,
          "byteOffset": 92624,
          "byteLength": 984,
          "mode": "ATTRIBUTES",
          "byteStride": 8,
          "count": 246
        }
      }
    },
    {
      "buffer": 1,
      "byteOffset": 171640,
      "byteLength": 984,
      "target": 34962,
      "byteStride": 4,
      "extensions": {
        "EXT_meshopt_compression": {
          "buffer": 0,
          "byteOffset": 93608,
          "byteLength": 49,
          "mode": "ATTRIBUTES",
          "byteStride": 4,
          "count": 246
        }
      }
    },
    {
      "buffer": 1,
      "byteOffset": 172624,
      "byteLength": 3712,
      "target": 34962,
      "byteStride": 8,
      "extensions": {
        "EXT_meshopt_compression": {
          "buffer": 0,
          "byteOffset": 93660,
          "byteLength": 2409,
          "mode": "ATTRIBUTES",
          "byteStride": 8,
          "count": 464
        }
      }
    },
    {
      "buffer": 1,
      "byteOffset": 176336,
      "byteLength": 3712,
      "target": 34962,
      "byteStride": 8,
      "extensions": {
        "EXT_meshopt_compression": {
          "buffer": 0,
          "byteOffset": 96072,
          "byteLength": 1859,
          "mode": "ATTRIBUTES",
          "byteStride": 8,
          "count": 464
        }
      }
    },
    {
      "buffer": 1,
      "byteOffset": 180048,
      "byteLength": 1856,
      "target": 34962,
      "byteStride": 4,
      "extensions": {
        "EXT_meshopt_compression": {
          "buffer": 0,
          "byteOffset": 97932,
          "byteLength": 552,
          "mode": "ATTRIBUTES",
          "byteStride": 4,
          "count": 464
        }
      }
    },
    {
      "buffer": 1,
      "byteOffset": 181904,
      "byteLength": 2688,
      "target": 34962,
      "byteStride": 8,
      "extensions": {
        "EXT_meshopt_compression": {
          "buffer": 0,
          "byteOffset": 98484,
          "byteLength": 1811,
          "mode": "ATTRIBUTES",
          "byteStride": 8,
          "count": 336
        }
      }
    },
    {
      "buffer": 1,
      "byteOffset": 184592,
      "byteLength": 2688,
      "target": 34962,
      "byteStride": 8,
      "extensions": {
        "EXT_meshopt_compression": {
          "buffer": 0,
          "byteOffset": 100296,
          "byteLength": 1140,
          "mode": "ATTRIBUTES",
          "byteStride": 8,
          "count": 336
        }
      }
    },
    {
      "buffer": 1,
      "byteOffset": 187280,
      "byteLength": 1344,
      "target": 34962,
      "byteStride": 4,
      "extensions": {
        "EXT_meshopt_compression": {
          "buffer": 0,
          "byteOffset": 101436,
          "byteLength": 57,
          "mode": "ATTRIBUTES",
          "byteStride": 4,
          "count": 336
        }
      }
    },
    {
      "buffer": 1,
      "byteOffset": 188624,
      "byteLength": 3456,
      "target": 34962,
      "byteStride": 8,
      "extensions": {
        "EXT_meshopt_compression": {
          "buffer": 0,
          "byteOffset": 101496,
          "byteLength": 2436,
          "mode": "ATTRIBUTES",
          "byteStride": 8,
          "count": 432
        }
      }
    },
    {
      "buffer": 1,
      "byteOffset": 192080,
      "byteLength": 3456,
      "target": 34962,
      "byteStride": 8,
      "extensions": {
        "EXT_meshopt_compression": {
          "buffer": 0,
          "byteOffset": 103932,
          "byteLength": 2430,
          "mode": "ATTRIBUTES",
          "byteStride": 8,
          "count": 432
        }
      }
    },
    {
      "buffer": 1,
      "byteOffset": 195536,
      "byteLength": 3456,
      "target": 34962,
      "byteStride": 8,
      "extensions": {
        "EXT_meshopt_compression": {
          "buffer": 0,
          "byteOffset": 106364,
          "byteLength": 2438,
          "mode": "ATTRIBUTES",
          "byteStride": 8,
          "count": 432
        }
      }
    },
    {
      "buffer": 1,
      "byteOffset": 198992,
      "byteLength": 3456,
      "target": 34962,
      "byteStride": 8,
      "extensions": {
        "EXT_meshopt_compression": {
          "buffer": 0,
          "byteOffset": 108804,
          "byteLength": 2436,
          "mode": "ATTRIBUTES",
          "byteStride": 8,
          "count": 432
        }
      }
    }
  ],
  "samplers": [
    {
      "magFilter": 9729,
      "minFilter": 9987,
      "wrapS": 10497,
      "wrapT": 10497
    }
  ],
  "textures": [
    {
      "sampler": 0,
      "extensions": {
        "EXT_texture_webp": {
          "source": 1
        }
      }
    },
    {
      "sampler": 0,
      "extensions": {
        "EXT_texture_webp": {
          "source": 0
        }
      }
    },
    {
      "sampler": 0,
      "extensions": {
        "EXT_texture_webp": {
          "source": 2
        }
      }
    },
    {
      "sampler": 0,
      "extensions": {
        "EXT_texture_webp": {
          "source": 4
        }
      }
    },
    {
      "sampler": 0,
      "extensions": {
        "EXT_texture_webp": {
          "source": 3
        }
      }
    },
    {
      "sampler": 0,
      "extensions": {
        "EXT_texture_webp": {
          "source": 5
        }
      }
    },
    {
      "sampler": 0,
      "extensions": {
        "EXT_texture_webp": {
          "source": 7
        }
      }
    },
    {
      "sampler": 0,
      "extensions": {
        "EXT_texture_webp": {
          "source": 6
        }
      }
    },
    {
      "sampler": 0,
      "extensions": {
        "EXT_texture_webp": {
          "source": 8
        }
      }
    }
  ],
  "images": [
    {
      "name": "Forged iron normal",
      "mimeType": "image/webp",
      "uri": "textures/surface-fb516ec6c866d7b9.webp"
    },
    {
      "name": "Forged iron color",
      "mimeType": "image/webp",
      "uri": "textures/surface-25be23cebf724530.webp"
    },
    {
      "name": "Forged iron roughness metalness",
      "mimeType": "image/webp",
      "uri": "textures/surface-6fb9fef78a463bef.webp"
    },
    {
      "name": "Dark leather normal",
      "mimeType": "image/webp",
      "uri": "textures/surface-0bba31db93ee7930.webp"
    },
    {
      "name": "Dark leather color",
      "mimeType": "image/webp",
      "uri": "textures/surface-15c7f5964deff57a.webp"
    },
    {
      "name": "Dark leather roughness metalness",
      "mimeType": "image/webp",
      "uri": "textures/surface-ac0465c35b5aefec.webp"
    },
    {
      "name": "Weathered stone normal",
      "mimeType": "image/webp",
      "uri": "textures/surface-4853a2902092cc7c.webp"
    },
    {
      "name": "Weathered stone color",
      "mimeType": "image/webp",
      "uri": "textures/surface-eb11894954d89b5d.webp"
    },
    {
      "name": "Weathered stone roughness metalness",
      "mimeType": "image/webp",
      "uri": "textures/surface-74120f0f7fbce6d0.webp"
    }
  ],
  "buffers": [
    {
      "uri": "blue_siege.bin",
      "byteLength": 111240
    },
    {
      "byteLength": 202448,
      "extensions": {
        "EXT_meshopt_compression": {
          "fallback": true
        }
      }
    }
  ],
  "materials": [
    {
      "name": "Rift · Forged iron",
      "extras": {
        "riftTextured": true
      },
      "pbrMetallicRoughness": {
        "baseColorTexture": {
          "index": 0
        },
        "metallicRoughnessTexture": {
          "index": 2
        }
      },
      "normalTexture": {
        "index": 1,
        "scale": 0.550000011920929
      }
    },
    {
      "name": "Rift · Dark leather",
      "extras": {
        "riftTextured": true
      },
      "pbrMetallicRoughness": {
        "baseColorTexture": {
          "index": 3
        },
        "metallicRoughnessTexture": {
          "index": 5
        }
      },
      "normalTexture": {
        "index": 4,
        "scale": 0.550000011920929
      }
    },
    {
      "name": "Rift · Weathered stone",
      "extras": {
        "riftTextured": true
      },
      "pbrMetallicRoughness": {
        "baseColorTexture": {
          "index": 6
        },
        "metallicRoughnessTexture": {
          "index": 8
        }
      },
      "normalTexture": {
        "index": 7,
        "scale": 0.550000011920929
      }
    },
    {
      "name": "Material_3.018",
      "extras": {
        "riftBaseColor": [
          0.018500220124016652,
          0.3231432091022285,
          1,
          1
        ]
      },
      "pbrMetallicRoughness": {
        "baseColorFactor": [
          0.01850022003054619,
          0.32314321398735046,
          1,
          1
        ],
        "roughnessFactor": 0.25,
        "metallicFactor": 0.25
      },
      "emissiveFactor": [
        0.01850022003054619,
        0.32314321398735046,
        1
      ],
      "extensions": {
        "KHR_materials_emissive_strength": {
          "emissiveStrength": 1.5
        }
      }
    },
    {
      "name": "Material_7.019",
      "extras": {
        "riftBaseColor": [
          0.038204371589236,
          0.26225065751888765,
          1,
          1
        ]
      },
      "pbrMetallicRoughness": {
        "baseColorFactor": [
          0.0382043719291687,
          0.2622506618499756,
          1,
          1
        ],
        "roughnessFactor": 0.30000001192092896,
        "metallicFactor": 0
      },
      "emissiveFactor": [
        0.0382043719291687,
        0.2622506618499756,
        1
      ],
      "extensions": {
        "KHR_materials_emissive_strength": {
          "emissiveStrength": 1.2000000476837158
        }
      }
    }
  ],
  "meshes": [
    {
      "name": "Mesh_16.016",
      "primitives": [
        {
          "attributes": {
            "TEXCOORD_0": 1,
            "POSITION": 16,
            "NORMAL": 17,
            "COLOR_0": 18
          },
          "mode": 4,
          "material": 0,
          "indices": 0
        },
        {
          "attributes": {
            "TEXCOORD_0": 3,
            "POSITION": 19,
            "NORMAL": 20,
            "COLOR_0": 21
          },
          "mode": 4,
          "material": 1,
          "indices": 2
        },
        {
          "attributes": {
            "TEXCOORD_0": 5,
            "POSITION": 22,
            "NORMAL": 23,
            "COLOR_0": 24
          },
          "mode": 4,
          "material": 2,
          "indices": 4
        },
        {
          "attributes": {
            "POSITION": 25,
            "NORMAL": 26,
            "COLOR_0": 27
          },
          "mode": 4,
          "material": 3,
          "indices": 6
        },
        {
          "attributes": {
            "POSITION": 28,
            "NORMAL": 29,
            "COLOR_0": 30
          },
          "mode": 4,
          "material": 4,
          "indices": 7
        }
      ]
    },
    {
      "name": "Mesh_12.018",
      "primitives": [
        {
          "attributes": {
            "TEXCOORD_0": 9,
            "POSITION": 31,
            "NORMAL": 32,
            "COLOR_0": 33
          },
          "mode": 4,
          "material": 0,
          "indices": 8
        },
        {
          "attributes": {
            "POSITION": 34,
            "NORMAL": 35,
            "COLOR_0": 36
          },
          "mode": 4,
          "material": 3,
          "indices": 10
        }
      ]
    },
    {
      "name": "Mesh_1.018",
      "primitives": [
        {
          "attributes": {
            "TEXCOORD_0": 12,
            "COLOR_0": 13,
            "POSITION": 37,
            "NORMAL": 38
          },
          "mode": 4,
          "material": 0,
          "indices": 11
        }
      ]
    },
    {
      "name": "Mesh_4.018",
      "primitives": [
        {
          "attributes": {
            "TEXCOORD_0": 15,
            "POSITION": 39,
            "NORMAL": 40,
            "COLOR_0": 13
          },
          "mode": 4,
          "material": 0,
          "indices": 14
        }
      ]
    },
    {
      "name": "Mesh_6.018",
      "primitives": [
        {
          "attributes": {
            "TEXCOORD_0": 15,
            "COLOR_0": 13,
            "POSITION": 39,
            "NORMAL": 40
          },
          "mode": 4,
          "material": 0,
          "indices": 14
        }
      ]
    }
  ],
  "nodes": [
    {
      "name": "blue_siege__Mesh_16",
      "extras": {
        "riftTextured": true
      },
      "translation": [
        0,
        1.2175200022757053,
        0.14868959784507751
      ],
      "scale": [
        1.1624801121652126,
        1.1624801121652126,
        1.1624801121652126
      ],
      "mesh": 0
    },
    {
      "name": "blue_siege__Mesh_12",
      "extras": {
        "riftTextured": true
      },
      "translation": [
        0,
        0.0423223078250885,
        0.055999983102083206
      ],
      "scale": [
        0.9776776731014252,
        0.9776776731014252,
        0.9776776731014252
      ],
      "mesh": 1
    },
    {
      "name": "blue_siege__shield",
      "translation": [
        0,
        1.25,
        0.3400000035762787
      ],
      "scale": [
        0.800000011920929,
        0.800000011920929,
        0.800000011920929
      ],
      "children": [
        1
      ]
    },
    {
      "name": "blue_siege__Mesh_1",
      "extras": {
        "riftTextured": true
      },
      "scale": [
        0.3849637508392334,
        0.3849637508392334,
        0.3849637508392334
      ],
      "mesh": 2
    },
    {
      "name": "blue_siege__wheel_-1_-0",
      "translation": [
        -0.5699999928474426,
        0.4000000059604645,
        -0.4000000059604645
      ],
      "children": [
        3
      ]
    },
    {
      "name": "blue_siege__Mesh_4",
      "extras": {
        "riftTextured": true
      },
      "scale": [
        0.3849637508392334,
        0.3849637508392334,
        0.3849637508392334
      ],
      "mesh": 3
    },
    {
      "name": "blue_siege__wheel_-1_0",
      "translation": [
        -0.5699999928474426,
        0.4000000059604645,
        0.4000000059604645
      ],
      "children": [
        5
      ]
    },
    {
      "name": "blue_siege__Mesh_6",
      "extras": {
        "riftTextured": true
      },
      "scale": [
        0.3849637508392334,
        0.3849637508392334,
        0.3849637508392334
      ],
      "mesh": 4
    },
    {
      "name": "blue_siege__wheel_1_-0",
      "translation": [
        0.5699999928474426,
        0.4000000059604645,
        -0.4000000059604645
      ],
      "children": [
        7
      ]
    },
    {
      "name": "blue_siege__Mesh_8",
      "extras": {
        "riftTextured": true
      },
      "scale": [
        0.3849637508392334,
        0.3849637508392334,
        0.3849637508392334
      ],
      "mesh": 4
    },
    {
      "name": "blue_siege__wheel_1_0",
      "translation": [
        0.5699999928474426,
        0.4000000059604645,
        0.4000000059604645
      ],
      "children": [
        9
      ]
    },
    {
      "name": "blue_siege",
      "extras": {
        "asset": "blue_siege",
        "category": "Minions",
        "referencePass": 2,
        "riftAsset": "blue_siege",
        "title": "BLUE SIEGE",
        "authoring": "Blender 4.5 · UV/PBR surfaces · rigid articulated animation"
      },
      "children": [
        0,
        2,
        4,
        6,
        8,
        10
      ]
    }
  ],
  "scenes": [
    {
      "name": "Scene",
      "nodes": [
        11
      ]
    }
  ],
  "scene": 0,
  "extensionsUsed": [
    "EXT_meshopt_compression",
    "EXT_texture_webp",
    "KHR_materials_emissive_strength",
    "KHR_mesh_quantization"
  ],
  "extensionsRequired": [
    "EXT_meshopt_compression",
    "EXT_texture_webp",
    "KHR_mesh_quantization"
  ]
}