{
  "asset": {
    "generator": "glTF-Transform v4.5.0",
    "version": "2.0"
  },
  "accessors": [
    {
      "type": "SCALAR",
      "componentType": 5123,
      "count": 1380,
      "normalized": false,
      "byteOffset": 0,
      "bufferView": 0
    },
    {
      "type": "VEC2",
      "componentType": 5126,
      "count": 409,
      "normalized": false,
      "byteOffset": 0,
      "bufferView": 1
    },
    {
      "type": "VEC4",
      "componentType": 5121,
      "count": 409,
      "normalized": true,
      "byteOffset": 0,
      "bufferView": 2
    },
    {
      "type": "SCALAR",
      "componentType": 5123,
      "count": 372,
      "normalized": false,
      "byteOffset": 2760,
      "bufferView": 0
    },
    {
      "type": "VEC2",
      "componentType": 5126,
      "count": 336,
      "normalized": false,
      "byteOffset": 0,
      "bufferView": 3
    },
    {
      "type": "VEC4",
      "componentType": 5121,
      "count": 336,
      "normalized": true,
      "byteOffset": 0,
      "bufferView": 4
    },
    {
      "type": "SCALAR",
      "componentType": 5123,
      "count": 24,
      "normalized": false,
      "byteOffset": 3504,
      "bufferView": 0
    },
    {
      "type": "SCALAR",
      "componentType": 5123,
      "count": 576,
      "normalized": false,
      "byteOffset": 3552,
      "bufferView": 0
    },
    {
      "type": "SCALAR",
      "componentType": 5123,
      "count": 96,
      "normalized": false,
      "byteOffset": 4704,
      "bufferView": 0
    },
    {
      "type": "VEC2",
      "componentType": 5126,
      "count": 38,
      "normalized": false,
      "byteOffset": 0,
      "bufferView": 5
    },
    {
      "type": "SCALAR",
      "componentType": 5123,
      "count": 1128,
      "normalized": false,
      "byteOffset": 4896,
      "bufferView": 0
    },
    {
      "type": "VEC2",
      "componentType": 5126,
      "count": 698,
      "normalized": false,
      "byteOffset": 0,
      "bufferView": 6
    },
    {
      "type": "SCALAR",
      "componentType": 5123,
      "count": 9528,
      "normalized": false,
      "byteOffset": 7152,
      "bufferView": 0
    },
    {
      "type": "VEC2",
      "componentType": 5126,
      "count": 3430,
      "normalized": false,
      "byteOffset": 0,
      "bufferView": 7
    },
    {
      "type": "SCALAR",
      "componentType": 5123,
      "count": 96,
      "normalized": false,
      "byteOffset": 26208,
      "bufferView": 0
    },
    {
      "type": "VEC3",
      "componentType": 5122,
      "count": 409,
      "max": [
        10159,
        32767,
        7471
      ],
      "min": [
        -10159,
        -32767,
        -7471
      ],
      "normalized": true,
      "byteOffset": 0,
      "bufferView": 8
    },
    {
      "type": "VEC3",
      "componentType": 5122,
      "count": 409,
      "normalized": true,
      "byteOffset": 0,
      "bufferView": 9
    },
    {
      "type": "VEC3",
      "componentType": 5122,
      "count": 336,
      "max": [
        16692,
        32767,
        4284
      ],
      "min": [
        -16692,
        -32767,
        -4284
      ],
      "normalized": true,
      "byteOffset": 0,
      "bufferView": 10
    },
    {
      "type": "VEC3",
      "componentType": 5122,
      "count": 336,
      "normalized": true,
      "byteOffset": 0,
      "bufferView": 11
    },
    {
      "type": "VEC3",
      "componentType": 5122,
      "count": 24,
      "max": [
        32767,
        32767,
        32767
      ],
      "min": [
        -32767,
        -32767,
        -32767
      ],
      "normalized": true,
      "byteOffset": 0,
      "bufferView": 12
    },
    {
      "type": "VEC3",
      "componentType": 5122,
      "count": 24,
      "normalized": true,
      "byteOffset": 0,
      "bufferView": 13
    },
    {
      "type": "VEC3",
      "componentType": 5121,
      "count": 24,
      "normalized": true,
      "byteOffset": 0,
      "bufferView": 14
    },
    {
      "type": "VEC3",
      "componentType": 5122,
      "count": 536,
      "max": [
        12640,
        7801,
        12640
      ],
      "min": [
        -12640,
        -20920,
        -12640
      ],
      "normalized": true,
      "byteOffset": 0,
      "bufferView": 15
    },
    {
      "type": "VEC3",
      "componentType": 5122,
      "count": 536,
      "normalized": true,
      "byteOffset": 0,
      "bufferView": 16
    },
    {
      "type": "VEC3",
      "componentType": 5121,
      "count": 536,
      "normalized": true,
      "byteOffset": 0,
      "bufferView": 17
    },
    {
      "type": "VEC3",
      "componentType": 5122,
      "count": 38,
      "max": [
        12494,
        24459,
        12494
      ],
      "min": [
        -12494,
        -22930,
        -12494
      ],
      "normalized": true,
      "byteOffset": 0,
      "bufferView": 18
    },
    {
      "type": "VEC3",
      "componentType": 5122,
      "count": 38,
      "normalized": true,
      "byteOffset": 0,
      "bufferView": 19
    },
    {
      "type": "VEC3",
      "componentType": 5121,
      "count": 38,
      "normalized": true,
      "byteOffset": 0,
      "bufferView": 20
    },
    {
      "type": "VEC3",
      "componentType": 5122,
      "count": 698,
      "max": [
        22833,
        -22571,
        22833
      ],
      "min": [
        -22833,
        -32767,
        -22833
      ],
      "normalized": true,
      "byteOffset": 0,
      "bufferView": 21
    },
    {
      "type": "VEC3",
      "componentType": 5122,
      "count": 698,
      "normalized": true,
      "byteOffset": 0,
      "bufferView": 22
    },
    {
      "type": "VEC3",
      "componentType": 5121,
      "count": 698,
      "normalized": true,
      "byteOffset": 0,
      "bufferView": 23
    },
    {
      "type": "VEC3",
      "componentType": 5122,
      "count": 3430,
      "max": [
        21900,
        32767,
        21900
      ],
      "min": [
        -21900,
        -24510,
        -21900
      ],
      "normalized": true,
      "byteOffset": 0,
      "bufferView": 24
    },
    {
      "type": "VEC3",
      "componentType": 5122,
      "count": 3430,
      "normalized": true,
      "byteOffset": 0,
      "bufferView": 25
    },
    {
      "type": "VEC3",
      "componentType": 5121,
      "count": 3430,
      "normalized": true,
      "byteOffset": 0,
      "bufferView": 26
    },
    {
      "type": "VEC3",
      "componentType": 5122,
      "count": 96,
      "max": [
        12456,
        10099,
        12456
      ],
      "min": [
        -12456,
        -7134,
        -12456
      ],
      "normalized": true,
      "byteOffset": 0,
      "bufferView": 27
    },
    {
      "type": "VEC3",
      "componentType": 5122,
      "count": 96,
      "normalized": true,
      "byteOffset": 0,
      "bufferView": 28
    },
    {
      "type": "VEC3",
      "componentType": 5121,
      "count": 96,
      "normalized": true,
      "byteOffset": 0,
      "bufferView": 29
    }
  ],
  "bufferViews": [
    {
      "buffer": 1,
      "byteOffset": 0,
      "byteLength": 26400,
      "target": 34963,
      "extensions": {
        "EXT_meshopt_compression": {
          "buffer": 0,
          "byteOffset": 0,
          "byteLength": 4690,
          "mode": "TRIANGLES",
          "byteStride": 2,
          "count": 13200
        }
      }
    },
    {
      "buffer": 1,
      "byteOffset": 26400,
      "byteLength": 3272,
      "target": 34962,
      "byteStride": 8,
      "extensions": {
        "EXT_meshopt_compression": {
          "buffer": 0,
          "byteOffset": 4692,
          "byteLength": 2765,
          "mode": "ATTRIBUTES",
          "byteStride": 8,
          "count": 409
        }
      }
    },
    {
      "buffer": 1,
      "byteOffset": 29672,
      "byteLength": 1636,
      "target": 34962,
      "byteStride": 4,
      "extensions": {
        "EXT_meshopt_compression": {
          "buffer": 0,
          "byteOffset": 7460,
          "byteLength": 61,
          "mode": "ATTRIBUTES",
          "byteStride": 4,
          "count": 409
        }
      }
    },
    {
      "buffer": 1,
      "byteOffset": 31308,
      "byteLength": 2688,
      "target": 34962,
      "byteStride": 8,
      "extensions": {
        "EXT_meshopt_compression": {
          "buffer": 0,
          "byteOffset": 7524,
          "byteLength": 2166,
          "mode": "ATTRIBUTES",
          "byteStride": 8,
          "count": 336
        }
      }
    },
    {
      "buffer": 1,
      "byteOffset": 33996,
      "byteLength": 1344,
      "target": 34962,
      "byteStride": 4,
      "extensions": {
        "EXT_meshopt_compression": {
          "buffer": 0,
          "byteOffset": 9692,
          "byteLength": 57,
          "mode": "ATTRIBUTES",
          "byteStride": 4,
          "count": 336
        }
      }
    },
    {
      "buffer": 1,
      "byteOffset": 35340,
      "byteLength": 304,
      "target": 34962,
      "byteStride": 8,
      "extensions": {
        "EXT_meshopt_compression": {
          "buffer": 0,
          "byteOffset": 9752,
          "byteLength": 355,
          "mode": "ATTRIBUTES",
          "byteStride": 8,
          "count": 38
        }
      }
    },
    {
      "buffer": 1,
      "byteOffset": 35644,
      "byteLength": 5584,
      "target": 34962,
      "byteStride": 8,
      "extensions": {
        "EXT_meshopt_compression": {
          "buffer": 0,
          "byteOffset": 10108,
          "byteLength": 4704,
          "mode": "ATTRIBUTES",
          "byteStride": 8,
          "count": 698
        }
      }
    },
    {
      "buffer": 1,
      "byteOffset": 41228,
      "byteLength": 27440,
      "target": 34962,
      "byteStride": 8,
      "extensions": {
        "EXT_meshopt_compression": {
          "buffer": 0,
          "byteOffset": 14812,
          "byteLength": 22589,
          "mode": "ATTRIBUTES",
          "byteStride": 8,
          "count": 3430
        }
      }
    },
    {
      "buffer": 1,
      "byteOffset": 68668,
      "byteLength": 3272,
      "target": 34962,
      "byteStride": 8,
      "extensions": {
        "EXT_meshopt_compression": {
          "buffer": 0,
          "byteOffset": 37404,
          "byteLength": 2256,
          "mode": "ATTRIBUTES",
          "byteStride": 8,
          "count": 409
        }
      }
    },
    {
      "buffer": 1,
      "byteOffset": 71940,
      "byteLength": 3272,
      "target": 34962,
      "byteStride": 8,
      "extensions": {
        "EXT_meshopt_compression": {
          "buffer": 0,
          "byteOffset": 39660,
          "byteLength": 2480,
          "mode": "ATTRIBUTES",
          "byteStride": 8,
          "count": 409
        }
      }
    },
    {
      "buffer": 1,
      "byteOffset": 75212,
      "byteLength": 2688,
      "target": 34962,
      "byteStride": 8,
      "extensions": {
        "EXT_meshopt_compression": {
          "buffer": 0,
          "byteOffset": 42140,
          "byteLength": 1839,
          "mode": "ATTRIBUTES",
          "byteStride": 8,
          "count": 336
        }
      }
    },
    {
      "buffer": 1,
      "byteOffset": 77900,
      "byteLength": 2688,
      "target": 34962,
      "byteStride": 8,
      "extensions": {
        "EXT_meshopt_compression": {
          "buffer": 0,
          "byteOffset": 43980,
          "byteLength": 1144,
          "mode": "ATTRIBUTES",
          "byteStride": 8,
          "count": 336
        }
      }
    },
    {
      "buffer": 1,
      "byteOffset": 80588,
      "byteLength": 192,
      "target": 34962,
      "byteStride": 8,
      "extensions": {
        "EXT_meshopt_compression": {
          "buffer": 0,
          "byteOffset": 45124,
          "byteLength": 135,
          "mode": "ATTRIBUTES",
          "byteStride": 8,
          "count": 24
        }
      }
    },
    {
      "buffer": 1,
      "byteOffset": 80780,
      "byteLength": 192,
      "target": 34962,
      "byteStride": 8,
      "extensions": {
        "EXT_meshopt_compression": {
          "buffer": 0,
          "byteOffset": 45260,
          "byteLength": 95,
          "mode": "ATTRIBUTES",
          "byteStride": 8,
          "count": 24
        }
      }
    },
    {
      "buffer": 1,
      "byteOffset": 80972,
      "byteLength": 96,
      "target": 34962,
      "byteStride": 4,
      "extensions": {
        "EXT_meshopt_compression": {
          "buffer": 0,
          "byteOffset": 45356,
          "byteLength": 37,
          "mode": "ATTRIBUTES",
          "byteStride": 4,
          "count": 24
        }
      }
    },
    {
      "buffer": 1,
      "byteOffset": 81068,
      "byteLength": 4288,
      "target": 34962,
      "byteStride": 8,
      "extensions": {
        "EXT_meshopt_compression": {
          "buffer": 0,
          "byteOffset": 45396,
          "byteLength": 2436,
          "mode": "ATTRIBUTES",
          "byteStride": 8,
          "count": 536
        }
      }
    },
    {
      "buffer": 1,
      "byteOffset": 85356,
      "byteLength": 4288,
      "target": 34962,
      "byteStride": 8,
      "extensions": {
        "EXT_meshopt_compression": {
          "buffer": 0,
          "byteOffset": 47832,
          "byteLength": 1487,
          "mode": "ATTRIBUTES",
          "byteStride": 8,
          "count": 536
        }
      }
    },
    {
      "buffer": 1,
      "byteOffset": 89644,
      "byteLength": 2144,
      "target": 34962,
      "byteStride": 4,
      "extensions": {
        "EXT_meshopt_compression": {
          "buffer": 0,
          "byteOffset": 49320,
          "byteLength": 69,
          "mode": "ATTRIBUTES",
          "byteStride": 4,
          "count": 536
        }
      }
    },
    {
      "buffer": 1,
      "byteOffset": 91788,
      "byteLength": 304,
      "target": 34962,
      "byteStride": 8,
      "extensions": {
        "EXT_meshopt_compression": {
          "buffer": 0,
          "byteOffset": 49392,
          "byteLength": 261,
          "mode": "ATTRIBUTES",
          "byteStride": 8,
          "count": 38
        }
      }
    },
    {
      "buffer": 1,
      "byteOffset": 92092,
      "byteLength": 304,
      "target": 34962,
      "byteStride": 8,
      "extensions": {
        "EXT_meshopt_compression": {
          "buffer": 0,
          "byteOffset": 49656,
          "byteLength": 138,
          "mode": "ATTRIBUTES",
          "byteStride": 8,
          "count": 38
        }
      }
    },
    {
      "buffer": 1,
      "byteOffset": 92396,
      "byteLength": 152,
      "target": 34962,
      "byteStride": 4,
      "extensions": {
        "EXT_meshopt_compression": {
          "buffer": 0,
          "byteOffset": 49796,
          "byteLength": 37,
          "mode": "ATTRIBUTES",
          "byteStride": 4,
          "count": 38
        }
      }
    },
    {
      "buffer": 1,
      "byteOffset": 92548,
      "byteLength": 5584,
      "target": 34962,
      "byteStride": 8,
      "extensions": {
        "EXT_meshopt_compression": {
          "buffer": 0,
          "byteOffset": 49836,
          "byteLength": 3841,
          "mode": "ATTRIBUTES",
          "byteStride": 8,
          "count": 698
        }
      }
    },
    {
      "buffer": 1,
      "byteOffset": 98132,
      "byteLength": 5584,
      "target": 34962,
      "byteStride": 8,
      "extensions": {
        "EXT_meshopt_compression": {
          "buffer": 0,
          "byteOffset": 53680,
          "byteLength": 2370,
          "mode": "ATTRIBUTES",
          "byteStride": 8,
          "count": 698
        }
      }
    },
    {
      "buffer": 1,
      "byteOffset": 103716,
      "byteLength": 2792,
      "target": 34962,
      "byteStride": 4,
      "extensions": {
        "EXT_meshopt_compression": {
          "buffer": 0,
          "byteOffset": 56052,
          "byteLength": 1012,
          "mode": "ATTRIBUTES",
          "byteStride": 4,
          "count": 698
        }
      }
    },
    {
      "buffer": 1,
      "byteOffset": 106508,
      "byteLength": 27440,
      "target": 34962,
      "byteStride": 8,
      "extensions": {
        "EXT_meshopt_compression": {
          "buffer": 0,
          "byteOffset": 57064,
          "byteLength": 16946,
          "mode": "ATTRIBUTES",
          "byteStride": 8,
          "count": 3430
        }
      }
    },
    {
      "buffer": 1,
      "byteOffset": 133948,
      "byteLength": 27440,
      "target": 34962,
      "byteStride": 8,
      "extensions": {
        "EXT_meshopt_compression": {
          "buffer": 0,
          "byteOffset": 74012,
          "byteLength": 19388,
          "mode": "ATTRIBUTES",
          "byteStride": 8,
          "count": 3430
        }
      }
    },
    {
      "buffer": 1,
      "byteOffset": 161388,
      "byteLength": 13720,
      "target": 34962,
      "byteStride": 4,
      "extensions": {
        "EXT_meshopt_compression": {
          "buffer": 0,
          "byteOffset": 93400,
          "byteLength": 5238,
          "mode": "ATTRIBUTES",
          "byteStride": 4,
          "count": 3430
        }
      }
    },
    {
      "buffer": 1,
      "byteOffset": 175108,
      "byteLength": 768,
      "target": 34962,
      "byteStride": 8,
      "extensions": {
        "EXT_meshopt_compression": {
          "buffer": 0,
          "byteOffset": 98640,
          "byteLength": 501,
          "mode": "ATTRIBUTES",
          "byteStride": 8,
          "count": 96
        }
      }
    },
    {
      "buffer": 1,
      "byteOffset": 175876,
      "byteLength": 768,
      "target": 34962,
      "byteStride": 8,
      "extensions": {
        "EXT_meshopt_compression": {
          "buffer": 0,
          "byteOffset": 99144,
          "byteLength": 255,
          "mode": "ATTRIBUTES",
          "byteStride": 8,
          "count": 96
        }
      }
    },
    {
      "buffer": 1,
      "byteOffset": 176644,
      "byteLength": 384,
      "target": 34962,
      "byteStride": 4,
      "extensions": {
        "EXT_meshopt_compression": {
          "buffer": 0,
          "byteOffset": 99400,
          "byteLength": 41,
          "mode": "ATTRIBUTES",
          "byteStride": 4,
          "count": 96
        }
      }
    }
  ],
  "samplers": [
    {
      "magFilter": 9729,
      "minFilter": 9987,
      "wrapS": 10497,
      "wrapT": 10497
    }
  ],
  "textures": [
    {
      "sampler": 0,
      "extensions": {
        "EXT_texture_webp": {
          "source": 1
        }
      }
    },
    {
      "sampler": 0,
      "extensions": {
        "EXT_texture_webp": {
          "source": 0
        }
      }
    },
    {
      "sampler": 0,
      "extensions": {
        "EXT_texture_webp": {
          "source": 2
        }
      }
    },
    {
      "sampler": 0,
      "extensions": {
        "EXT_texture_webp": {
          "source": 4
        }
      }
    },
    {
      "sampler": 0,
      "extensions": {
        "EXT_texture_webp": {
          "source": 3
        }
      }
    },
    {
      "sampler": 0,
      "extensions": {
        "EXT_texture_webp": {
          "source": 5
        }
      }
    },
    {
      "sampler": 0,
      "extensions": {
        "EXT_texture_webp": {
          "source": 7
        }
      }
    },
    {
      "sampler": 0,
      "extensions": {
        "EXT_texture_webp": {
          "source": 6
        }
      }
    },
    {
      "sampler": 0,
      "extensions": {
        "EXT_texture_webp": {
          "source": 8
        }
      }
    },
    {
      "sampler": 0,
      "extensions": {
        "EXT_texture_webp": {
          "source": 10
        }
      }
    },
    {
      "sampler": 0,
      "extensions": {
        "EXT_texture_webp": {
          "source": 9
        }
      }
    },
    {
      "sampler": 0,
      "extensions": {
        "EXT_texture_webp": {
          "source": 11
        }
      }
    }
  ],
  "images": [
    {
      "name": "Woven cloth normal",
      "mimeType": "image/webp",
      "uri": "textures/surface-15c84119ca507c8c.webp"
    },
    {
      "name": "Woven cloth color",
      "mimeType": "image/webp",
      "uri": "textures/surface-4c574f63fd10e874.webp"
    },
    {
      "name": "Woven cloth roughness metalness",
      "mimeType": "image/webp",
      "uri": "textures/surface-a12b74f6e814638e.webp"
    },
    {
      "name": "Forged iron normal",
      "mimeType": "image/webp",
      "uri": "textures/surface-fb516ec6c866d7b9.webp"
    },
    {
      "name": "Forged iron color",
      "mimeType": "image/webp",
      "uri": "textures/surface-25be23cebf724530.webp"
    },
    {
      "name": "Forged iron roughness metalness",
      "mimeType": "image/webp",
      "uri": "textures/surface-6fb9fef78a463bef.webp"
    },
    {
      "name": "Dark leather normal",
      "mimeType": "image/webp",
      "uri": "textures/surface-0bba31db93ee7930.webp"
    },
    {
      "name": "Dark leather color",
      "mimeType": "image/webp",
      "uri": "textures/surface-15c7f5964deff57a.webp"
    },
    {
      "name": "Dark leather roughness metalness",
      "mimeType": "image/webp",
      "uri": "textures/surface-ac0465c35b5aefec.webp"
    },
    {
      "name": "Weathered stone normal",
      "mimeType": "image/webp",
      "uri": "textures/surface-4853a2902092cc7c.webp"
    },
    {
      "name": "Weathered stone color",
      "mimeType": "image/webp",
      "uri": "textures/surface-eb11894954d89b5d.webp"
    },
    {
      "name": "Weathered stone roughness metalness",
      "mimeType": "image/webp",
      "uri": "textures/surface-74120f0f7fbce6d0.webp"
    }
  ],
  "buffers": [
    {
      "uri": "blue_defense_tower.bin",
      "byteLength": 99444
    },
    {
      "byteLength": 177028,
      "extensions": {
        "EXT_meshopt_compression": {
          "fallback": true
        }
      }
    }
  ],
  "materials": [
    {
      "name": "Rift · Woven cloth",
      "extras": {
        "riftTextured": true
      },
      "doubleSided": true,
      "pbrMetallicRoughness": {
        "baseColorTexture": {
          "index": 0
        },
        "metallicRoughnessTexture": {
          "index": 2
        }
      },
      "normalTexture": {
        "index": 1,
        "scale": 0.550000011920929
      }
    },
    {
      "name": "Rift · Forged iron",
      "extras": {
        "riftTextured": true
      },
      "pbrMetallicRoughness": {
        "baseColorTexture": {
          "index": 3
        },
        "metallicRoughnessTexture": {
          "index": 5
        }
      },
      "normalTexture": {
        "index": 4,
        "scale": 0.550000011920929
      }
    },
    {
      "name": "Material_1.024",
      "extras": {
        "riftBaseColor": [
          0.018500220124016652,
          0.3231432091022285,
          1,
          1
        ]
      },
      "pbrMetallicRoughness": {
        "baseColorFactor": [
          0.01850022003054619,
          0.32314321398735046,
          1,
          1
        ],
        "roughnessFactor": 0.25,
        "metallicFactor": 0.25
      },
      "emissiveFactor": [
        0.01850022003054619,
        0.32314321398735046,
        1
      ],
      "extensions": {
        "KHR_materials_emissive_strength": {
          "emissiveStrength": 1.5
        }
      }
    },
    {
      "name": "Material_8.013",
      "extras": {
        "riftBaseColor": [
          0.038204371589236,
          0.26225065751888765,
          1,
          1
        ]
      },
      "pbrMetallicRoughness": {
        "baseColorFactor": [
          0.0382043719291687,
          0.2622506618499756,
          1,
          1
        ],
        "roughnessFactor": 0.30000001192092896,
        "metallicFactor": 0
      },
      "emissiveFactor": [
        0.0382043719291687,
        0.2622506618499756,
        1
      ],
      "extensions": {
        "KHR_materials_emissive_strength": {
          "emissiveStrength": 1.2000000476837158
        }
      }
    },
    {
      "name": "Rift · Dark leather",
      "extras": {
        "riftTextured": true
      },
      "pbrMetallicRoughness": {
        "baseColorTexture": {
          "index": 6
        },
        "metallicRoughnessTexture": {
          "index": 8
        }
      },
      "normalTexture": {
        "index": 7,
        "scale": 0.550000011920929
      }
    },
    {
      "name": "Rift · Weathered stone",
      "extras": {
        "riftTextured": true
      },
      "pbrMetallicRoughness": {
        "baseColorTexture": {
          "index": 9
        },
        "metallicRoughnessTexture": {
          "index": 11
        }
      },
      "normalTexture": {
        "index": 10,
        "scale": 0.550000011920929
      }
    }
  ],
  "meshes": [
    {
      "name": "Mesh_2.024",
      "primitives": [
        {
          "attributes": {
            "TEXCOORD_0": 1,
            "COLOR_0": 2,
            "POSITION": 15,
            "NORMAL": 16
          },
          "mode": 4,
          "material": 0,
          "indices": 0
        }
      ]
    },
    {
      "name": "Mesh_3.024",
      "primitives": [
        {
          "attributes": {
            "TEXCOORD_0": 4,
            "COLOR_0": 5,
            "POSITION": 17,
            "NORMAL": 18
          },
          "mode": 4,
          "material": 1,
          "indices": 3
        }
      ]
    },
    {
      "name": "Mesh_1.024",
      "primitives": [
        {
          "attributes": {
            "POSITION": 19,
            "NORMAL": 20,
            "COLOR_0": 21
          },
          "mode": 4,
          "material": 2,
          "indices": 6
        }
      ]
    },
    {
      "name": "Mesh_15.020",
      "primitives": [
        {
          "attributes": {
            "POSITION": 22,
            "NORMAL": 23,
            "COLOR_0": 24
          },
          "mode": 4,
          "material": 3,
          "indices": 7
        },
        {
          "attributes": {
            "TEXCOORD_0": 9,
            "POSITION": 25,
            "NORMAL": 26,
            "COLOR_0": 27
          },
          "mode": 4,
          "material": 4,
          "indices": 8
        },
        {
          "attributes": {
            "TEXCOORD_0": 11,
            "POSITION": 28,
            "NORMAL": 29,
            "COLOR_0": 30
          },
          "mode": 4,
          "material": 5,
          "indices": 10
        },
        {
          "attributes": {
            "TEXCOORD_0": 13,
            "POSITION": 31,
            "NORMAL": 32,
            "COLOR_0": 33
          },
          "mode": 4,
          "material": 1,
          "indices": 12
        },
        {
          "attributes": {
            "POSITION": 34,
            "NORMAL": 35,
            "COLOR_0": 36
          },
          "mode": 4,
          "material": 2,
          "indices": 14
        }
      ]
    }
  ],
  "nodes": [
    {
      "name": "blue_defense_tower__Mesh_2",
      "extras": {
        "riftTextured": true
      },
      "translation": [
        0,
        -1.1288797341314876,
        -0.2617987890262157
      ],
      "scale": [
        1.128886989501325,
        1.128886989501325,
        1.128886989501325
      ],
      "mesh": 0
    },
    {
      "name": "blue_defense_tower__cloth_0",
      "children": [
        0
      ]
    },
    {
      "name": "blue_defense_tower__Mesh_3",
      "extras": {
        "riftTextured": true
      },
      "translation": [
        0,
        -0.7300002574920654,
        0.06600000616163015
      ],
      "scale": [
        0.27535533905029297,
        0.27535533905029297,
        0.27535533905029297
      ],
      "mesh": 1
    },
    {
      "name": "blue_defense_tower__banner_0",
      "translation": [
        0,
        3.799999713897705,
        0.7899999618530273
      ],
      "children": [
        1,
        2
      ]
    },
    {
      "name": "blue_defense_tower__Mesh_4",
      "extras": {
        "riftTextured": true
      },
      "translation": [
        0,
        -1.1288797341314876,
        -0.2617987890262157
      ],
      "scale": [
        1.128886989501325,
        1.128886989501325,
        1.128886989501325
      ],
      "mesh": 0
    },
    {
      "name": "blue_defense_tower__cloth_1",
      "children": [
        4
      ]
    },
    {
      "name": "blue_defense_tower__Mesh_5",
      "extras": {
        "riftTextured": true
      },
      "translation": [
        0,
        -0.7300000190734863,
        0.06600000616163015
      ],
      "scale": [
        0.27535533905029297,
        0.27535533905029297,
        0.27535533905029297
      ],
      "mesh": 1
    },
    {
      "name": "blue_defense_tower__banner_1",
      "translation": [
        0.7899999618530273,
        3.799999713897705,
        0
      ],
      "rotation": [
        0,
        0.7071068286895752,
        0,
        0.7071067094802856
      ],
      "children": [
        5,
        6
      ]
    },
    {
      "name": "blue_defense_tower__Mesh_6",
      "extras": {
        "riftTextured": true
      },
      "translation": [
        0,
        -1.1288797341314876,
        -0.2617987890262157
      ],
      "scale": [
        1.128886989501325,
        1.128886989501325,
        1.128886989501325
      ],
      "mesh": 0
    },
    {
      "name": "blue_defense_tower__cloth_2",
      "children": [
        8
      ]
    },
    {
      "name": "blue_defense_tower__Mesh_7",
      "extras": {
        "riftTextured": true
      },
      "translation": [
        0,
        -0.7300002574920654,
        0.06600000616163015
      ],
      "scale": [
        0.27535533905029297,
        0.27535533905029297,
        0.27535533905029297
      ],
      "mesh": 1
    },
    {
      "name": "blue_defense_tower__banner_2",
      "translation": [
        0,
        3.799999713897705,
        -0.7899999618530273
      ],
      "rotation": [
        0,
        1,
        0,
        6.123234262925839e-17
      ],
      "children": [
        9,
        10
      ]
    },
    {
      "name": "blue_defense_tower__Mesh_8",
      "extras": {
        "riftTextured": true
      },
      "translation": [
        0,
        -1.1288797341314876,
        -0.2617987890262157
      ],
      "scale": [
        1.128886989501325,
        1.128886989501325,
        1.128886989501325
      ],
      "mesh": 0
    },
    {
      "name": "blue_defense_tower__cloth_3",
      "children": [
        12
      ]
    },
    {
      "name": "blue_defense_tower__Mesh_9",
      "extras": {
        "riftTextured": true
      },
      "translation": [
        0,
        -0.7300000190734863,
        0.06600000616163015
      ],
      "scale": [
        0.27535533905029297,
        0.27535533905029297,
        0.27535533905029297
      ],
      "mesh": 1
    },
    {
      "name": "blue_defense_tower__banner_3",
      "translation": [
        -0.7899999618530273,
        3.799999713897705,
        0
      ],
      "rotation": [
        0,
        -0.7071068286895752,
        0,
        0.7071067094802856
      ],
      "children": [
        13,
        14
      ]
    },
    {
      "name": "blue_defense_tower__crystal",
      "extras": {
        "riftTextured": true
      },
      "translation": [
        0,
        4.699999809265137,
        0
      ],
      "scale": [
        0.4699999690055847,
        0.9399999976158142,
        0.4699999690055847
      ],
      "mesh": 2
    },
    {
      "name": "blue_defense_tower__Mesh_15",
      "extras": {
        "riftTextured": true
      },
      "translation": [
        0,
        2.2967661092989147,
        0
      ],
      "scale": [
        2.281766109634191,
        2.281766109634191,
        2.281766109634191
      ],
      "mesh": 3
    },
    {
      "name": "blue_defense_tower",
      "extras": {
        "asset": "blue_defense_tower",
        "category": "Structures",
        "referencePass": 2,
        "riftAsset": "blue_defense_tower",
        "title": "BLUE DEFENSE_TOWER",
        "authoring": "Blender 4.5 · UV/PBR surfaces · rigid articulated animation"
      },
      "scale": [
        1.2000000476837158,
        1.1200000047683716,
        1.2000000476837158
      ],
      "children": [
        3,
        7,
        11,
        15,
        16,
        17
      ]
    }
  ],
  "scenes": [
    {
      "name": "Scene",
      "nodes": [
        18
      ]
    }
  ],
  "scene": 0,
  "extensionsUsed": [
    "EXT_meshopt_compression",
    "EXT_texture_webp",
    "KHR_materials_emissive_strength",
    "KHR_mesh_quantization"
  ],
  "extensionsRequired": [
    "EXT_meshopt_compression",
    "EXT_texture_webp",
    "KHR_mesh_quantization"
  ]
}