{
  "asset": {
    "generator": "glTF-Transform v4.5.0",
    "version": "2.0"
  },
  "accessors": [
    {
      "type": "SCALAR",
      "componentType": 5123,
      "count": 13494,
      "normalized": false,
      "byteOffset": 0,
      "bufferView": 0
    },
    {
      "type": "VEC2",
      "componentType": 5126,
      "count": 4102,
      "normalized": false,
      "byteOffset": 0,
      "bufferView": 1
    },
    {
      "type": "SCALAR",
      "componentType": 5123,
      "count": 36,
      "normalized": false,
      "byteOffset": 26988,
      "bufferView": 0
    },
    {
      "type": "VEC2",
      "componentType": 5126,
      "count": 24,
      "normalized": false,
      "byteOffset": 0,
      "bufferView": 2
    },
    {
      "type": "SCALAR",
      "componentType": 5123,
      "count": 96,
      "normalized": false,
      "byteOffset": 27060,
      "bufferView": 0
    },
    {
      "type": "SCALAR",
      "componentType": 5123,
      "count": 300,
      "normalized": false,
      "byteOffset": 27252,
      "bufferView": 0
    },
    {
      "type": "SCALAR",
      "componentType": 5123,
      "count": 1164,
      "normalized": false,
      "byteOffset": 27852,
      "bufferView": 0
    },
    {
      "type": "VEC2",
      "componentType": 5126,
      "count": 432,
      "normalized": false,
      "byteOffset": 0,
      "bufferView": 3
    },
    {
      "type": "VEC4",
      "componentType": 5121,
      "count": 432,
      "normalized": true,
      "byteOffset": 0,
      "bufferView": 4
    },
    {
      "type": "SCALAR",
      "componentType": 5123,
      "count": 1164,
      "normalized": false,
      "byteOffset": 30180,
      "bufferView": 0
    },
    {
      "type": "VEC2",
      "componentType": 5126,
      "count": 432,
      "normalized": false,
      "byteOffset": 0,
      "bufferView": 5
    },
    {
      "type": "VEC3",
      "componentType": 5122,
      "count": 4102,
      "max": [
        25635,
        27785,
        32767
      ],
      "min": [
        -25635,
        -27785,
        -32767
      ],
      "normalized": true,
      "byteOffset": 0,
      "bufferView": 6
    },
    {
      "type": "VEC3",
      "componentType": 5122,
      "count": 4102,
      "normalized": true,
      "byteOffset": 0,
      "bufferView": 7
    },
    {
      "type": "VEC3",
      "componentType": 5121,
      "count": 4102,
      "normalized": true,
      "byteOffset": 0,
      "bufferView": 8
    },
    {
      "type": "VEC3",
      "componentType": 5122,
      "count": 24,
      "max": [
        16956,
        3321,
        20501
      ],
      "min": [
        -16956,
        -19290,
        -27778
      ],
      "normalized": true,
      "byteOffset": 0,
      "bufferView": 9
    },
    {
      "type": "VEC3",
      "componentType": 5122,
      "count": 24,
      "normalized": true,
      "byteOffset": 0,
      "bufferView": 10
    },
    {
      "type": "VEC3",
      "componentType": 5121,
      "count": 24,
      "normalized": true,
      "byteOffset": 0,
      "bufferView": 11
    },
    {
      "type": "VEC3",
      "componentType": 5122,
      "count": 38,
      "max": [
        2220,
        23476,
        32461
      ],
      "min": [
        -2220,
        532,
        -16236
      ],
      "normalized": true,
      "byteOffset": 0,
      "bufferView": 12
    },
    {
      "type": "VEC3",
      "componentType": 5122,
      "count": 38,
      "normalized": true,
      "byteOffset": 0,
      "bufferView": 13
    },
    {
      "type": "VEC3",
      "componentType": 5121,
      "count": 38,
      "normalized": true,
      "byteOffset": 0,
      "bufferView": 14
    },
    {
      "type": "VEC3",
      "componentType": 5122,
      "count": 246,
      "max": [
        17974,
        21127,
        25053
      ],
      "min": [
        -17974,
        4703,
        -16870
      ],
      "normalized": true,
      "byteOffset": 0,
      "bufferView": 15
    },
    {
      "type": "VEC3",
      "componentType": 5122,
      "count": 246,
      "normalized": true,
      "byteOffset": 0,
      "bufferView": 16
    },
    {
      "type": "VEC3",
      "componentType": 5121,
      "count": 246,
      "normalized": true,
      "byteOffset": 0,
      "bufferView": 17
    },
    {
      "type": "VEC3",
      "componentType": 5122,
      "count": 432,
      "max": [
        8493,
        32767,
        32767
      ],
      "min": [
        -8493,
        -32767,
        -32767
      ],
      "normalized": true,
      "byteOffset": 0,
      "bufferView": 18
    },
    {
      "type": "VEC3",
      "componentType": 5122,
      "count": 432,
      "normalized": true,
      "byteOffset": 0,
      "bufferView": 19
    },
    {
      "type": "VEC3",
      "componentType": 5122,
      "count": 432,
      "max": [
        8493,
        32767,
        32767
      ],
      "min": [
        -8493,
        -32767,
        -32767
      ],
      "normalized": true,
      "byteOffset": 0,
      "bufferView": 20
    },
    {
      "type": "VEC3",
      "componentType": 5122,
      "count": 432,
      "normalized": true,
      "byteOffset": 0,
      "bufferView": 21
    }
  ],
  "bufferViews": [
    {
      "buffer": 1,
      "byteOffset": 0,
      "byteLength": 32508,
      "target": 34963,
      "extensions": {
        "EXT_meshopt_compression": {
          "buffer": 0,
          "byteOffset": 0,
          "byteLength": 5571,
          "mode": "TRIANGLES",
          "byteStride": 2,
          "count": 16254
        }
      }
    },
    {
      "buffer": 1,
      "byteOffset": 32508,
      "byteLength": 32816,
      "target": 34962,
      "byteStride": 8,
      "extensions": {
        "EXT_meshopt_compression": {
          "buffer": 0,
          "byteOffset": 5572,
          "byteLength": 23722,
          "mode": "ATTRIBUTES",
          "byteStride": 8,
          "count": 4102
        }
      }
    },
    {
      "buffer": 1,
      "byteOffset": 65324,
      "byteLength": 192,
      "target": 34962,
      "byteStride": 8,
      "extensions": {
        "EXT_meshopt_compression": {
          "buffer": 0,
          "byteOffset": 29296,
          "byteLength": 164,
          "mode": "ATTRIBUTES",
          "byteStride": 8,
          "count": 24
        }
      }
    },
    {
      "buffer": 1,
      "byteOffset": 65516,
      "byteLength": 3456,
      "target": 34962,
      "byteStride": 8,
      "extensions": {
        "EXT_meshopt_compression": {
          "buffer": 0,
          "byteOffset": 29460,
          "byteLength": 3001,
          "mode": "ATTRIBUTES",
          "byteStride": 8,
          "count": 432
        }
      }
    },
    {
      "buffer": 1,
      "byteOffset": 68972,
      "byteLength": 1728,
      "target": 34962,
      "byteStride": 4,
      "extensions": {
        "EXT_meshopt_compression": {
          "buffer": 0,
          "byteOffset": 32464,
          "byteLength": 61,
          "mode": "ATTRIBUTES",
          "byteStride": 4,
          "count": 432
        }
      }
    },
    {
      "buffer": 1,
      "byteOffset": 70700,
      "byteLength": 3456,
      "target": 34962,
      "byteStride": 8,
      "extensions": {
        "EXT_meshopt_compression": {
          "buffer": 0,
          "byteOffset": 32528,
          "byteLength": 2989,
          "mode": "ATTRIBUTES",
          "byteStride": 8,
          "count": 432
        }
      }
    },
    {
      "buffer": 1,
      "byteOffset": 74156,
      "byteLength": 32816,
      "target": 34962,
      "byteStride": 8,
      "extensions": {
        "EXT_meshopt_compression": {
          "buffer": 0,
          "byteOffset": 35520,
          "byteLength": 19327,
          "mode": "ATTRIBUTES",
          "byteStride": 8,
          "count": 4102
        }
      }
    },
    {
      "buffer": 1,
      "byteOffset": 106972,
      "byteLength": 32816,
      "target": 34962,
      "byteStride": 8,
      "extensions": {
        "EXT_meshopt_compression": {
          "buffer": 0,
          "byteOffset": 54848,
          "byteLength": 24319,
          "mode": "ATTRIBUTES",
          "byteStride": 8,
          "count": 4102
        }
      }
    },
    {
      "buffer": 1,
      "byteOffset": 139788,
      "byteLength": 16408,
      "target": 34962,
      "byteStride": 4,
      "extensions": {
        "EXT_meshopt_compression": {
          "buffer": 0,
          "byteOffset": 79168,
          "byteLength": 6288,
          "mode": "ATTRIBUTES",
          "byteStride": 4,
          "count": 4102
        }
      }
    },
    {
      "buffer": 1,
      "byteOffset": 156196,
      "byteLength": 192,
      "target": 34962,
      "byteStride": 8,
      "extensions": {
        "EXT_meshopt_compression": {
          "buffer": 0,
          "byteOffset": 85456,
          "byteLength": 183,
          "mode": "ATTRIBUTES",
          "byteStride": 8,
          "count": 24
        }
      }
    },
    {
      "buffer": 1,
      "byteOffset": 156388,
      "byteLength": 192,
      "target": 34962,
      "byteStride": 8,
      "extensions": {
        "EXT_meshopt_compression": {
          "buffer": 0,
          "byteOffset": 85640,
          "byteLength": 99,
          "mode": "ATTRIBUTES",
          "byteStride": 8,
          "count": 24
        }
      }
    },
    {
      "buffer": 1,
      "byteOffset": 156580,
      "byteLength": 96,
      "target": 34962,
      "byteStride": 4,
      "extensions": {
        "EXT_meshopt_compression": {
          "buffer": 0,
          "byteOffset": 85740,
          "byteLength": 37,
          "mode": "ATTRIBUTES",
          "byteStride": 4,
          "count": 24
        }
      }
    },
    {
      "buffer": 1,
      "byteOffset": 156676,
      "byteLength": 304,
      "target": 34962,
      "byteStride": 8,
      "extensions": {
        "EXT_meshopt_compression": {
          "buffer": 0,
          "byteOffset": 85780,
          "byteLength": 265,
          "mode": "ATTRIBUTES",
          "byteStride": 8,
          "count": 38
        }
      }
    },
    {
      "buffer": 1,
      "byteOffset": 156980,
      "byteLength": 304,
      "target": 34962,
      "byteStride": 8,
      "extensions": {
        "EXT_meshopt_compression": {
          "buffer": 0,
          "byteOffset": 86048,
          "byteLength": 155,
          "mode": "ATTRIBUTES",
          "byteStride": 8,
          "count": 38
        }
      }
    },
    {
      "buffer": 1,
      "byteOffset": 157284,
      "byteLength": 152,
      "target": 34962,
      "byteStride": 4,
      "extensions": {
        "EXT_meshopt_compression": {
          "buffer": 0,
          "byteOffset": 86204,
          "byteLength": 37,
          "mode": "ATTRIBUTES",
          "byteStride": 4,
          "count": 38
        }
      }
    },
    {
      "buffer": 1,
      "byteOffset": 157436,
      "byteLength": 1968,
      "target": 34962,
      "byteStride": 8,
      "extensions": {
        "EXT_meshopt_compression": {
          "buffer": 0,
          "byteOffset": 86244,
          "byteLength": 1335,
          "mode": "ATTRIBUTES",
          "byteStride": 8,
          "count": 246
        }
      }
    },
    {
      "buffer": 1,
      "byteOffset": 159404,
      "byteLength": 1968,
      "target": 34962,
      "byteStride": 8,
      "extensions": {
        "EXT_meshopt_compression": {
          "buffer": 0,
          "byteOffset": 87580,
          "byteLength": 997,
          "mode": "ATTRIBUTES",
          "byteStride": 8,
          "count": 246
        }
      }
    },
    {
      "buffer": 1,
      "byteOffset": 161372,
      "byteLength": 984,
      "target": 34962,
      "byteStride": 4,
      "extensions": {
        "EXT_meshopt_compression": {
          "buffer": 0,
          "byteOffset": 88580,
          "byteLength": 49,
          "mode": "ATTRIBUTES",
          "byteStride": 4,
          "count": 246
        }
      }
    },
    {
      "buffer": 1,
      "byteOffset": 162356,
      "byteLength": 3456,
      "target": 34962,
      "byteStride": 8,
      "extensions": {
        "EXT_meshopt_compression": {
          "buffer": 0,
          "byteOffset": 88632,
          "byteLength": 2436,
          "mode": "ATTRIBUTES",
          "byteStride": 8,
          "count": 432
        }
      }
    },
    {
      "buffer": 1,
      "byteOffset": 165812,
      "byteLength": 3456,
      "target": 34962,
      "byteStride": 8,
      "extensions": {
        "EXT_meshopt_compression": {
          "buffer": 0,
          "byteOffset": 91068,
          "byteLength": 2430,
          "mode": "ATTRIBUTES",
          "byteStride": 8,
          "count": 432
        }
      }
    },
    {
      "buffer": 1,
      "byteOffset": 169268,
      "byteLength": 3456,
      "target": 34962,
      "byteStride": 8,
      "extensions": {
        "EXT_meshopt_compression": {
          "buffer": 0,
          "byteOffset": 93500,
          "byteLength": 2438,
          "mode": "ATTRIBUTES",
          "byteStride": 8,
          "count": 432
        }
      }
    },
    {
      "buffer": 1,
      "byteOffset": 172724,
      "byteLength": 3456,
      "target": 34962,
      "byteStride": 8,
      "extensions": {
        "EXT_meshopt_compression": {
          "buffer": 0,
          "byteOffset": 95940,
          "byteLength": 2436,
          "mode": "ATTRIBUTES",
          "byteStride": 8,
          "count": 432
        }
      }
    }
  ],
  "samplers": [
    {
      "magFilter": 9729,
      "minFilter": 9987,
      "wrapS": 10497,
      "wrapT": 10497
    }
  ],
  "textures": [
    {
      "sampler": 0,
      "extensions": {
        "EXT_texture_webp": {
          "source": 1
        }
      }
    },
    {
      "sampler": 0,
      "extensions": {
        "EXT_texture_webp": {
          "source": 0
        }
      }
    },
    {
      "sampler": 0,
      "extensions": {
        "EXT_texture_webp": {
          "source": 2
        }
      }
    },
    {
      "sampler": 0,
      "extensions": {
        "EXT_texture_webp": {
          "source": 4
        }
      }
    },
    {
      "sampler": 0,
      "extensions": {
        "EXT_texture_webp": {
          "source": 3
        }
      }
    },
    {
      "sampler": 0,
      "extensions": {
        "EXT_texture_webp": {
          "source": 5
        }
      }
    }
  ],
  "images": [
    {
      "name": "Forged iron normal",
      "mimeType": "image/webp",
      "uri": "textures/surface-fb516ec6c866d7b9.webp"
    },
    {
      "name": "Forged iron color",
      "mimeType": "image/webp",
      "uri": "textures/surface-25be23cebf724530.webp"
    },
    {
      "name": "Forged iron roughness metalness",
      "mimeType": "image/webp",
      "uri": "textures/surface-6fb9fef78a463bef.webp"
    },
    {
      "name": "Dark leather normal",
      "mimeType": "image/webp",
      "uri": "textures/surface-0bba31db93ee7930.webp"
    },
    {
      "name": "Dark leather color",
      "mimeType": "image/webp",
      "uri": "textures/surface-15c7f5964deff57a.webp"
    },
    {
      "name": "Dark leather roughness metalness",
      "mimeType": "image/webp",
      "uri": "textures/surface-ac0465c35b5aefec.webp"
    }
  ],
  "buffers": [
    {
      "uri": "blue_cannon.bin",
      "byteLength": 98376
    },
    {
      "byteLength": 176180,
      "extensions": {
        "EXT_meshopt_compression": {
          "fallback": true
        }
      }
    }
  ],
  "materials": [
    {
      "name": "Rift · Forged iron",
      "extras": {
        "riftTextured": true
      },
      "pbrMetallicRoughness": {
        "baseColorTexture": {
          "index": 0
        },
        "metallicRoughnessTexture": {
          "index": 2
        }
      },
      "normalTexture": {
        "index": 1,
        "scale": 0.550000011920929
      }
    },
    {
      "name": "Rift · Dark leather",
      "extras": {
        "riftTextured": true
      },
      "pbrMetallicRoughness": {
        "baseColorTexture": {
          "index": 3
        },
        "metallicRoughnessTexture": {
          "index": 5
        }
      },
      "normalTexture": {
        "index": 4,
        "scale": 0.550000011920929
      }
    },
    {
      "name": "Material_3.017",
      "extras": {
        "riftBaseColor": [
          0.018500220124016652,
          0.3231432091022285,
          1,
          1
        ]
      },
      "pbrMetallicRoughness": {
        "baseColorFactor": [
          0.01850022003054619,
          0.32314321398735046,
          1,
          1
        ],
        "roughnessFactor": 0.25,
        "metallicFactor": 0.25
      },
      "emissiveFactor": [
        0.01850022003054619,
        0.32314321398735046,
        1
      ],
      "extensions": {
        "KHR_materials_emissive_strength": {
          "emissiveStrength": 1.5
        }
      }
    },
    {
      "name": "Material_5.017",
      "extras": {
        "riftBaseColor": [
          0.038204371589236,
          0.26225065751888765,
          1,
          1
        ]
      },
      "pbrMetallicRoughness": {
        "baseColorFactor": [
          0.0382043719291687,
          0.2622506618499756,
          1,
          1
        ],
        "roughnessFactor": 0.30000001192092896,
        "metallicFactor": 0
      },
      "emissiveFactor": [
        0.0382043719291687,
        0.2622506618499756,
        1
      ],
      "extensions": {
        "KHR_materials_emissive_strength": {
          "emissiveStrength": 1.2000000476837158
        }
      }
    }
  ],
  "meshes": [
    {
      "name": "Mesh_11.017",
      "primitives": [
        {
          "attributes": {
            "TEXCOORD_0": 1,
            "POSITION": 11,
            "NORMAL": 12,
            "COLOR_0": 13
          },
          "mode": 4,
          "material": 0,
          "indices": 0
        },
        {
          "attributes": {
            "TEXCOORD_0": 3,
            "POSITION": 14,
            "NORMAL": 15,
            "COLOR_0": 16
          },
          "mode": 4,
          "material": 1,
          "indices": 2
        },
        {
          "attributes": {
            "POSITION": 17,
            "NORMAL": 18,
            "COLOR_0": 19
          },
          "mode": 4,
          "material": 2,
          "indices": 4
        },
        {
          "attributes": {
            "POSITION": 20,
            "NORMAL": 21,
            "COLOR_0": 22
          },
          "mode": 4,
          "material": 3,
          "indices": 5
        }
      ]
    },
    {
      "name": "Mesh_1.017",
      "primitives": [
        {
          "attributes": {
            "TEXCOORD_0": 7,
            "COLOR_0": 8,
            "POSITION": 23,
            "NORMAL": 24
          },
          "mode": 4,
          "material": 0,
          "indices": 6
        }
      ]
    },
    {
      "name": "Mesh_4.017",
      "primitives": [
        {
          "attributes": {
            "TEXCOORD_0": 10,
            "POSITION": 25,
            "NORMAL": 26,
            "COLOR_0": 8
          },
          "mode": 4,
          "material": 0,
          "indices": 9
        }
      ]
    },
    {
      "name": "Mesh_8.017",
      "primitives": [
        {
          "attributes": {
            "TEXCOORD_0": 10,
            "COLOR_0": 8,
            "POSITION": 25,
            "NORMAL": 26
          },
          "mode": 4,
          "material": 0,
          "indices": 9
        }
      ]
    }
  ],
  "nodes": [
    {
      "name": "blue_cannon__Mesh_11",
      "extras": {
        "riftTextured": true
      },
      "translation": [
        0,
        0.6584415693097889,
        0.12406939672541495
      ],
      "rotation": [
        0.0898785412417991,
        0,
        0,
        0.9959527337299929
      ],
      "scale": [
        0.8116367161273956,
        0.811636717456398,
        0.811636717456398
      ],
      "mesh": 0
    },
    {
      "name": "blue_cannon__Mesh_1",
      "extras": {
        "riftTextured": true
      },
      "scale": [
        0.3849637508392334,
        0.3849637508392334,
        0.3849637508392334
      ],
      "mesh": 1
    },
    {
      "name": "blue_cannon__wheel_-1_-0",
      "translation": [
        -0.5699999928474426,
        0.4000000059604645,
        -0.4000000059604645
      ],
      "children": [
        1
      ]
    },
    {
      "name": "blue_cannon__Mesh_4",
      "extras": {
        "riftTextured": true
      },
      "scale": [
        0.3849637508392334,
        0.3849637508392334,
        0.3849637508392334
      ],
      "mesh": 2
    },
    {
      "name": "blue_cannon__wheel_-1_0",
      "translation": [
        -0.5699999928474426,
        0.4000000059604645,
        0.4000000059604645
      ],
      "children": [
        3
      ]
    },
    {
      "name": "blue_cannon__Mesh_5",
      "extras": {
        "riftTextured": true
      },
      "scale": [
        0.3849637508392334,
        0.3849637508392334,
        0.3849637508392334
      ],
      "mesh": 1
    },
    {
      "name": "blue_cannon__wheel_1_-0",
      "translation": [
        0.5699999928474426,
        0.4000000059604645,
        -0.4000000059604645
      ],
      "children": [
        5
      ]
    },
    {
      "name": "blue_cannon__Mesh_8",
      "extras": {
        "riftTextured": true
      },
      "scale": [
        0.3849637508392334,
        0.3849637508392334,
        0.3849637508392334
      ],
      "mesh": 3
    },
    {
      "name": "blue_cannon__wheel_1_0",
      "translation": [
        0.5699999928474426,
        0.4000000059604645,
        0.4000000059604645
      ],
      "children": [
        7
      ]
    },
    {
      "name": "blue_cannon",
      "extras": {
        "asset": "blue_cannon",
        "category": "Minions",
        "referencePass": 2,
        "riftAsset": "blue_cannon",
        "title": "BLUE CANNON",
        "authoring": "Blender 4.5 · UV/PBR surfaces · rigid articulated animation"
      },
      "children": [
        0,
        2,
        4,
        6,
        8
      ]
    }
  ],
  "scenes": [
    {
      "name": "Scene",
      "nodes": [
        9
      ]
    }
  ],
  "scene": 0,
  "extensionsUsed": [
    "EXT_meshopt_compression",
    "EXT_texture_webp",
    "KHR_materials_emissive_strength",
    "KHR_mesh_quantization"
  ],
  "extensionsRequired": [
    "EXT_meshopt_compression",
    "EXT_texture_webp",
    "KHR_mesh_quantization"
  ]
}