{
  "asset": {
    "generator": "glTF-Transform v4.5.0",
    "version": "2.0"
  },
  "accessors": [
    {
      "type": "SCALAR",
      "componentType": 5126,
      "count": 25,
      "max": [
        1.0416666269302368
      ],
      "min": [
        0.0416666679084301
      ],
      "normalized": false,
      "byteOffset": 0,
      "bufferView": 0
    },
    {
      "type": "VEC4",
      "componentType": 5126,
      "count": 25,
      "normalized": false,
      "byteOffset": 0,
      "bufferView": 1
    },
    {
      "type": "VEC4",
      "componentType": 5126,
      "count": 25,
      "normalized": false,
      "byteOffset": 400,
      "bufferView": 1
    },
    {
      "type": "VEC4",
      "componentType": 5126,
      "count": 25,
      "normalized": false,
      "byteOffset": 800,
      "bufferView": 1
    },
    {
      "type": "VEC4",
      "componentType": 5126,
      "count": 25,
      "normalized": false,
      "byteOffset": 1200,
      "bufferView": 1
    },
    {
      "type": "VEC4",
      "componentType": 5126,
      "count": 25,
      "normalized": false,
      "byteOffset": 1600,
      "bufferView": 1
    },
    {
      "type": "VEC4",
      "componentType": 5126,
      "count": 25,
      "normalized": false,
      "byteOffset": 2000,
      "bufferView": 1
    },
    {
      "type": "VEC4",
      "componentType": 5126,
      "count": 25,
      "normalized": false,
      "byteOffset": 2400,
      "bufferView": 1
    },
    {
      "type": "SCALAR",
      "componentType": 5126,
      "count": 49,
      "max": [
        2.0416667461395264
      ],
      "min": [
        0.0416666679084301
      ],
      "normalized": false,
      "byteOffset": 100,
      "bufferView": 0
    },
    {
      "type": "VEC4",
      "componentType": 5126,
      "count": 49,
      "normalized": false,
      "byteOffset": 2800,
      "bufferView": 1
    },
    {
      "type": "SCALAR",
      "componentType": 5123,
      "count": 132,
      "normalized": false,
      "byteOffset": 0,
      "bufferView": 2
    },
    {
      "type": "VEC2",
      "componentType": 5126,
      "count": 64,
      "normalized": false,
      "byteOffset": 0,
      "bufferView": 3
    },
    {
      "type": "VEC4",
      "componentType": 5121,
      "count": 64,
      "normalized": true,
      "byteOffset": 0,
      "bufferView": 4
    },
    {
      "type": "SCALAR",
      "componentType": 5123,
      "count": 588,
      "normalized": false,
      "byteOffset": 264,
      "bufferView": 2
    },
    {
      "type": "VEC2",
      "componentType": 5126,
      "count": 293,
      "normalized": false,
      "byteOffset": 0,
      "bufferView": 5
    },
    {
      "type": "SCALAR",
      "componentType": 5123,
      "count": 24,
      "normalized": false,
      "byteOffset": 1440,
      "bufferView": 2
    },
    {
      "type": "SCALAR",
      "componentType": 5123,
      "count": 864,
      "normalized": false,
      "byteOffset": 1488,
      "bufferView": 2
    },
    {
      "type": "VEC2",
      "componentType": 5126,
      "count": 262,
      "normalized": false,
      "byteOffset": 0,
      "bufferView": 6
    },
    {
      "type": "VEC4",
      "componentType": 5121,
      "count": 262,
      "normalized": true,
      "byteOffset": 0,
      "bufferView": 7
    },
    {
      "type": "SCALAR",
      "componentType": 5123,
      "count": 342,
      "normalized": false,
      "byteOffset": 3216,
      "bufferView": 2
    },
    {
      "type": "VEC2",
      "componentType": 5126,
      "count": 122,
      "normalized": false,
      "byteOffset": 0,
      "bufferView": 8
    },
    {
      "type": "VEC4",
      "componentType": 5121,
      "count": 122,
      "normalized": true,
      "byteOffset": 0,
      "bufferView": 9
    },
    {
      "type": "SCALAR",
      "componentType": 5123,
      "count": 2574,
      "normalized": false,
      "byteOffset": 3900,
      "bufferView": 2
    },
    {
      "type": "VEC2",
      "componentType": 5126,
      "count": 1011,
      "normalized": false,
      "byteOffset": 0,
      "bufferView": 10
    },
    {
      "type": "SCALAR",
      "componentType": 5123,
      "count": 486,
      "normalized": false,
      "byteOffset": 9048,
      "bufferView": 2
    },
    {
      "type": "VEC2",
      "componentType": 5126,
      "count": 150,
      "normalized": false,
      "byteOffset": 0,
      "bufferView": 11
    },
    {
      "type": "SCALAR",
      "componentType": 5123,
      "count": 396,
      "normalized": false,
      "byteOffset": 10020,
      "bufferView": 2
    },
    {
      "type": "SCALAR",
      "componentType": 5123,
      "count": 630,
      "normalized": false,
      "byteOffset": 10812,
      "bufferView": 2
    },
    {
      "type": "VEC3",
      "componentType": 5122,
      "count": 64,
      "max": [
        13864,
        32767,
        13208
      ],
      "min": [
        -13864,
        -32767,
        -13208
      ],
      "normalized": true,
      "byteOffset": 0,
      "bufferView": 12
    },
    {
      "type": "VEC3",
      "componentType": 5122,
      "count": 64,
      "normalized": true,
      "byteOffset": 0,
      "bufferView": 13
    },
    {
      "type": "VEC3",
      "componentType": 5122,
      "count": 293,
      "max": [
        9114,
        32767,
        6504
      ],
      "min": [
        -9114,
        -32767,
        -6504
      ],
      "normalized": true,
      "byteOffset": 0,
      "bufferView": 14
    },
    {
      "type": "VEC3",
      "componentType": 5122,
      "count": 293,
      "normalized": true,
      "byteOffset": 0,
      "bufferView": 15
    },
    {
      "type": "VEC3",
      "componentType": 5121,
      "count": 293,
      "normalized": true,
      "byteOffset": 0,
      "bufferView": 16
    },
    {
      "type": "VEC3",
      "componentType": 5122,
      "count": 24,
      "max": [
        2821,
        29078,
        6299
      ],
      "min": [
        -2821,
        18228,
        2393
      ],
      "normalized": true,
      "byteOffset": 0,
      "bufferView": 17
    },
    {
      "type": "VEC3",
      "componentType": 5122,
      "count": 24,
      "normalized": true,
      "byteOffset": 0,
      "bufferView": 18
    },
    {
      "type": "VEC3",
      "componentType": 5121,
      "count": 24,
      "normalized": true,
      "byteOffset": 0,
      "bufferView": 19
    },
    {
      "type": "VEC3",
      "componentType": 5122,
      "count": 262,
      "max": [
        25683,
        32767,
        20339
      ],
      "min": [
        -25683,
        -32767,
        -20339
      ],
      "normalized": true,
      "byteOffset": 0,
      "bufferView": 20
    },
    {
      "type": "VEC3",
      "componentType": 5122,
      "count": 262,
      "normalized": true,
      "byteOffset": 0,
      "bufferView": 21
    },
    {
      "type": "VEC3",
      "componentType": 5122,
      "count": 122,
      "max": [
        17936,
        32767,
        25667
      ],
      "min": [
        -17936,
        -32767,
        -25667
      ],
      "normalized": true,
      "byteOffset": 0,
      "bufferView": 22
    },
    {
      "type": "VEC3",
      "componentType": 5122,
      "count": 122,
      "normalized": true,
      "byteOffset": 0,
      "bufferView": 23
    },
    {
      "type": "VEC3",
      "componentType": 5122,
      "count": 1011,
      "max": [
        12930,
        3842,
        13807
      ],
      "min": [
        -12930,
        -32767,
        -14431
      ],
      "normalized": true,
      "byteOffset": 0,
      "bufferView": 24
    },
    {
      "type": "VEC3",
      "componentType": 5122,
      "count": 1011,
      "normalized": true,
      "byteOffset": 0,
      "bufferView": 25
    },
    {
      "type": "VEC3",
      "componentType": 5121,
      "count": 1011,
      "normalized": true,
      "byteOffset": 0,
      "bufferView": 26
    },
    {
      "type": "VEC3",
      "componentType": 5122,
      "count": 150,
      "max": [
        10344,
        20246,
        14431
      ],
      "min": [
        -10344,
        -19844,
        -13158
      ],
      "normalized": true,
      "byteOffset": 0,
      "bufferView": 27
    },
    {
      "type": "VEC3",
      "componentType": 5122,
      "count": 150,
      "normalized": true,
      "byteOffset": 0,
      "bufferView": 28
    },
    {
      "type": "VEC3",
      "componentType": 5121,
      "count": 150,
      "normalized": true,
      "byteOffset": 0,
      "bufferView": 29
    },
    {
      "type": "VEC3",
      "componentType": 5122,
      "count": 360,
      "max": [
        5605,
        32767,
        13441
      ],
      "min": [
        -5605,
        -21357,
        -9712
      ],
      "normalized": true,
      "byteOffset": 0,
      "bufferView": 30
    },
    {
      "type": "VEC3",
      "componentType": 5122,
      "count": 360,
      "normalized": true,
      "byteOffset": 0,
      "bufferView": 31
    },
    {
      "type": "VEC3",
      "componentType": 5121,
      "count": 360,
      "normalized": true,
      "byteOffset": 0,
      "bufferView": 32
    },
    {
      "type": "VEC3",
      "componentType": 5122,
      "count": 182,
      "max": [
        8838,
        11726,
        5896
      ],
      "min": [
        -8838,
        9832,
        3999
      ],
      "normalized": true,
      "byteOffset": 0,
      "bufferView": 33
    },
    {
      "type": "VEC3",
      "componentType": 5122,
      "count": 182,
      "normalized": true,
      "byteOffset": 0,
      "bufferView": 34
    },
    {
      "type": "VEC3",
      "componentType": 5121,
      "count": 182,
      "normalized": true,
      "byteOffset": 0,
      "bufferView": 35
    }
  ],
  "bufferViews": [
    {
      "buffer": 1,
      "byteOffset": 0,
      "byteLength": 296,
      "extensions": {
        "EXT_meshopt_compression": {
          "buffer": 0,
          "byteOffset": 0,
          "byteLength": 279,
          "mode": "ATTRIBUTES",
          "byteStride": 4,
          "count": 74
        }
      }
    },
    {
      "buffer": 1,
      "byteOffset": 296,
      "byteLength": 3584,
      "extensions": {
        "EXT_meshopt_compression": {
          "buffer": 0,
          "byteOffset": 280,
          "byteLength": 1359,
          "mode": "ATTRIBUTES",
          "byteStride": 16,
          "count": 224
        }
      }
    },
    {
      "buffer": 1,
      "byteOffset": 3880,
      "byteLength": 12072,
      "target": 34963,
      "extensions": {
        "EXT_meshopt_compression": {
          "buffer": 0,
          "byteOffset": 1640,
          "byteLength": 2173,
          "mode": "TRIANGLES",
          "byteStride": 2,
          "count": 6036
        }
      }
    },
    {
      "buffer": 1,
      "byteOffset": 15952,
      "byteLength": 512,
      "target": 34962,
      "byteStride": 8,
      "extensions": {
        "EXT_meshopt_compression": {
          "buffer": 0,
          "byteOffset": 3816,
          "byteLength": 472,
          "mode": "ATTRIBUTES",
          "byteStride": 8,
          "count": 64
        }
      }
    },
    {
      "buffer": 1,
      "byteOffset": 16464,
      "byteLength": 256,
      "target": 34962,
      "byteStride": 4,
      "extensions": {
        "EXT_meshopt_compression": {
          "buffer": 0,
          "byteOffset": 4288,
          "byteLength": 37,
          "mode": "ATTRIBUTES",
          "byteStride": 4,
          "count": 64
        }
      }
    },
    {
      "buffer": 1,
      "byteOffset": 16720,
      "byteLength": 2344,
      "target": 34962,
      "byteStride": 8,
      "extensions": {
        "EXT_meshopt_compression": {
          "buffer": 0,
          "byteOffset": 4328,
          "byteLength": 1982,
          "mode": "ATTRIBUTES",
          "byteStride": 8,
          "count": 293
        }
      }
    },
    {
      "buffer": 1,
      "byteOffset": 19064,
      "byteLength": 2096,
      "target": 34962,
      "byteStride": 8,
      "extensions": {
        "EXT_meshopt_compression": {
          "buffer": 0,
          "byteOffset": 6312,
          "byteLength": 1754,
          "mode": "ATTRIBUTES",
          "byteStride": 8,
          "count": 262
        }
      }
    },
    {
      "buffer": 1,
      "byteOffset": 21160,
      "byteLength": 1048,
      "target": 34962,
      "byteStride": 4,
      "extensions": {
        "EXT_meshopt_compression": {
          "buffer": 0,
          "byteOffset": 8068,
          "byteLength": 53,
          "mode": "ATTRIBUTES",
          "byteStride": 4,
          "count": 262
        }
      }
    },
    {
      "buffer": 1,
      "byteOffset": 22208,
      "byteLength": 976,
      "target": 34962,
      "byteStride": 8,
      "extensions": {
        "EXT_meshopt_compression": {
          "buffer": 0,
          "byteOffset": 8124,
          "byteLength": 888,
          "mode": "ATTRIBUTES",
          "byteStride": 8,
          "count": 122
        }
      }
    },
    {
      "buffer": 1,
      "byteOffset": 23184,
      "byteLength": 488,
      "target": 34962,
      "byteStride": 4,
      "extensions": {
        "EXT_meshopt_compression": {
          "buffer": 0,
          "byteOffset": 9012,
          "byteLength": 41,
          "mode": "ATTRIBUTES",
          "byteStride": 4,
          "count": 122
        }
      }
    },
    {
      "buffer": 1,
      "byteOffset": 23672,
      "byteLength": 8088,
      "target": 34962,
      "byteStride": 8,
      "extensions": {
        "EXT_meshopt_compression": {
          "buffer": 0,
          "byteOffset": 9056,
          "byteLength": 6906,
          "mode": "ATTRIBUTES",
          "byteStride": 8,
          "count": 1011
        }
      }
    },
    {
      "buffer": 1,
      "byteOffset": 31760,
      "byteLength": 1200,
      "target": 34962,
      "byteStride": 8,
      "extensions": {
        "EXT_meshopt_compression": {
          "buffer": 0,
          "byteOffset": 15964,
          "byteLength": 1111,
          "mode": "ATTRIBUTES",
          "byteStride": 8,
          "count": 150
        }
      }
    },
    {
      "buffer": 1,
      "byteOffset": 32960,
      "byteLength": 512,
      "target": 34962,
      "byteStride": 8,
      "extensions": {
        "EXT_meshopt_compression": {
          "buffer": 0,
          "byteOffset": 17076,
          "byteLength": 421,
          "mode": "ATTRIBUTES",
          "byteStride": 8,
          "count": 64
        }
      }
    },
    {
      "buffer": 1,
      "byteOffset": 33472,
      "byteLength": 512,
      "target": 34962,
      "byteStride": 8,
      "extensions": {
        "EXT_meshopt_compression": {
          "buffer": 0,
          "byteOffset": 17500,
          "byteLength": 356,
          "mode": "ATTRIBUTES",
          "byteStride": 8,
          "count": 64
        }
      }
    },
    {
      "buffer": 1,
      "byteOffset": 33984,
      "byteLength": 2344,
      "target": 34962,
      "byteStride": 8,
      "extensions": {
        "EXT_meshopt_compression": {
          "buffer": 0,
          "byteOffset": 17856,
          "byteLength": 1636,
          "mode": "ATTRIBUTES",
          "byteStride": 8,
          "count": 293
        }
      }
    },
    {
      "buffer": 1,
      "byteOffset": 36328,
      "byteLength": 2344,
      "target": 34962,
      "byteStride": 8,
      "extensions": {
        "EXT_meshopt_compression": {
          "buffer": 0,
          "byteOffset": 19492,
          "byteLength": 1729,
          "mode": "ATTRIBUTES",
          "byteStride": 8,
          "count": 293
        }
      }
    },
    {
      "buffer": 1,
      "byteOffset": 38672,
      "byteLength": 1172,
      "target": 34962,
      "byteStride": 4,
      "extensions": {
        "EXT_meshopt_compression": {
          "buffer": 0,
          "byteOffset": 21224,
          "byteLength": 419,
          "mode": "ATTRIBUTES",
          "byteStride": 4,
          "count": 293
        }
      }
    },
    {
      "buffer": 1,
      "byteOffset": 39844,
      "byteLength": 192,
      "target": 34962,
      "byteStride": 8,
      "extensions": {
        "EXT_meshopt_compression": {
          "buffer": 0,
          "byteOffset": 21644,
          "byteLength": 171,
          "mode": "ATTRIBUTES",
          "byteStride": 8,
          "count": 24
        }
      }
    },
    {
      "buffer": 1,
      "byteOffset": 40036,
      "byteLength": 192,
      "target": 34962,
      "byteStride": 8,
      "extensions": {
        "EXT_meshopt_compression": {
          "buffer": 0,
          "byteOffset": 21816,
          "byteLength": 95,
          "mode": "ATTRIBUTES",
          "byteStride": 8,
          "count": 24
        }
      }
    },
    {
      "buffer": 1,
      "byteOffset": 40228,
      "byteLength": 96,
      "target": 34962,
      "byteStride": 4,
      "extensions": {
        "EXT_meshopt_compression": {
          "buffer": 0,
          "byteOffset": 21912,
          "byteLength": 37,
          "mode": "ATTRIBUTES",
          "byteStride": 4,
          "count": 24
        }
      }
    },
    {
      "buffer": 1,
      "byteOffset": 40324,
      "byteLength": 2096,
      "target": 34962,
      "byteStride": 8,
      "extensions": {
        "EXT_meshopt_compression": {
          "buffer": 0,
          "byteOffset": 21952,
          "byteLength": 1628,
          "mode": "ATTRIBUTES",
          "byteStride": 8,
          "count": 262
        }
      }
    },
    {
      "buffer": 1,
      "byteOffset": 42420,
      "byteLength": 2096,
      "target": 34962,
      "byteStride": 8,
      "extensions": {
        "EXT_meshopt_compression": {
          "buffer": 0,
          "byteOffset": 23580,
          "byteLength": 1663,
          "mode": "ATTRIBUTES",
          "byteStride": 8,
          "count": 262
        }
      }
    },
    {
      "buffer": 1,
      "byteOffset": 44516,
      "byteLength": 976,
      "target": 34962,
      "byteStride": 8,
      "extensions": {
        "EXT_meshopt_compression": {
          "buffer": 0,
          "byteOffset": 25244,
          "byteLength": 795,
          "mode": "ATTRIBUTES",
          "byteStride": 8,
          "count": 122
        }
      }
    },
    {
      "buffer": 1,
      "byteOffset": 45492,
      "byteLength": 976,
      "target": 34962,
      "byteStride": 8,
      "extensions": {
        "EXT_meshopt_compression": {
          "buffer": 0,
          "byteOffset": 26040,
          "byteLength": 762,
          "mode": "ATTRIBUTES",
          "byteStride": 8,
          "count": 122
        }
      }
    },
    {
      "buffer": 1,
      "byteOffset": 46468,
      "byteLength": 8088,
      "target": 34962,
      "byteStride": 8,
      "extensions": {
        "EXT_meshopt_compression": {
          "buffer": 0,
          "byteOffset": 26804,
          "byteLength": 5524,
          "mode": "ATTRIBUTES",
          "byteStride": 8,
          "count": 1011
        }
      }
    },
    {
      "buffer": 1,
      "byteOffset": 54556,
      "byteLength": 8088,
      "target": 34962,
      "byteStride": 8,
      "extensions": {
        "EXT_meshopt_compression": {
          "buffer": 0,
          "byteOffset": 32328,
          "byteLength": 5612,
          "mode": "ATTRIBUTES",
          "byteStride": 8,
          "count": 1011
        }
      }
    },
    {
      "buffer": 1,
      "byteOffset": 62644,
      "byteLength": 4044,
      "target": 34962,
      "byteStride": 4,
      "extensions": {
        "EXT_meshopt_compression": {
          "buffer": 0,
          "byteOffset": 37940,
          "byteLength": 1351,
          "mode": "ATTRIBUTES",
          "byteStride": 4,
          "count": 1011
        }
      }
    },
    {
      "buffer": 1,
      "byteOffset": 66688,
      "byteLength": 1200,
      "target": 34962,
      "byteStride": 8,
      "extensions": {
        "EXT_meshopt_compression": {
          "buffer": 0,
          "byteOffset": 39292,
          "byteLength": 958,
          "mode": "ATTRIBUTES",
          "byteStride": 8,
          "count": 150
        }
      }
    },
    {
      "buffer": 1,
      "byteOffset": 67888,
      "byteLength": 1200,
      "target": 34962,
      "byteStride": 8,
      "extensions": {
        "EXT_meshopt_compression": {
          "buffer": 0,
          "byteOffset": 40252,
          "byteLength": 979,
          "mode": "ATTRIBUTES",
          "byteStride": 8,
          "count": 150
        }
      }
    },
    {
      "buffer": 1,
      "byteOffset": 69088,
      "byteLength": 600,
      "target": 34962,
      "byteStride": 4,
      "extensions": {
        "EXT_meshopt_compression": {
          "buffer": 0,
          "byteOffset": 41232,
          "byteLength": 45,
          "mode": "ATTRIBUTES",
          "byteStride": 4,
          "count": 150
        }
      }
    },
    {
      "buffer": 1,
      "byteOffset": 69688,
      "byteLength": 2880,
      "target": 34962,
      "byteStride": 8,
      "extensions": {
        "EXT_meshopt_compression": {
          "buffer": 0,
          "byteOffset": 41280,
          "byteLength": 1871,
          "mode": "ATTRIBUTES",
          "byteStride": 8,
          "count": 360
        }
      }
    },
    {
      "buffer": 1,
      "byteOffset": 72568,
      "byteLength": 2880,
      "target": 34962,
      "byteStride": 8,
      "extensions": {
        "EXT_meshopt_compression": {
          "buffer": 0,
          "byteOffset": 43152,
          "byteLength": 1214,
          "mode": "ATTRIBUTES",
          "byteStride": 8,
          "count": 360
        }
      }
    },
    {
      "buffer": 1,
      "byteOffset": 75448,
      "byteLength": 1440,
      "target": 34962,
      "byteStride": 4,
      "extensions": {
        "EXT_meshopt_compression": {
          "buffer": 0,
          "byteOffset": 44368,
          "byteLength": 57,
          "mode": "ATTRIBUTES",
          "byteStride": 4,
          "count": 360
        }
      }
    },
    {
      "buffer": 1,
      "byteOffset": 76888,
      "byteLength": 1456,
      "target": 34962,
      "byteStride": 8,
      "extensions": {
        "EXT_meshopt_compression": {
          "buffer": 0,
          "byteOffset": 44428,
          "byteLength": 902,
          "mode": "ATTRIBUTES",
          "byteStride": 8,
          "count": 182
        }
      }
    },
    {
      "buffer": 1,
      "byteOffset": 78344,
      "byteLength": 1456,
      "target": 34962,
      "byteStride": 8,
      "extensions": {
        "EXT_meshopt_compression": {
          "buffer": 0,
          "byteOffset": 45332,
          "byteLength": 1172,
          "mode": "ATTRIBUTES",
          "byteStride": 8,
          "count": 182
        }
      }
    },
    {
      "buffer": 1,
      "byteOffset": 79800,
      "byteLength": 728,
      "target": 34962,
      "byteStride": 4,
      "extensions": {
        "EXT_meshopt_compression": {
          "buffer": 0,
          "byteOffset": 46504,
          "byteLength": 45,
          "mode": "ATTRIBUTES",
          "byteStride": 4,
          "count": 182
        }
      }
    }
  ],
  "samplers": [
    {
      "magFilter": 9729,
      "minFilter": 9987,
      "wrapS": 10497,
      "wrapT": 10497
    }
  ],
  "textures": [
    {
      "sampler": 0,
      "extensions": {
        "EXT_texture_webp": {
          "source": 1
        }
      }
    },
    {
      "sampler": 0,
      "extensions": {
        "EXT_texture_webp": {
          "source": 0
        }
      }
    },
    {
      "sampler": 0,
      "extensions": {
        "EXT_texture_webp": {
          "source": 2
        }
      }
    },
    {
      "sampler": 0,
      "extensions": {
        "EXT_texture_webp": {
          "source": 4
        }
      }
    },
    {
      "sampler": 0,
      "extensions": {
        "EXT_texture_webp": {
          "source": 3
        }
      }
    },
    {
      "sampler": 0,
      "extensions": {
        "EXT_texture_webp": {
          "source": 5
        }
      }
    },
    {
      "sampler": 0,
      "extensions": {
        "EXT_texture_webp": {
          "source": 7
        }
      }
    },
    {
      "sampler": 0,
      "extensions": {
        "EXT_texture_webp": {
          "source": 6
        }
      }
    },
    {
      "sampler": 0,
      "extensions": {
        "EXT_texture_webp": {
          "source": 8
        }
      }
    }
  ],
  "images": [
    {
      "name": "Forged iron normal",
      "mimeType": "image/webp",
      "uri": "textures/surface-fb516ec6c866d7b9.webp"
    },
    {
      "name": "Forged iron color",
      "mimeType": "image/webp",
      "uri": "textures/surface-25be23cebf724530.webp"
    },
    {
      "name": "Forged iron roughness metalness",
      "mimeType": "image/webp",
      "uri": "textures/surface-6fb9fef78a463bef.webp"
    },
    {
      "name": "Woven cloth normal",
      "mimeType": "image/webp",
      "uri": "textures/surface-15c84119ca507c8c.webp"
    },
    {
      "name": "Woven cloth color",
      "mimeType": "image/webp",
      "uri": "textures/surface-4c574f63fd10e874.webp"
    },
    {
      "name": "Woven cloth roughness metalness",
      "mimeType": "image/webp",
      "uri": "textures/surface-a12b74f6e814638e.webp"
    },
    {
      "name": "Dark leather normal",
      "mimeType": "image/webp",
      "uri": "textures/surface-0bba31db93ee7930.webp"
    },
    {
      "name": "Dark leather color",
      "mimeType": "image/webp",
      "uri": "textures/surface-15c7f5964deff57a.webp"
    },
    {
      "name": "Dark leather roughness metalness",
      "mimeType": "image/webp",
      "uri": "textures/surface-ac0465c35b5aefec.webp"
    }
  ],
  "buffers": [
    {
      "uri": "blue_ranged.bin",
      "byteLength": 46552
    },
    {
      "byteLength": 80528,
      "extensions": {
        "EXT_meshopt_compression": {
          "fallback": true
        }
      }
    }
  ],
  "materials": [
    {
      "name": "Rift · Forged iron",
      "extras": {
        "riftTextured": true
      },
      "pbrMetallicRoughness": {
        "baseColorTexture": {
          "index": 0
        },
        "metallicRoughnessTexture": {
          "index": 2
        }
      },
      "normalTexture": {
        "index": 1,
        "scale": 0.550000011920929
      }
    },
    {
      "name": "Material_1.016",
      "extras": {
        "riftBaseColor": [
          0.018500220124016652,
          0.3231432091022285,
          1,
          1
        ]
      },
      "pbrMetallicRoughness": {
        "baseColorFactor": [
          0.01850022003054619,
          0.32314321398735046,
          1,
          1
        ],
        "roughnessFactor": 0.25,
        "metallicFactor": 0.25
      },
      "emissiveFactor": [
        0.01850022003054619,
        0.32314321398735046,
        1
      ],
      "extensions": {
        "KHR_materials_emissive_strength": {
          "emissiveStrength": 1.5
        }
      }
    },
    {
      "name": "Rift · Woven cloth",
      "extras": {
        "riftTextured": true
      },
      "doubleSided": true,
      "pbrMetallicRoughness": {
        "baseColorTexture": {
          "index": 3
        },
        "metallicRoughnessTexture": {
          "index": 5
        }
      },
      "normalTexture": {
        "index": 4,
        "scale": 0.550000011920929
      }
    },
    {
      "name": "Rift · Dark leather",
      "extras": {
        "riftTextured": true
      },
      "pbrMetallicRoughness": {
        "baseColorTexture": {
          "index": 6
        },
        "metallicRoughnessTexture": {
          "index": 8
        }
      },
      "normalTexture": {
        "index": 7,
        "scale": 0.550000011920929
      }
    },
    {
      "name": "Material_7.018",
      "extras": {
        "riftBaseColor": [
          0.038204371589236,
          0.26225065751888765,
          1,
          1
        ]
      },
      "pbrMetallicRoughness": {
        "baseColorFactor": [
          0.0382043719291687,
          0.2622506618499756,
          1,
          1
        ],
        "roughnessFactor": 0.30000001192092896,
        "metallicFactor": 0
      },
      "emissiveFactor": [
        0.0382043719291687,
        0.2622506618499756,
        1
      ],
      "extensions": {
        "KHR_materials_emissive_strength": {
          "emissiveStrength": 1.2000000476837158
        }
      }
    }
  ],
  "meshes": [
    {
      "name": "Mesh_1.016",
      "primitives": [
        {
          "attributes": {
            "TEXCOORD_0": 11,
            "COLOR_0": 12,
            "POSITION": 28,
            "NORMAL": 29
          },
          "mode": 4,
          "material": 0,
          "indices": 10
        }
      ]
    },
    {
      "name": "Mesh_5.016",
      "primitives": [
        {
          "attributes": {
            "TEXCOORD_0": 14,
            "POSITION": 30,
            "NORMAL": 31,
            "COLOR_0": 32
          },
          "mode": 4,
          "material": 0,
          "indices": 13
        },
        {
          "attributes": {
            "POSITION": 33,
            "NORMAL": 34,
            "COLOR_0": 35
          },
          "mode": 4,
          "material": 1,
          "indices": 15
        }
      ]
    },
    {
      "name": "Mesh_6.016",
      "primitives": [
        {
          "attributes": {
            "TEXCOORD_0": 17,
            "COLOR_0": 18,
            "POSITION": 36,
            "NORMAL": 37
          },
          "mode": 4,
          "material": 2,
          "indices": 16
        }
      ]
    },
    {
      "name": "Mesh_0.016",
      "primitives": [
        {
          "attributes": {
            "TEXCOORD_0": 20,
            "COLOR_0": 21,
            "POSITION": 38,
            "NORMAL": 39
          },
          "mode": 4,
          "material": 0,
          "indices": 19
        }
      ]
    },
    {
      "name": "Mesh_11.016",
      "primitives": [
        {
          "attributes": {
            "TEXCOORD_0": 23,
            "POSITION": 40,
            "NORMAL": 41,
            "COLOR_0": 42
          },
          "mode": 4,
          "material": 0,
          "indices": 22
        },
        {
          "attributes": {
            "TEXCOORD_0": 25,
            "POSITION": 43,
            "NORMAL": 44,
            "COLOR_0": 45
          },
          "mode": 4,
          "material": 3,
          "indices": 24
        },
        {
          "attributes": {
            "POSITION": 46,
            "NORMAL": 47,
            "COLOR_0": 48
          },
          "mode": 4,
          "material": 1,
          "indices": 26
        },
        {
          "attributes": {
            "POSITION": 49,
            "NORMAL": 50,
            "COLOR_0": 51
          },
          "mode": 4,
          "material": 4,
          "indices": 27
        }
      ]
    }
  ],
  "nodes": [
    {
      "name": "blue_ranged__Mesh_1",
      "extras": {
        "riftTextured": true
      },
      "translation": [
        -0.048981018364429474,
        -0.09692753851413727,
        0.02387160435318947
      ],
      "scale": [
        0.3569275289773941,
        0.3569275289773941,
        0.3569275289773941
      ],
      "mesh": 0
    },
    {
      "name": "blue_ranged__arm_l",
      "translation": [
        -0.3400000035762787,
        1.1200000047683716,
        0
      ],
      "children": [
        0
      ]
    },
    {
      "name": "blue_ranged__Mesh_5",
      "extras": {
        "riftTextured": true
      },
      "translation": [
        0.059999994933605194,
        -0.2511998265981674,
        0.02387160435318947
      ],
      "scale": [
        0.7247998267412186,
        0.7247998267412186,
        0.7247998267412186
      ],
      "mesh": 1
    },
    {
      "name": "blue_ranged__arm_r",
      "translation": [
        0.3400000035762787,
        1.1200000047683716,
        0
      ],
      "children": [
        2
      ]
    },
    {
      "name": "blue_ranged__Mesh_6",
      "extras": {
        "riftTextured": true
      },
      "translation": [
        0,
        -0.41453385290151346,
        -0.26179716107435524
      ],
      "scale": [
        0.41464597049707663,
        0.41464597049707663,
        0.41464597049707663
      ],
      "mesh": 2
    },
    {
      "name": "blue_ranged__cape",
      "translation": [
        0,
        1.100000023841858,
        -0.20000000298023224
      ],
      "children": [
        4
      ]
    },
    {
      "name": "blue_ranged__Mesh_0",
      "extras": {
        "riftTextured": true
      },
      "translation": [
        0,
        -0.2329684942960739,
        0.10000000149011612
      ],
      "scale": [
        0.2552509754896164,
        0.2552509754896164,
        0.2552509754896164
      ],
      "mesh": 3
    },
    {
      "name": "blue_ranged__leg_l",
      "translation": [
        -0.17000000178813934,
        0.5199999809265137,
        0
      ],
      "children": [
        6
      ]
    },
    {
      "name": "blue_ranged__Mesh_2",
      "extras": {
        "riftTextured": true
      },
      "translation": [
        0,
        -0.2329684942960739,
        0.10000000149011612
      ],
      "scale": [
        0.2552509754896164,
        0.2552509754896164,
        0.2552509754896164
      ],
      "mesh": 3
    },
    {
      "name": "blue_ranged__leg_r",
      "translation": [
        0.17000000178813934,
        0.5199999809265137,
        0
      ],
      "children": [
        8
      ]
    },
    {
      "name": "blue_ranged__Mesh_11",
      "extras": {
        "riftTextured": true
      },
      "translation": [
        0,
        1.1800000220537186,
        0.08524932712316513
      ],
      "scale": [
        0.7600000351667404,
        0.7600000351667404,
        0.7600000351667404
      ],
      "mesh": 4
    },
    {
      "name": "blue_ranged",
      "extras": {
        "asset": "blue_ranged",
        "category": "Minions",
        "referencePass": 2,
        "riftAsset": "blue_ranged",
        "title": "BLUE RANGED",
        "authoring": "Blender 4.5 · UV/PBR surfaces · rigid articulated animation"
      },
      "children": [
        1,
        3,
        5,
        7,
        9,
        10
      ]
    }
  ],
  "animations": [
    {
      "name": "Attack",
      "samplers": [
        {
          "input": 0,
          "output": 1,
          "interpolation": "LINEAR"
        },
        {
          "input": 0,
          "output": 2,
          "interpolation": "LINEAR"
        }
      ],
      "channels": [
        {
          "sampler": 0,
          "target": {
            "node": 1,
            "path": "rotation"
          }
        },
        {
          "sampler": 1,
          "target": {
            "node": 3,
            "path": "rotation"
          }
        }
      ]
    },
    {
      "name": "Walk",
      "samplers": [
        {
          "input": 0,
          "output": 3,
          "interpolation": "LINEAR"
        },
        {
          "input": 0,
          "output": 4,
          "interpolation": "LINEAR"
        },
        {
          "input": 0,
          "output": 5,
          "interpolation": "LINEAR"
        },
        {
          "input": 0,
          "output": 6,
          "interpolation": "LINEAR"
        },
        {
          "input": 0,
          "output": 7,
          "interpolation": "LINEAR"
        }
      ],
      "channels": [
        {
          "sampler": 0,
          "target": {
            "node": 1,
            "path": "rotation"
          }
        },
        {
          "sampler": 1,
          "target": {
            "node": 3,
            "path": "rotation"
          }
        },
        {
          "sampler": 2,
          "target": {
            "node": 5,
            "path": "rotation"
          }
        },
        {
          "sampler": 3,
          "target": {
            "node": 7,
            "path": "rotation"
          }
        },
        {
          "sampler": 4,
          "target": {
            "node": 9,
            "path": "rotation"
          }
        }
      ]
    },
    {
      "name": "Idle",
      "samplers": [
        {
          "input": 8,
          "output": 9,
          "interpolation": "LINEAR"
        }
      ],
      "channels": [
        {
          "sampler": 0,
          "target": {
            "node": 5,
            "path": "rotation"
          }
        }
      ]
    }
  ],
  "scenes": [
    {
      "name": "Scene",
      "nodes": [
        11
      ]
    }
  ],
  "scene": 0,
  "extensionsUsed": [
    "EXT_meshopt_compression",
    "EXT_texture_webp",
    "KHR_materials_emissive_strength",
    "KHR_mesh_quantization"
  ],
  "extensionsRequired": [
    "EXT_meshopt_compression",
    "EXT_texture_webp",
    "KHR_mesh_quantization"
  ]
}