{
  "asset": {
    "generator": "glTF-Transform v4.5.0",
    "version": "2.0"
  },
  "accessors": [
    {
      "type": "SCALAR",
      "componentType": 5123,
      "count": 96,
      "normalized": false,
      "byteOffset": 0,
      "bufferView": 0
    },
    {
      "type": "VEC3",
      "componentType": 5122,
      "count": 64,
      "max": [
        13107,
        32767,
        13107
      ],
      "min": [
        -13107,
        -32767,
        -13107
      ],
      "normalized": true,
      "byteOffset": 0,
      "bufferView": 1
    },
    {
      "type": "VEC3",
      "componentType": 5122,
      "count": 64,
      "normalized": true,
      "byteOffset": 0,
      "bufferView": 2
    }
  ],
  "bufferViews": [
    {
      "buffer": 1,
      "byteOffset": 0,
      "byteLength": 192,
      "target": 34963,
      "extensions": {
        "EXT_meshopt_compression": {
          "buffer": 0,
          "byteOffset": 0,
          "byteLength": 49,
          "mode": "TRIANGLES",
          "byteStride": 2,
          "count": 96
        }
      }
    },
    {
      "buffer": 1,
      "byteOffset": 192,
      "byteLength": 512,
      "target": 34962,
      "byteStride": 8,
      "extensions": {
        "EXT_meshopt_compression": {
          "buffer": 0,
          "byteOffset": 52,
          "byteLength": 321,
          "mode": "ATTRIBUTES",
          "byteStride": 8,
          "count": 64
        }
      }
    },
    {
      "buffer": 1,
      "byteOffset": 704,
      "byteLength": 512,
      "target": 34962,
      "byteStride": 8,
      "extensions": {
        "EXT_meshopt_compression": {
          "buffer": 0,
          "byteOffset": 376,
          "byteLength": 159,
          "mode": "ATTRIBUTES",
          "byteStride": 8,
          "count": 64
        }
      }
    }
  ],
  "buffers": [
    {
      "uri": "fx_beam.bin",
      "byteLength": 536
    },
    {
      "byteLength": 1216,
      "extensions": {
        "EXT_meshopt_compression": {
          "fallback": true
        }
      }
    }
  ],
  "materials": [
    {
      "name": "Rift VFX",
      "doubleSided": true,
      "pbrMetallicRoughness": {
        "baseColorFactor": [
          0.949999988079071,
          0.07000000029802322,
          0.019999999552965164,
          1
        ],
        "roughnessFactor": 0.4000000059604645,
        "metallicFactor": 0
      }
    }
  ],
  "meshes": [
    {
      "name": "Cone",
      "primitives": [
        {
          "attributes": {
            "POSITION": 1,
            "NORMAL": 2
          },
          "mode": 4,
          "material": 0,
          "indices": 0
        }
      ]
    }
  ],
  "nodes": [
    {
      "name": "fx_beam",
      "extras": {
        "riftAsset": "fx_beam",
        "category": "Effects"
      },
      "scale": [
        0.5,
        0.5,
        0.5
      ],
      "mesh": 0
    }
  ],
  "scenes": [
    {
      "name": "Scene",
      "nodes": [
        0
      ]
    }
  ],
  "scene": 0,
  "extensionsUsed": [
    "EXT_meshopt_compression",
    "KHR_mesh_quantization"
  ],
  "extensionsRequired": [
    "EXT_meshopt_compression",
    "KHR_mesh_quantization"
  ]
}