{
  "asset": {
    "generator": "glTF-Transform v4.5.0",
    "version": "2.0"
  },
  "accessors": [
    {
      "type": "SCALAR",
      "componentType": 5123,
      "count": 240,
      "normalized": false,
      "byteOffset": 0,
      "bufferView": 0
    },
    {
      "type": "VEC3",
      "componentType": 5122,
      "count": 240,
      "max": [
        31163,
        32767,
        32767
      ],
      "min": [
        -31163,
        -32767,
        -32767
      ],
      "normalized": true,
      "byteOffset": 0,
      "bufferView": 1
    },
    {
      "type": "VEC3",
      "componentType": 5122,
      "count": 240,
      "normalized": true,
      "byteOffset": 0,
      "bufferView": 2
    }
  ],
  "bufferViews": [
    {
      "buffer": 1,
      "byteOffset": 0,
      "byteLength": 480,
      "target": 34963,
      "extensions": {
        "EXT_meshopt_compression": {
          "buffer": 0,
          "byteOffset": 0,
          "byteLength": 97,
          "mode": "TRIANGLES",
          "byteStride": 2,
          "count": 240
        }
      }
    },
    {
      "buffer": 1,
      "byteOffset": 480,
      "byteLength": 1920,
      "target": 34962,
      "byteStride": 8,
      "extensions": {
        "EXT_meshopt_compression": {
          "buffer": 0,
          "byteOffset": 100,
          "byteLength": 1472,
          "mode": "ATTRIBUTES",
          "byteStride": 8,
          "count": 240
        }
      }
    },
    {
      "buffer": 1,
      "byteOffset": 2400,
      "byteLength": 1920,
      "target": 34962,
      "byteStride": 8,
      "extensions": {
        "EXT_meshopt_compression": {
          "buffer": 0,
          "byteOffset": 1572,
          "byteLength": 826,
          "mode": "ATTRIBUTES",
          "byteStride": 8,
          "count": 240
        }
      }
    }
  ],
  "buffers": [
    {
      "uri": "fx_orb.bin",
      "byteLength": 2400
    },
    {
      "byteLength": 4320,
      "extensions": {
        "EXT_meshopt_compression": {
          "fallback": true
        }
      }
    }
  ],
  "materials": [
    {
      "name": "Rift VFX",
      "doubleSided": true,
      "pbrMetallicRoughness": {
        "baseColorFactor": [
          0.949999988079071,
          0.07000000029802322,
          0.019999999552965164,
          1
        ],
        "roughnessFactor": 0.4000000059604645,
        "metallicFactor": 0
      }
    }
  ],
  "meshes": [
    {
      "name": "Icosphere",
      "primitives": [
        {
          "attributes": {
            "POSITION": 1,
            "NORMAL": 2
          },
          "mode": 4,
          "material": 0,
          "indices": 0
        }
      ]
    }
  ],
  "nodes": [
    {
      "name": "fx_orb",
      "extras": {
        "riftAsset": "fx_orb",
        "category": "Effects"
      },
      "mesh": 0
    }
  ],
  "scenes": [
    {
      "name": "Scene",
      "nodes": [
        0
      ]
    }
  ],
  "scene": 0,
  "extensionsUsed": [
    "EXT_meshopt_compression",
    "KHR_mesh_quantization"
  ],
  "extensionsRequired": [
    "EXT_meshopt_compression",
    "KHR_mesh_quantization"
  ]
}