{
  "asset": {
    "generator": "glTF-Transform v4.5.0",
    "version": "2.0"
  },
  "accessors": [
    {
      "type": "SCALAR",
      "componentType": 5123,
      "count": 60,
      "normalized": false,
      "byteOffset": 0,
      "bufferView": 0
    },
    {
      "type": "VEC3",
      "componentType": 5122,
      "count": 60,
      "max": [
        16998,
        32767,
        16166
      ],
      "min": [
        -16998,
        -32767,
        -16166
      ],
      "normalized": true,
      "byteOffset": 0,
      "bufferView": 1
    },
    {
      "type": "VEC3",
      "componentType": 5122,
      "count": 60,
      "normalized": true,
      "byteOffset": 0,
      "bufferView": 2
    }
  ],
  "bufferViews": [
    {
      "buffer": 1,
      "byteOffset": 0,
      "byteLength": 120,
      "target": 34963,
      "extensions": {
        "EXT_meshopt_compression": {
          "buffer": 0,
          "byteOffset": 0,
          "byteLength": 37,
          "mode": "TRIANGLES",
          "byteStride": 2,
          "count": 60
        }
      }
    },
    {
      "buffer": 1,
      "byteOffset": 120,
      "byteLength": 480,
      "target": 34962,
      "byteStride": 8,
      "extensions": {
        "EXT_meshopt_compression": {
          "buffer": 0,
          "byteOffset": 40,
          "byteLength": 399,
          "mode": "ATTRIBUTES",
          "byteStride": 8,
          "count": 60
        }
      }
    },
    {
      "buffer": 1,
      "byteOffset": 600,
      "byteLength": 480,
      "target": 34962,
      "byteStride": 8,
      "extensions": {
        "EXT_meshopt_compression": {
          "buffer": 0,
          "byteOffset": 440,
          "byteLength": 204,
          "mode": "ATTRIBUTES",
          "byteStride": 8,
          "count": 60
        }
      }
    }
  ],
  "buffers": [
    {
      "uri": "fx_shard.bin",
      "byteLength": 644
    },
    {
      "byteLength": 1080,
      "extensions": {
        "EXT_meshopt_compression": {
          "fallback": true
        }
      }
    }
  ],
  "materials": [
    {
      "name": "Rift VFX",
      "doubleSided": true,
      "pbrMetallicRoughness": {
        "baseColorFactor": [
          0.949999988079071,
          0.07000000029802322,
          0.019999999552965164,
          1
        ],
        "roughnessFactor": 0.4000000059604645,
        "metallicFactor": 0
      }
    }
  ],
  "meshes": [
    {
      "name": "Icosphere.002",
      "primitives": [
        {
          "attributes": {
            "POSITION": 1,
            "NORMAL": 2
          },
          "mode": 4,
          "material": 0,
          "indices": 0
        }
      ]
    }
  ],
  "nodes": [
    {
      "name": "fx_shard",
      "extras": {
        "riftAsset": "fx_shard",
        "category": "Effects"
      },
      "mesh": 0
    }
  ],
  "scenes": [
    {
      "name": "Scene",
      "nodes": [
        0
      ]
    }
  ],
  "scene": 0,
  "extensionsUsed": [
    "EXT_meshopt_compression",
    "KHR_mesh_quantization"
  ],
  "extensionsRequired": [
    "EXT_meshopt_compression",
    "KHR_mesh_quantization"
  ]
}