{
  "asset": {
    "generator": "glTF-Transform v4.5.0",
    "version": "2.0"
  },
  "accessors": [
    {
      "type": "SCALAR",
      "componentType": 5126,
      "count": 25,
      "max": [
        1.0416666269302368
      ],
      "min": [
        0.0416666679084301
      ],
      "normalized": false,
      "byteOffset": 0,
      "bufferView": 0
    },
    {
      "type": "VEC4",
      "componentType": 5126,
      "count": 25,
      "normalized": false,
      "byteOffset": 0,
      "bufferView": 1
    },
    {
      "type": "VEC4",
      "componentType": 5126,
      "count": 25,
      "normalized": false,
      "byteOffset": 400,
      "bufferView": 1
    },
    {
      "type": "VEC4",
      "componentType": 5126,
      "count": 25,
      "normalized": false,
      "byteOffset": 800,
      "bufferView": 1
    },
    {
      "type": "VEC4",
      "componentType": 5126,
      "count": 25,
      "normalized": false,
      "byteOffset": 1200,
      "bufferView": 1
    },
    {
      "type": "VEC4",
      "componentType": 5126,
      "count": 25,
      "normalized": false,
      "byteOffset": 1600,
      "bufferView": 1
    },
    {
      "type": "VEC4",
      "componentType": 5126,
      "count": 25,
      "normalized": false,
      "byteOffset": 2000,
      "bufferView": 1
    },
    {
      "type": "VEC4",
      "componentType": 5126,
      "count": 25,
      "normalized": false,
      "byteOffset": 2400,
      "bufferView": 1
    },
    {
      "type": "VEC4",
      "componentType": 5126,
      "count": 25,
      "normalized": false,
      "byteOffset": 2800,
      "bufferView": 1
    },
    {
      "type": "VEC4",
      "componentType": 5126,
      "count": 25,
      "normalized": false,
      "byteOffset": 3200,
      "bufferView": 1
    },
    {
      "type": "SCALAR",
      "componentType": 5126,
      "count": 49,
      "max": [
        2.0416667461395264
      ],
      "min": [
        0.0416666679084301
      ],
      "normalized": false,
      "byteOffset": 100,
      "bufferView": 0
    },
    {
      "type": "VEC4",
      "componentType": 5126,
      "count": 49,
      "normalized": false,
      "byteOffset": 3600,
      "bufferView": 1
    },
    {
      "type": "VEC4",
      "componentType": 5126,
      "count": 49,
      "normalized": false,
      "byteOffset": 4384,
      "bufferView": 1
    },
    {
      "type": "SCALAR",
      "componentType": 5123,
      "count": 14670,
      "normalized": false,
      "byteOffset": 0,
      "bufferView": 2
    },
    {
      "type": "VEC2",
      "componentType": 5126,
      "count": 5903,
      "normalized": false,
      "byteOffset": 0,
      "bufferView": 3
    },
    {
      "type": "SCALAR",
      "componentType": 5123,
      "count": 276,
      "normalized": false,
      "byteOffset": 29340,
      "bufferView": 2
    },
    {
      "type": "SCALAR",
      "componentType": 5123,
      "count": 594,
      "normalized": false,
      "byteOffset": 29892,
      "bufferView": 2
    },
    {
      "type": "VEC2",
      "componentType": 5126,
      "count": 189,
      "normalized": false,
      "byteOffset": 0,
      "bufferView": 4
    },
    {
      "type": "SCALAR",
      "componentType": 5123,
      "count": 1338,
      "normalized": false,
      "byteOffset": 31080,
      "bufferView": 2
    },
    {
      "type": "VEC2",
      "componentType": 5126,
      "count": 697,
      "normalized": false,
      "byteOffset": 0,
      "bufferView": 5
    },
    {
      "type": "SCALAR",
      "componentType": 5123,
      "count": 372,
      "normalized": false,
      "byteOffset": 33756,
      "bufferView": 2
    },
    {
      "type": "SCALAR",
      "componentType": 5123,
      "count": 14670,
      "normalized": false,
      "byteOffset": 34500,
      "bufferView": 2
    },
    {
      "type": "VEC2",
      "componentType": 5126,
      "count": 5897,
      "normalized": false,
      "byteOffset": 0,
      "bufferView": 6
    },
    {
      "type": "SCALAR",
      "componentType": 5123,
      "count": 96,
      "normalized": false,
      "byteOffset": 63840,
      "bufferView": 2
    },
    {
      "type": "VEC2",
      "componentType": 5126,
      "count": 38,
      "normalized": false,
      "byteOffset": 0,
      "bufferView": 7
    },
    {
      "type": "SCALAR",
      "componentType": 5123,
      "count": 24,
      "normalized": false,
      "byteOffset": 64032,
      "bufferView": 2
    },
    {
      "type": "SCALAR",
      "componentType": 5123,
      "count": 2226,
      "normalized": false,
      "byteOffset": 64080,
      "bufferView": 2
    },
    {
      "type": "VEC2",
      "componentType": 5126,
      "count": 850,
      "normalized": false,
      "byteOffset": 0,
      "bufferView": 8
    },
    {
      "type": "SCALAR",
      "componentType": 5123,
      "count": 777,
      "normalized": false,
      "byteOffset": 68532,
      "bufferView": 2
    },
    {
      "type": "VEC2",
      "componentType": 5126,
      "count": 281,
      "normalized": false,
      "byteOffset": 0,
      "bufferView": 9
    },
    {
      "type": "VEC4",
      "componentType": 5121,
      "count": 281,
      "normalized": true,
      "byteOffset": 0,
      "bufferView": 10
    },
    {
      "type": "VEC2",
      "componentType": 5126,
      "count": 336,
      "normalized": false,
      "byteOffset": 0,
      "bufferView": 11
    },
    {
      "type": "VEC4",
      "componentType": 5121,
      "count": 336,
      "normalized": true,
      "byteOffset": 0,
      "bufferView": 12
    },
    {
      "type": "SCALAR",
      "componentType": 5123,
      "count": 1470,
      "normalized": false,
      "byteOffset": 70086,
      "bufferView": 2
    },
    {
      "type": "VEC2",
      "componentType": 5126,
      "count": 590,
      "normalized": false,
      "byteOffset": 0,
      "bufferView": 13
    },
    {
      "type": "SCALAR",
      "componentType": 5123,
      "count": 360,
      "normalized": false,
      "byteOffset": 73026,
      "bufferView": 2
    },
    {
      "type": "SCALAR",
      "componentType": 5123,
      "count": 774,
      "normalized": false,
      "byteOffset": 73746,
      "bufferView": 2
    },
    {
      "type": "VEC2",
      "componentType": 5126,
      "count": 302,
      "normalized": false,
      "byteOffset": 0,
      "bufferView": 14
    },
    {
      "type": "SCALAR",
      "componentType": 5123,
      "count": 4908,
      "normalized": false,
      "byteOffset": 75294,
      "bufferView": 2
    },
    {
      "type": "VEC2",
      "componentType": 5126,
      "count": 2136,
      "normalized": false,
      "byteOffset": 0,
      "bufferView": 15
    },
    {
      "type": "SCALAR",
      "componentType": 5123,
      "count": 750,
      "normalized": false,
      "byteOffset": 85110,
      "bufferView": 2
    },
    {
      "type": "VEC2",
      "componentType": 5126,
      "count": 245,
      "normalized": false,
      "byteOffset": 0,
      "bufferView": 16
    },
    {
      "type": "SCALAR",
      "componentType": 5123,
      "count": 4908,
      "normalized": false,
      "byteOffset": 86610,
      "bufferView": 2
    },
    {
      "type": "VEC2",
      "componentType": 5126,
      "count": 2136,
      "normalized": false,
      "byteOffset": 0,
      "bufferView": 17
    },
    {
      "type": "SCALAR",
      "componentType": 5123,
      "count": 6000,
      "normalized": false,
      "byteOffset": 96426,
      "bufferView": 2
    },
    {
      "type": "VEC2",
      "componentType": 5126,
      "count": 2608,
      "normalized": false,
      "byteOffset": 0,
      "bufferView": 18
    },
    {
      "type": "VEC4",
      "componentType": 5121,
      "count": 2608,
      "normalized": true,
      "byteOffset": 0,
      "bufferView": 19
    },
    {
      "type": "SCALAR",
      "componentType": 5123,
      "count": 888,
      "normalized": false,
      "byteOffset": 108426,
      "bufferView": 2
    },
    {
      "type": "VEC2",
      "componentType": 5126,
      "count": 308,
      "normalized": false,
      "byteOffset": 0,
      "bufferView": 20
    },
    {
      "type": "VEC4",
      "componentType": 5121,
      "count": 308,
      "normalized": true,
      "byteOffset": 0,
      "bufferView": 21
    },
    {
      "type": "SCALAR",
      "componentType": 5123,
      "count": 294,
      "normalized": false,
      "byteOffset": 110202,
      "bufferView": 2
    },
    {
      "type": "VEC2",
      "componentType": 5126,
      "count": 108,
      "normalized": false,
      "byteOffset": 0,
      "bufferView": 22
    },
    {
      "type": "VEC4",
      "componentType": 5121,
      "count": 108,
      "normalized": true,
      "byteOffset": 0,
      "bufferView": 23
    },
    {
      "type": "SCALAR",
      "componentType": 5123,
      "count": 516,
      "normalized": false,
      "byteOffset": 110790,
      "bufferView": 2
    },
    {
      "type": "VEC2",
      "componentType": 5126,
      "count": 195,
      "normalized": false,
      "byteOffset": 0,
      "bufferView": 24
    },
    {
      "type": "VEC4",
      "componentType": 5121,
      "count": 195,
      "normalized": true,
      "byteOffset": 0,
      "bufferView": 25
    },
    {
      "type": "SCALAR",
      "componentType": 5123,
      "count": 6510,
      "normalized": false,
      "byteOffset": 111822,
      "bufferView": 2
    },
    {
      "type": "VEC2",
      "componentType": 5126,
      "count": 3177,
      "normalized": false,
      "byteOffset": 0,
      "bufferView": 26
    },
    {
      "type": "SCALAR",
      "componentType": 5123,
      "count": 906,
      "normalized": false,
      "byteOffset": 124842,
      "bufferView": 2
    },
    {
      "type": "VEC2",
      "componentType": 5126,
      "count": 292,
      "normalized": false,
      "byteOffset": 0,
      "bufferView": 27
    },
    {
      "type": "VEC3",
      "componentType": 5122,
      "count": 5903,
      "max": [
        19488,
        32767,
        9525
      ],
      "min": [
        -19488,
        -32767,
        -9880
      ],
      "normalized": true,
      "byteOffset": 0,
      "bufferView": 28
    },
    {
      "type": "VEC3",
      "componentType": 5122,
      "count": 5903,
      "normalized": true,
      "byteOffset": 0,
      "bufferView": 29
    },
    {
      "type": "VEC3",
      "componentType": 5121,
      "count": 5903,
      "normalized": true,
      "byteOffset": 0,
      "bufferView": 30
    },
    {
      "type": "VEC3",
      "componentType": 5122,
      "count": 240,
      "max": [
        8545,
        16937,
        5409
      ],
      "min": [
        2548,
        3040,
        3981
      ],
      "normalized": true,
      "byteOffset": 0,
      "bufferView": 31
    },
    {
      "type": "VEC3",
      "componentType": 5122,
      "count": 240,
      "normalized": true,
      "byteOffset": 0,
      "bufferView": 32
    },
    {
      "type": "VEC3",
      "componentType": 5121,
      "count": 240,
      "normalized": true,
      "byteOffset": 0,
      "bufferView": 33
    },
    {
      "type": "VEC3",
      "componentType": 5122,
      "count": 189,
      "max": [
        14868,
        14298,
        9880
      ],
      "min": [
        618,
        -22993,
        -9880
      ],
      "normalized": true,
      "byteOffset": 0,
      "bufferView": 34
    },
    {
      "type": "VEC3",
      "componentType": 5122,
      "count": 189,
      "normalized": true,
      "byteOffset": 0,
      "bufferView": 35
    },
    {
      "type": "VEC3",
      "componentType": 5121,
      "count": 189,
      "normalized": true,
      "byteOffset": 0,
      "bufferView": 36
    },
    {
      "type": "VEC3",
      "componentType": 5122,
      "count": 697,
      "max": [
        17601,
        32767,
        4231
      ],
      "min": [
        -17601,
        -32767,
        -4726
      ],
      "normalized": true,
      "byteOffset": 0,
      "bufferView": 37
    },
    {
      "type": "VEC3",
      "componentType": 5122,
      "count": 697,
      "normalized": true,
      "byteOffset": 0,
      "bufferView": 38
    },
    {
      "type": "VEC3",
      "componentType": 5121,
      "count": 697,
      "normalized": true,
      "byteOffset": 0,
      "bufferView": 39
    },
    {
      "type": "VEC3",
      "componentType": 5122,
      "count": 336,
      "max": [
        8884,
        16524,
        4726
      ],
      "min": [
        -8884,
        -19361,
        2313
      ],
      "normalized": true,
      "byteOffset": 0,
      "bufferView": 40
    },
    {
      "type": "VEC3",
      "componentType": 5122,
      "count": 336,
      "normalized": true,
      "byteOffset": 0,
      "bufferView": 41
    },
    {
      "type": "VEC3",
      "componentType": 5121,
      "count": 336,
      "normalized": true,
      "byteOffset": 0,
      "bufferView": 42
    },
    {
      "type": "VEC3",
      "componentType": 5122,
      "count": 189,
      "max": [
        -606,
        14286,
        9878
      ],
      "min": [
        -14853,
        -22995,
        -9878
      ],
      "normalized": true,
      "byteOffset": 0,
      "bufferView": 43
    },
    {
      "type": "VEC3",
      "componentType": 5122,
      "count": 240,
      "max": [
        -2535,
        16925,
        5408
      ],
      "min": [
        -8531,
        3032,
        3980
      ],
      "normalized": true,
      "byteOffset": 0,
      "bufferView": 44
    },
    {
      "type": "VEC3",
      "componentType": 5122,
      "count": 5897,
      "max": [
        19484,
        32767,
        9523
      ],
      "min": [
        -19484,
        -32767,
        -9878
      ],
      "normalized": true,
      "byteOffset": 0,
      "bufferView": 45
    },
    {
      "type": "VEC3",
      "componentType": 5122,
      "count": 5897,
      "normalized": true,
      "byteOffset": 0,
      "bufferView": 46
    },
    {
      "type": "VEC3",
      "componentType": 5121,
      "count": 5897,
      "normalized": true,
      "byteOffset": 0,
      "bufferView": 47
    },
    {
      "type": "VEC3",
      "componentType": 5122,
      "count": 38,
      "max": [
        2453,
        -6010,
        2453
      ],
      "min": [
        -2453,
        -32767,
        -2453
      ],
      "normalized": true,
      "byteOffset": 0,
      "bufferView": 48
    },
    {
      "type": "VEC3",
      "componentType": 5122,
      "count": 38,
      "normalized": true,
      "byteOffset": 0,
      "bufferView": 49
    },
    {
      "type": "VEC3",
      "componentType": 5121,
      "count": 38,
      "normalized": true,
      "byteOffset": 0,
      "bufferView": 50
    },
    {
      "type": "VEC3",
      "componentType": 5122,
      "count": 24,
      "max": [
        4459,
        27435,
        14716
      ],
      "min": [
        -4459,
        14057,
        7581
      ],
      "normalized": true,
      "byteOffset": 0,
      "bufferView": 51
    },
    {
      "type": "VEC3",
      "componentType": 5122,
      "count": 24,
      "normalized": true,
      "byteOffset": 0,
      "bufferView": 52
    },
    {
      "type": "VEC3",
      "componentType": 5121,
      "count": 24,
      "normalized": true,
      "byteOffset": 0,
      "bufferView": 53
    },
    {
      "type": "VEC3",
      "componentType": 5122,
      "count": 850,
      "max": [
        21405,
        32767,
        21405
      ],
      "min": [
        -21405,
        -6350,
        -21405
      ],
      "normalized": true,
      "byteOffset": 0,
      "bufferView": 54
    },
    {
      "type": "VEC3",
      "componentType": 5122,
      "count": 850,
      "normalized": true,
      "byteOffset": 0,
      "bufferView": 55
    },
    {
      "type": "VEC3",
      "componentType": 5121,
      "count": 850,
      "normalized": true,
      "byteOffset": 0,
      "bufferView": 56
    },
    {
      "type": "VEC3",
      "componentType": 5122,
      "count": 281,
      "max": [
        20792,
        32767,
        6115
      ],
      "min": [
        -20792,
        -32767,
        -6115
      ],
      "normalized": true,
      "byteOffset": 0,
      "bufferView": 57
    },
    {
      "type": "VEC3",
      "componentType": 5122,
      "count": 281,
      "normalized": true,
      "byteOffset": 0,
      "bufferView": 58
    },
    {
      "type": "VEC3",
      "componentType": 5122,
      "count": 336,
      "max": [
        4816,
        22198,
        4201
      ],
      "min": [
        -4816,
        2933,
        2491
      ],
      "normalized": true,
      "byteOffset": 0,
      "bufferView": 59
    },
    {
      "type": "VEC3",
      "componentType": 5122,
      "count": 336,
      "normalized": true,
      "byteOffset": 0,
      "bufferView": 60
    },
    {
      "type": "VEC3",
      "componentType": 5122,
      "count": 590,
      "max": [
        14689,
        32767,
        12102
      ],
      "min": [
        -14689,
        -32767,
        -12512
      ],
      "normalized": true,
      "byteOffset": 0,
      "bufferView": 61
    },
    {
      "type": "VEC3",
      "componentType": 5122,
      "count": 590,
      "normalized": true,
      "byteOffset": 0,
      "bufferView": 62
    },
    {
      "type": "VEC3",
      "componentType": 5121,
      "count": 590,
      "normalized": true,
      "byteOffset": 0,
      "bufferView": 63
    },
    {
      "type": "VEC3",
      "componentType": 5122,
      "count": 136,
      "max": [
        9196,
        -2088,
        12512
      ],
      "min": [
        -9199,
        -29106,
        10077
      ],
      "normalized": true,
      "byteOffset": 0,
      "bufferView": 64
    },
    {
      "type": "VEC3",
      "componentType": 5122,
      "count": 136,
      "normalized": true,
      "byteOffset": 0,
      "bufferView": 65
    },
    {
      "type": "VEC3",
      "componentType": 5121,
      "count": 136,
      "normalized": true,
      "byteOffset": 0,
      "bufferView": 66
    },
    {
      "type": "VEC3",
      "componentType": 5122,
      "count": 302,
      "max": [
        8725,
        -13534,
        11629
      ],
      "min": [
        -8727,
        -23489,
        10025
      ],
      "normalized": true,
      "byteOffset": 0,
      "bufferView": 67
    },
    {
      "type": "VEC3",
      "componentType": 5122,
      "count": 302,
      "normalized": true,
      "byteOffset": 0,
      "bufferView": 68
    },
    {
      "type": "VEC3",
      "componentType": 5121,
      "count": 302,
      "normalized": true,
      "byteOffset": 0,
      "bufferView": 69
    },
    {
      "type": "VEC3",
      "componentType": 5122,
      "count": 2136,
      "max": [
        10777,
        30414,
        18353
      ],
      "min": [
        -10777,
        -32767,
        -18533
      ],
      "normalized": true,
      "byteOffset": 0,
      "bufferView": 70
    },
    {
      "type": "VEC3",
      "componentType": 5122,
      "count": 2136,
      "normalized": true,
      "byteOffset": 0,
      "bufferView": 71
    },
    {
      "type": "VEC3",
      "componentType": 5121,
      "count": 2136,
      "normalized": true,
      "byteOffset": 0,
      "bufferView": 72
    },
    {
      "type": "VEC3",
      "componentType": 5122,
      "count": 336,
      "max": [
        3979,
        6693,
        8069
      ],
      "min": [
        -3979,
        -8430,
        4964
      ],
      "normalized": true,
      "byteOffset": 0,
      "bufferView": 73
    },
    {
      "type": "VEC3",
      "componentType": 5122,
      "count": 336,
      "normalized": true,
      "byteOffset": 0,
      "bufferView": 74
    },
    {
      "type": "VEC3",
      "componentType": 5122,
      "count": 245,
      "max": [
        9915,
        32767,
        18966
      ],
      "min": [
        -9915,
        -27234,
        -18966
      ],
      "normalized": true,
      "byteOffset": 0,
      "bufferView": 75
    },
    {
      "type": "VEC3",
      "componentType": 5122,
      "count": 245,
      "normalized": true,
      "byteOffset": 0,
      "bufferView": 76
    },
    {
      "type": "VEC3",
      "componentType": 5121,
      "count": 245,
      "normalized": true,
      "byteOffset": 0,
      "bufferView": 77
    },
    {
      "type": "VEC3",
      "componentType": 5122,
      "count": 2136,
      "max": [
        10777,
        30414,
        18353
      ],
      "min": [
        -10777,
        -32767,
        -18533
      ],
      "normalized": true,
      "byteOffset": 0,
      "bufferView": 78
    },
    {
      "type": "VEC3",
      "componentType": 5122,
      "count": 2136,
      "normalized": true,
      "byteOffset": 0,
      "bufferView": 79
    },
    {
      "type": "VEC3",
      "componentType": 5121,
      "count": 2136,
      "normalized": true,
      "byteOffset": 0,
      "bufferView": 80
    },
    {
      "type": "VEC3",
      "componentType": 5122,
      "count": 2608,
      "max": [
        27415,
        30476,
        15065
      ],
      "min": [
        -27415,
        3942,
        1391
      ],
      "normalized": true,
      "byteOffset": 0,
      "bufferView": 81
    },
    {
      "type": "VEC3",
      "componentType": 5122,
      "count": 2608,
      "normalized": true,
      "byteOffset": 0,
      "bufferView": 82
    },
    {
      "type": "VEC3",
      "componentType": 5122,
      "count": 308,
      "max": [
        24379,
        30127,
        15692
      ],
      "min": [
        -24379,
        11885,
        -15692
      ],
      "normalized": true,
      "byteOffset": 0,
      "bufferView": 83
    },
    {
      "type": "VEC3",
      "componentType": 5122,
      "count": 308,
      "normalized": true,
      "byteOffset": 0,
      "bufferView": 84
    },
    {
      "type": "VEC3",
      "componentType": 5122,
      "count": 108,
      "max": [
        5454,
        32767,
        15358
      ],
      "min": [
        -5454,
        19694,
        9373
      ],
      "normalized": true,
      "byteOffset": 0,
      "bufferView": 85
    },
    {
      "type": "VEC3",
      "componentType": 5122,
      "count": 108,
      "normalized": true,
      "byteOffset": 0,
      "bufferView": 86
    },
    {
      "type": "VEC3",
      "componentType": 5122,
      "count": 195,
      "max": [
        18122,
        26815,
        15519
      ],
      "min": [
        -18154,
        -32767,
        7725
      ],
      "normalized": true,
      "byteOffset": 0,
      "bufferView": 87
    },
    {
      "type": "VEC3",
      "componentType": 5122,
      "count": 195,
      "normalized": true,
      "byteOffset": 0,
      "bufferView": 88
    },
    {
      "type": "VEC3",
      "componentType": 5122,
      "count": 3177,
      "max": [
        28764,
        23947,
        18653
      ],
      "min": [
        -28780,
        -30663,
        7832
      ],
      "normalized": true,
      "byteOffset": 0,
      "bufferView": 89
    },
    {
      "type": "VEC3",
      "componentType": 5122,
      "count": 3177,
      "normalized": true,
      "byteOffset": 0,
      "bufferView": 90
    },
    {
      "type": "VEC3",
      "componentType": 5121,
      "count": 3177,
      "normalized": true,
      "byteOffset": 0,
      "bufferView": 91
    },
    {
      "type": "VEC3",
      "componentType": 5122,
      "count": 336,
      "max": [
        5865,
        18644,
        18721
      ],
      "min": [
        -5865,
        -4280,
        15489
      ],
      "normalized": true,
      "byteOffset": 0,
      "bufferView": 92
    },
    {
      "type": "VEC3",
      "componentType": 5122,
      "count": 336,
      "normalized": true,
      "byteOffset": 0,
      "bufferView": 93
    },
    {
      "type": "VEC3",
      "componentType": 5122,
      "count": 292,
      "max": [
        30074,
        32767,
        19293
      ],
      "min": [
        -30074,
        -32767,
        -19293
      ],
      "normalized": true,
      "byteOffset": 0,
      "bufferView": 94
    },
    {
      "type": "VEC3",
      "componentType": 5122,
      "count": 292,
      "normalized": true,
      "byteOffset": 0,
      "bufferView": 95
    },
    {
      "type": "VEC3",
      "componentType": 5121,
      "count": 292,
      "normalized": true,
      "byteOffset": 0,
      "bufferView": 96
    }
  ],
  "bufferViews": [
    {
      "buffer": 1,
      "byteOffset": 0,
      "byteLength": 296,
      "extensions": {
        "EXT_meshopt_compression": {
          "buffer": 0,
          "byteOffset": 0,
          "byteLength": 279,
          "mode": "ATTRIBUTES",
          "byteStride": 4,
          "count": 74
        }
      }
    },
    {
      "buffer": 1,
      "byteOffset": 296,
      "byteLength": 5168,
      "extensions": {
        "EXT_meshopt_compression": {
          "buffer": 0,
          "byteOffset": 280,
          "byteLength": 2007,
          "mode": "ATTRIBUTES",
          "byteStride": 16,
          "count": 323
        }
      }
    },
    {
      "buffer": 1,
      "byteOffset": 5464,
      "byteLength": 126654,
      "target": 34963,
      "extensions": {
        "EXT_meshopt_compression": {
          "buffer": 0,
          "byteOffset": 2288,
          "byteLength": 22224,
          "mode": "TRIANGLES",
          "byteStride": 2,
          "count": 63327
        }
      }
    },
    {
      "buffer": 1,
      "byteOffset": 132120,
      "byteLength": 47224,
      "target": 34962,
      "byteStride": 8,
      "extensions": {
        "EXT_meshopt_compression": {
          "buffer": 0,
          "byteOffset": 24512,
          "byteLength": 36531,
          "mode": "ATTRIBUTES",
          "byteStride": 8,
          "count": 5903
        }
      }
    },
    {
      "buffer": 1,
      "byteOffset": 179344,
      "byteLength": 1512,
      "target": 34962,
      "byteStride": 8,
      "extensions": {
        "EXT_meshopt_compression": {
          "buffer": 0,
          "byteOffset": 61044,
          "byteLength": 1292,
          "mode": "ATTRIBUTES",
          "byteStride": 8,
          "count": 189
        }
      }
    },
    {
      "buffer": 1,
      "byteOffset": 180856,
      "byteLength": 5576,
      "target": 34962,
      "byteStride": 8,
      "extensions": {
        "EXT_meshopt_compression": {
          "buffer": 0,
          "byteOffset": 62336,
          "byteLength": 4723,
          "mode": "ATTRIBUTES",
          "byteStride": 8,
          "count": 697
        }
      }
    },
    {
      "buffer": 1,
      "byteOffset": 186432,
      "byteLength": 47176,
      "target": 34962,
      "byteStride": 8,
      "extensions": {
        "EXT_meshopt_compression": {
          "buffer": 0,
          "byteOffset": 67060,
          "byteLength": 36500,
          "mode": "ATTRIBUTES",
          "byteStride": 8,
          "count": 5897
        }
      }
    },
    {
      "buffer": 1,
      "byteOffset": 233608,
      "byteLength": 304,
      "target": 34962,
      "byteStride": 8,
      "extensions": {
        "EXT_meshopt_compression": {
          "buffer": 0,
          "byteOffset": 103560,
          "byteLength": 304,
          "mode": "ATTRIBUTES",
          "byteStride": 8,
          "count": 38
        }
      }
    },
    {
      "buffer": 1,
      "byteOffset": 233912,
      "byteLength": 6800,
      "target": 34962,
      "byteStride": 8,
      "extensions": {
        "EXT_meshopt_compression": {
          "buffer": 0,
          "byteOffset": 103864,
          "byteLength": 5675,
          "mode": "ATTRIBUTES",
          "byteStride": 8,
          "count": 850
        }
      }
    },
    {
      "buffer": 1,
      "byteOffset": 240712,
      "byteLength": 2248,
      "target": 34962,
      "byteStride": 8,
      "extensions": {
        "EXT_meshopt_compression": {
          "buffer": 0,
          "byteOffset": 109540,
          "byteLength": 1940,
          "mode": "ATTRIBUTES",
          "byteStride": 8,
          "count": 281
        }
      }
    },
    {
      "buffer": 1,
      "byteOffset": 242960,
      "byteLength": 1124,
      "target": 34962,
      "byteStride": 4,
      "extensions": {
        "EXT_meshopt_compression": {
          "buffer": 0,
          "byteOffset": 111480,
          "byteLength": 53,
          "mode": "ATTRIBUTES",
          "byteStride": 4,
          "count": 281
        }
      }
    },
    {
      "buffer": 1,
      "byteOffset": 244084,
      "byteLength": 2688,
      "target": 34962,
      "byteStride": 8,
      "extensions": {
        "EXT_meshopt_compression": {
          "buffer": 0,
          "byteOffset": 111536,
          "byteLength": 2148,
          "mode": "ATTRIBUTES",
          "byteStride": 8,
          "count": 336
        }
      }
    },
    {
      "buffer": 1,
      "byteOffset": 246772,
      "byteLength": 1344,
      "target": 34962,
      "byteStride": 4,
      "extensions": {
        "EXT_meshopt_compression": {
          "buffer": 0,
          "byteOffset": 113684,
          "byteLength": 57,
          "mode": "ATTRIBUTES",
          "byteStride": 4,
          "count": 336
        }
      }
    },
    {
      "buffer": 1,
      "byteOffset": 248116,
      "byteLength": 4720,
      "target": 34962,
      "byteStride": 8,
      "extensions": {
        "EXT_meshopt_compression": {
          "buffer": 0,
          "byteOffset": 113744,
          "byteLength": 4029,
          "mode": "ATTRIBUTES",
          "byteStride": 8,
          "count": 590
        }
      }
    },
    {
      "buffer": 1,
      "byteOffset": 252836,
      "byteLength": 2416,
      "target": 34962,
      "byteStride": 8,
      "extensions": {
        "EXT_meshopt_compression": {
          "buffer": 0,
          "byteOffset": 117776,
          "byteLength": 1843,
          "mode": "ATTRIBUTES",
          "byteStride": 8,
          "count": 302
        }
      }
    },
    {
      "buffer": 1,
      "byteOffset": 255252,
      "byteLength": 17088,
      "target": 34962,
      "byteStride": 8,
      "extensions": {
        "EXT_meshopt_compression": {
          "buffer": 0,
          "byteOffset": 119620,
          "byteLength": 13632,
          "mode": "ATTRIBUTES",
          "byteStride": 8,
          "count": 2136
        }
      }
    },
    {
      "buffer": 1,
      "byteOffset": 272340,
      "byteLength": 1960,
      "target": 34962,
      "byteStride": 8,
      "extensions": {
        "EXT_meshopt_compression": {
          "buffer": 0,
          "byteOffset": 133252,
          "byteLength": 1657,
          "mode": "ATTRIBUTES",
          "byteStride": 8,
          "count": 245
        }
      }
    },
    {
      "buffer": 1,
      "byteOffset": 274300,
      "byteLength": 17088,
      "target": 34962,
      "byteStride": 8,
      "extensions": {
        "EXT_meshopt_compression": {
          "buffer": 0,
          "byteOffset": 134912,
          "byteLength": 13632,
          "mode": "ATTRIBUTES",
          "byteStride": 8,
          "count": 2136
        }
      }
    },
    {
      "buffer": 1,
      "byteOffset": 291388,
      "byteLength": 20864,
      "target": 34962,
      "byteStride": 8,
      "extensions": {
        "EXT_meshopt_compression": {
          "buffer": 0,
          "byteOffset": 148544,
          "byteLength": 16332,
          "mode": "ATTRIBUTES",
          "byteStride": 8,
          "count": 2608
        }
      }
    },
    {
      "buffer": 1,
      "byteOffset": 312252,
      "byteLength": 10432,
      "target": 34962,
      "byteStride": 4,
      "extensions": {
        "EXT_meshopt_compression": {
          "buffer": 0,
          "byteOffset": 164876,
          "byteLength": 197,
          "mode": "ATTRIBUTES",
          "byteStride": 4,
          "count": 2608
        }
      }
    },
    {
      "buffer": 1,
      "byteOffset": 322684,
      "byteLength": 2464,
      "target": 34962,
      "byteStride": 8,
      "extensions": {
        "EXT_meshopt_compression": {
          "buffer": 0,
          "byteOffset": 165076,
          "byteLength": 1907,
          "mode": "ATTRIBUTES",
          "byteStride": 8,
          "count": 308
        }
      }
    },
    {
      "buffer": 1,
      "byteOffset": 325148,
      "byteLength": 1232,
      "target": 34962,
      "byteStride": 4,
      "extensions": {
        "EXT_meshopt_compression": {
          "buffer": 0,
          "byteOffset": 166984,
          "byteLength": 53,
          "mode": "ATTRIBUTES",
          "byteStride": 4,
          "count": 308
        }
      }
    },
    {
      "buffer": 1,
      "byteOffset": 326380,
      "byteLength": 864,
      "target": 34962,
      "byteStride": 8,
      "extensions": {
        "EXT_meshopt_compression": {
          "buffer": 0,
          "byteOffset": 167040,
          "byteLength": 720,
          "mode": "ATTRIBUTES",
          "byteStride": 8,
          "count": 108
        }
      }
    },
    {
      "buffer": 1,
      "byteOffset": 327244,
      "byteLength": 432,
      "target": 34962,
      "byteStride": 4,
      "extensions": {
        "EXT_meshopt_compression": {
          "buffer": 0,
          "byteOffset": 167760,
          "byteLength": 41,
          "mode": "ATTRIBUTES",
          "byteStride": 4,
          "count": 108
        }
      }
    },
    {
      "buffer": 1,
      "byteOffset": 327676,
      "byteLength": 1560,
      "target": 34962,
      "byteStride": 8,
      "extensions": {
        "EXT_meshopt_compression": {
          "buffer": 0,
          "byteOffset": 167804,
          "byteLength": 1395,
          "mode": "ATTRIBUTES",
          "byteStride": 8,
          "count": 195
        }
      }
    },
    {
      "buffer": 1,
      "byteOffset": 329236,
      "byteLength": 780,
      "target": 34962,
      "byteStride": 4,
      "extensions": {
        "EXT_meshopt_compression": {
          "buffer": 0,
          "byteOffset": 169200,
          "byteLength": 49,
          "mode": "ATTRIBUTES",
          "byteStride": 4,
          "count": 195
        }
      }
    },
    {
      "buffer": 1,
      "byteOffset": 330016,
      "byteLength": 25416,
      "target": 34962,
      "byteStride": 8,
      "extensions": {
        "EXT_meshopt_compression": {
          "buffer": 0,
          "byteOffset": 169252,
          "byteLength": 19992,
          "mode": "ATTRIBUTES",
          "byteStride": 8,
          "count": 3177
        }
      }
    },
    {
      "buffer": 1,
      "byteOffset": 355432,
      "byteLength": 2336,
      "target": 34962,
      "byteStride": 8,
      "extensions": {
        "EXT_meshopt_compression": {
          "buffer": 0,
          "byteOffset": 189244,
          "byteLength": 2010,
          "mode": "ATTRIBUTES",
          "byteStride": 8,
          "count": 292
        }
      }
    },
    {
      "buffer": 1,
      "byteOffset": 357768,
      "byteLength": 47224,
      "target": 34962,
      "byteStride": 8,
      "extensions": {
        "EXT_meshopt_compression": {
          "buffer": 0,
          "byteOffset": 191256,
          "byteLength": 27956,
          "mode": "ATTRIBUTES",
          "byteStride": 8,
          "count": 5903
        }
      }
    },
    {
      "buffer": 1,
      "byteOffset": 404992,
      "byteLength": 47224,
      "target": 34962,
      "byteStride": 8,
      "extensions": {
        "EXT_meshopt_compression": {
          "buffer": 0,
          "byteOffset": 219212,
          "byteLength": 33096,
          "mode": "ATTRIBUTES",
          "byteStride": 8,
          "count": 5903
        }
      }
    },
    {
      "buffer": 1,
      "byteOffset": 452216,
      "byteLength": 23612,
      "target": 34962,
      "byteStride": 4,
      "extensions": {
        "EXT_meshopt_compression": {
          "buffer": 0,
          "byteOffset": 252308,
          "byteLength": 8176,
          "mode": "ATTRIBUTES",
          "byteStride": 4,
          "count": 5903
        }
      }
    },
    {
      "buffer": 1,
      "byteOffset": 475828,
      "byteLength": 1920,
      "target": 34962,
      "byteStride": 8,
      "extensions": {
        "EXT_meshopt_compression": {
          "buffer": 0,
          "byteOffset": 260484,
          "byteLength": 1171,
          "mode": "ATTRIBUTES",
          "byteStride": 8,
          "count": 240
        }
      }
    },
    {
      "buffer": 1,
      "byteOffset": 477748,
      "byteLength": 1920,
      "target": 34962,
      "byteStride": 8,
      "extensions": {
        "EXT_meshopt_compression": {
          "buffer": 0,
          "byteOffset": 261656,
          "byteLength": 831,
          "mode": "ATTRIBUTES",
          "byteStride": 8,
          "count": 240
        }
      }
    },
    {
      "buffer": 1,
      "byteOffset": 479668,
      "byteLength": 960,
      "target": 34962,
      "byteStride": 4,
      "extensions": {
        "EXT_meshopt_compression": {
          "buffer": 0,
          "byteOffset": 262488,
          "byteLength": 49,
          "mode": "ATTRIBUTES",
          "byteStride": 4,
          "count": 240
        }
      }
    },
    {
      "buffer": 1,
      "byteOffset": 480628,
      "byteLength": 1512,
      "target": 34962,
      "byteStride": 8,
      "extensions": {
        "EXT_meshopt_compression": {
          "buffer": 0,
          "byteOffset": 262540,
          "byteLength": 1139,
          "mode": "ATTRIBUTES",
          "byteStride": 8,
          "count": 189
        }
      }
    },
    {
      "buffer": 1,
      "byteOffset": 482140,
      "byteLength": 1512,
      "target": 34962,
      "byteStride": 8,
      "extensions": {
        "EXT_meshopt_compression": {
          "buffer": 0,
          "byteOffset": 263680,
          "byteLength": 1209,
          "mode": "ATTRIBUTES",
          "byteStride": 8,
          "count": 189
        }
      }
    },
    {
      "buffer": 1,
      "byteOffset": 483652,
      "byteLength": 756,
      "target": 34962,
      "byteStride": 4,
      "extensions": {
        "EXT_meshopt_compression": {
          "buffer": 0,
          "byteOffset": 264892,
          "byteLength": 45,
          "mode": "ATTRIBUTES",
          "byteStride": 4,
          "count": 189
        }
      }
    },
    {
      "buffer": 1,
      "byteOffset": 484408,
      "byteLength": 5576,
      "target": 34962,
      "byteStride": 8,
      "extensions": {
        "EXT_meshopt_compression": {
          "buffer": 0,
          "byteOffset": 264940,
          "byteLength": 3596,
          "mode": "ATTRIBUTES",
          "byteStride": 8,
          "count": 697
        }
      }
    },
    {
      "buffer": 1,
      "byteOffset": 489984,
      "byteLength": 5576,
      "target": 34962,
      "byteStride": 8,
      "extensions": {
        "EXT_meshopt_compression": {
          "buffer": 0,
          "byteOffset": 268536,
          "byteLength": 3286,
          "mode": "ATTRIBUTES",
          "byteStride": 8,
          "count": 697
        }
      }
    },
    {
      "buffer": 1,
      "byteOffset": 495560,
      "byteLength": 2788,
      "target": 34962,
      "byteStride": 4,
      "extensions": {
        "EXT_meshopt_compression": {
          "buffer": 0,
          "byteOffset": 271824,
          "byteLength": 948,
          "mode": "ATTRIBUTES",
          "byteStride": 4,
          "count": 697
        }
      }
    },
    {
      "buffer": 1,
      "byteOffset": 498348,
      "byteLength": 2688,
      "target": 34962,
      "byteStride": 8,
      "extensions": {
        "EXT_meshopt_compression": {
          "buffer": 0,
          "byteOffset": 272772,
          "byteLength": 1811,
          "mode": "ATTRIBUTES",
          "byteStride": 8,
          "count": 336
        }
      }
    },
    {
      "buffer": 1,
      "byteOffset": 501036,
      "byteLength": 2688,
      "target": 34962,
      "byteStride": 8,
      "extensions": {
        "EXT_meshopt_compression": {
          "buffer": 0,
          "byteOffset": 274584,
          "byteLength": 1140,
          "mode": "ATTRIBUTES",
          "byteStride": 8,
          "count": 336
        }
      }
    },
    {
      "buffer": 1,
      "byteOffset": 503724,
      "byteLength": 1344,
      "target": 34962,
      "byteStride": 4,
      "extensions": {
        "EXT_meshopt_compression": {
          "buffer": 0,
          "byteOffset": 275724,
          "byteLength": 57,
          "mode": "ATTRIBUTES",
          "byteStride": 4,
          "count": 336
        }
      }
    },
    {
      "buffer": 1,
      "byteOffset": 505068,
      "byteLength": 1512,
      "target": 34962,
      "byteStride": 8,
      "extensions": {
        "EXT_meshopt_compression": {
          "buffer": 0,
          "byteOffset": 275784,
          "byteLength": 1138,
          "mode": "ATTRIBUTES",
          "byteStride": 8,
          "count": 189
        }
      }
    },
    {
      "buffer": 1,
      "byteOffset": 506580,
      "byteLength": 1920,
      "target": 34962,
      "byteStride": 8,
      "extensions": {
        "EXT_meshopt_compression": {
          "buffer": 0,
          "byteOffset": 276924,
          "byteLength": 1170,
          "mode": "ATTRIBUTES",
          "byteStride": 8,
          "count": 240
        }
      }
    },
    {
      "buffer": 1,
      "byteOffset": 508500,
      "byteLength": 47176,
      "target": 34962,
      "byteStride": 8,
      "extensions": {
        "EXT_meshopt_compression": {
          "buffer": 0,
          "byteOffset": 278096,
          "byteLength": 27896,
          "mode": "ATTRIBUTES",
          "byteStride": 8,
          "count": 5897
        }
      }
    },
    {
      "buffer": 1,
      "byteOffset": 555676,
      "byteLength": 47176,
      "target": 34962,
      "byteStride": 8,
      "extensions": {
        "EXT_meshopt_compression": {
          "buffer": 0,
          "byteOffset": 305992,
          "byteLength": 33096,
          "mode": "ATTRIBUTES",
          "byteStride": 8,
          "count": 5897
        }
      }
    },
    {
      "buffer": 1,
      "byteOffset": 602852,
      "byteLength": 23588,
      "target": 34962,
      "byteStride": 4,
      "extensions": {
        "EXT_meshopt_compression": {
          "buffer": 0,
          "byteOffset": 339088,
          "byteLength": 8154,
          "mode": "ATTRIBUTES",
          "byteStride": 4,
          "count": 5897
        }
      }
    },
    {
      "buffer": 1,
      "byteOffset": 626440,
      "byteLength": 304,
      "target": 34962,
      "byteStride": 8,
      "extensions": {
        "EXT_meshopt_compression": {
          "buffer": 0,
          "byteOffset": 347244,
          "byteLength": 219,
          "mode": "ATTRIBUTES",
          "byteStride": 8,
          "count": 38
        }
      }
    },
    {
      "buffer": 1,
      "byteOffset": 626744,
      "byteLength": 304,
      "target": 34962,
      "byteStride": 8,
      "extensions": {
        "EXT_meshopt_compression": {
          "buffer": 0,
          "byteOffset": 347464,
          "byteLength": 135,
          "mode": "ATTRIBUTES",
          "byteStride": 8,
          "count": 38
        }
      }
    },
    {
      "buffer": 1,
      "byteOffset": 627048,
      "byteLength": 152,
      "target": 34962,
      "byteStride": 4,
      "extensions": {
        "EXT_meshopt_compression": {
          "buffer": 0,
          "byteOffset": 347600,
          "byteLength": 37,
          "mode": "ATTRIBUTES",
          "byteStride": 4,
          "count": 38
        }
      }
    },
    {
      "buffer": 1,
      "byteOffset": 627200,
      "byteLength": 192,
      "target": 34962,
      "byteStride": 8,
      "extensions": {
        "EXT_meshopt_compression": {
          "buffer": 0,
          "byteOffset": 347640,
          "byteLength": 181,
          "mode": "ATTRIBUTES",
          "byteStride": 8,
          "count": 24
        }
      }
    },
    {
      "buffer": 1,
      "byteOffset": 627392,
      "byteLength": 192,
      "target": 34962,
      "byteStride": 8,
      "extensions": {
        "EXT_meshopt_compression": {
          "buffer": 0,
          "byteOffset": 347824,
          "byteLength": 95,
          "mode": "ATTRIBUTES",
          "byteStride": 8,
          "count": 24
        }
      }
    },
    {
      "buffer": 1,
      "byteOffset": 627584,
      "byteLength": 96,
      "target": 34962,
      "byteStride": 4,
      "extensions": {
        "EXT_meshopt_compression": {
          "buffer": 0,
          "byteOffset": 347920,
          "byteLength": 37,
          "mode": "ATTRIBUTES",
          "byteStride": 4,
          "count": 24
        }
      }
    },
    {
      "buffer": 1,
      "byteOffset": 627680,
      "byteLength": 6800,
      "target": 34962,
      "byteStride": 8,
      "extensions": {
        "EXT_meshopt_compression": {
          "buffer": 0,
          "byteOffset": 347960,
          "byteLength": 4174,
          "mode": "ATTRIBUTES",
          "byteStride": 8,
          "count": 850
        }
      }
    },
    {
      "buffer": 1,
      "byteOffset": 634480,
      "byteLength": 6800,
      "target": 34962,
      "byteStride": 8,
      "extensions": {
        "EXT_meshopt_compression": {
          "buffer": 0,
          "byteOffset": 352136,
          "byteLength": 5201,
          "mode": "ATTRIBUTES",
          "byteStride": 8,
          "count": 850
        }
      }
    },
    {
      "buffer": 1,
      "byteOffset": 641280,
      "byteLength": 3400,
      "target": 34962,
      "byteStride": 4,
      "extensions": {
        "EXT_meshopt_compression": {
          "buffer": 0,
          "byteOffset": 357340,
          "byteLength": 1191,
          "mode": "ATTRIBUTES",
          "byteStride": 4,
          "count": 850
        }
      }
    },
    {
      "buffer": 1,
      "byteOffset": 644680,
      "byteLength": 2248,
      "target": 34962,
      "byteStride": 8,
      "extensions": {
        "EXT_meshopt_compression": {
          "buffer": 0,
          "byteOffset": 358532,
          "byteLength": 1643,
          "mode": "ATTRIBUTES",
          "byteStride": 8,
          "count": 281
        }
      }
    },
    {
      "buffer": 1,
      "byteOffset": 646928,
      "byteLength": 2248,
      "target": 34962,
      "byteStride": 8,
      "extensions": {
        "EXT_meshopt_compression": {
          "buffer": 0,
          "byteOffset": 360176,
          "byteLength": 1752,
          "mode": "ATTRIBUTES",
          "byteStride": 8,
          "count": 281
        }
      }
    },
    {
      "buffer": 1,
      "byteOffset": 649176,
      "byteLength": 2688,
      "target": 34962,
      "byteStride": 8,
      "extensions": {
        "EXT_meshopt_compression": {
          "buffer": 0,
          "byteOffset": 361928,
          "byteLength": 1708,
          "mode": "ATTRIBUTES",
          "byteStride": 8,
          "count": 336
        }
      }
    },
    {
      "buffer": 1,
      "byteOffset": 651864,
      "byteLength": 2688,
      "target": 34962,
      "byteStride": 8,
      "extensions": {
        "EXT_meshopt_compression": {
          "buffer": 0,
          "byteOffset": 363636,
          "byteLength": 1144,
          "mode": "ATTRIBUTES",
          "byteStride": 8,
          "count": 336
        }
      }
    },
    {
      "buffer": 1,
      "byteOffset": 654552,
      "byteLength": 4720,
      "target": 34962,
      "byteStride": 8,
      "extensions": {
        "EXT_meshopt_compression": {
          "buffer": 0,
          "byteOffset": 364780,
          "byteLength": 3410,
          "mode": "ATTRIBUTES",
          "byteStride": 8,
          "count": 590
        }
      }
    },
    {
      "buffer": 1,
      "byteOffset": 659272,
      "byteLength": 4720,
      "target": 34962,
      "byteStride": 8,
      "extensions": {
        "EXT_meshopt_compression": {
          "buffer": 0,
          "byteOffset": 368192,
          "byteLength": 3313,
          "mode": "ATTRIBUTES",
          "byteStride": 8,
          "count": 590
        }
      }
    },
    {
      "buffer": 1,
      "byteOffset": 663992,
      "byteLength": 2360,
      "target": 34962,
      "byteStride": 4,
      "extensions": {
        "EXT_meshopt_compression": {
          "buffer": 0,
          "byteOffset": 371508,
          "byteLength": 669,
          "mode": "ATTRIBUTES",
          "byteStride": 4,
          "count": 590
        }
      }
    },
    {
      "buffer": 1,
      "byteOffset": 666352,
      "byteLength": 1088,
      "target": 34962,
      "byteStride": 8,
      "extensions": {
        "EXT_meshopt_compression": {
          "buffer": 0,
          "byteOffset": 372180,
          "byteLength": 726,
          "mode": "ATTRIBUTES",
          "byteStride": 8,
          "count": 136
        }
      }
    },
    {
      "buffer": 1,
      "byteOffset": 667440,
      "byteLength": 1088,
      "target": 34962,
      "byteStride": 8,
      "extensions": {
        "EXT_meshopt_compression": {
          "buffer": 0,
          "byteOffset": 372908,
          "byteLength": 896,
          "mode": "ATTRIBUTES",
          "byteStride": 8,
          "count": 136
        }
      }
    },
    {
      "buffer": 1,
      "byteOffset": 668528,
      "byteLength": 544,
      "target": 34962,
      "byteStride": 4,
      "extensions": {
        "EXT_meshopt_compression": {
          "buffer": 0,
          "byteOffset": 373804,
          "byteLength": 45,
          "mode": "ATTRIBUTES",
          "byteStride": 4,
          "count": 136
        }
      }
    },
    {
      "buffer": 1,
      "byteOffset": 669072,
      "byteLength": 2416,
      "target": 34962,
      "byteStride": 8,
      "extensions": {
        "EXT_meshopt_compression": {
          "buffer": 0,
          "byteOffset": 373852,
          "byteLength": 1513,
          "mode": "ATTRIBUTES",
          "byteStride": 8,
          "count": 302
        }
      }
    },
    {
      "buffer": 1,
      "byteOffset": 671488,
      "byteLength": 2416,
      "target": 34962,
      "byteStride": 8,
      "extensions": {
        "EXT_meshopt_compression": {
          "buffer": 0,
          "byteOffset": 375368,
          "byteLength": 1894,
          "mode": "ATTRIBUTES",
          "byteStride": 8,
          "count": 302
        }
      }
    },
    {
      "buffer": 1,
      "byteOffset": 673904,
      "byteLength": 1208,
      "target": 34962,
      "byteStride": 4,
      "extensions": {
        "EXT_meshopt_compression": {
          "buffer": 0,
          "byteOffset": 377264,
          "byteLength": 53,
          "mode": "ATTRIBUTES",
          "byteStride": 4,
          "count": 302
        }
      }
    },
    {
      "buffer": 1,
      "byteOffset": 675112,
      "byteLength": 17088,
      "target": 34962,
      "byteStride": 8,
      "extensions": {
        "EXT_meshopt_compression": {
          "buffer": 0,
          "byteOffset": 377320,
          "byteLength": 11465,
          "mode": "ATTRIBUTES",
          "byteStride": 8,
          "count": 2136
        }
      }
    },
    {
      "buffer": 1,
      "byteOffset": 692200,
      "byteLength": 17088,
      "target": 34962,
      "byteStride": 8,
      "extensions": {
        "EXT_meshopt_compression": {
          "buffer": 0,
          "byteOffset": 388788,
          "byteLength": 11199,
          "mode": "ATTRIBUTES",
          "byteStride": 8,
          "count": 2136
        }
      }
    },
    {
      "buffer": 1,
      "byteOffset": 709288,
      "byteLength": 8544,
      "target": 34962,
      "byteStride": 4,
      "extensions": {
        "EXT_meshopt_compression": {
          "buffer": 0,
          "byteOffset": 399988,
          "byteLength": 2593,
          "mode": "ATTRIBUTES",
          "byteStride": 4,
          "count": 2136
        }
      }
    },
    {
      "buffer": 1,
      "byteOffset": 717832,
      "byteLength": 2688,
      "target": 34962,
      "byteStride": 8,
      "extensions": {
        "EXT_meshopt_compression": {
          "buffer": 0,
          "byteOffset": 402584,
          "byteLength": 1704,
          "mode": "ATTRIBUTES",
          "byteStride": 8,
          "count": 336
        }
      }
    },
    {
      "buffer": 1,
      "byteOffset": 720520,
      "byteLength": 2688,
      "target": 34962,
      "byteStride": 8,
      "extensions": {
        "EXT_meshopt_compression": {
          "buffer": 0,
          "byteOffset": 404288,
          "byteLength": 1150,
          "mode": "ATTRIBUTES",
          "byteStride": 8,
          "count": 336
        }
      }
    },
    {
      "buffer": 1,
      "byteOffset": 723208,
      "byteLength": 1960,
      "target": 34962,
      "byteStride": 8,
      "extensions": {
        "EXT_meshopt_compression": {
          "buffer": 0,
          "byteOffset": 405440,
          "byteLength": 1448,
          "mode": "ATTRIBUTES",
          "byteStride": 8,
          "count": 245
        }
      }
    },
    {
      "buffer": 1,
      "byteOffset": 725168,
      "byteLength": 1960,
      "target": 34962,
      "byteStride": 8,
      "extensions": {
        "EXT_meshopt_compression": {
          "buffer": 0,
          "byteOffset": 406888,
          "byteLength": 1559,
          "mode": "ATTRIBUTES",
          "byteStride": 8,
          "count": 245
        }
      }
    },
    {
      "buffer": 1,
      "byteOffset": 727128,
      "byteLength": 980,
      "target": 34962,
      "byteStride": 4,
      "extensions": {
        "EXT_meshopt_compression": {
          "buffer": 0,
          "byteOffset": 408448,
          "byteLength": 49,
          "mode": "ATTRIBUTES",
          "byteStride": 4,
          "count": 245
        }
      }
    },
    {
      "buffer": 1,
      "byteOffset": 728108,
      "byteLength": 17088,
      "target": 34962,
      "byteStride": 8,
      "extensions": {
        "EXT_meshopt_compression": {
          "buffer": 0,
          "byteOffset": 408500,
          "byteLength": 11480,
          "mode": "ATTRIBUTES",
          "byteStride": 8,
          "count": 2136
        }
      }
    },
    {
      "buffer": 1,
      "byteOffset": 745196,
      "byteLength": 17088,
      "target": 34962,
      "byteStride": 8,
      "extensions": {
        "EXT_meshopt_compression": {
          "buffer": 0,
          "byteOffset": 419980,
          "byteLength": 11219,
          "mode": "ATTRIBUTES",
          "byteStride": 8,
          "count": 2136
        }
      }
    },
    {
      "buffer": 1,
      "byteOffset": 762284,
      "byteLength": 8544,
      "target": 34962,
      "byteStride": 4,
      "extensions": {
        "EXT_meshopt_compression": {
          "buffer": 0,
          "byteOffset": 431200,
          "byteLength": 2601,
          "mode": "ATTRIBUTES",
          "byteStride": 4,
          "count": 2136
        }
      }
    },
    {
      "buffer": 1,
      "byteOffset": 770828,
      "byteLength": 20864,
      "target": 34962,
      "byteStride": 8,
      "extensions": {
        "EXT_meshopt_compression": {
          "buffer": 0,
          "byteOffset": 433804,
          "byteLength": 13030,
          "mode": "ATTRIBUTES",
          "byteStride": 8,
          "count": 2608
        }
      }
    },
    {
      "buffer": 1,
      "byteOffset": 791692,
      "byteLength": 20864,
      "target": 34962,
      "byteStride": 8,
      "extensions": {
        "EXT_meshopt_compression": {
          "buffer": 0,
          "byteOffset": 446836,
          "byteLength": 14143,
          "mode": "ATTRIBUTES",
          "byteStride": 8,
          "count": 2608
        }
      }
    },
    {
      "buffer": 1,
      "byteOffset": 812556,
      "byteLength": 2464,
      "target": 34962,
      "byteStride": 8,
      "extensions": {
        "EXT_meshopt_compression": {
          "buffer": 0,
          "byteOffset": 460980,
          "byteLength": 1539,
          "mode": "ATTRIBUTES",
          "byteStride": 8,
          "count": 308
        }
      }
    },
    {
      "buffer": 1,
      "byteOffset": 815020,
      "byteLength": 2464,
      "target": 34962,
      "byteStride": 8,
      "extensions": {
        "EXT_meshopt_compression": {
          "buffer": 0,
          "byteOffset": 462520,
          "byteLength": 1845,
          "mode": "ATTRIBUTES",
          "byteStride": 8,
          "count": 308
        }
      }
    },
    {
      "buffer": 1,
      "byteOffset": 817484,
      "byteLength": 864,
      "target": 34962,
      "byteStride": 8,
      "extensions": {
        "EXT_meshopt_compression": {
          "buffer": 0,
          "byteOffset": 464368,
          "byteLength": 610,
          "mode": "ATTRIBUTES",
          "byteStride": 8,
          "count": 108
        }
      }
    },
    {
      "buffer": 1,
      "byteOffset": 818348,
      "byteLength": 864,
      "target": 34962,
      "byteStride": 8,
      "extensions": {
        "EXT_meshopt_compression": {
          "buffer": 0,
          "byteOffset": 464980,
          "byteLength": 606,
          "mode": "ATTRIBUTES",
          "byteStride": 8,
          "count": 108
        }
      }
    },
    {
      "buffer": 1,
      "byteOffset": 819212,
      "byteLength": 1560,
      "target": 34962,
      "byteStride": 8,
      "extensions": {
        "EXT_meshopt_compression": {
          "buffer": 0,
          "byteOffset": 465588,
          "byteLength": 1155,
          "mode": "ATTRIBUTES",
          "byteStride": 8,
          "count": 195
        }
      }
    },
    {
      "buffer": 1,
      "byteOffset": 820772,
      "byteLength": 1560,
      "target": 34962,
      "byteStride": 8,
      "extensions": {
        "EXT_meshopt_compression": {
          "buffer": 0,
          "byteOffset": 466744,
          "byteLength": 1247,
          "mode": "ATTRIBUTES",
          "byteStride": 8,
          "count": 195
        }
      }
    },
    {
      "buffer": 1,
      "byteOffset": 822332,
      "byteLength": 25416,
      "target": 34962,
      "byteStride": 8,
      "extensions": {
        "EXT_meshopt_compression": {
          "buffer": 0,
          "byteOffset": 467992,
          "byteLength": 17211,
          "mode": "ATTRIBUTES",
          "byteStride": 8,
          "count": 3177
        }
      }
    },
    {
      "buffer": 1,
      "byteOffset": 847748,
      "byteLength": 25416,
      "target": 34962,
      "byteStride": 8,
      "extensions": {
        "EXT_meshopt_compression": {
          "buffer": 0,
          "byteOffset": 485204,
          "byteLength": 15818,
          "mode": "ATTRIBUTES",
          "byteStride": 8,
          "count": 3177
        }
      }
    },
    {
      "buffer": 1,
      "byteOffset": 873164,
      "byteLength": 12708,
      "target": 34962,
      "byteStride": 4,
      "extensions": {
        "EXT_meshopt_compression": {
          "buffer": 0,
          "byteOffset": 501024,
          "byteLength": 3942,
          "mode": "ATTRIBUTES",
          "byteStride": 4,
          "count": 3177
        }
      }
    },
    {
      "buffer": 1,
      "byteOffset": 885872,
      "byteLength": 2688,
      "target": 34962,
      "byteStride": 8,
      "extensions": {
        "EXT_meshopt_compression": {
          "buffer": 0,
          "byteOffset": 504968,
          "byteLength": 1775,
          "mode": "ATTRIBUTES",
          "byteStride": 8,
          "count": 336
        }
      }
    },
    {
      "buffer": 1,
      "byteOffset": 888560,
      "byteLength": 2688,
      "target": 34962,
      "byteStride": 8,
      "extensions": {
        "EXT_meshopt_compression": {
          "buffer": 0,
          "byteOffset": 506744,
          "byteLength": 1150,
          "mode": "ATTRIBUTES",
          "byteStride": 8,
          "count": 336
        }
      }
    },
    {
      "buffer": 1,
      "byteOffset": 891248,
      "byteLength": 2336,
      "target": 34962,
      "byteStride": 8,
      "extensions": {
        "EXT_meshopt_compression": {
          "buffer": 0,
          "byteOffset": 507896,
          "byteLength": 1779,
          "mode": "ATTRIBUTES",
          "byteStride": 8,
          "count": 292
        }
      }
    },
    {
      "buffer": 1,
      "byteOffset": 893584,
      "byteLength": 2336,
      "target": 34962,
      "byteStride": 8,
      "extensions": {
        "EXT_meshopt_compression": {
          "buffer": 0,
          "byteOffset": 509676,
          "byteLength": 1848,
          "mode": "ATTRIBUTES",
          "byteStride": 8,
          "count": 292
        }
      }
    },
    {
      "buffer": 1,
      "byteOffset": 895920,
      "byteLength": 1168,
      "target": 34962,
      "byteStride": 4,
      "extensions": {
        "EXT_meshopt_compression": {
          "buffer": 0,
          "byteOffset": 511524,
          "byteLength": 53,
          "mode": "ATTRIBUTES",
          "byteStride": 4,
          "count": 292
        }
      }
    }
  ],
  "samplers": [
    {
      "magFilter": 9729,
      "minFilter": 9987,
      "wrapS": 10497,
      "wrapT": 10497
    }
  ],
  "textures": [
    {
      "sampler": 0,
      "extensions": {
        "EXT_texture_webp": {
          "source": 1
        }
      }
    },
    {
      "sampler": 0,
      "extensions": {
        "EXT_texture_webp": {
          "source": 0
        }
      }
    },
    {
      "sampler": 0,
      "extensions": {
        "EXT_texture_webp": {
          "source": 2
        }
      }
    },
    {
      "sampler": 0,
      "extensions": {
        "EXT_texture_webp": {
          "source": 4
        }
      }
    },
    {
      "sampler": 0,
      "extensions": {
        "EXT_texture_webp": {
          "source": 3
        }
      }
    },
    {
      "sampler": 0,
      "extensions": {
        "EXT_texture_webp": {
          "source": 5
        }
      }
    },
    {
      "sampler": 0,
      "extensions": {
        "EXT_texture_webp": {
          "source": 7
        }
      }
    },
    {
      "sampler": 0,
      "extensions": {
        "EXT_texture_webp": {
          "source": 6
        }
      }
    },
    {
      "sampler": 0,
      "extensions": {
        "EXT_texture_webp": {
          "source": 8
        }
      }
    },
    {
      "sampler": 0,
      "extensions": {
        "EXT_texture_webp": {
          "source": 10
        }
      }
    },
    {
      "sampler": 0,
      "extensions": {
        "EXT_texture_webp": {
          "source": 9
        }
      }
    },
    {
      "sampler": 0,
      "extensions": {
        "EXT_texture_webp": {
          "source": 11
        }
      }
    },
    {
      "sampler": 0,
      "extensions": {
        "EXT_texture_webp": {
          "source": 13
        }
      }
    },
    {
      "sampler": 0,
      "extensions": {
        "EXT_texture_webp": {
          "source": 12
        }
      }
    },
    {
      "sampler": 0,
      "extensions": {
        "EXT_texture_webp": {
          "source": 14
        }
      }
    }
  ],
  "images": [
    {
      "name": "Forged iron normal",
      "mimeType": "image/webp",
      "uri": "textures/surface-fb516ec6c866d7b9.webp"
    },
    {
      "name": "Forged iron color",
      "mimeType": "image/webp",
      "uri": "textures/surface-25be23cebf724530.webp"
    },
    {
      "name": "Forged iron roughness metalness",
      "mimeType": "image/webp",
      "uri": "textures/surface-6fb9fef78a463bef.webp"
    },
    {
      "name": "Dark leather normal",
      "mimeType": "image/webp",
      "uri": "textures/surface-0bba31db93ee7930.webp"
    },
    {
      "name": "Dark leather color",
      "mimeType": "image/webp",
      "uri": "textures/surface-15c7f5964deff57a.webp"
    },
    {
      "name": "Dark leather roughness metalness",
      "mimeType": "image/webp",
      "uri": "textures/surface-ac0465c35b5aefec.webp"
    },
    {
      "name": "Woven cloth normal",
      "mimeType": "image/webp",
      "uri": "textures/surface-15c84119ca507c8c.webp"
    },
    {
      "name": "Woven cloth color",
      "mimeType": "image/webp",
      "uri": "textures/surface-4c574f63fd10e874.webp"
    },
    {
      "name": "Woven cloth roughness metalness",
      "mimeType": "image/webp",
      "uri": "textures/surface-a12b74f6e814638e.webp"
    },
    {
      "name": "Skin and bone normal",
      "mimeType": "image/webp",
      "uri": "textures/surface-4559974a06565aa7.webp"
    },
    {
      "name": "Skin and bone color",
      "mimeType": "image/webp",
      "uri": "textures/surface-a9f4de518b3c7cb7.webp"
    },
    {
      "name": "Skin and bone roughness metalness",
      "mimeType": "image/webp",
      "uri": "textures/surface-b996c2b2f691ba30.webp"
    },
    {
      "name": "Weathered stone normal",
      "mimeType": "image/webp",
      "uri": "textures/surface-4853a2902092cc7c.webp"
    },
    {
      "name": "Weathered stone color",
      "mimeType": "image/webp",
      "uri": "textures/surface-eb11894954d89b5d.webp"
    },
    {
      "name": "Weathered stone roughness metalness",
      "mimeType": "image/webp",
      "uri": "textures/surface-74120f0f7fbce6d0.webp"
    }
  ],
  "buffers": [
    {
      "uri": "grimm.bin",
      "byteLength": 511580
    },
    {
      "byteLength": 897088,
      "extensions": {
        "EXT_meshopt_compression": {
          "fallback": true
        }
      }
    }
  ],
  "materials": [
    {
      "name": "Rift · Forged iron",
      "extras": {
        "riftTextured": true
      },
      "pbrMetallicRoughness": {
        "baseColorTexture": {
          "index": 0
        },
        "metallicRoughnessTexture": {
          "index": 2
        }
      },
      "normalTexture": {
        "index": 1,
        "scale": 0.550000011920929
      }
    },
    {
      "name": "Material_6.004",
      "extras": {
        "riftBaseColor": [
          0.8631572134510892,
          0.02028856305209031,
          0.061246054224174035,
          1
        ]
      },
      "pbrMetallicRoughness": {
        "baseColorFactor": [
          0.8631572127342224,
          0.020288562402129173,
          0.061246052384376526,
          1
        ],
        "roughnessFactor": 0.30000001192092896,
        "metallicFactor": 0
      },
      "emissiveFactor": [
        1,
        0.023505060379280282,
        0.07095584846052257
      ],
      "extensions": {
        "KHR_materials_emissive_strength": {
          "emissiveStrength": 1.0357886964396101
        }
      }
    },
    {
      "name": "Rift · Dark leather",
      "extras": {
        "riftTextured": true
      },
      "pbrMetallicRoughness": {
        "baseColorTexture": {
          "index": 3
        },
        "metallicRoughnessTexture": {
          "index": 5
        }
      },
      "normalTexture": {
        "index": 4,
        "scale": 0.550000011920929
      }
    },
    {
      "name": "Material_0.004",
      "extras": {
        "riftBaseColor": [
          0.8387990117372213,
          0.019382360952473074,
          0.06301001764564068,
          1
        ]
      },
      "pbrMetallicRoughness": {
        "baseColorFactor": [
          0.838798999786377,
          0.019382361322641373,
          0.06301001459360123,
          1
        ],
        "roughnessFactor": 0.25,
        "metallicFactor": 0.25
      },
      "emissiveFactor": [
        1,
        0.023107277580895567,
        0.0751193249034017
      ],
      "extensions": {
        "KHR_materials_emissive_strength": {
          "emissiveStrength": 1.2581984996795654
        }
      }
    },
    {
      "name": "Rift · Woven cloth",
      "extras": {
        "riftTextured": true
      },
      "doubleSided": true,
      "pbrMetallicRoughness": {
        "baseColorTexture": {
          "index": 6
        },
        "metallicRoughnessTexture": {
          "index": 8
        }
      },
      "normalTexture": {
        "index": 7,
        "scale": 0.550000011920929
      }
    },
    {
      "name": "Rift · Skin and bone",
      "extras": {
        "riftTextured": true
      },
      "pbrMetallicRoughness": {
        "baseColorTexture": {
          "index": 9
        },
        "metallicRoughnessTexture": {
          "index": 11
        }
      },
      "normalTexture": {
        "index": 10,
        "scale": 0.550000011920929
      }
    },
    {
      "name": "Rift · Weathered stone",
      "extras": {
        "riftTextured": true
      },
      "pbrMetallicRoughness": {
        "baseColorTexture": {
          "index": 12
        },
        "metallicRoughnessTexture": {
          "index": 14
        }
      },
      "normalTexture": {
        "index": 13,
        "scale": 0.550000011920929
      }
    }
  ],
  "meshes": [
    {
      "name": "Mesh_15.004",
      "primitives": [
        {
          "attributes": {
            "TEXCOORD_0": 14,
            "POSITION": 60,
            "NORMAL": 61,
            "COLOR_0": 62
          },
          "mode": 4,
          "material": 0,
          "indices": 13
        },
        {
          "attributes": {
            "POSITION": 63,
            "NORMAL": 64,
            "COLOR_0": 65
          },
          "mode": 4,
          "material": 1,
          "indices": 15
        },
        {
          "attributes": {
            "TEXCOORD_0": 17,
            "POSITION": 66,
            "NORMAL": 67,
            "COLOR_0": 68
          },
          "mode": 4,
          "material": 2,
          "indices": 16
        }
      ]
    },
    {
      "name": "Mesh_10.004",
      "primitives": [
        {
          "attributes": {
            "TEXCOORD_0": 19,
            "POSITION": 69,
            "NORMAL": 70,
            "COLOR_0": 71
          },
          "mode": 4,
          "material": 0,
          "indices": 18
        },
        {
          "attributes": {
            "POSITION": 72,
            "NORMAL": 73,
            "COLOR_0": 74
          },
          "mode": 4,
          "material": 3,
          "indices": 20
        }
      ]
    },
    {
      "name": "Mesh_28.004",
      "primitives": [
        {
          "attributes": {
            "POSITION": 75,
            "TEXCOORD_0": 17,
            "NORMAL": 67,
            "COLOR_0": 68
          },
          "mode": 4,
          "material": 2,
          "indices": 16
        },
        {
          "attributes": {
            "POSITION": 76,
            "NORMAL": 64,
            "COLOR_0": 65
          },
          "mode": 4,
          "material": 1,
          "indices": 15
        },
        {
          "attributes": {
            "TEXCOORD_0": 22,
            "POSITION": 77,
            "NORMAL": 78,
            "COLOR_0": 79
          },
          "mode": 4,
          "material": 0,
          "indices": 21
        }
      ]
    },
    {
      "name": "Mesh_23.004",
      "primitives": [
        {
          "attributes": {
            "TEXCOORD_0": 24,
            "POSITION": 80,
            "NORMAL": 81,
            "COLOR_0": 82
          },
          "mode": 4,
          "material": 2,
          "indices": 23
        },
        {
          "attributes": {
            "POSITION": 83,
            "NORMAL": 84,
            "COLOR_0": 85
          },
          "mode": 4,
          "material": 3,
          "indices": 25
        },
        {
          "attributes": {
            "TEXCOORD_0": 27,
            "POSITION": 86,
            "NORMAL": 87,
            "COLOR_0": 88
          },
          "mode": 4,
          "material": 0,
          "indices": 26
        }
      ]
    },
    {
      "name": "Mesh_37.004",
      "primitives": [
        {
          "attributes": {
            "TEXCOORD_0": 29,
            "COLOR_0": 30,
            "POSITION": 89,
            "NORMAL": 90
          },
          "mode": 4,
          "material": 4,
          "indices": 28
        },
        {
          "attributes": {
            "TEXCOORD_0": 31,
            "COLOR_0": 32,
            "POSITION": 91,
            "NORMAL": 92
          },
          "mode": 4,
          "material": 0,
          "indices": 20
        }
      ]
    },
    {
      "name": "Mesh_6.004",
      "primitives": [
        {
          "attributes": {
            "TEXCOORD_0": 34,
            "POSITION": 93,
            "NORMAL": 94,
            "COLOR_0": 95
          },
          "mode": 4,
          "material": 0,
          "indices": 33
        },
        {
          "attributes": {
            "POSITION": 96,
            "NORMAL": 97,
            "COLOR_0": 98
          },
          "mode": 4,
          "material": 1,
          "indices": 35
        },
        {
          "attributes": {
            "TEXCOORD_0": 37,
            "POSITION": 99,
            "NORMAL": 100,
            "COLOR_0": 101
          },
          "mode": 4,
          "material": 5,
          "indices": 36
        }
      ]
    },
    {
      "name": "Mesh_21.004",
      "primitives": [
        {
          "attributes": {
            "TEXCOORD_0": 39,
            "POSITION": 102,
            "NORMAL": 103,
            "COLOR_0": 104
          },
          "mode": 4,
          "material": 0,
          "indices": 38
        },
        {
          "attributes": {
            "POSITION": 105,
            "NORMAL": 106,
            "COLOR_0": 74
          },
          "mode": 4,
          "material": 3,
          "indices": 20
        },
        {
          "attributes": {
            "TEXCOORD_0": 41,
            "POSITION": 107,
            "NORMAL": 108,
            "COLOR_0": 109
          },
          "mode": 4,
          "material": 2,
          "indices": 40
        }
      ]
    },
    {
      "name": "Mesh_36.004",
      "primitives": [
        {
          "attributes": {
            "TEXCOORD_0": 43,
            "POSITION": 110,
            "NORMAL": 111,
            "COLOR_0": 112
          },
          "mode": 4,
          "material": 0,
          "indices": 42
        },
        {
          "attributes": {
            "POSITION": 105,
            "NORMAL": 106,
            "COLOR_0": 74
          },
          "mode": 4,
          "material": 3,
          "indices": 20
        },
        {
          "attributes": {
            "TEXCOORD_0": 41,
            "POSITION": 107,
            "NORMAL": 108,
            "COLOR_0": 109
          },
          "mode": 4,
          "material": 2,
          "indices": 40
        }
      ]
    },
    {
      "name": "Mesh_41.002",
      "primitives": [
        {
          "attributes": {
            "TEXCOORD_0": 45,
            "COLOR_0": 46,
            "POSITION": 113,
            "NORMAL": 114
          },
          "mode": 4,
          "material": 0,
          "indices": 44
        },
        {
          "attributes": {
            "TEXCOORD_0": 48,
            "COLOR_0": 49,
            "POSITION": 115,
            "NORMAL": 116
          },
          "mode": 4,
          "material": 2,
          "indices": 47
        },
        {
          "attributes": {
            "TEXCOORD_0": 51,
            "COLOR_0": 52,
            "POSITION": 117,
            "NORMAL": 118
          },
          "mode": 4,
          "material": 5,
          "indices": 50
        },
        {
          "attributes": {
            "TEXCOORD_0": 54,
            "COLOR_0": 55,
            "POSITION": 119,
            "NORMAL": 120
          },
          "mode": 4,
          "material": 6,
          "indices": 53
        }
      ]
    },
    {
      "name": "Mesh_3.004",
      "primitives": [
        {
          "attributes": {
            "TEXCOORD_0": 57,
            "POSITION": 121,
            "NORMAL": 122,
            "COLOR_0": 123
          },
          "mode": 4,
          "material": 0,
          "indices": 56
        },
        {
          "attributes": {
            "POSITION": 124,
            "NORMAL": 125,
            "COLOR_0": 74
          },
          "mode": 4,
          "material": 3,
          "indices": 20
        },
        {
          "attributes": {
            "TEXCOORD_0": 59,
            "POSITION": 126,
            "NORMAL": 127,
            "COLOR_0": 128
          },
          "mode": 4,
          "material": 2,
          "indices": 58
        }
      ]
    }
  ],
  "nodes": [
    {
      "name": "grimm__Mesh_15",
      "extras": {
        "riftTextured": true
      },
      "translation": [
        -0.23899197578430176,
        -0.3913058340549469,
        0.08503551781177521
      ],
      "scale": [
        1.0113734900951385,
        1.0113734900951385,
        1.0113734900951385
      ],
      "mesh": 0
    },
    {
      "name": "grimm__Mesh_10",
      "extras": {
        "riftTextured": true
      },
      "translation": [
        0,
        0.0423223078250885,
        0.0559999980032444
      ],
      "scale": [
        0.9776776731014252,
        0.9776776731014252,
        0.9776776731014252
      ],
      "mesh": 1
    },
    {
      "name": "grimm__shield",
      "translation": [
        0,
        -0.5299999713897705,
        0.3100000023841858
      ],
      "scale": [
        1.1200000047683716,
        1.1799999475479126,
        1
      ],
      "children": [
        1
      ]
    },
    {
      "name": "grimm__arm_l",
      "translation": [
        -0.8500000238418579,
        3.0999999046325684,
        0
      ],
      "children": [
        0,
        2
      ]
    },
    {
      "name": "grimm__Mesh_28",
      "extras": {
        "riftTextured": true
      },
      "translation": [
        0.23862789571285248,
        -0.3910652995109558,
        0.08503551781177521
      ],
      "scale": [
        1.0116140246391296,
        1.0116140246391296,
        1.0116140246391296
      ],
      "mesh": 2
    },
    {
      "name": "grimm__Mesh_23",
      "extras": {
        "riftTextured": true
      },
      "translation": [
        0,
        -0.7347818911075592,
        0
      ],
      "rotation": [
        0,
        0,
        1,
        0
      ],
      "scale": [
        0.734781950712204,
        0.734781950712204,
        0.734781950712204
      ],
      "mesh": 3
    },
    {
      "name": "grimm__weapon",
      "translation": [
        0,
        -1.2999999523162842,
        0.10000000149011612
      ],
      "children": [
        5
      ]
    },
    {
      "name": "grimm__arm_r",
      "translation": [
        0.8500000238418579,
        3.0999999046325684,
        0
      ],
      "children": [
        4,
        6
      ]
    },
    {
      "name": "grimm__Mesh_37",
      "extras": {
        "riftTextured": true
      },
      "translation": [
        0,
        -1.37880702115217,
        -0.26181305828504264
      ],
      "scale": [
        1.3789597024806426,
        1.3789597024806426,
        1.3789597024806426
      ],
      "mesh": 4
    },
    {
      "name": "grimm__cape",
      "translation": [
        0,
        3.2300000190734863,
        -0.33000001311302185
      ],
      "children": [
        8
      ]
    },
    {
      "name": "grimm__Mesh_6",
      "extras": {
        "riftTextured": true
      },
      "translation": [
        0.000028207898139953613,
        0.4020853638648987,
        0.03227418661117554
      ],
      "scale": [
        0.7680346369743347,
        0.7680346369743347,
        0.7680346369743347
      ],
      "mesh": 5
    },
    {
      "name": "grimm__head",
      "translation": [
        0,
        3.4600000381469727,
        0
      ],
      "scale": [
        1.0499998331069946,
        0.9399999976158142,
        1.0499999523162842
      ],
      "children": [
        10
      ]
    },
    {
      "name": "grimm__Mesh_21",
      "extras": {
        "riftTextured": true
      },
      "translation": [
        0,
        -0.6898653768002987,
        0.18989132344722748
      ],
      "scale": [
        0.7598653770983219,
        0.7598653770983219,
        0.7598653770983219
      ],
      "mesh": 6
    },
    {
      "name": "grimm__leg_l",
      "translation": [
        -0.27000001072883606,
        1.6699999570846558,
        0
      ],
      "scale": [
        1,
        1.1399999856948853,
        1
      ],
      "children": [
        12
      ]
    },
    {
      "name": "grimm__Mesh_36",
      "extras": {
        "riftTextured": true
      },
      "translation": [
        0,
        -0.6898653768002987,
        0.18989132344722748
      ],
      "scale": [
        0.7598653770983219,
        0.7598653770983219,
        0.7598653770983219
      ],
      "mesh": 7
    },
    {
      "name": "grimm__leg_r",
      "translation": [
        0.27000001072883606,
        1.6699999570846558,
        0
      ],
      "scale": [
        1,
        1.1399999856948853,
        1
      ],
      "children": [
        14
      ]
    },
    {
      "name": "grimm__Mesh_41",
      "extras": {
        "riftTextured": true
      },
      "translation": [
        0.0000055730342864990234,
        1.1368799805641174,
        0.07267312705516815
      ],
      "scale": [
        0.8408568501472473,
        0.8408568501472473,
        0.8408568501472473
      ],
      "mesh": 8
    },
    {
      "name": "grimm__Mesh_3",
      "extras": {
        "riftTextured": true
      },
      "translation": [
        0,
        0,
        0.07992756366729736
      ],
      "scale": [
        0.7300000190734863,
        0.7300000190734863,
        0.7300000190734863
      ],
      "mesh": 9
    },
    {
      "name": "grimm__torso",
      "translation": [
        0,
        2.549999952316284,
        0
      ],
      "children": [
        17
      ]
    },
    {
      "name": "grimm",
      "extras": {
        "asset": "grimm",
        "category": "Heroes",
        "title": "The Black Bastion",
        "rig": {
          "torso": "torso",
          "head": "head",
          "arms": [
            "arm_l",
            "arm_r"
          ],
          "legs": [
            "leg_l",
            "leg_r"
          ],
          "cape": "cape"
        },
        "referencePass": 2,
        "riftAsset": "grimm",
        "authoring": "Blender 4.5 · UV/PBR surfaces · rigid articulated animation"
      },
      "scale": [
        1.1799999475479126,
        1,
        1
      ],
      "children": [
        3,
        7,
        9,
        11,
        13,
        15,
        16,
        18
      ]
    }
  ],
  "animations": [
    {
      "name": "Attack",
      "samplers": [
        {
          "input": 0,
          "output": 1,
          "interpolation": "LINEAR"
        },
        {
          "input": 0,
          "output": 2,
          "interpolation": "LINEAR"
        },
        {
          "input": 0,
          "output": 3,
          "interpolation": "LINEAR"
        },
        {
          "input": 0,
          "output": 4,
          "interpolation": "LINEAR"
        }
      ],
      "channels": [
        {
          "sampler": 0,
          "target": {
            "node": 3,
            "path": "rotation"
          }
        },
        {
          "sampler": 1,
          "target": {
            "node": 7,
            "path": "rotation"
          }
        },
        {
          "sampler": 2,
          "target": {
            "node": 6,
            "path": "rotation"
          }
        },
        {
          "sampler": 3,
          "target": {
            "node": 18,
            "path": "rotation"
          }
        }
      ]
    },
    {
      "name": "Walk",
      "samplers": [
        {
          "input": 0,
          "output": 5,
          "interpolation": "LINEAR"
        },
        {
          "input": 0,
          "output": 6,
          "interpolation": "LINEAR"
        },
        {
          "input": 0,
          "output": 7,
          "interpolation": "LINEAR"
        },
        {
          "input": 0,
          "output": 8,
          "interpolation": "LINEAR"
        },
        {
          "input": 0,
          "output": 9,
          "interpolation": "LINEAR"
        }
      ],
      "channels": [
        {
          "sampler": 0,
          "target": {
            "node": 3,
            "path": "rotation"
          }
        },
        {
          "sampler": 1,
          "target": {
            "node": 7,
            "path": "rotation"
          }
        },
        {
          "sampler": 2,
          "target": {
            "node": 9,
            "path": "rotation"
          }
        },
        {
          "sampler": 3,
          "target": {
            "node": 13,
            "path": "rotation"
          }
        },
        {
          "sampler": 4,
          "target": {
            "node": 15,
            "path": "rotation"
          }
        }
      ]
    },
    {
      "name": "Idle",
      "samplers": [
        {
          "input": 10,
          "output": 11,
          "interpolation": "LINEAR"
        },
        {
          "input": 10,
          "output": 12,
          "interpolation": "LINEAR"
        }
      ],
      "channels": [
        {
          "sampler": 0,
          "target": {
            "node": 9,
            "path": "rotation"
          }
        },
        {
          "sampler": 1,
          "target": {
            "node": 18,
            "path": "rotation"
          }
        }
      ]
    }
  ],
  "scenes": [
    {
      "name": "Scene",
      "nodes": [
        19
      ]
    }
  ],
  "scene": 0,
  "extensionsUsed": [
    "EXT_meshopt_compression",
    "EXT_texture_webp",
    "KHR_materials_emissive_strength",
    "KHR_mesh_quantization"
  ],
  "extensionsRequired": [
    "EXT_meshopt_compression",
    "EXT_texture_webp",
    "KHR_mesh_quantization"
  ]
}