{
  "asset": {
    "generator": "glTF-Transform v4.5.0",
    "version": "2.0"
  },
  "accessors": [
    {
      "type": "SCALAR",
      "componentType": 5126,
      "count": 25,
      "max": [
        1.0416666269302368
      ],
      "min": [
        0.0416666679084301
      ],
      "normalized": false,
      "byteOffset": 0,
      "bufferView": 0
    },
    {
      "type": "VEC4",
      "componentType": 5126,
      "count": 25,
      "normalized": false,
      "byteOffset": 0,
      "bufferView": 1
    },
    {
      "type": "VEC4",
      "componentType": 5126,
      "count": 25,
      "normalized": false,
      "byteOffset": 400,
      "bufferView": 1
    },
    {
      "type": "VEC4",
      "componentType": 5126,
      "count": 25,
      "normalized": false,
      "byteOffset": 800,
      "bufferView": 1
    },
    {
      "type": "VEC4",
      "componentType": 5126,
      "count": 25,
      "normalized": false,
      "byteOffset": 1200,
      "bufferView": 1
    },
    {
      "type": "VEC4",
      "componentType": 5126,
      "count": 25,
      "normalized": false,
      "byteOffset": 1600,
      "bufferView": 1
    },
    {
      "type": "VEC4",
      "componentType": 5126,
      "count": 25,
      "normalized": false,
      "byteOffset": 2000,
      "bufferView": 1
    },
    {
      "type": "VEC4",
      "componentType": 5126,
      "count": 25,
      "normalized": false,
      "byteOffset": 2400,
      "bufferView": 1
    },
    {
      "type": "VEC4",
      "componentType": 5126,
      "count": 25,
      "normalized": false,
      "byteOffset": 2800,
      "bufferView": 1
    },
    {
      "type": "VEC4",
      "componentType": 5126,
      "count": 25,
      "normalized": false,
      "byteOffset": 3200,
      "bufferView": 1
    },
    {
      "type": "SCALAR",
      "componentType": 5126,
      "count": 49,
      "max": [
        2.0416667461395264
      ],
      "min": [
        0.0416666679084301
      ],
      "normalized": false,
      "byteOffset": 100,
      "bufferView": 0
    },
    {
      "type": "VEC4",
      "componentType": 5126,
      "count": 49,
      "normalized": false,
      "byteOffset": 3600,
      "bufferView": 1
    },
    {
      "type": "VEC4",
      "componentType": 5126,
      "count": 49,
      "normalized": false,
      "byteOffset": 4384,
      "bufferView": 1
    },
    {
      "type": "SCALAR",
      "componentType": 5123,
      "count": 14670,
      "normalized": false,
      "byteOffset": 0,
      "bufferView": 2
    },
    {
      "type": "VEC2",
      "componentType": 5126,
      "count": 5896,
      "normalized": false,
      "byteOffset": 0,
      "bufferView": 3
    },
    {
      "type": "SCALAR",
      "componentType": 5123,
      "count": 276,
      "normalized": false,
      "byteOffset": 29340,
      "bufferView": 2
    },
    {
      "type": "SCALAR",
      "componentType": 5123,
      "count": 594,
      "normalized": false,
      "byteOffset": 29892,
      "bufferView": 2
    },
    {
      "type": "VEC2",
      "componentType": 5126,
      "count": 189,
      "normalized": false,
      "byteOffset": 0,
      "bufferView": 4
    },
    {
      "type": "SCALAR",
      "componentType": 5123,
      "count": 14670,
      "normalized": false,
      "byteOffset": 31080,
      "bufferView": 2
    },
    {
      "type": "VEC2",
      "componentType": 5126,
      "count": 5889,
      "normalized": false,
      "byteOffset": 0,
      "bufferView": 5
    },
    {
      "type": "SCALAR",
      "componentType": 5123,
      "count": 2718,
      "normalized": false,
      "byteOffset": 60420,
      "bufferView": 2
    },
    {
      "type": "VEC2",
      "componentType": 5126,
      "count": 1170,
      "normalized": false,
      "byteOffset": 0,
      "bufferView": 6
    },
    {
      "type": "SCALAR",
      "componentType": 5123,
      "count": 564,
      "normalized": false,
      "byteOffset": 65856,
      "bufferView": 2
    },
    {
      "type": "VEC2",
      "componentType": 5126,
      "count": 383,
      "normalized": false,
      "byteOffset": 0,
      "bufferView": 7
    },
    {
      "type": "SCALAR",
      "componentType": 5123,
      "count": 426,
      "normalized": false,
      "byteOffset": 66984,
      "bufferView": 2
    },
    {
      "type": "SCALAR",
      "componentType": 5123,
      "count": 372,
      "normalized": false,
      "byteOffset": 67836,
      "bufferView": 2
    },
    {
      "type": "VEC2",
      "componentType": 5126,
      "count": 336,
      "normalized": false,
      "byteOffset": 0,
      "bufferView": 8
    },
    {
      "type": "VEC4",
      "componentType": 5121,
      "count": 336,
      "normalized": true,
      "byteOffset": 0,
      "bufferView": 9
    },
    {
      "type": "SCALAR",
      "componentType": 5123,
      "count": 777,
      "normalized": false,
      "byteOffset": 68580,
      "bufferView": 2
    },
    {
      "type": "VEC2",
      "componentType": 5126,
      "count": 281,
      "normalized": false,
      "byteOffset": 0,
      "bufferView": 10
    },
    {
      "type": "VEC4",
      "componentType": 5121,
      "count": 281,
      "normalized": true,
      "byteOffset": 0,
      "bufferView": 11
    },
    {
      "type": "SCALAR",
      "componentType": 5123,
      "count": 1470,
      "normalized": false,
      "byteOffset": 70134,
      "bufferView": 2
    },
    {
      "type": "VEC2",
      "componentType": 5126,
      "count": 590,
      "normalized": false,
      "byteOffset": 0,
      "bufferView": 12
    },
    {
      "type": "SCALAR",
      "componentType": 5123,
      "count": 360,
      "normalized": false,
      "byteOffset": 73074,
      "bufferView": 2
    },
    {
      "type": "SCALAR",
      "componentType": 5123,
      "count": 774,
      "normalized": false,
      "byteOffset": 73794,
      "bufferView": 2
    },
    {
      "type": "VEC2",
      "componentType": 5126,
      "count": 302,
      "normalized": false,
      "byteOffset": 0,
      "bufferView": 13
    },
    {
      "type": "SCALAR",
      "componentType": 5123,
      "count": 750,
      "normalized": false,
      "byteOffset": 75342,
      "bufferView": 2
    },
    {
      "type": "VEC2",
      "componentType": 5126,
      "count": 245,
      "normalized": false,
      "byteOffset": 0,
      "bufferView": 14
    },
    {
      "type": "SCALAR",
      "componentType": 5123,
      "count": 4908,
      "normalized": false,
      "byteOffset": 76842,
      "bufferView": 2
    },
    {
      "type": "VEC2",
      "componentType": 5126,
      "count": 2136,
      "normalized": false,
      "byteOffset": 0,
      "bufferView": 15
    },
    {
      "type": "SCALAR",
      "componentType": 5123,
      "count": 4908,
      "normalized": false,
      "byteOffset": 86658,
      "bufferView": 2
    },
    {
      "type": "VEC2",
      "componentType": 5126,
      "count": 2136,
      "normalized": false,
      "byteOffset": 0,
      "bufferView": 16
    },
    {
      "type": "SCALAR",
      "componentType": 5123,
      "count": 7968,
      "normalized": false,
      "byteOffset": 96474,
      "bufferView": 2
    },
    {
      "type": "VEC2",
      "componentType": 5126,
      "count": 2862,
      "normalized": false,
      "byteOffset": 0,
      "bufferView": 17
    },
    {
      "type": "VEC4",
      "componentType": 5121,
      "count": 2862,
      "normalized": true,
      "byteOffset": 0,
      "bufferView": 18
    },
    {
      "type": "SCALAR",
      "componentType": 5123,
      "count": 888,
      "normalized": false,
      "byteOffset": 112410,
      "bufferView": 2
    },
    {
      "type": "VEC2",
      "componentType": 5126,
      "count": 308,
      "normalized": false,
      "byteOffset": 0,
      "bufferView": 19
    },
    {
      "type": "VEC4",
      "componentType": 5121,
      "count": 308,
      "normalized": true,
      "byteOffset": 0,
      "bufferView": 20
    },
    {
      "type": "SCALAR",
      "componentType": 5123,
      "count": 294,
      "normalized": false,
      "byteOffset": 114186,
      "bufferView": 2
    },
    {
      "type": "VEC2",
      "componentType": 5126,
      "count": 108,
      "normalized": false,
      "byteOffset": 0,
      "bufferView": 21
    },
    {
      "type": "VEC4",
      "componentType": 5121,
      "count": 108,
      "normalized": true,
      "byteOffset": 0,
      "bufferView": 22
    },
    {
      "type": "SCALAR",
      "componentType": 5123,
      "count": 6000,
      "normalized": false,
      "byteOffset": 114774,
      "bufferView": 2
    },
    {
      "type": "VEC2",
      "componentType": 5126,
      "count": 2608,
      "normalized": false,
      "byteOffset": 0,
      "bufferView": 23
    },
    {
      "type": "VEC4",
      "componentType": 5121,
      "count": 2608,
      "normalized": true,
      "byteOffset": 0,
      "bufferView": 24
    },
    {
      "type": "SCALAR",
      "componentType": 5123,
      "count": 906,
      "normalized": false,
      "byteOffset": 126774,
      "bufferView": 2
    },
    {
      "type": "VEC2",
      "componentType": 5126,
      "count": 292,
      "normalized": false,
      "byteOffset": 0,
      "bufferView": 25
    },
    {
      "type": "SCALAR",
      "componentType": 5123,
      "count": 6510,
      "normalized": false,
      "byteOffset": 128586,
      "bufferView": 2
    },
    {
      "type": "VEC2",
      "componentType": 5126,
      "count": 3177,
      "normalized": false,
      "byteOffset": 0,
      "bufferView": 26
    },
    {
      "type": "VEC3",
      "componentType": 5122,
      "count": 5896,
      "max": [
        17845,
        32767,
        9856
      ],
      "min": [
        -17845,
        -32767,
        -10224
      ],
      "normalized": true,
      "byteOffset": 0,
      "bufferView": 27
    },
    {
      "type": "VEC3",
      "componentType": 5122,
      "count": 5896,
      "normalized": true,
      "byteOffset": 0,
      "bufferView": 28
    },
    {
      "type": "VEC3",
      "componentType": 5121,
      "count": 5896,
      "normalized": true,
      "byteOffset": 0,
      "bufferView": 29
    },
    {
      "type": "VEC3",
      "componentType": 5122,
      "count": 240,
      "max": [
        7825,
        18272,
        4625
      ],
      "min": [
        2333,
        5546,
        3318
      ],
      "normalized": true,
      "byteOffset": 0,
      "bufferView": 30
    },
    {
      "type": "VEC3",
      "componentType": 5122,
      "count": 240,
      "normalized": true,
      "byteOffset": 0,
      "bufferView": 31
    },
    {
      "type": "VEC3",
      "componentType": 5121,
      "count": 240,
      "normalized": true,
      "byteOffset": 0,
      "bufferView": 32
    },
    {
      "type": "VEC3",
      "componentType": 5122,
      "count": 189,
      "max": [
        14463,
        15932,
        10224
      ],
      "min": [
        -283,
        -22654,
        -10223
      ],
      "normalized": true,
      "byteOffset": 0,
      "bufferView": 33
    },
    {
      "type": "VEC3",
      "componentType": 5122,
      "count": 189,
      "normalized": true,
      "byteOffset": 0,
      "bufferView": 34
    },
    {
      "type": "VEC3",
      "componentType": 5121,
      "count": 189,
      "normalized": true,
      "byteOffset": 0,
      "bufferView": 35
    },
    {
      "type": "VEC3",
      "componentType": 5122,
      "count": 5889,
      "max": [
        17842,
        32767,
        9854
      ],
      "min": [
        -17842,
        -32767,
        -10221
      ],
      "normalized": true,
      "byteOffset": 0,
      "bufferView": 36
    },
    {
      "type": "VEC3",
      "componentType": 5122,
      "count": 5889,
      "normalized": true,
      "byteOffset": 0,
      "bufferView": 37
    },
    {
      "type": "VEC3",
      "componentType": 5121,
      "count": 5889,
      "normalized": true,
      "byteOffset": 0,
      "bufferView": 38
    },
    {
      "type": "VEC3",
      "componentType": 5122,
      "count": 240,
      "max": [
        -2321,
        18261,
        4624
      ],
      "min": [
        -7812,
        5538,
        3317
      ],
      "normalized": true,
      "byteOffset": 0,
      "bufferView": 39
    },
    {
      "type": "VEC3",
      "componentType": 5122,
      "count": 189,
      "max": [
        293,
        15921,
        10221
      ],
      "min": [
        -14449,
        -22656,
        -10221
      ],
      "normalized": true,
      "byteOffset": 0,
      "bufferView": 40
    },
    {
      "type": "VEC3",
      "componentType": 5122,
      "count": 1170,
      "max": [
        19746,
        32767,
        2777
      ],
      "min": [
        -19746,
        -32767,
        -4230
      ],
      "normalized": true,
      "byteOffset": 0,
      "bufferView": 41
    },
    {
      "type": "VEC3",
      "componentType": 5122,
      "count": 1170,
      "normalized": true,
      "byteOffset": 0,
      "bufferView": 42
    },
    {
      "type": "VEC3",
      "componentType": 5121,
      "count": 1170,
      "normalized": true,
      "byteOffset": 0,
      "bufferView": 43
    },
    {
      "type": "VEC3",
      "componentType": 5122,
      "count": 383,
      "max": [
        11039,
        26369,
        2076
      ],
      "min": [
        -11039,
        -32306,
        -2765
      ],
      "normalized": true,
      "byteOffset": 0,
      "bufferView": 44
    },
    {
      "type": "VEC3",
      "componentType": 5122,
      "count": 383,
      "normalized": true,
      "byteOffset": 0,
      "bufferView": 45
    },
    {
      "type": "VEC3",
      "componentType": 5121,
      "count": 383,
      "normalized": true,
      "byteOffset": 0,
      "bufferView": 46
    },
    {
      "type": "VEC3",
      "componentType": 5122,
      "count": 420,
      "max": [
        2595,
        16974,
        4230
      ],
      "min": [
        -2595,
        -27326,
        1343
      ],
      "normalized": true,
      "byteOffset": 0,
      "bufferView": 47
    },
    {
      "type": "VEC3",
      "componentType": 5122,
      "count": 420,
      "normalized": true,
      "byteOffset": 0,
      "bufferView": 48
    },
    {
      "type": "VEC3",
      "componentType": 5121,
      "count": 420,
      "normalized": true,
      "byteOffset": 0,
      "bufferView": 49
    },
    {
      "type": "VEC3",
      "componentType": 5122,
      "count": 336,
      "max": [
        4816,
        22198,
        -2491
      ],
      "min": [
        -4816,
        2933,
        -4201
      ],
      "normalized": true,
      "byteOffset": 0,
      "bufferView": 50
    },
    {
      "type": "VEC3",
      "componentType": 5122,
      "count": 336,
      "normalized": true,
      "byteOffset": 0,
      "bufferView": 51
    },
    {
      "type": "VEC3",
      "componentType": 5122,
      "count": 281,
      "max": [
        20792,
        32767,
        6115
      ],
      "min": [
        -20792,
        -32767,
        -6115
      ],
      "normalized": true,
      "byteOffset": 0,
      "bufferView": 52
    },
    {
      "type": "VEC3",
      "componentType": 5122,
      "count": 281,
      "normalized": true,
      "byteOffset": 0,
      "bufferView": 53
    },
    {
      "type": "VEC3",
      "componentType": 5122,
      "count": 590,
      "max": [
        14689,
        32767,
        12102
      ],
      "min": [
        -14689,
        -32767,
        -12512
      ],
      "normalized": true,
      "byteOffset": 0,
      "bufferView": 54
    },
    {
      "type": "VEC3",
      "componentType": 5122,
      "count": 590,
      "normalized": true,
      "byteOffset": 0,
      "bufferView": 55
    },
    {
      "type": "VEC3",
      "componentType": 5121,
      "count": 590,
      "normalized": true,
      "byteOffset": 0,
      "bufferView": 56
    },
    {
      "type": "VEC3",
      "componentType": 5122,
      "count": 136,
      "max": [
        9196,
        -2088,
        12512
      ],
      "min": [
        -9199,
        -29106,
        10077
      ],
      "normalized": true,
      "byteOffset": 0,
      "bufferView": 57
    },
    {
      "type": "VEC3",
      "componentType": 5122,
      "count": 136,
      "normalized": true,
      "byteOffset": 0,
      "bufferView": 58
    },
    {
      "type": "VEC3",
      "componentType": 5121,
      "count": 136,
      "normalized": true,
      "byteOffset": 0,
      "bufferView": 59
    },
    {
      "type": "VEC3",
      "componentType": 5122,
      "count": 302,
      "max": [
        8725,
        -13534,
        11629
      ],
      "min": [
        -8727,
        -23489,
        10025
      ],
      "normalized": true,
      "byteOffset": 0,
      "bufferView": 60
    },
    {
      "type": "VEC3",
      "componentType": 5122,
      "count": 302,
      "normalized": true,
      "byteOffset": 0,
      "bufferView": 61
    },
    {
      "type": "VEC3",
      "componentType": 5121,
      "count": 302,
      "normalized": true,
      "byteOffset": 0,
      "bufferView": 62
    },
    {
      "type": "VEC3",
      "componentType": 5122,
      "count": 245,
      "max": [
        9915,
        32767,
        18966
      ],
      "min": [
        -9915,
        -27234,
        -18966
      ],
      "normalized": true,
      "byteOffset": 0,
      "bufferView": 63
    },
    {
      "type": "VEC3",
      "componentType": 5122,
      "count": 245,
      "normalized": true,
      "byteOffset": 0,
      "bufferView": 64
    },
    {
      "type": "VEC3",
      "componentType": 5121,
      "count": 245,
      "normalized": true,
      "byteOffset": 0,
      "bufferView": 65
    },
    {
      "type": "VEC3",
      "componentType": 5122,
      "count": 336,
      "max": [
        3979,
        6693,
        8069
      ],
      "min": [
        -3979,
        -8430,
        4964
      ],
      "normalized": true,
      "byteOffset": 0,
      "bufferView": 66
    },
    {
      "type": "VEC3",
      "componentType": 5122,
      "count": 336,
      "normalized": true,
      "byteOffset": 0,
      "bufferView": 67
    },
    {
      "type": "VEC3",
      "componentType": 5121,
      "count": 336,
      "normalized": true,
      "byteOffset": 0,
      "bufferView": 68
    },
    {
      "type": "VEC3",
      "componentType": 5122,
      "count": 2136,
      "max": [
        10777,
        30414,
        18353
      ],
      "min": [
        -10777,
        -32767,
        -18533
      ],
      "normalized": true,
      "byteOffset": 0,
      "bufferView": 69
    },
    {
      "type": "VEC3",
      "componentType": 5122,
      "count": 2136,
      "normalized": true,
      "byteOffset": 0,
      "bufferView": 70
    },
    {
      "type": "VEC3",
      "componentType": 5121,
      "count": 2136,
      "normalized": true,
      "byteOffset": 0,
      "bufferView": 71
    },
    {
      "type": "VEC3",
      "componentType": 5122,
      "count": 2136,
      "max": [
        10777,
        30414,
        18353
      ],
      "min": [
        -10777,
        -32767,
        -18533
      ],
      "normalized": true,
      "byteOffset": 0,
      "bufferView": 72
    },
    {
      "type": "VEC3",
      "componentType": 5122,
      "count": 2136,
      "normalized": true,
      "byteOffset": 0,
      "bufferView": 73
    },
    {
      "type": "VEC3",
      "componentType": 5121,
      "count": 2136,
      "normalized": true,
      "byteOffset": 0,
      "bufferView": 74
    },
    {
      "type": "VEC3",
      "componentType": 5122,
      "count": 2862,
      "max": [
        15495,
        32767,
        8519
      ],
      "min": [
        -14422,
        -32767,
        -6057
      ],
      "normalized": true,
      "byteOffset": 0,
      "bufferView": 75
    },
    {
      "type": "VEC3",
      "componentType": 5122,
      "count": 2862,
      "normalized": true,
      "byteOffset": 0,
      "bufferView": 76
    },
    {
      "type": "VEC3",
      "componentType": 5122,
      "count": 308,
      "max": [
        12935,
        1756,
        8613
      ],
      "min": [
        -13829,
        -8257,
        -8613
      ],
      "normalized": true,
      "byteOffset": 0,
      "bufferView": 77
    },
    {
      "type": "VEC3",
      "componentType": 5122,
      "count": 308,
      "normalized": true,
      "byteOffset": 0,
      "bufferView": 78
    },
    {
      "type": "VEC3",
      "componentType": 5122,
      "count": 108,
      "max": [
        2547,
        3205,
        8430
      ],
      "min": [
        -3440,
        -3971,
        5145
      ],
      "normalized": true,
      "byteOffset": 0,
      "bufferView": 79
    },
    {
      "type": "VEC3",
      "componentType": 5122,
      "count": 108,
      "normalized": true,
      "byteOffset": 0,
      "bufferView": 80
    },
    {
      "type": "VEC3",
      "componentType": 5122,
      "count": 2608,
      "max": [
        14601,
        1947,
        8269
      ],
      "min": [
        -15495,
        -12617,
        764
      ],
      "normalized": true,
      "byteOffset": 0,
      "bufferView": 81
    },
    {
      "type": "VEC3",
      "componentType": 5122,
      "count": 2608,
      "normalized": true,
      "byteOffset": 0,
      "bufferView": 82
    },
    {
      "type": "VEC3",
      "componentType": 5122,
      "count": 292,
      "max": [
        30074,
        32767,
        19293
      ],
      "min": [
        -30074,
        -32767,
        -19293
      ],
      "normalized": true,
      "byteOffset": 0,
      "bufferView": 83
    },
    {
      "type": "VEC3",
      "componentType": 5122,
      "count": 292,
      "normalized": true,
      "byteOffset": 0,
      "bufferView": 84
    },
    {
      "type": "VEC3",
      "componentType": 5121,
      "count": 292,
      "normalized": true,
      "byteOffset": 0,
      "bufferView": 85
    },
    {
      "type": "VEC3",
      "componentType": 5122,
      "count": 336,
      "max": [
        5865,
        18644,
        18721
      ],
      "min": [
        -5865,
        -4280,
        15489
      ],
      "normalized": true,
      "byteOffset": 0,
      "bufferView": 86
    },
    {
      "type": "VEC3",
      "componentType": 5122,
      "count": 336,
      "normalized": true,
      "byteOffset": 0,
      "bufferView": 87
    },
    {
      "type": "VEC3",
      "componentType": 5122,
      "count": 3177,
      "max": [
        28764,
        23947,
        18653
      ],
      "min": [
        -28780,
        -30663,
        7832
      ],
      "normalized": true,
      "byteOffset": 0,
      "bufferView": 88
    },
    {
      "type": "VEC3",
      "componentType": 5122,
      "count": 3177,
      "normalized": true,
      "byteOffset": 0,
      "bufferView": 89
    },
    {
      "type": "VEC3",
      "componentType": 5121,
      "count": 3177,
      "normalized": true,
      "byteOffset": 0,
      "bufferView": 90
    }
  ],
  "bufferViews": [
    {
      "buffer": 1,
      "byteOffset": 0,
      "byteLength": 296,
      "extensions": {
        "EXT_meshopt_compression": {
          "buffer": 0,
          "byteOffset": 0,
          "byteLength": 279,
          "mode": "ATTRIBUTES",
          "byteStride": 4,
          "count": 74
        }
      }
    },
    {
      "buffer": 1,
      "byteOffset": 296,
      "byteLength": 5168,
      "extensions": {
        "EXT_meshopt_compression": {
          "buffer": 0,
          "byteOffset": 280,
          "byteLength": 2011,
          "mode": "ATTRIBUTES",
          "byteStride": 16,
          "count": 323
        }
      }
    },
    {
      "buffer": 1,
      "byteOffset": 5464,
      "byteLength": 141606,
      "target": 34963,
      "extensions": {
        "EXT_meshopt_compression": {
          "buffer": 0,
          "byteOffset": 2292,
          "byteLength": 24966,
          "mode": "TRIANGLES",
          "byteStride": 2,
          "count": 70803
        }
      }
    },
    {
      "buffer": 1,
      "byteOffset": 147072,
      "byteLength": 47168,
      "target": 34962,
      "byteStride": 8,
      "extensions": {
        "EXT_meshopt_compression": {
          "buffer": 0,
          "byteOffset": 27260,
          "byteLength": 36446,
          "mode": "ATTRIBUTES",
          "byteStride": 8,
          "count": 5896
        }
      }
    },
    {
      "buffer": 1,
      "byteOffset": 194240,
      "byteLength": 1512,
      "target": 34962,
      "byteStride": 8,
      "extensions": {
        "EXT_meshopt_compression": {
          "buffer": 0,
          "byteOffset": 63708,
          "byteLength": 1292,
          "mode": "ATTRIBUTES",
          "byteStride": 8,
          "count": 189
        }
      }
    },
    {
      "buffer": 1,
      "byteOffset": 195752,
      "byteLength": 47112,
      "target": 34962,
      "byteStride": 8,
      "extensions": {
        "EXT_meshopt_compression": {
          "buffer": 0,
          "byteOffset": 65000,
          "byteLength": 36426,
          "mode": "ATTRIBUTES",
          "byteStride": 8,
          "count": 5889
        }
      }
    },
    {
      "buffer": 1,
      "byteOffset": 242864,
      "byteLength": 9360,
      "target": 34962,
      "byteStride": 8,
      "extensions": {
        "EXT_meshopt_compression": {
          "buffer": 0,
          "byteOffset": 101428,
          "byteLength": 7587,
          "mode": "ATTRIBUTES",
          "byteStride": 8,
          "count": 1170
        }
      }
    },
    {
      "buffer": 1,
      "byteOffset": 252224,
      "byteLength": 3064,
      "target": 34962,
      "byteStride": 8,
      "extensions": {
        "EXT_meshopt_compression": {
          "buffer": 0,
          "byteOffset": 109016,
          "byteLength": 2437,
          "mode": "ATTRIBUTES",
          "byteStride": 8,
          "count": 383
        }
      }
    },
    {
      "buffer": 1,
      "byteOffset": 255288,
      "byteLength": 2688,
      "target": 34962,
      "byteStride": 8,
      "extensions": {
        "EXT_meshopt_compression": {
          "buffer": 0,
          "byteOffset": 111456,
          "byteLength": 2148,
          "mode": "ATTRIBUTES",
          "byteStride": 8,
          "count": 336
        }
      }
    },
    {
      "buffer": 1,
      "byteOffset": 257976,
      "byteLength": 1344,
      "target": 34962,
      "byteStride": 4,
      "extensions": {
        "EXT_meshopt_compression": {
          "buffer": 0,
          "byteOffset": 113604,
          "byteLength": 57,
          "mode": "ATTRIBUTES",
          "byteStride": 4,
          "count": 336
        }
      }
    },
    {
      "buffer": 1,
      "byteOffset": 259320,
      "byteLength": 2248,
      "target": 34962,
      "byteStride": 8,
      "extensions": {
        "EXT_meshopt_compression": {
          "buffer": 0,
          "byteOffset": 113664,
          "byteLength": 1940,
          "mode": "ATTRIBUTES",
          "byteStride": 8,
          "count": 281
        }
      }
    },
    {
      "buffer": 1,
      "byteOffset": 261568,
      "byteLength": 1124,
      "target": 34962,
      "byteStride": 4,
      "extensions": {
        "EXT_meshopt_compression": {
          "buffer": 0,
          "byteOffset": 115604,
          "byteLength": 53,
          "mode": "ATTRIBUTES",
          "byteStride": 4,
          "count": 281
        }
      }
    },
    {
      "buffer": 1,
      "byteOffset": 262692,
      "byteLength": 4720,
      "target": 34962,
      "byteStride": 8,
      "extensions": {
        "EXT_meshopt_compression": {
          "buffer": 0,
          "byteOffset": 115660,
          "byteLength": 4021,
          "mode": "ATTRIBUTES",
          "byteStride": 8,
          "count": 590
        }
      }
    },
    {
      "buffer": 1,
      "byteOffset": 267412,
      "byteLength": 2416,
      "target": 34962,
      "byteStride": 8,
      "extensions": {
        "EXT_meshopt_compression": {
          "buffer": 0,
          "byteOffset": 119684,
          "byteLength": 1843,
          "mode": "ATTRIBUTES",
          "byteStride": 8,
          "count": 302
        }
      }
    },
    {
      "buffer": 1,
      "byteOffset": 269828,
      "byteLength": 1960,
      "target": 34962,
      "byteStride": 8,
      "extensions": {
        "EXT_meshopt_compression": {
          "buffer": 0,
          "byteOffset": 121528,
          "byteLength": 1657,
          "mode": "ATTRIBUTES",
          "byteStride": 8,
          "count": 245
        }
      }
    },
    {
      "buffer": 1,
      "byteOffset": 271788,
      "byteLength": 17088,
      "target": 34962,
      "byteStride": 8,
      "extensions": {
        "EXT_meshopt_compression": {
          "buffer": 0,
          "byteOffset": 123188,
          "byteLength": 13632,
          "mode": "ATTRIBUTES",
          "byteStride": 8,
          "count": 2136
        }
      }
    },
    {
      "buffer": 1,
      "byteOffset": 288876,
      "byteLength": 17088,
      "target": 34962,
      "byteStride": 8,
      "extensions": {
        "EXT_meshopt_compression": {
          "buffer": 0,
          "byteOffset": 136820,
          "byteLength": 13632,
          "mode": "ATTRIBUTES",
          "byteStride": 8,
          "count": 2136
        }
      }
    },
    {
      "buffer": 1,
      "byteOffset": 305964,
      "byteLength": 22896,
      "target": 34962,
      "byteStride": 8,
      "extensions": {
        "EXT_meshopt_compression": {
          "buffer": 0,
          "byteOffset": 150452,
          "byteLength": 18201,
          "mode": "ATTRIBUTES",
          "byteStride": 8,
          "count": 2862
        }
      }
    },
    {
      "buffer": 1,
      "byteOffset": 328860,
      "byteLength": 11448,
      "target": 34962,
      "byteStride": 4,
      "extensions": {
        "EXT_meshopt_compression": {
          "buffer": 0,
          "byteOffset": 168656,
          "byteLength": 213,
          "mode": "ATTRIBUTES",
          "byteStride": 4,
          "count": 2862
        }
      }
    },
    {
      "buffer": 1,
      "byteOffset": 340308,
      "byteLength": 2464,
      "target": 34962,
      "byteStride": 8,
      "extensions": {
        "EXT_meshopt_compression": {
          "buffer": 0,
          "byteOffset": 168872,
          "byteLength": 1907,
          "mode": "ATTRIBUTES",
          "byteStride": 8,
          "count": 308
        }
      }
    },
    {
      "buffer": 1,
      "byteOffset": 342772,
      "byteLength": 1232,
      "target": 34962,
      "byteStride": 4,
      "extensions": {
        "EXT_meshopt_compression": {
          "buffer": 0,
          "byteOffset": 170780,
          "byteLength": 53,
          "mode": "ATTRIBUTES",
          "byteStride": 4,
          "count": 308
        }
      }
    },
    {
      "buffer": 1,
      "byteOffset": 344004,
      "byteLength": 864,
      "target": 34962,
      "byteStride": 8,
      "extensions": {
        "EXT_meshopt_compression": {
          "buffer": 0,
          "byteOffset": 170836,
          "byteLength": 720,
          "mode": "ATTRIBUTES",
          "byteStride": 8,
          "count": 108
        }
      }
    },
    {
      "buffer": 1,
      "byteOffset": 344868,
      "byteLength": 432,
      "target": 34962,
      "byteStride": 4,
      "extensions": {
        "EXT_meshopt_compression": {
          "buffer": 0,
          "byteOffset": 171556,
          "byteLength": 41,
          "mode": "ATTRIBUTES",
          "byteStride": 4,
          "count": 108
        }
      }
    },
    {
      "buffer": 1,
      "byteOffset": 345300,
      "byteLength": 20864,
      "target": 34962,
      "byteStride": 8,
      "extensions": {
        "EXT_meshopt_compression": {
          "buffer": 0,
          "byteOffset": 171600,
          "byteLength": 16332,
          "mode": "ATTRIBUTES",
          "byteStride": 8,
          "count": 2608
        }
      }
    },
    {
      "buffer": 1,
      "byteOffset": 366164,
      "byteLength": 10432,
      "target": 34962,
      "byteStride": 4,
      "extensions": {
        "EXT_meshopt_compression": {
          "buffer": 0,
          "byteOffset": 187932,
          "byteLength": 197,
          "mode": "ATTRIBUTES",
          "byteStride": 4,
          "count": 2608
        }
      }
    },
    {
      "buffer": 1,
      "byteOffset": 376596,
      "byteLength": 2336,
      "target": 34962,
      "byteStride": 8,
      "extensions": {
        "EXT_meshopt_compression": {
          "buffer": 0,
          "byteOffset": 188132,
          "byteLength": 2010,
          "mode": "ATTRIBUTES",
          "byteStride": 8,
          "count": 292
        }
      }
    },
    {
      "buffer": 1,
      "byteOffset": 378932,
      "byteLength": 25416,
      "target": 34962,
      "byteStride": 8,
      "extensions": {
        "EXT_meshopt_compression": {
          "buffer": 0,
          "byteOffset": 190144,
          "byteLength": 19988,
          "mode": "ATTRIBUTES",
          "byteStride": 8,
          "count": 3177
        }
      }
    },
    {
      "buffer": 1,
      "byteOffset": 404348,
      "byteLength": 47168,
      "target": 34962,
      "byteStride": 8,
      "extensions": {
        "EXT_meshopt_compression": {
          "buffer": 0,
          "byteOffset": 210132,
          "byteLength": 28003,
          "mode": "ATTRIBUTES",
          "byteStride": 8,
          "count": 5896
        }
      }
    },
    {
      "buffer": 1,
      "byteOffset": 451516,
      "byteLength": 47168,
      "target": 34962,
      "byteStride": 8,
      "extensions": {
        "EXT_meshopt_compression": {
          "buffer": 0,
          "byteOffset": 238136,
          "byteLength": 33062,
          "mode": "ATTRIBUTES",
          "byteStride": 8,
          "count": 5896
        }
      }
    },
    {
      "buffer": 1,
      "byteOffset": 498684,
      "byteLength": 23584,
      "target": 34962,
      "byteStride": 4,
      "extensions": {
        "EXT_meshopt_compression": {
          "buffer": 0,
          "byteOffset": 271200,
          "byteLength": 8156,
          "mode": "ATTRIBUTES",
          "byteStride": 4,
          "count": 5896
        }
      }
    },
    {
      "buffer": 1,
      "byteOffset": 522268,
      "byteLength": 1920,
      "target": 34962,
      "byteStride": 8,
      "extensions": {
        "EXT_meshopt_compression": {
          "buffer": 0,
          "byteOffset": 279356,
          "byteLength": 1180,
          "mode": "ATTRIBUTES",
          "byteStride": 8,
          "count": 240
        }
      }
    },
    {
      "buffer": 1,
      "byteOffset": 524188,
      "byteLength": 1920,
      "target": 34962,
      "byteStride": 8,
      "extensions": {
        "EXT_meshopt_compression": {
          "buffer": 0,
          "byteOffset": 280536,
          "byteLength": 831,
          "mode": "ATTRIBUTES",
          "byteStride": 8,
          "count": 240
        }
      }
    },
    {
      "buffer": 1,
      "byteOffset": 526108,
      "byteLength": 960,
      "target": 34962,
      "byteStride": 4,
      "extensions": {
        "EXT_meshopt_compression": {
          "buffer": 0,
          "byteOffset": 281368,
          "byteLength": 49,
          "mode": "ATTRIBUTES",
          "byteStride": 4,
          "count": 240
        }
      }
    },
    {
      "buffer": 1,
      "byteOffset": 527068,
      "byteLength": 1512,
      "target": 34962,
      "byteStride": 8,
      "extensions": {
        "EXT_meshopt_compression": {
          "buffer": 0,
          "byteOffset": 281420,
          "byteLength": 1145,
          "mode": "ATTRIBUTES",
          "byteStride": 8,
          "count": 189
        }
      }
    },
    {
      "buffer": 1,
      "byteOffset": 528580,
      "byteLength": 1512,
      "target": 34962,
      "byteStride": 8,
      "extensions": {
        "EXT_meshopt_compression": {
          "buffer": 0,
          "byteOffset": 282568,
          "byteLength": 1209,
          "mode": "ATTRIBUTES",
          "byteStride": 8,
          "count": 189
        }
      }
    },
    {
      "buffer": 1,
      "byteOffset": 530092,
      "byteLength": 756,
      "target": 34962,
      "byteStride": 4,
      "extensions": {
        "EXT_meshopt_compression": {
          "buffer": 0,
          "byteOffset": 283780,
          "byteLength": 45,
          "mode": "ATTRIBUTES",
          "byteStride": 4,
          "count": 189
        }
      }
    },
    {
      "buffer": 1,
      "byteOffset": 530848,
      "byteLength": 47112,
      "target": 34962,
      "byteStride": 8,
      "extensions": {
        "EXT_meshopt_compression": {
          "buffer": 0,
          "byteOffset": 283828,
          "byteLength": 27949,
          "mode": "ATTRIBUTES",
          "byteStride": 8,
          "count": 5889
        }
      }
    },
    {
      "buffer": 1,
      "byteOffset": 577960,
      "byteLength": 47112,
      "target": 34962,
      "byteStride": 8,
      "extensions": {
        "EXT_meshopt_compression": {
          "buffer": 0,
          "byteOffset": 311780,
          "byteLength": 33057,
          "mode": "ATTRIBUTES",
          "byteStride": 8,
          "count": 5889
        }
      }
    },
    {
      "buffer": 1,
      "byteOffset": 625072,
      "byteLength": 23556,
      "target": 34962,
      "byteStride": 4,
      "extensions": {
        "EXT_meshopt_compression": {
          "buffer": 0,
          "byteOffset": 344840,
          "byteLength": 8151,
          "mode": "ATTRIBUTES",
          "byteStride": 4,
          "count": 5889
        }
      }
    },
    {
      "buffer": 1,
      "byteOffset": 648628,
      "byteLength": 1920,
      "target": 34962,
      "byteStride": 8,
      "extensions": {
        "EXT_meshopt_compression": {
          "buffer": 0,
          "byteOffset": 352992,
          "byteLength": 1174,
          "mode": "ATTRIBUTES",
          "byteStride": 8,
          "count": 240
        }
      }
    },
    {
      "buffer": 1,
      "byteOffset": 650548,
      "byteLength": 1512,
      "target": 34962,
      "byteStride": 8,
      "extensions": {
        "EXT_meshopt_compression": {
          "buffer": 0,
          "byteOffset": 354168,
          "byteLength": 1143,
          "mode": "ATTRIBUTES",
          "byteStride": 8,
          "count": 189
        }
      }
    },
    {
      "buffer": 1,
      "byteOffset": 652060,
      "byteLength": 9360,
      "target": 34962,
      "byteStride": 8,
      "extensions": {
        "EXT_meshopt_compression": {
          "buffer": 0,
          "byteOffset": 355312,
          "byteLength": 5640,
          "mode": "ATTRIBUTES",
          "byteStride": 8,
          "count": 1170
        }
      }
    },
    {
      "buffer": 1,
      "byteOffset": 661420,
      "byteLength": 9360,
      "target": 34962,
      "byteStride": 8,
      "extensions": {
        "EXT_meshopt_compression": {
          "buffer": 0,
          "byteOffset": 360952,
          "byteLength": 6814,
          "mode": "ATTRIBUTES",
          "byteStride": 8,
          "count": 1170
        }
      }
    },
    {
      "buffer": 1,
      "byteOffset": 670780,
      "byteLength": 4680,
      "target": 34962,
      "byteStride": 4,
      "extensions": {
        "EXT_meshopt_compression": {
          "buffer": 0,
          "byteOffset": 367768,
          "byteLength": 1631,
          "mode": "ATTRIBUTES",
          "byteStride": 4,
          "count": 1170
        }
      }
    },
    {
      "buffer": 1,
      "byteOffset": 675460,
      "byteLength": 3064,
      "target": 34962,
      "byteStride": 8,
      "extensions": {
        "EXT_meshopt_compression": {
          "buffer": 0,
          "byteOffset": 369400,
          "byteLength": 1848,
          "mode": "ATTRIBUTES",
          "byteStride": 8,
          "count": 383
        }
      }
    },
    {
      "buffer": 1,
      "byteOffset": 678524,
      "byteLength": 3064,
      "target": 34962,
      "byteStride": 8,
      "extensions": {
        "EXT_meshopt_compression": {
          "buffer": 0,
          "byteOffset": 371248,
          "byteLength": 1267,
          "mode": "ATTRIBUTES",
          "byteStride": 8,
          "count": 383
        }
      }
    },
    {
      "buffer": 1,
      "byteOffset": 681588,
      "byteLength": 1532,
      "target": 34962,
      "byteStride": 4,
      "extensions": {
        "EXT_meshopt_compression": {
          "buffer": 0,
          "byteOffset": 372516,
          "byteLength": 57,
          "mode": "ATTRIBUTES",
          "byteStride": 4,
          "count": 383
        }
      }
    },
    {
      "buffer": 1,
      "byteOffset": 683120,
      "byteLength": 3360,
      "target": 34962,
      "byteStride": 8,
      "extensions": {
        "EXT_meshopt_compression": {
          "buffer": 0,
          "byteOffset": 372576,
          "byteLength": 2212,
          "mode": "ATTRIBUTES",
          "byteStride": 8,
          "count": 420
        }
      }
    },
    {
      "buffer": 1,
      "byteOffset": 686480,
      "byteLength": 3360,
      "target": 34962,
      "byteStride": 8,
      "extensions": {
        "EXT_meshopt_compression": {
          "buffer": 0,
          "byteOffset": 374788,
          "byteLength": 1486,
          "mode": "ATTRIBUTES",
          "byteStride": 8,
          "count": 420
        }
      }
    },
    {
      "buffer": 1,
      "byteOffset": 689840,
      "byteLength": 1680,
      "target": 34962,
      "byteStride": 4,
      "extensions": {
        "EXT_meshopt_compression": {
          "buffer": 0,
          "byteOffset": 376276,
          "byteLength": 61,
          "mode": "ATTRIBUTES",
          "byteStride": 4,
          "count": 420
        }
      }
    },
    {
      "buffer": 1,
      "byteOffset": 691520,
      "byteLength": 2688,
      "target": 34962,
      "byteStride": 8,
      "extensions": {
        "EXT_meshopt_compression": {
          "buffer": 0,
          "byteOffset": 376340,
          "byteLength": 1708,
          "mode": "ATTRIBUTES",
          "byteStride": 8,
          "count": 336
        }
      }
    },
    {
      "buffer": 1,
      "byteOffset": 694208,
      "byteLength": 2688,
      "target": 34962,
      "byteStride": 8,
      "extensions": {
        "EXT_meshopt_compression": {
          "buffer": 0,
          "byteOffset": 378048,
          "byteLength": 1144,
          "mode": "ATTRIBUTES",
          "byteStride": 8,
          "count": 336
        }
      }
    },
    {
      "buffer": 1,
      "byteOffset": 696896,
      "byteLength": 2248,
      "target": 34962,
      "byteStride": 8,
      "extensions": {
        "EXT_meshopt_compression": {
          "buffer": 0,
          "byteOffset": 379192,
          "byteLength": 1643,
          "mode": "ATTRIBUTES",
          "byteStride": 8,
          "count": 281
        }
      }
    },
    {
      "buffer": 1,
      "byteOffset": 699144,
      "byteLength": 2248,
      "target": 34962,
      "byteStride": 8,
      "extensions": {
        "EXT_meshopt_compression": {
          "buffer": 0,
          "byteOffset": 380836,
          "byteLength": 1752,
          "mode": "ATTRIBUTES",
          "byteStride": 8,
          "count": 281
        }
      }
    },
    {
      "buffer": 1,
      "byteOffset": 701392,
      "byteLength": 4720,
      "target": 34962,
      "byteStride": 8,
      "extensions": {
        "EXT_meshopt_compression": {
          "buffer": 0,
          "byteOffset": 382588,
          "byteLength": 3407,
          "mode": "ATTRIBUTES",
          "byteStride": 8,
          "count": 590
        }
      }
    },
    {
      "buffer": 1,
      "byteOffset": 706112,
      "byteLength": 4720,
      "target": 34962,
      "byteStride": 8,
      "extensions": {
        "EXT_meshopt_compression": {
          "buffer": 0,
          "byteOffset": 385996,
          "byteLength": 3309,
          "mode": "ATTRIBUTES",
          "byteStride": 8,
          "count": 590
        }
      }
    },
    {
      "buffer": 1,
      "byteOffset": 710832,
      "byteLength": 2360,
      "target": 34962,
      "byteStride": 4,
      "extensions": {
        "EXT_meshopt_compression": {
          "buffer": 0,
          "byteOffset": 389308,
          "byteLength": 673,
          "mode": "ATTRIBUTES",
          "byteStride": 4,
          "count": 590
        }
      }
    },
    {
      "buffer": 1,
      "byteOffset": 713192,
      "byteLength": 1088,
      "target": 34962,
      "byteStride": 8,
      "extensions": {
        "EXT_meshopt_compression": {
          "buffer": 0,
          "byteOffset": 389984,
          "byteLength": 726,
          "mode": "ATTRIBUTES",
          "byteStride": 8,
          "count": 136
        }
      }
    },
    {
      "buffer": 1,
      "byteOffset": 714280,
      "byteLength": 1088,
      "target": 34962,
      "byteStride": 8,
      "extensions": {
        "EXT_meshopt_compression": {
          "buffer": 0,
          "byteOffset": 390712,
          "byteLength": 896,
          "mode": "ATTRIBUTES",
          "byteStride": 8,
          "count": 136
        }
      }
    },
    {
      "buffer": 1,
      "byteOffset": 715368,
      "byteLength": 544,
      "target": 34962,
      "byteStride": 4,
      "extensions": {
        "EXT_meshopt_compression": {
          "buffer": 0,
          "byteOffset": 391608,
          "byteLength": 45,
          "mode": "ATTRIBUTES",
          "byteStride": 4,
          "count": 136
        }
      }
    },
    {
      "buffer": 1,
      "byteOffset": 715912,
      "byteLength": 2416,
      "target": 34962,
      "byteStride": 8,
      "extensions": {
        "EXT_meshopt_compression": {
          "buffer": 0,
          "byteOffset": 391656,
          "byteLength": 1513,
          "mode": "ATTRIBUTES",
          "byteStride": 8,
          "count": 302
        }
      }
    },
    {
      "buffer": 1,
      "byteOffset": 718328,
      "byteLength": 2416,
      "target": 34962,
      "byteStride": 8,
      "extensions": {
        "EXT_meshopt_compression": {
          "buffer": 0,
          "byteOffset": 393172,
          "byteLength": 1894,
          "mode": "ATTRIBUTES",
          "byteStride": 8,
          "count": 302
        }
      }
    },
    {
      "buffer": 1,
      "byteOffset": 720744,
      "byteLength": 1208,
      "target": 34962,
      "byteStride": 4,
      "extensions": {
        "EXT_meshopt_compression": {
          "buffer": 0,
          "byteOffset": 395068,
          "byteLength": 53,
          "mode": "ATTRIBUTES",
          "byteStride": 4,
          "count": 302
        }
      }
    },
    {
      "buffer": 1,
      "byteOffset": 721952,
      "byteLength": 1960,
      "target": 34962,
      "byteStride": 8,
      "extensions": {
        "EXT_meshopt_compression": {
          "buffer": 0,
          "byteOffset": 395124,
          "byteLength": 1448,
          "mode": "ATTRIBUTES",
          "byteStride": 8,
          "count": 245
        }
      }
    },
    {
      "buffer": 1,
      "byteOffset": 723912,
      "byteLength": 1960,
      "target": 34962,
      "byteStride": 8,
      "extensions": {
        "EXT_meshopt_compression": {
          "buffer": 0,
          "byteOffset": 396572,
          "byteLength": 1559,
          "mode": "ATTRIBUTES",
          "byteStride": 8,
          "count": 245
        }
      }
    },
    {
      "buffer": 1,
      "byteOffset": 725872,
      "byteLength": 980,
      "target": 34962,
      "byteStride": 4,
      "extensions": {
        "EXT_meshopt_compression": {
          "buffer": 0,
          "byteOffset": 398132,
          "byteLength": 49,
          "mode": "ATTRIBUTES",
          "byteStride": 4,
          "count": 245
        }
      }
    },
    {
      "buffer": 1,
      "byteOffset": 726852,
      "byteLength": 2688,
      "target": 34962,
      "byteStride": 8,
      "extensions": {
        "EXT_meshopt_compression": {
          "buffer": 0,
          "byteOffset": 398184,
          "byteLength": 1704,
          "mode": "ATTRIBUTES",
          "byteStride": 8,
          "count": 336
        }
      }
    },
    {
      "buffer": 1,
      "byteOffset": 729540,
      "byteLength": 2688,
      "target": 34962,
      "byteStride": 8,
      "extensions": {
        "EXT_meshopt_compression": {
          "buffer": 0,
          "byteOffset": 399888,
          "byteLength": 1150,
          "mode": "ATTRIBUTES",
          "byteStride": 8,
          "count": 336
        }
      }
    },
    {
      "buffer": 1,
      "byteOffset": 732228,
      "byteLength": 1344,
      "target": 34962,
      "byteStride": 4,
      "extensions": {
        "EXT_meshopt_compression": {
          "buffer": 0,
          "byteOffset": 401040,
          "byteLength": 57,
          "mode": "ATTRIBUTES",
          "byteStride": 4,
          "count": 336
        }
      }
    },
    {
      "buffer": 1,
      "byteOffset": 733572,
      "byteLength": 17088,
      "target": 34962,
      "byteStride": 8,
      "extensions": {
        "EXT_meshopt_compression": {
          "buffer": 0,
          "byteOffset": 401100,
          "byteLength": 11465,
          "mode": "ATTRIBUTES",
          "byteStride": 8,
          "count": 2136
        }
      }
    },
    {
      "buffer": 1,
      "byteOffset": 750660,
      "byteLength": 17088,
      "target": 34962,
      "byteStride": 8,
      "extensions": {
        "EXT_meshopt_compression": {
          "buffer": 0,
          "byteOffset": 412568,
          "byteLength": 11199,
          "mode": "ATTRIBUTES",
          "byteStride": 8,
          "count": 2136
        }
      }
    },
    {
      "buffer": 1,
      "byteOffset": 767748,
      "byteLength": 8544,
      "target": 34962,
      "byteStride": 4,
      "extensions": {
        "EXT_meshopt_compression": {
          "buffer": 0,
          "byteOffset": 423768,
          "byteLength": 2593,
          "mode": "ATTRIBUTES",
          "byteStride": 4,
          "count": 2136
        }
      }
    },
    {
      "buffer": 1,
      "byteOffset": 776292,
      "byteLength": 17088,
      "target": 34962,
      "byteStride": 8,
      "extensions": {
        "EXT_meshopt_compression": {
          "buffer": 0,
          "byteOffset": 426364,
          "byteLength": 11480,
          "mode": "ATTRIBUTES",
          "byteStride": 8,
          "count": 2136
        }
      }
    },
    {
      "buffer": 1,
      "byteOffset": 793380,
      "byteLength": 17088,
      "target": 34962,
      "byteStride": 8,
      "extensions": {
        "EXT_meshopt_compression": {
          "buffer": 0,
          "byteOffset": 437844,
          "byteLength": 11219,
          "mode": "ATTRIBUTES",
          "byteStride": 8,
          "count": 2136
        }
      }
    },
    {
      "buffer": 1,
      "byteOffset": 810468,
      "byteLength": 8544,
      "target": 34962,
      "byteStride": 4,
      "extensions": {
        "EXT_meshopt_compression": {
          "buffer": 0,
          "byteOffset": 449064,
          "byteLength": 2601,
          "mode": "ATTRIBUTES",
          "byteStride": 4,
          "count": 2136
        }
      }
    },
    {
      "buffer": 1,
      "byteOffset": 819012,
      "byteLength": 22896,
      "target": 34962,
      "byteStride": 8,
      "extensions": {
        "EXT_meshopt_compression": {
          "buffer": 0,
          "byteOffset": 451668,
          "byteLength": 13954,
          "mode": "ATTRIBUTES",
          "byteStride": 8,
          "count": 2862
        }
      }
    },
    {
      "buffer": 1,
      "byteOffset": 841908,
      "byteLength": 22896,
      "target": 34962,
      "byteStride": 8,
      "extensions": {
        "EXT_meshopt_compression": {
          "buffer": 0,
          "byteOffset": 465624,
          "byteLength": 17565,
          "mode": "ATTRIBUTES",
          "byteStride": 8,
          "count": 2862
        }
      }
    },
    {
      "buffer": 1,
      "byteOffset": 864804,
      "byteLength": 2464,
      "target": 34962,
      "byteStride": 8,
      "extensions": {
        "EXT_meshopt_compression": {
          "buffer": 0,
          "byteOffset": 483192,
          "byteLength": 1471,
          "mode": "ATTRIBUTES",
          "byteStride": 8,
          "count": 308
        }
      }
    },
    {
      "buffer": 1,
      "byteOffset": 867268,
      "byteLength": 2464,
      "target": 34962,
      "byteStride": 8,
      "extensions": {
        "EXT_meshopt_compression": {
          "buffer": 0,
          "byteOffset": 484664,
          "byteLength": 1845,
          "mode": "ATTRIBUTES",
          "byteStride": 8,
          "count": 308
        }
      }
    },
    {
      "buffer": 1,
      "byteOffset": 869732,
      "byteLength": 864,
      "target": 34962,
      "byteStride": 8,
      "extensions": {
        "EXT_meshopt_compression": {
          "buffer": 0,
          "byteOffset": 486512,
          "byteLength": 555,
          "mode": "ATTRIBUTES",
          "byteStride": 8,
          "count": 108
        }
      }
    },
    {
      "buffer": 1,
      "byteOffset": 870596,
      "byteLength": 864,
      "target": 34962,
      "byteStride": 8,
      "extensions": {
        "EXT_meshopt_compression": {
          "buffer": 0,
          "byteOffset": 487068,
          "byteLength": 606,
          "mode": "ATTRIBUTES",
          "byteStride": 8,
          "count": 108
        }
      }
    },
    {
      "buffer": 1,
      "byteOffset": 871460,
      "byteLength": 20864,
      "target": 34962,
      "byteStride": 8,
      "extensions": {
        "EXT_meshopt_compression": {
          "buffer": 0,
          "byteOffset": 487676,
          "byteLength": 12080,
          "mode": "ATTRIBUTES",
          "byteStride": 8,
          "count": 2608
        }
      }
    },
    {
      "buffer": 1,
      "byteOffset": 892324,
      "byteLength": 20864,
      "target": 34962,
      "byteStride": 8,
      "extensions": {
        "EXT_meshopt_compression": {
          "buffer": 0,
          "byteOffset": 499756,
          "byteLength": 14143,
          "mode": "ATTRIBUTES",
          "byteStride": 8,
          "count": 2608
        }
      }
    },
    {
      "buffer": 1,
      "byteOffset": 913188,
      "byteLength": 2336,
      "target": 34962,
      "byteStride": 8,
      "extensions": {
        "EXT_meshopt_compression": {
          "buffer": 0,
          "byteOffset": 513900,
          "byteLength": 1779,
          "mode": "ATTRIBUTES",
          "byteStride": 8,
          "count": 292
        }
      }
    },
    {
      "buffer": 1,
      "byteOffset": 915524,
      "byteLength": 2336,
      "target": 34962,
      "byteStride": 8,
      "extensions": {
        "EXT_meshopt_compression": {
          "buffer": 0,
          "byteOffset": 515680,
          "byteLength": 1848,
          "mode": "ATTRIBUTES",
          "byteStride": 8,
          "count": 292
        }
      }
    },
    {
      "buffer": 1,
      "byteOffset": 917860,
      "byteLength": 1168,
      "target": 34962,
      "byteStride": 4,
      "extensions": {
        "EXT_meshopt_compression": {
          "buffer": 0,
          "byteOffset": 517528,
          "byteLength": 53,
          "mode": "ATTRIBUTES",
          "byteStride": 4,
          "count": 292
        }
      }
    },
    {
      "buffer": 1,
      "byteOffset": 919028,
      "byteLength": 2688,
      "target": 34962,
      "byteStride": 8,
      "extensions": {
        "EXT_meshopt_compression": {
          "buffer": 0,
          "byteOffset": 517584,
          "byteLength": 1775,
          "mode": "ATTRIBUTES",
          "byteStride": 8,
          "count": 336
        }
      }
    },
    {
      "buffer": 1,
      "byteOffset": 921716,
      "byteLength": 2688,
      "target": 34962,
      "byteStride": 8,
      "extensions": {
        "EXT_meshopt_compression": {
          "buffer": 0,
          "byteOffset": 519360,
          "byteLength": 1150,
          "mode": "ATTRIBUTES",
          "byteStride": 8,
          "count": 336
        }
      }
    },
    {
      "buffer": 1,
      "byteOffset": 924404,
      "byteLength": 25416,
      "target": 34962,
      "byteStride": 8,
      "extensions": {
        "EXT_meshopt_compression": {
          "buffer": 0,
          "byteOffset": 520512,
          "byteLength": 17217,
          "mode": "ATTRIBUTES",
          "byteStride": 8,
          "count": 3177
        }
      }
    },
    {
      "buffer": 1,
      "byteOffset": 949820,
      "byteLength": 25416,
      "target": 34962,
      "byteStride": 8,
      "extensions": {
        "EXT_meshopt_compression": {
          "buffer": 0,
          "byteOffset": 537732,
          "byteLength": 15801,
          "mode": "ATTRIBUTES",
          "byteStride": 8,
          "count": 3177
        }
      }
    },
    {
      "buffer": 1,
      "byteOffset": 975236,
      "byteLength": 12708,
      "target": 34962,
      "byteStride": 4,
      "extensions": {
        "EXT_meshopt_compression": {
          "buffer": 0,
          "byteOffset": 553536,
          "byteLength": 3951,
          "mode": "ATTRIBUTES",
          "byteStride": 4,
          "count": 3177
        }
      }
    }
  ],
  "samplers": [
    {
      "magFilter": 9729,
      "minFilter": 9987,
      "wrapS": 10497,
      "wrapT": 10497
    }
  ],
  "textures": [
    {
      "sampler": 0,
      "extensions": {
        "EXT_texture_webp": {
          "source": 1
        }
      }
    },
    {
      "sampler": 0,
      "extensions": {
        "EXT_texture_webp": {
          "source": 0
        }
      }
    },
    {
      "sampler": 0,
      "extensions": {
        "EXT_texture_webp": {
          "source": 2
        }
      }
    },
    {
      "sampler": 0,
      "extensions": {
        "EXT_texture_webp": {
          "source": 4
        }
      }
    },
    {
      "sampler": 0,
      "extensions": {
        "EXT_texture_webp": {
          "source": 3
        }
      }
    },
    {
      "sampler": 0,
      "extensions": {
        "EXT_texture_webp": {
          "source": 5
        }
      }
    },
    {
      "sampler": 0,
      "extensions": {
        "EXT_texture_webp": {
          "source": 7
        }
      }
    },
    {
      "sampler": 0,
      "extensions": {
        "EXT_texture_webp": {
          "source": 6
        }
      }
    },
    {
      "sampler": 0,
      "extensions": {
        "EXT_texture_webp": {
          "source": 8
        }
      }
    },
    {
      "sampler": 0,
      "extensions": {
        "EXT_texture_webp": {
          "source": 10
        }
      }
    },
    {
      "sampler": 0,
      "extensions": {
        "EXT_texture_webp": {
          "source": 9
        }
      }
    },
    {
      "sampler": 0,
      "extensions": {
        "EXT_texture_webp": {
          "source": 11
        }
      }
    },
    {
      "sampler": 0,
      "extensions": {
        "EXT_texture_webp": {
          "source": 13
        }
      }
    },
    {
      "sampler": 0,
      "extensions": {
        "EXT_texture_webp": {
          "source": 12
        }
      }
    },
    {
      "sampler": 0,
      "extensions": {
        "EXT_texture_webp": {
          "source": 14
        }
      }
    }
  ],
  "images": [
    {
      "name": "Forged iron normal",
      "mimeType": "image/webp",
      "uri": "textures/surface-fb516ec6c866d7b9.webp"
    },
    {
      "name": "Forged iron color",
      "mimeType": "image/webp",
      "uri": "textures/surface-25be23cebf724530.webp"
    },
    {
      "name": "Forged iron roughness metalness",
      "mimeType": "image/webp",
      "uri": "textures/surface-6fb9fef78a463bef.webp"
    },
    {
      "name": "Dark leather normal",
      "mimeType": "image/webp",
      "uri": "textures/surface-0bba31db93ee7930.webp"
    },
    {
      "name": "Dark leather color",
      "mimeType": "image/webp",
      "uri": "textures/surface-15c7f5964deff57a.webp"
    },
    {
      "name": "Dark leather roughness metalness",
      "mimeType": "image/webp",
      "uri": "textures/surface-ac0465c35b5aefec.webp"
    },
    {
      "name": "Woven cloth normal",
      "mimeType": "image/webp",
      "uri": "textures/surface-15c84119ca507c8c.webp"
    },
    {
      "name": "Woven cloth color",
      "mimeType": "image/webp",
      "uri": "textures/surface-4c574f63fd10e874.webp"
    },
    {
      "name": "Woven cloth roughness metalness",
      "mimeType": "image/webp",
      "uri": "textures/surface-a12b74f6e814638e.webp"
    },
    {
      "name": "Skin and bone normal",
      "mimeType": "image/webp",
      "uri": "textures/surface-4559974a06565aa7.webp"
    },
    {
      "name": "Skin and bone color",
      "mimeType": "image/webp",
      "uri": "textures/surface-a9f4de518b3c7cb7.webp"
    },
    {
      "name": "Skin and bone roughness metalness",
      "mimeType": "image/webp",
      "uri": "textures/surface-b996c2b2f691ba30.webp"
    },
    {
      "name": "Weathered stone normal",
      "mimeType": "image/webp",
      "uri": "textures/surface-4853a2902092cc7c.webp"
    },
    {
      "name": "Weathered stone color",
      "mimeType": "image/webp",
      "uri": "textures/surface-eb11894954d89b5d.webp"
    },
    {
      "name": "Weathered stone roughness metalness",
      "mimeType": "image/webp",
      "uri": "textures/surface-74120f0f7fbce6d0.webp"
    }
  ],
  "buffers": [
    {
      "uri": "kaelor.bin",
      "byteLength": 557488
    },
    {
      "byteLength": 987944,
      "extensions": {
        "EXT_meshopt_compression": {
          "fallback": true
        }
      }
    }
  ],
  "materials": [
    {
      "name": "Rift · Forged iron",
      "extras": {
        "riftTextured": true
      },
      "pbrMetallicRoughness": {
        "baseColorTexture": {
          "index": 0
        },
        "metallicRoughnessTexture": {
          "index": 2
        }
      },
      "normalTexture": {
        "index": 1,
        "scale": 0.550000011920929
      }
    },
    {
      "name": "Material_6.002",
      "extras": {
        "riftBaseColor": [
          0.8631572134510892,
          0.02028856305209031,
          0.061246054224174035,
          1
        ]
      },
      "pbrMetallicRoughness": {
        "baseColorFactor": [
          0.8631572127342224,
          0.020288562402129173,
          0.061246052384376526,
          1
        ],
        "roughnessFactor": 0.30000001192092896,
        "metallicFactor": 0
      },
      "emissiveFactor": [
        1,
        0.023505060379280282,
        0.07095584846052257
      ],
      "extensions": {
        "KHR_materials_emissive_strength": {
          "emissiveStrength": 1.0357886964396101
        }
      }
    },
    {
      "name": "Rift · Dark leather",
      "extras": {
        "riftTextured": true
      },
      "pbrMetallicRoughness": {
        "baseColorTexture": {
          "index": 3
        },
        "metallicRoughnessTexture": {
          "index": 5
        }
      },
      "normalTexture": {
        "index": 4,
        "scale": 0.550000011920929
      }
    },
    {
      "name": "Material_0.002",
      "extras": {
        "riftBaseColor": [
          0.8387990117372213,
          0.019382360952473074,
          0.06301001764564068,
          1
        ]
      },
      "pbrMetallicRoughness": {
        "baseColorFactor": [
          0.838798999786377,
          0.019382361322641373,
          0.06301001459360123,
          1
        ],
        "roughnessFactor": 0.25,
        "metallicFactor": 0.25
      },
      "emissiveFactor": [
        1,
        0.023107277580895567,
        0.0751193249034017
      ],
      "extensions": {
        "KHR_materials_emissive_strength": {
          "emissiveStrength": 1.2581984996795654
        }
      }
    },
    {
      "name": "Rift · Woven cloth",
      "extras": {
        "riftTextured": true
      },
      "doubleSided": true,
      "pbrMetallicRoughness": {
        "baseColorTexture": {
          "index": 6
        },
        "metallicRoughnessTexture": {
          "index": 8
        }
      },
      "normalTexture": {
        "index": 7,
        "scale": 0.550000011920929
      }
    },
    {
      "name": "Rift · Skin and bone",
      "extras": {
        "riftTextured": true
      },
      "pbrMetallicRoughness": {
        "baseColorTexture": {
          "index": 9
        },
        "metallicRoughnessTexture": {
          "index": 11
        }
      },
      "normalTexture": {
        "index": 10,
        "scale": 0.550000011920929
      }
    },
    {
      "name": "Rift · Weathered stone",
      "extras": {
        "riftTextured": true
      },
      "pbrMetallicRoughness": {
        "baseColorTexture": {
          "index": 12
        },
        "metallicRoughnessTexture": {
          "index": 14
        }
      },
      "normalTexture": {
        "index": 13,
        "scale": 0.550000011920929
      }
    }
  ],
  "meshes": [
    {
      "name": "Mesh_11.002",
      "primitives": [
        {
          "attributes": {
            "TEXCOORD_0": 14,
            "POSITION": 58,
            "NORMAL": 59,
            "COLOR_0": 60
          },
          "mode": 4,
          "material": 0,
          "indices": 13
        },
        {
          "attributes": {
            "POSITION": 61,
            "NORMAL": 62,
            "COLOR_0": 63
          },
          "mode": 4,
          "material": 1,
          "indices": 15
        },
        {
          "attributes": {
            "TEXCOORD_0": 17,
            "POSITION": 64,
            "NORMAL": 65,
            "COLOR_0": 66
          },
          "mode": 4,
          "material": 2,
          "indices": 16
        }
      ]
    },
    {
      "name": "Mesh_27.002",
      "primitives": [
        {
          "attributes": {
            "TEXCOORD_0": 19,
            "POSITION": 67,
            "NORMAL": 68,
            "COLOR_0": 69
          },
          "mode": 4,
          "material": 0,
          "indices": 18
        },
        {
          "attributes": {
            "POSITION": 70,
            "NORMAL": 62,
            "COLOR_0": 63
          },
          "mode": 4,
          "material": 1,
          "indices": 15
        },
        {
          "attributes": {
            "POSITION": 71,
            "TEXCOORD_0": 17,
            "NORMAL": 65,
            "COLOR_0": 66
          },
          "mode": 4,
          "material": 2,
          "indices": 16
        }
      ]
    },
    {
      "name": "Mesh_20.002",
      "primitives": [
        {
          "attributes": {
            "TEXCOORD_0": 21,
            "POSITION": 72,
            "NORMAL": 73,
            "COLOR_0": 74
          },
          "mode": 4,
          "material": 0,
          "indices": 20
        },
        {
          "attributes": {
            "TEXCOORD_0": 23,
            "POSITION": 75,
            "NORMAL": 76,
            "COLOR_0": 77
          },
          "mode": 4,
          "material": 2,
          "indices": 22
        },
        {
          "attributes": {
            "POSITION": 78,
            "NORMAL": 79,
            "COLOR_0": 80
          },
          "mode": 4,
          "material": 3,
          "indices": 24
        }
      ]
    },
    {
      "name": "Mesh_34.002",
      "primitives": [
        {
          "attributes": {
            "TEXCOORD_0": 26,
            "COLOR_0": 27,
            "POSITION": 81,
            "NORMAL": 82
          },
          "mode": 4,
          "material": 0,
          "indices": 25
        },
        {
          "attributes": {
            "TEXCOORD_0": 29,
            "COLOR_0": 30,
            "POSITION": 83,
            "NORMAL": 84
          },
          "mode": 4,
          "material": 4,
          "indices": 28
        }
      ]
    },
    {
      "name": "Mesh_5.002",
      "primitives": [
        {
          "attributes": {
            "TEXCOORD_0": 32,
            "POSITION": 85,
            "NORMAL": 86,
            "COLOR_0": 87
          },
          "mode": 4,
          "material": 0,
          "indices": 31
        },
        {
          "attributes": {
            "POSITION": 88,
            "NORMAL": 89,
            "COLOR_0": 90
          },
          "mode": 4,
          "material": 1,
          "indices": 33
        },
        {
          "attributes": {
            "TEXCOORD_0": 35,
            "POSITION": 91,
            "NORMAL": 92,
            "COLOR_0": 93
          },
          "mode": 4,
          "material": 5,
          "indices": 34
        }
      ]
    },
    {
      "name": "Mesh_16.002",
      "primitives": [
        {
          "attributes": {
            "TEXCOORD_0": 37,
            "POSITION": 94,
            "NORMAL": 95,
            "COLOR_0": 96
          },
          "mode": 4,
          "material": 2,
          "indices": 36
        },
        {
          "attributes": {
            "POSITION": 97,
            "NORMAL": 98,
            "COLOR_0": 99
          },
          "mode": 4,
          "material": 3,
          "indices": 25
        },
        {
          "attributes": {
            "TEXCOORD_0": 39,
            "POSITION": 100,
            "NORMAL": 101,
            "COLOR_0": 102
          },
          "mode": 4,
          "material": 0,
          "indices": 38
        }
      ]
    },
    {
      "name": "Mesh_32.002",
      "primitives": [
        {
          "attributes": {
            "TEXCOORD_0": 41,
            "POSITION": 103,
            "NORMAL": 104,
            "COLOR_0": 105
          },
          "mode": 4,
          "material": 0,
          "indices": 40
        },
        {
          "attributes": {
            "POSITION": 97,
            "NORMAL": 98,
            "COLOR_0": 99
          },
          "mode": 4,
          "material": 3,
          "indices": 25
        },
        {
          "attributes": {
            "TEXCOORD_0": 37,
            "POSITION": 94,
            "NORMAL": 95,
            "COLOR_0": 96
          },
          "mode": 4,
          "material": 2,
          "indices": 36
        }
      ]
    },
    {
      "name": "Mesh_39.002",
      "primitives": [
        {
          "attributes": {
            "TEXCOORD_0": 43,
            "COLOR_0": 44,
            "POSITION": 106,
            "NORMAL": 107
          },
          "mode": 4,
          "material": 6,
          "indices": 42
        },
        {
          "attributes": {
            "TEXCOORD_0": 46,
            "COLOR_0": 47,
            "POSITION": 108,
            "NORMAL": 109
          },
          "mode": 4,
          "material": 2,
          "indices": 45
        },
        {
          "attributes": {
            "TEXCOORD_0": 49,
            "COLOR_0": 50,
            "POSITION": 110,
            "NORMAL": 111
          },
          "mode": 4,
          "material": 5,
          "indices": 48
        },
        {
          "attributes": {
            "TEXCOORD_0": 52,
            "COLOR_0": 53,
            "POSITION": 112,
            "NORMAL": 113
          },
          "mode": 4,
          "material": 0,
          "indices": 51
        }
      ]
    },
    {
      "name": "Mesh_1.002",
      "primitives": [
        {
          "attributes": {
            "TEXCOORD_0": 55,
            "POSITION": 114,
            "NORMAL": 115,
            "COLOR_0": 116
          },
          "mode": 4,
          "material": 2,
          "indices": 54
        },
        {
          "attributes": {
            "POSITION": 117,
            "NORMAL": 118,
            "COLOR_0": 99
          },
          "mode": 4,
          "material": 3,
          "indices": 25
        },
        {
          "attributes": {
            "TEXCOORD_0": 57,
            "POSITION": 119,
            "NORMAL": 120,
            "COLOR_0": 121
          },
          "mode": 4,
          "material": 0,
          "indices": 56
        }
      ]
    }
  ],
  "nodes": [
    {
      "name": "kaelor__Mesh_11",
      "extras": {
        "riftTextured": true
      },
      "translation": [
        -0.21149729192256927,
        -0.42524778842926025,
        0.08503551781177521
      ],
      "scale": [
        0.9774315357208252,
        0.9774315357208252,
        0.9774315357208252
      ],
      "mesh": 0
    },
    {
      "name": "kaelor__arm_l",
      "translation": [
        -0.8500000238418579,
        3.0999999046325684,
        0
      ],
      "children": [
        0
      ]
    },
    {
      "name": "kaelor__Mesh_27",
      "extras": {
        "riftTextured": true
      },
      "translation": [
        0.2111750990152359,
        -0.42503494024276733,
        0.08503551781177521
      ],
      "scale": [
        0.9776443839073181,
        0.9776443839073181,
        0.9776443839073181
      ],
      "mesh": 1
    },
    {
      "name": "kaelor__Mesh_20",
      "extras": {
        "riftTextured": true
      },
      "translation": [
        0,
        -0.5979787260293961,
        0.022808760404586792
      ],
      "scale": [
        1.0288654416799545,
        1.0288654416799545,
        1.0288654416799545
      ],
      "mesh": 2
    },
    {
      "name": "kaelor__weapon",
      "translation": [
        0,
        -1.0499999523162842,
        0.15000000596046448
      ],
      "children": [
        3
      ]
    },
    {
      "name": "kaelor__arm_r",
      "translation": [
        0.8500000238418579,
        3.0999999046325684,
        0
      ],
      "children": [
        2,
        4
      ]
    },
    {
      "name": "kaelor__Mesh_34",
      "extras": {
        "riftTextured": true
      },
      "translation": [
        1.8591733141974863e-17,
        -1.3788067400455475,
        -0.2618129998445511
      ],
      "rotation": [
        0,
        1,
        0,
        6.123234262925839e-17
      ],
      "scale": [
        1.378959745168686,
        1.378959745168686,
        1.378959745168686
      ],
      "mesh": 3
    },
    {
      "name": "kaelor__cape",
      "translation": [
        0,
        3.2300000190734863,
        -0.33000001311302185
      ],
      "children": [
        6
      ]
    },
    {
      "name": "kaelor__Mesh_5",
      "extras": {
        "riftTextured": true
      },
      "translation": [
        0.000028207898139953613,
        0.4020856022834778,
        0.03227418661117554
      ],
      "scale": [
        0.7680346369743347,
        0.7680346369743347,
        0.7680346369743347
      ],
      "mesh": 4
    },
    {
      "name": "kaelor__head",
      "translation": [
        0,
        3.4600000381469727,
        0
      ],
      "children": [
        8
      ]
    },
    {
      "name": "kaelor__Mesh_16",
      "extras": {
        "riftTextured": true
      },
      "translation": [
        -2.9802322387695312e-8,
        -0.6898653768002987,
        0.18989132344722748
      ],
      "scale": [
        0.7598653770983219,
        0.7598653770983219,
        0.7598653770983219
      ],
      "mesh": 5
    },
    {
      "name": "kaelor__leg_l",
      "translation": [
        -0.27000001072883606,
        1.6699999570846558,
        0
      ],
      "scale": [
        1,
        1.1399999856948853,
        1
      ],
      "children": [
        10
      ]
    },
    {
      "name": "kaelor__Mesh_32",
      "extras": {
        "riftTextured": true
      },
      "translation": [
        2.9802322387695312e-8,
        -0.6898653768002987,
        0.18989132344722748
      ],
      "scale": [
        0.7598653770983219,
        0.7598653770983219,
        0.7598653770983219
      ],
      "mesh": 6
    },
    {
      "name": "kaelor__leg_r",
      "translation": [
        0.27000001072883606,
        1.6699999570846558,
        0
      ],
      "scale": [
        1,
        1.1399999856948853,
        1
      ],
      "children": [
        12
      ]
    },
    {
      "name": "kaelor__Mesh_39",
      "extras": {
        "riftTextured": true
      },
      "translation": [
        0.02089017629623413,
        1.8279095888137817,
        0.07267312705516815
      ],
      "scale": [
        1.5318864583969116,
        1.5318864583969116,
        1.5318864583969116
      ],
      "mesh": 7
    },
    {
      "name": "kaelor__Mesh_1",
      "extras": {
        "riftTextured": true
      },
      "translation": [
        0,
        0,
        0.07992754876613617
      ],
      "scale": [
        0.7300000190734863,
        0.7300000190734863,
        0.7300000190734863
      ],
      "mesh": 8
    },
    {
      "name": "kaelor__torso",
      "translation": [
        0,
        2.549999952316284,
        0
      ],
      "scale": [
        1.090000033378601,
        1,
        1
      ],
      "children": [
        15
      ]
    },
    {
      "name": "kaelor",
      "extras": {
        "asset": "kaelor",
        "category": "Heroes",
        "title": "The Iron Revenant",
        "rig": {
          "torso": "torso",
          "head": "head",
          "arms": [
            "arm_l",
            "arm_r"
          ],
          "legs": [
            "leg_l",
            "leg_r"
          ],
          "cape": "cape"
        },
        "referencePass": 2,
        "riftAsset": "kaelor",
        "authoring": "Blender 4.5 · UV/PBR surfaces · rigid articulated animation"
      },
      "children": [
        1,
        5,
        7,
        9,
        11,
        13,
        14,
        16
      ]
    }
  ],
  "animations": [
    {
      "name": "Attack",
      "samplers": [
        {
          "input": 0,
          "output": 1,
          "interpolation": "LINEAR"
        },
        {
          "input": 0,
          "output": 2,
          "interpolation": "LINEAR"
        },
        {
          "input": 0,
          "output": 3,
          "interpolation": "LINEAR"
        },
        {
          "input": 0,
          "output": 4,
          "interpolation": "LINEAR"
        }
      ],
      "channels": [
        {
          "sampler": 0,
          "target": {
            "node": 1,
            "path": "rotation"
          }
        },
        {
          "sampler": 1,
          "target": {
            "node": 5,
            "path": "rotation"
          }
        },
        {
          "sampler": 2,
          "target": {
            "node": 4,
            "path": "rotation"
          }
        },
        {
          "sampler": 3,
          "target": {
            "node": 16,
            "path": "rotation"
          }
        }
      ]
    },
    {
      "name": "Walk",
      "samplers": [
        {
          "input": 0,
          "output": 5,
          "interpolation": "LINEAR"
        },
        {
          "input": 0,
          "output": 6,
          "interpolation": "LINEAR"
        },
        {
          "input": 0,
          "output": 7,
          "interpolation": "LINEAR"
        },
        {
          "input": 0,
          "output": 8,
          "interpolation": "LINEAR"
        },
        {
          "input": 0,
          "output": 9,
          "interpolation": "LINEAR"
        }
      ],
      "channels": [
        {
          "sampler": 0,
          "target": {
            "node": 1,
            "path": "rotation"
          }
        },
        {
          "sampler": 1,
          "target": {
            "node": 5,
            "path": "rotation"
          }
        },
        {
          "sampler": 2,
          "target": {
            "node": 7,
            "path": "rotation"
          }
        },
        {
          "sampler": 3,
          "target": {
            "node": 11,
            "path": "rotation"
          }
        },
        {
          "sampler": 4,
          "target": {
            "node": 13,
            "path": "rotation"
          }
        }
      ]
    },
    {
      "name": "Idle",
      "samplers": [
        {
          "input": 10,
          "output": 11,
          "interpolation": "LINEAR"
        },
        {
          "input": 10,
          "output": 12,
          "interpolation": "LINEAR"
        }
      ],
      "channels": [
        {
          "sampler": 0,
          "target": {
            "node": 7,
            "path": "rotation"
          }
        },
        {
          "sampler": 1,
          "target": {
            "node": 16,
            "path": "rotation"
          }
        }
      ]
    }
  ],
  "scenes": [
    {
      "name": "Scene",
      "nodes": [
        17
      ]
    }
  ],
  "scene": 0,
  "extensionsUsed": [
    "EXT_meshopt_compression",
    "EXT_texture_webp",
    "KHR_materials_emissive_strength",
    "KHR_mesh_quantization"
  ],
  "extensionsRequired": [
    "EXT_meshopt_compression",
    "EXT_texture_webp",
    "KHR_mesh_quantization"
  ]
}