{
  "asset": {
    "generator": "glTF-Transform v4.5.0",
    "version": "2.0"
  },
  "accessors": [
    {
      "type": "SCALAR",
      "componentType": 5126,
      "count": 25,
      "max": [
        1.0416666269302368
      ],
      "min": [
        0.0416666679084301
      ],
      "normalized": false,
      "byteOffset": 0,
      "bufferView": 0
    },
    {
      "type": "VEC4",
      "componentType": 5126,
      "count": 25,
      "normalized": false,
      "byteOffset": 0,
      "bufferView": 1
    },
    {
      "type": "VEC4",
      "componentType": 5126,
      "count": 25,
      "normalized": false,
      "byteOffset": 400,
      "bufferView": 1
    },
    {
      "type": "VEC4",
      "componentType": 5126,
      "count": 25,
      "normalized": false,
      "byteOffset": 800,
      "bufferView": 1
    },
    {
      "type": "VEC4",
      "componentType": 5126,
      "count": 25,
      "normalized": false,
      "byteOffset": 1200,
      "bufferView": 1
    },
    {
      "type": "VEC4",
      "componentType": 5126,
      "count": 25,
      "normalized": false,
      "byteOffset": 1600,
      "bufferView": 1
    },
    {
      "type": "VEC4",
      "componentType": 5126,
      "count": 25,
      "normalized": false,
      "byteOffset": 2000,
      "bufferView": 1
    },
    {
      "type": "VEC4",
      "componentType": 5126,
      "count": 25,
      "normalized": false,
      "byteOffset": 2400,
      "bufferView": 1
    },
    {
      "type": "VEC4",
      "componentType": 5126,
      "count": 25,
      "normalized": false,
      "byteOffset": 2800,
      "bufferView": 1
    },
    {
      "type": "VEC4",
      "componentType": 5126,
      "count": 25,
      "normalized": false,
      "byteOffset": 3200,
      "bufferView": 1
    },
    {
      "type": "SCALAR",
      "componentType": 5126,
      "count": 49,
      "max": [
        2.0416667461395264
      ],
      "min": [
        0.0416666679084301
      ],
      "normalized": false,
      "byteOffset": 100,
      "bufferView": 0
    },
    {
      "type": "VEC4",
      "componentType": 5126,
      "count": 49,
      "normalized": false,
      "byteOffset": 3600,
      "bufferView": 1
    },
    {
      "type": "VEC4",
      "componentType": 5126,
      "count": 49,
      "normalized": false,
      "byteOffset": 4384,
      "bufferView": 1
    },
    {
      "type": "SCALAR",
      "componentType": 5123,
      "count": 14670,
      "normalized": false,
      "byteOffset": 0,
      "bufferView": 2
    },
    {
      "type": "VEC2",
      "componentType": 5126,
      "count": 5888,
      "normalized": false,
      "byteOffset": 0,
      "bufferView": 3
    },
    {
      "type": "SCALAR",
      "componentType": 5123,
      "count": 276,
      "normalized": false,
      "byteOffset": 29340,
      "bufferView": 2
    },
    {
      "type": "SCALAR",
      "componentType": 5123,
      "count": 594,
      "normalized": false,
      "byteOffset": 29892,
      "bufferView": 2
    },
    {
      "type": "VEC2",
      "componentType": 5126,
      "count": 189,
      "normalized": false,
      "byteOffset": 0,
      "bufferView": 4
    },
    {
      "type": "SCALAR",
      "componentType": 5123,
      "count": 360,
      "normalized": false,
      "byteOffset": 31080,
      "bufferView": 2
    },
    {
      "type": "VEC2",
      "componentType": 5126,
      "count": 117,
      "normalized": false,
      "byteOffset": 0,
      "bufferView": 5
    },
    {
      "type": "SCALAR",
      "componentType": 5123,
      "count": 534,
      "normalized": false,
      "byteOffset": 31800,
      "bufferView": 2
    },
    {
      "type": "VEC2",
      "componentType": 5126,
      "count": 270,
      "normalized": false,
      "byteOffset": 0,
      "bufferView": 6
    },
    {
      "type": "SCALAR",
      "componentType": 5123,
      "count": 600,
      "normalized": false,
      "byteOffset": 32868,
      "bufferView": 2
    },
    {
      "type": "SCALAR",
      "componentType": 5123,
      "count": 14670,
      "normalized": false,
      "byteOffset": 34068,
      "bufferView": 2
    },
    {
      "type": "VEC2",
      "componentType": 5126,
      "count": 5885,
      "normalized": false,
      "byteOffset": 0,
      "bufferView": 7
    },
    {
      "type": "SCALAR",
      "componentType": 5123,
      "count": 774,
      "normalized": false,
      "byteOffset": 63408,
      "bufferView": 2
    },
    {
      "type": "VEC2",
      "componentType": 5126,
      "count": 302,
      "normalized": false,
      "byteOffset": 0,
      "bufferView": 8
    },
    {
      "type": "VEC4",
      "componentType": 5121,
      "count": 302,
      "normalized": true,
      "byteOffset": 0,
      "bufferView": 9
    },
    {
      "type": "SCALAR",
      "componentType": 5123,
      "count": 372,
      "normalized": false,
      "byteOffset": 64956,
      "bufferView": 2
    },
    {
      "type": "VEC2",
      "componentType": 5126,
      "count": 336,
      "normalized": false,
      "byteOffset": 0,
      "bufferView": 10
    },
    {
      "type": "VEC4",
      "componentType": 5121,
      "count": 336,
      "normalized": true,
      "byteOffset": 0,
      "bufferView": 11
    },
    {
      "type": "SCALAR",
      "componentType": 5123,
      "count": 573,
      "normalized": false,
      "byteOffset": 65700,
      "bufferView": 2
    },
    {
      "type": "VEC2",
      "componentType": 5126,
      "count": 272,
      "normalized": false,
      "byteOffset": 0,
      "bufferView": 12
    },
    {
      "type": "SCALAR",
      "componentType": 5123,
      "count": 4737,
      "normalized": false,
      "byteOffset": 66846,
      "bufferView": 2
    },
    {
      "type": "VEC2",
      "componentType": 5126,
      "count": 1563,
      "normalized": false,
      "byteOffset": 0,
      "bufferView": 13
    },
    {
      "type": "SCALAR",
      "componentType": 5123,
      "count": 570,
      "normalized": false,
      "byteOffset": 76320,
      "bufferView": 2
    },
    {
      "type": "VEC2",
      "componentType": 5126,
      "count": 167,
      "normalized": false,
      "byteOffset": 0,
      "bufferView": 14
    },
    {
      "type": "SCALAR",
      "componentType": 5123,
      "count": 570,
      "normalized": false,
      "byteOffset": 77460,
      "bufferView": 2
    },
    {
      "type": "SCALAR",
      "componentType": 5123,
      "count": 324,
      "normalized": false,
      "byteOffset": 78600,
      "bufferView": 2
    },
    {
      "type": "VEC2",
      "componentType": 5126,
      "count": 124,
      "normalized": false,
      "byteOffset": 0,
      "bufferView": 15
    },
    {
      "type": "SCALAR",
      "componentType": 5123,
      "count": 750,
      "normalized": false,
      "byteOffset": 79248,
      "bufferView": 2
    },
    {
      "type": "VEC2",
      "componentType": 5126,
      "count": 245,
      "normalized": false,
      "byteOffset": 0,
      "bufferView": 16
    },
    {
      "type": "SCALAR",
      "componentType": 5123,
      "count": 4908,
      "normalized": false,
      "byteOffset": 80748,
      "bufferView": 2
    },
    {
      "type": "VEC2",
      "componentType": 5126,
      "count": 2136,
      "normalized": false,
      "byteOffset": 0,
      "bufferView": 17
    },
    {
      "type": "SCALAR",
      "componentType": 5123,
      "count": 4908,
      "normalized": false,
      "byteOffset": 90564,
      "bufferView": 2
    },
    {
      "type": "VEC2",
      "componentType": 5126,
      "count": 2136,
      "normalized": false,
      "byteOffset": 0,
      "bufferView": 18
    },
    {
      "type": "SCALAR",
      "componentType": 5123,
      "count": 6000,
      "normalized": false,
      "byteOffset": 100380,
      "bufferView": 2
    },
    {
      "type": "VEC2",
      "componentType": 5126,
      "count": 2611,
      "normalized": false,
      "byteOffset": 0,
      "bufferView": 19
    },
    {
      "type": "VEC4",
      "componentType": 5121,
      "count": 2611,
      "normalized": true,
      "byteOffset": 0,
      "bufferView": 20
    },
    {
      "type": "SCALAR",
      "componentType": 5123,
      "count": 888,
      "normalized": false,
      "byteOffset": 112380,
      "bufferView": 2
    },
    {
      "type": "VEC2",
      "componentType": 5126,
      "count": 308,
      "normalized": false,
      "byteOffset": 0,
      "bufferView": 21
    },
    {
      "type": "VEC4",
      "componentType": 5121,
      "count": 308,
      "normalized": true,
      "byteOffset": 0,
      "bufferView": 22
    },
    {
      "type": "SCALAR",
      "componentType": 5123,
      "count": 294,
      "normalized": false,
      "byteOffset": 114156,
      "bufferView": 2
    },
    {
      "type": "VEC2",
      "componentType": 5126,
      "count": 108,
      "normalized": false,
      "byteOffset": 0,
      "bufferView": 23
    },
    {
      "type": "VEC4",
      "componentType": 5121,
      "count": 108,
      "normalized": true,
      "byteOffset": 0,
      "bufferView": 24
    },
    {
      "type": "SCALAR",
      "componentType": 5123,
      "count": 516,
      "normalized": false,
      "byteOffset": 114744,
      "bufferView": 2
    },
    {
      "type": "VEC2",
      "componentType": 5126,
      "count": 195,
      "normalized": false,
      "byteOffset": 0,
      "bufferView": 25
    },
    {
      "type": "VEC4",
      "componentType": 5121,
      "count": 195,
      "normalized": true,
      "byteOffset": 0,
      "bufferView": 26
    },
    {
      "type": "SCALAR",
      "componentType": 5123,
      "count": 906,
      "normalized": false,
      "byteOffset": 115776,
      "bufferView": 2
    },
    {
      "type": "VEC2",
      "componentType": 5126,
      "count": 308,
      "normalized": false,
      "byteOffset": 0,
      "bufferView": 27
    },
    {
      "type": "SCALAR",
      "componentType": 5123,
      "count": 6510,
      "normalized": false,
      "byteOffset": 117588,
      "bufferView": 2
    },
    {
      "type": "VEC2",
      "componentType": 5126,
      "count": 3179,
      "normalized": false,
      "byteOffset": 0,
      "bufferView": 28
    },
    {
      "type": "VEC3",
      "componentType": 5122,
      "count": 5888,
      "max": [
        14039,
        32767,
        10622
      ],
      "min": [
        -14039,
        -32767,
        -11018
      ],
      "normalized": true,
      "byteOffset": 0,
      "bufferView": 29
    },
    {
      "type": "VEC3",
      "componentType": 5122,
      "count": 5888,
      "normalized": true,
      "byteOffset": 0,
      "bufferView": 30
    },
    {
      "type": "VEC3",
      "componentType": 5121,
      "count": 5888,
      "normalized": true,
      "byteOffset": 0,
      "bufferView": 31
    },
    {
      "type": "VEC3",
      "componentType": 5122,
      "count": 240,
      "max": [
        5523,
        19781,
        2809
      ],
      "min": [
        2468,
        12934,
        1781
      ],
      "normalized": true,
      "byteOffset": 0,
      "bufferView": 32
    },
    {
      "type": "VEC3",
      "componentType": 5122,
      "count": 240,
      "normalized": true,
      "byteOffset": 0,
      "bufferView": 33
    },
    {
      "type": "VEC3",
      "componentType": 5121,
      "count": 240,
      "normalized": true,
      "byteOffset": 0,
      "bufferView": 34
    },
    {
      "type": "VEC3",
      "componentType": 5122,
      "count": 189,
      "max": [
        13524,
        19717,
        11018
      ],
      "min": [
        -2368,
        -21868,
        -11018
      ],
      "normalized": true,
      "byteOffset": 0,
      "bufferView": 35
    },
    {
      "type": "VEC3",
      "componentType": 5122,
      "count": 189,
      "normalized": true,
      "byteOffset": 0,
      "bufferView": 36
    },
    {
      "type": "VEC3",
      "componentType": 5121,
      "count": 189,
      "normalized": true,
      "byteOffset": 0,
      "bufferView": 37
    },
    {
      "type": "VEC3",
      "componentType": 5122,
      "count": 117,
      "max": [
        1965,
        32767,
        1764
      ],
      "min": [
        -3248,
        12060,
        -3194
      ],
      "normalized": true,
      "byteOffset": 0,
      "bufferView": 38
    },
    {
      "type": "VEC3",
      "componentType": 5122,
      "count": 117,
      "normalized": true,
      "byteOffset": 0,
      "bufferView": 39
    },
    {
      "type": "VEC3",
      "componentType": 5121,
      "count": 117,
      "normalized": true,
      "byteOffset": 0,
      "bufferView": 40
    },
    {
      "type": "VEC3",
      "componentType": 5122,
      "count": 270,
      "max": [
        14074,
        19619,
        2738
      ],
      "min": [
        -14074,
        -32767,
        -3469
      ],
      "normalized": true,
      "byteOffset": 0,
      "bufferView": 41
    },
    {
      "type": "VEC3",
      "componentType": 5122,
      "count": 270,
      "normalized": true,
      "byteOffset": 0,
      "bufferView": 42
    },
    {
      "type": "VEC3",
      "componentType": 5121,
      "count": 270,
      "normalized": true,
      "byteOffset": 0,
      "bufferView": 43
    },
    {
      "type": "VEC3",
      "componentType": 5122,
      "count": 189,
      "max": [
        13996,
        10289,
        3469
      ],
      "min": [
        2051,
        -32203,
        2037
      ],
      "normalized": true,
      "byteOffset": 0,
      "bufferView": 44
    },
    {
      "type": "VEC3",
      "componentType": 5122,
      "count": 189,
      "normalized": true,
      "byteOffset": 0,
      "bufferView": 45
    },
    {
      "type": "VEC3",
      "componentType": 5121,
      "count": 189,
      "normalized": true,
      "byteOffset": 0,
      "bufferView": 46
    },
    {
      "type": "VEC3",
      "componentType": 5122,
      "count": 5885,
      "max": [
        14037,
        32767,
        10620
      ],
      "min": [
        -14037,
        -32767,
        -11016
      ],
      "normalized": true,
      "byteOffset": 0,
      "bufferView": 47
    },
    {
      "type": "VEC3",
      "componentType": 5122,
      "count": 5885,
      "normalized": true,
      "byteOffset": 0,
      "bufferView": 48
    },
    {
      "type": "VEC3",
      "componentType": 5121,
      "count": 5885,
      "normalized": true,
      "byteOffset": 0,
      "bufferView": 49
    },
    {
      "type": "VEC3",
      "componentType": 5122,
      "count": 240,
      "max": [
        -2459,
        19772,
        2809
      ],
      "min": [
        -5514,
        12926,
        1780
      ],
      "normalized": true,
      "byteOffset": 0,
      "bufferView": 50
    },
    {
      "type": "VEC3",
      "componentType": 5122,
      "count": 189,
      "max": [
        2376,
        19708,
        11016
      ],
      "min": [
        -13513,
        -21870,
        -11016
      ],
      "normalized": true,
      "byteOffset": 0,
      "bufferView": 51
    },
    {
      "type": "VEC3",
      "componentType": 5122,
      "count": 189,
      "normalized": true,
      "byteOffset": 0,
      "bufferView": 52
    },
    {
      "type": "VEC3",
      "componentType": 5122,
      "count": 302,
      "max": [
        16040,
        32767,
        6125
      ],
      "min": [
        -16040,
        -32767,
        -6125
      ],
      "normalized": true,
      "byteOffset": 0,
      "bufferView": 53
    },
    {
      "type": "VEC3",
      "componentType": 5122,
      "count": 302,
      "normalized": true,
      "byteOffset": 0,
      "bufferView": 54
    },
    {
      "type": "VEC3",
      "componentType": 5122,
      "count": 336,
      "max": [
        4816,
        22199,
        4192
      ],
      "min": [
        -4816,
        2934,
        2481
      ],
      "normalized": true,
      "byteOffset": 0,
      "bufferView": 55
    },
    {
      "type": "VEC3",
      "componentType": 5122,
      "count": 336,
      "normalized": true,
      "byteOffset": 0,
      "bufferView": 56
    },
    {
      "type": "VEC3",
      "componentType": 5122,
      "count": 272,
      "max": [
        20412,
        32767,
        9417
      ],
      "min": [
        -20412,
        -14279,
        -8555
      ],
      "normalized": true,
      "byteOffset": 0,
      "bufferView": 57
    },
    {
      "type": "VEC3",
      "componentType": 5122,
      "count": 272,
      "normalized": true,
      "byteOffset": 0,
      "bufferView": 58
    },
    {
      "type": "VEC3",
      "componentType": 5121,
      "count": 272,
      "normalized": true,
      "byteOffset": 0,
      "bufferView": 59
    },
    {
      "type": "VEC3",
      "componentType": 5122,
      "count": 1563,
      "max": [
        15147,
        28316,
        9982
      ],
      "min": [
        -15159,
        -32767,
        -9982
      ],
      "normalized": true,
      "byteOffset": 0,
      "bufferView": 60
    },
    {
      "type": "VEC3",
      "componentType": 5122,
      "count": 1563,
      "normalized": true,
      "byteOffset": 0,
      "bufferView": 61
    },
    {
      "type": "VEC3",
      "componentType": 5121,
      "count": 1563,
      "normalized": true,
      "byteOffset": 0,
      "bufferView": 62
    },
    {
      "type": "VEC3",
      "componentType": 5122,
      "count": 167,
      "max": [
        5723,
        13136,
        8204
      ],
      "min": [
        -5710,
        11273,
        6000
      ],
      "normalized": true,
      "byteOffset": 0,
      "bufferView": 63
    },
    {
      "type": "VEC3",
      "componentType": 5122,
      "count": 167,
      "normalized": true,
      "byteOffset": 0,
      "bufferView": 64
    },
    {
      "type": "VEC3",
      "componentType": 5121,
      "count": 167,
      "normalized": true,
      "byteOffset": 0,
      "bufferView": 65
    },
    {
      "type": "VEC3",
      "componentType": 5122,
      "count": 175,
      "max": [
        4500,
        13009,
        8584
      ],
      "min": [
        -4487,
        11485,
        7485
      ],
      "normalized": true,
      "byteOffset": 0,
      "bufferView": 66
    },
    {
      "type": "VEC3",
      "componentType": 5122,
      "count": 175,
      "normalized": true,
      "byteOffset": 0,
      "bufferView": 67
    },
    {
      "type": "VEC3",
      "componentType": 5121,
      "count": 175,
      "normalized": true,
      "byteOffset": 0,
      "bufferView": 68
    },
    {
      "type": "VEC3",
      "componentType": 5122,
      "count": 124,
      "max": [
        12803,
        31226,
        3875
      ],
      "min": [
        -12791,
        -5215,
        -52
      ],
      "normalized": true,
      "byteOffset": 0,
      "bufferView": 69
    },
    {
      "type": "VEC3",
      "componentType": 5122,
      "count": 124,
      "normalized": true,
      "byteOffset": 0,
      "bufferView": 70
    },
    {
      "type": "VEC3",
      "componentType": 5121,
      "count": 124,
      "normalized": true,
      "byteOffset": 0,
      "bufferView": 71
    },
    {
      "type": "VEC3",
      "componentType": 5122,
      "count": 336,
      "max": [
        3979,
        6693,
        8069
      ],
      "min": [
        -3979,
        -8430,
        4964
      ],
      "normalized": true,
      "byteOffset": 0,
      "bufferView": 72
    },
    {
      "type": "VEC3",
      "componentType": 5122,
      "count": 336,
      "normalized": true,
      "byteOffset": 0,
      "bufferView": 73
    },
    {
      "type": "VEC3",
      "componentType": 5121,
      "count": 336,
      "normalized": true,
      "byteOffset": 0,
      "bufferView": 74
    },
    {
      "type": "VEC3",
      "componentType": 5122,
      "count": 245,
      "max": [
        9915,
        32767,
        18966
      ],
      "min": [
        -9915,
        -27234,
        -18966
      ],
      "normalized": true,
      "byteOffset": 0,
      "bufferView": 75
    },
    {
      "type": "VEC3",
      "componentType": 5122,
      "count": 245,
      "normalized": true,
      "byteOffset": 0,
      "bufferView": 76
    },
    {
      "type": "VEC3",
      "componentType": 5121,
      "count": 245,
      "normalized": true,
      "byteOffset": 0,
      "bufferView": 77
    },
    {
      "type": "VEC3",
      "componentType": 5122,
      "count": 2136,
      "max": [
        10777,
        30414,
        18353
      ],
      "min": [
        -10777,
        -32767,
        -18533
      ],
      "normalized": true,
      "byteOffset": 0,
      "bufferView": 78
    },
    {
      "type": "VEC3",
      "componentType": 5122,
      "count": 2136,
      "normalized": true,
      "byteOffset": 0,
      "bufferView": 79
    },
    {
      "type": "VEC3",
      "componentType": 5121,
      "count": 2136,
      "normalized": true,
      "byteOffset": 0,
      "bufferView": 80
    },
    {
      "type": "VEC3",
      "componentType": 5122,
      "count": 2136,
      "max": [
        10777,
        30414,
        18353
      ],
      "min": [
        -10777,
        -32767,
        -18533
      ],
      "normalized": true,
      "byteOffset": 0,
      "bufferView": 81
    },
    {
      "type": "VEC3",
      "componentType": 5122,
      "count": 2136,
      "normalized": true,
      "byteOffset": 0,
      "bufferView": 82
    },
    {
      "type": "VEC3",
      "componentType": 5121,
      "count": 2136,
      "normalized": true,
      "byteOffset": 0,
      "bufferView": 83
    },
    {
      "type": "VEC3",
      "componentType": 5122,
      "count": 2611,
      "max": [
        27415,
        30476,
        15065
      ],
      "min": [
        -27415,
        3942,
        1391
      ],
      "normalized": true,
      "byteOffset": 0,
      "bufferView": 84
    },
    {
      "type": "VEC3",
      "componentType": 5122,
      "count": 2611,
      "normalized": true,
      "byteOffset": 0,
      "bufferView": 85
    },
    {
      "type": "VEC3",
      "componentType": 5122,
      "count": 308,
      "max": [
        24379,
        30127,
        15692
      ],
      "min": [
        -24379,
        11885,
        -15692
      ],
      "normalized": true,
      "byteOffset": 0,
      "bufferView": 86
    },
    {
      "type": "VEC3",
      "componentType": 5122,
      "count": 308,
      "normalized": true,
      "byteOffset": 0,
      "bufferView": 87
    },
    {
      "type": "VEC3",
      "componentType": 5122,
      "count": 108,
      "max": [
        5454,
        32767,
        15358
      ],
      "min": [
        -5454,
        19694,
        9373
      ],
      "normalized": true,
      "byteOffset": 0,
      "bufferView": 88
    },
    {
      "type": "VEC3",
      "componentType": 5122,
      "count": 108,
      "normalized": true,
      "byteOffset": 0,
      "bufferView": 89
    },
    {
      "type": "VEC3",
      "componentType": 5122,
      "count": 195,
      "max": [
        18122,
        26815,
        15519
      ],
      "min": [
        -18154,
        -32767,
        7725
      ],
      "normalized": true,
      "byteOffset": 0,
      "bufferView": 90
    },
    {
      "type": "VEC3",
      "componentType": 5122,
      "count": 195,
      "normalized": true,
      "byteOffset": 0,
      "bufferView": 91
    },
    {
      "type": "VEC3",
      "componentType": 5122,
      "count": 308,
      "max": [
        21538,
        32767,
        19295
      ],
      "min": [
        -21538,
        -32767,
        -19295
      ],
      "normalized": true,
      "byteOffset": 0,
      "bufferView": 92
    },
    {
      "type": "VEC3",
      "componentType": 5122,
      "count": 308,
      "normalized": true,
      "byteOffset": 0,
      "bufferView": 93
    },
    {
      "type": "VEC3",
      "componentType": 5121,
      "count": 308,
      "normalized": true,
      "byteOffset": 0,
      "bufferView": 94
    },
    {
      "type": "VEC3",
      "componentType": 5122,
      "count": 336,
      "max": [
        5865,
        18644,
        18718
      ],
      "min": [
        -5865,
        -4280,
        15487
      ],
      "normalized": true,
      "byteOffset": 0,
      "bufferView": 95
    },
    {
      "type": "VEC3",
      "componentType": 5122,
      "count": 336,
      "normalized": true,
      "byteOffset": 0,
      "bufferView": 96
    },
    {
      "type": "VEC3",
      "componentType": 5122,
      "count": 3179,
      "max": [
        21331,
        23953,
        18651
      ],
      "min": [
        -21327,
        -30699,
        7742
      ],
      "normalized": true,
      "byteOffset": 0,
      "bufferView": 97
    },
    {
      "type": "VEC3",
      "componentType": 5122,
      "count": 3179,
      "normalized": true,
      "byteOffset": 0,
      "bufferView": 98
    },
    {
      "type": "VEC3",
      "componentType": 5121,
      "count": 3179,
      "normalized": true,
      "byteOffset": 0,
      "bufferView": 99
    }
  ],
  "bufferViews": [
    {
      "buffer": 1,
      "byteOffset": 0,
      "byteLength": 296,
      "extensions": {
        "EXT_meshopt_compression": {
          "buffer": 0,
          "byteOffset": 0,
          "byteLength": 279,
          "mode": "ATTRIBUTES",
          "byteStride": 4,
          "count": 74
        }
      }
    },
    {
      "buffer": 1,
      "byteOffset": 296,
      "byteLength": 5168,
      "extensions": {
        "EXT_meshopt_compression": {
          "buffer": 0,
          "byteOffset": 280,
          "byteLength": 2225,
          "mode": "ATTRIBUTES",
          "byteStride": 16,
          "count": 323
        }
      }
    },
    {
      "buffer": 1,
      "byteOffset": 5464,
      "byteLength": 130608,
      "target": 34963,
      "extensions": {
        "EXT_meshopt_compression": {
          "buffer": 0,
          "byteOffset": 2508,
          "byteLength": 22832,
          "mode": "TRIANGLES",
          "byteStride": 2,
          "count": 65304
        }
      }
    },
    {
      "buffer": 1,
      "byteOffset": 136072,
      "byteLength": 47104,
      "target": 34962,
      "byteStride": 8,
      "extensions": {
        "EXT_meshopt_compression": {
          "buffer": 0,
          "byteOffset": 25340,
          "byteLength": 36318,
          "mode": "ATTRIBUTES",
          "byteStride": 8,
          "count": 5888
        }
      }
    },
    {
      "buffer": 1,
      "byteOffset": 183176,
      "byteLength": 1512,
      "target": 34962,
      "byteStride": 8,
      "extensions": {
        "EXT_meshopt_compression": {
          "buffer": 0,
          "byteOffset": 61660,
          "byteLength": 1292,
          "mode": "ATTRIBUTES",
          "byteStride": 8,
          "count": 189
        }
      }
    },
    {
      "buffer": 1,
      "byteOffset": 184688,
      "byteLength": 936,
      "target": 34962,
      "byteStride": 8,
      "extensions": {
        "EXT_meshopt_compression": {
          "buffer": 0,
          "byteOffset": 62952,
          "byteLength": 757,
          "mode": "ATTRIBUTES",
          "byteStride": 8,
          "count": 117
        }
      }
    },
    {
      "buffer": 1,
      "byteOffset": 185624,
      "byteLength": 2160,
      "target": 34962,
      "byteStride": 8,
      "extensions": {
        "EXT_meshopt_compression": {
          "buffer": 0,
          "byteOffset": 63712,
          "byteLength": 1784,
          "mode": "ATTRIBUTES",
          "byteStride": 8,
          "count": 270
        }
      }
    },
    {
      "buffer": 1,
      "byteOffset": 187784,
      "byteLength": 47080,
      "target": 34962,
      "byteStride": 8,
      "extensions": {
        "EXT_meshopt_compression": {
          "buffer": 0,
          "byteOffset": 65496,
          "byteLength": 36270,
          "mode": "ATTRIBUTES",
          "byteStride": 8,
          "count": 5885
        }
      }
    },
    {
      "buffer": 1,
      "byteOffset": 234864,
      "byteLength": 2416,
      "target": 34962,
      "byteStride": 8,
      "extensions": {
        "EXT_meshopt_compression": {
          "buffer": 0,
          "byteOffset": 101768,
          "byteLength": 2068,
          "mode": "ATTRIBUTES",
          "byteStride": 8,
          "count": 302
        }
      }
    },
    {
      "buffer": 1,
      "byteOffset": 237280,
      "byteLength": 1208,
      "target": 34962,
      "byteStride": 4,
      "extensions": {
        "EXT_meshopt_compression": {
          "buffer": 0,
          "byteOffset": 103836,
          "byteLength": 53,
          "mode": "ATTRIBUTES",
          "byteStride": 4,
          "count": 302
        }
      }
    },
    {
      "buffer": 1,
      "byteOffset": 238488,
      "byteLength": 2688,
      "target": 34962,
      "byteStride": 8,
      "extensions": {
        "EXT_meshopt_compression": {
          "buffer": 0,
          "byteOffset": 103892,
          "byteLength": 2148,
          "mode": "ATTRIBUTES",
          "byteStride": 8,
          "count": 336
        }
      }
    },
    {
      "buffer": 1,
      "byteOffset": 241176,
      "byteLength": 1344,
      "target": 34962,
      "byteStride": 4,
      "extensions": {
        "EXT_meshopt_compression": {
          "buffer": 0,
          "byteOffset": 106040,
          "byteLength": 57,
          "mode": "ATTRIBUTES",
          "byteStride": 4,
          "count": 336
        }
      }
    },
    {
      "buffer": 1,
      "byteOffset": 242520,
      "byteLength": 2176,
      "target": 34962,
      "byteStride": 8,
      "extensions": {
        "EXT_meshopt_compression": {
          "buffer": 0,
          "byteOffset": 106100,
          "byteLength": 1866,
          "mode": "ATTRIBUTES",
          "byteStride": 8,
          "count": 272
        }
      }
    },
    {
      "buffer": 1,
      "byteOffset": 244696,
      "byteLength": 12504,
      "target": 34962,
      "byteStride": 8,
      "extensions": {
        "EXT_meshopt_compression": {
          "buffer": 0,
          "byteOffset": 107968,
          "byteLength": 10169,
          "mode": "ATTRIBUTES",
          "byteStride": 8,
          "count": 1563
        }
      }
    },
    {
      "buffer": 1,
      "byteOffset": 257200,
      "byteLength": 1336,
      "target": 34962,
      "byteStride": 8,
      "extensions": {
        "EXT_meshopt_compression": {
          "buffer": 0,
          "byteOffset": 118140,
          "byteLength": 1058,
          "mode": "ATTRIBUTES",
          "byteStride": 8,
          "count": 167
        }
      }
    },
    {
      "buffer": 1,
      "byteOffset": 258536,
      "byteLength": 992,
      "target": 34962,
      "byteStride": 8,
      "extensions": {
        "EXT_meshopt_compression": {
          "buffer": 0,
          "byteOffset": 119200,
          "byteLength": 907,
          "mode": "ATTRIBUTES",
          "byteStride": 8,
          "count": 124
        }
      }
    },
    {
      "buffer": 1,
      "byteOffset": 259528,
      "byteLength": 1960,
      "target": 34962,
      "byteStride": 8,
      "extensions": {
        "EXT_meshopt_compression": {
          "buffer": 0,
          "byteOffset": 120108,
          "byteLength": 1657,
          "mode": "ATTRIBUTES",
          "byteStride": 8,
          "count": 245
        }
      }
    },
    {
      "buffer": 1,
      "byteOffset": 261488,
      "byteLength": 17088,
      "target": 34962,
      "byteStride": 8,
      "extensions": {
        "EXT_meshopt_compression": {
          "buffer": 0,
          "byteOffset": 121768,
          "byteLength": 13632,
          "mode": "ATTRIBUTES",
          "byteStride": 8,
          "count": 2136
        }
      }
    },
    {
      "buffer": 1,
      "byteOffset": 278576,
      "byteLength": 17088,
      "target": 34962,
      "byteStride": 8,
      "extensions": {
        "EXT_meshopt_compression": {
          "buffer": 0,
          "byteOffset": 135400,
          "byteLength": 13632,
          "mode": "ATTRIBUTES",
          "byteStride": 8,
          "count": 2136
        }
      }
    },
    {
      "buffer": 1,
      "byteOffset": 295664,
      "byteLength": 20888,
      "target": 34962,
      "byteStride": 8,
      "extensions": {
        "EXT_meshopt_compression": {
          "buffer": 0,
          "byteOffset": 149032,
          "byteLength": 16317,
          "mode": "ATTRIBUTES",
          "byteStride": 8,
          "count": 2611
        }
      }
    },
    {
      "buffer": 1,
      "byteOffset": 316552,
      "byteLength": 10444,
      "target": 34962,
      "byteStride": 4,
      "extensions": {
        "EXT_meshopt_compression": {
          "buffer": 0,
          "byteOffset": 165352,
          "byteLength": 197,
          "mode": "ATTRIBUTES",
          "byteStride": 4,
          "count": 2611
        }
      }
    },
    {
      "buffer": 1,
      "byteOffset": 326996,
      "byteLength": 2464,
      "target": 34962,
      "byteStride": 8,
      "extensions": {
        "EXT_meshopt_compression": {
          "buffer": 0,
          "byteOffset": 165552,
          "byteLength": 1906,
          "mode": "ATTRIBUTES",
          "byteStride": 8,
          "count": 308
        }
      }
    },
    {
      "buffer": 1,
      "byteOffset": 329460,
      "byteLength": 1232,
      "target": 34962,
      "byteStride": 4,
      "extensions": {
        "EXT_meshopt_compression": {
          "buffer": 0,
          "byteOffset": 167460,
          "byteLength": 53,
          "mode": "ATTRIBUTES",
          "byteStride": 4,
          "count": 308
        }
      }
    },
    {
      "buffer": 1,
      "byteOffset": 330692,
      "byteLength": 864,
      "target": 34962,
      "byteStride": 8,
      "extensions": {
        "EXT_meshopt_compression": {
          "buffer": 0,
          "byteOffset": 167516,
          "byteLength": 720,
          "mode": "ATTRIBUTES",
          "byteStride": 8,
          "count": 108
        }
      }
    },
    {
      "buffer": 1,
      "byteOffset": 331556,
      "byteLength": 432,
      "target": 34962,
      "byteStride": 4,
      "extensions": {
        "EXT_meshopt_compression": {
          "buffer": 0,
          "byteOffset": 168236,
          "byteLength": 41,
          "mode": "ATTRIBUTES",
          "byteStride": 4,
          "count": 108
        }
      }
    },
    {
      "buffer": 1,
      "byteOffset": 331988,
      "byteLength": 1560,
      "target": 34962,
      "byteStride": 8,
      "extensions": {
        "EXT_meshopt_compression": {
          "buffer": 0,
          "byteOffset": 168280,
          "byteLength": 1395,
          "mode": "ATTRIBUTES",
          "byteStride": 8,
          "count": 195
        }
      }
    },
    {
      "buffer": 1,
      "byteOffset": 333548,
      "byteLength": 780,
      "target": 34962,
      "byteStride": 4,
      "extensions": {
        "EXT_meshopt_compression": {
          "buffer": 0,
          "byteOffset": 169676,
          "byteLength": 49,
          "mode": "ATTRIBUTES",
          "byteStride": 4,
          "count": 195
        }
      }
    },
    {
      "buffer": 1,
      "byteOffset": 334328,
      "byteLength": 2464,
      "target": 34962,
      "byteStride": 8,
      "extensions": {
        "EXT_meshopt_compression": {
          "buffer": 0,
          "byteOffset": 169728,
          "byteLength": 2102,
          "mode": "ATTRIBUTES",
          "byteStride": 8,
          "count": 308
        }
      }
    },
    {
      "buffer": 1,
      "byteOffset": 336792,
      "byteLength": 25432,
      "target": 34962,
      "byteStride": 8,
      "extensions": {
        "EXT_meshopt_compression": {
          "buffer": 0,
          "byteOffset": 171832,
          "byteLength": 20065,
          "mode": "ATTRIBUTES",
          "byteStride": 8,
          "count": 3179
        }
      }
    },
    {
      "buffer": 1,
      "byteOffset": 362224,
      "byteLength": 47104,
      "target": 34962,
      "byteStride": 8,
      "extensions": {
        "EXT_meshopt_compression": {
          "buffer": 0,
          "byteOffset": 191900,
          "byteLength": 27911,
          "mode": "ATTRIBUTES",
          "byteStride": 8,
          "count": 5888
        }
      }
    },
    {
      "buffer": 1,
      "byteOffset": 409328,
      "byteLength": 47104,
      "target": 34962,
      "byteStride": 8,
      "extensions": {
        "EXT_meshopt_compression": {
          "buffer": 0,
          "byteOffset": 219812,
          "byteLength": 32978,
          "mode": "ATTRIBUTES",
          "byteStride": 8,
          "count": 5888
        }
      }
    },
    {
      "buffer": 1,
      "byteOffset": 456432,
      "byteLength": 23552,
      "target": 34962,
      "byteStride": 4,
      "extensions": {
        "EXT_meshopt_compression": {
          "buffer": 0,
          "byteOffset": 252792,
          "byteLength": 8156,
          "mode": "ATTRIBUTES",
          "byteStride": 4,
          "count": 5888
        }
      }
    },
    {
      "buffer": 1,
      "byteOffset": 479984,
      "byteLength": 1920,
      "target": 34962,
      "byteStride": 8,
      "extensions": {
        "EXT_meshopt_compression": {
          "buffer": 0,
          "byteOffset": 260948,
          "byteLength": 1089,
          "mode": "ATTRIBUTES",
          "byteStride": 8,
          "count": 240
        }
      }
    },
    {
      "buffer": 1,
      "byteOffset": 481904,
      "byteLength": 1920,
      "target": 34962,
      "byteStride": 8,
      "extensions": {
        "EXT_meshopt_compression": {
          "buffer": 0,
          "byteOffset": 262040,
          "byteLength": 818,
          "mode": "ATTRIBUTES",
          "byteStride": 8,
          "count": 240
        }
      }
    },
    {
      "buffer": 1,
      "byteOffset": 483824,
      "byteLength": 960,
      "target": 34962,
      "byteStride": 4,
      "extensions": {
        "EXT_meshopt_compression": {
          "buffer": 0,
          "byteOffset": 262860,
          "byteLength": 49,
          "mode": "ATTRIBUTES",
          "byteStride": 4,
          "count": 240
        }
      }
    },
    {
      "buffer": 1,
      "byteOffset": 484784,
      "byteLength": 1512,
      "target": 34962,
      "byteStride": 8,
      "extensions": {
        "EXT_meshopt_compression": {
          "buffer": 0,
          "byteOffset": 262912,
          "byteLength": 1149,
          "mode": "ATTRIBUTES",
          "byteStride": 8,
          "count": 189
        }
      }
    },
    {
      "buffer": 1,
      "byteOffset": 486296,
      "byteLength": 1512,
      "target": 34962,
      "byteStride": 8,
      "extensions": {
        "EXT_meshopt_compression": {
          "buffer": 0,
          "byteOffset": 264064,
          "byteLength": 1209,
          "mode": "ATTRIBUTES",
          "byteStride": 8,
          "count": 189
        }
      }
    },
    {
      "buffer": 1,
      "byteOffset": 487808,
      "byteLength": 756,
      "target": 34962,
      "byteStride": 4,
      "extensions": {
        "EXT_meshopt_compression": {
          "buffer": 0,
          "byteOffset": 265276,
          "byteLength": 45,
          "mode": "ATTRIBUTES",
          "byteStride": 4,
          "count": 189
        }
      }
    },
    {
      "buffer": 1,
      "byteOffset": 488564,
      "byteLength": 936,
      "target": 34962,
      "byteStride": 8,
      "extensions": {
        "EXT_meshopt_compression": {
          "buffer": 0,
          "byteOffset": 265324,
          "byteLength": 618,
          "mode": "ATTRIBUTES",
          "byteStride": 8,
          "count": 117
        }
      }
    },
    {
      "buffer": 1,
      "byteOffset": 489500,
      "byteLength": 936,
      "target": 34962,
      "byteStride": 8,
      "extensions": {
        "EXT_meshopt_compression": {
          "buffer": 0,
          "byteOffset": 265944,
          "byteLength": 551,
          "mode": "ATTRIBUTES",
          "byteStride": 8,
          "count": 117
        }
      }
    },
    {
      "buffer": 1,
      "byteOffset": 490436,
      "byteLength": 468,
      "target": 34962,
      "byteStride": 4,
      "extensions": {
        "EXT_meshopt_compression": {
          "buffer": 0,
          "byteOffset": 266496,
          "byteLength": 41,
          "mode": "ATTRIBUTES",
          "byteStride": 4,
          "count": 117
        }
      }
    },
    {
      "buffer": 1,
      "byteOffset": 490904,
      "byteLength": 2160,
      "target": 34962,
      "byteStride": 8,
      "extensions": {
        "EXT_meshopt_compression": {
          "buffer": 0,
          "byteOffset": 266540,
          "byteLength": 1469,
          "mode": "ATTRIBUTES",
          "byteStride": 8,
          "count": 270
        }
      }
    },
    {
      "buffer": 1,
      "byteOffset": 493064,
      "byteLength": 2160,
      "target": 34962,
      "byteStride": 8,
      "extensions": {
        "EXT_meshopt_compression": {
          "buffer": 0,
          "byteOffset": 268012,
          "byteLength": 1185,
          "mode": "ATTRIBUTES",
          "byteStride": 8,
          "count": 270
        }
      }
    },
    {
      "buffer": 1,
      "byteOffset": 495224,
      "byteLength": 1080,
      "target": 34962,
      "byteStride": 4,
      "extensions": {
        "EXT_meshopt_compression": {
          "buffer": 0,
          "byteOffset": 269200,
          "byteLength": 357,
          "mode": "ATTRIBUTES",
          "byteStride": 4,
          "count": 270
        }
      }
    },
    {
      "buffer": 1,
      "byteOffset": 496304,
      "byteLength": 1512,
      "target": 34962,
      "byteStride": 8,
      "extensions": {
        "EXT_meshopt_compression": {
          "buffer": 0,
          "byteOffset": 269560,
          "byteLength": 936,
          "mode": "ATTRIBUTES",
          "byteStride": 8,
          "count": 189
        }
      }
    },
    {
      "buffer": 1,
      "byteOffset": 497816,
      "byteLength": 1512,
      "target": 34962,
      "byteStride": 8,
      "extensions": {
        "EXT_meshopt_compression": {
          "buffer": 0,
          "byteOffset": 270496,
          "byteLength": 1116,
          "mode": "ATTRIBUTES",
          "byteStride": 8,
          "count": 189
        }
      }
    },
    {
      "buffer": 1,
      "byteOffset": 499328,
      "byteLength": 756,
      "target": 34962,
      "byteStride": 4,
      "extensions": {
        "EXT_meshopt_compression": {
          "buffer": 0,
          "byteOffset": 271612,
          "byteLength": 45,
          "mode": "ATTRIBUTES",
          "byteStride": 4,
          "count": 189
        }
      }
    },
    {
      "buffer": 1,
      "byteOffset": 500084,
      "byteLength": 47080,
      "target": 34962,
      "byteStride": 8,
      "extensions": {
        "EXT_meshopt_compression": {
          "buffer": 0,
          "byteOffset": 271660,
          "byteLength": 27912,
          "mode": "ATTRIBUTES",
          "byteStride": 8,
          "count": 5885
        }
      }
    },
    {
      "buffer": 1,
      "byteOffset": 547164,
      "byteLength": 47080,
      "target": 34962,
      "byteStride": 8,
      "extensions": {
        "EXT_meshopt_compression": {
          "buffer": 0,
          "byteOffset": 299572,
          "byteLength": 33029,
          "mode": "ATTRIBUTES",
          "byteStride": 8,
          "count": 5885
        }
      }
    },
    {
      "buffer": 1,
      "byteOffset": 594244,
      "byteLength": 23540,
      "target": 34962,
      "byteStride": 4,
      "extensions": {
        "EXT_meshopt_compression": {
          "buffer": 0,
          "byteOffset": 332604,
          "byteLength": 8124,
          "mode": "ATTRIBUTES",
          "byteStride": 4,
          "count": 5885
        }
      }
    },
    {
      "buffer": 1,
      "byteOffset": 617784,
      "byteLength": 1920,
      "target": 34962,
      "byteStride": 8,
      "extensions": {
        "EXT_meshopt_compression": {
          "buffer": 0,
          "byteOffset": 340728,
          "byteLength": 1089,
          "mode": "ATTRIBUTES",
          "byteStride": 8,
          "count": 240
        }
      }
    },
    {
      "buffer": 1,
      "byteOffset": 619704,
      "byteLength": 1512,
      "target": 34962,
      "byteStride": 8,
      "extensions": {
        "EXT_meshopt_compression": {
          "buffer": 0,
          "byteOffset": 341820,
          "byteLength": 1148,
          "mode": "ATTRIBUTES",
          "byteStride": 8,
          "count": 189
        }
      }
    },
    {
      "buffer": 1,
      "byteOffset": 621216,
      "byteLength": 1512,
      "target": 34962,
      "byteStride": 8,
      "extensions": {
        "EXT_meshopt_compression": {
          "buffer": 0,
          "byteOffset": 342968,
          "byteLength": 1116,
          "mode": "ATTRIBUTES",
          "byteStride": 8,
          "count": 189
        }
      }
    },
    {
      "buffer": 1,
      "byteOffset": 622728,
      "byteLength": 2416,
      "target": 34962,
      "byteStride": 8,
      "extensions": {
        "EXT_meshopt_compression": {
          "buffer": 0,
          "byteOffset": 344084,
          "byteLength": 1710,
          "mode": "ATTRIBUTES",
          "byteStride": 8,
          "count": 302
        }
      }
    },
    {
      "buffer": 1,
      "byteOffset": 625144,
      "byteLength": 2416,
      "target": 34962,
      "byteStride": 8,
      "extensions": {
        "EXT_meshopt_compression": {
          "buffer": 0,
          "byteOffset": 345796,
          "byteLength": 1876,
          "mode": "ATTRIBUTES",
          "byteStride": 8,
          "count": 302
        }
      }
    },
    {
      "buffer": 1,
      "byteOffset": 627560,
      "byteLength": 2688,
      "target": 34962,
      "byteStride": 8,
      "extensions": {
        "EXT_meshopt_compression": {
          "buffer": 0,
          "byteOffset": 347672,
          "byteLength": 1708,
          "mode": "ATTRIBUTES",
          "byteStride": 8,
          "count": 336
        }
      }
    },
    {
      "buffer": 1,
      "byteOffset": 630248,
      "byteLength": 2688,
      "target": 34962,
      "byteStride": 8,
      "extensions": {
        "EXT_meshopt_compression": {
          "buffer": 0,
          "byteOffset": 349380,
          "byteLength": 1144,
          "mode": "ATTRIBUTES",
          "byteStride": 8,
          "count": 336
        }
      }
    },
    {
      "buffer": 1,
      "byteOffset": 632936,
      "byteLength": 2176,
      "target": 34962,
      "byteStride": 8,
      "extensions": {
        "EXT_meshopt_compression": {
          "buffer": 0,
          "byteOffset": 350524,
          "byteLength": 1598,
          "mode": "ATTRIBUTES",
          "byteStride": 8,
          "count": 272
        }
      }
    },
    {
      "buffer": 1,
      "byteOffset": 635112,
      "byteLength": 2176,
      "target": 34962,
      "byteStride": 8,
      "extensions": {
        "EXT_meshopt_compression": {
          "buffer": 0,
          "byteOffset": 352124,
          "byteLength": 1520,
          "mode": "ATTRIBUTES",
          "byteStride": 8,
          "count": 272
        }
      }
    },
    {
      "buffer": 1,
      "byteOffset": 637288,
      "byteLength": 1088,
      "target": 34962,
      "byteStride": 4,
      "extensions": {
        "EXT_meshopt_compression": {
          "buffer": 0,
          "byteOffset": 353644,
          "byteLength": 190,
          "mode": "ATTRIBUTES",
          "byteStride": 4,
          "count": 272
        }
      }
    },
    {
      "buffer": 1,
      "byteOffset": 638376,
      "byteLength": 12504,
      "target": 34962,
      "byteStride": 8,
      "extensions": {
        "EXT_meshopt_compression": {
          "buffer": 0,
          "byteOffset": 353836,
          "byteLength": 8447,
          "mode": "ATTRIBUTES",
          "byteStride": 8,
          "count": 1563
        }
      }
    },
    {
      "buffer": 1,
      "byteOffset": 650880,
      "byteLength": 12504,
      "target": 34962,
      "byteStride": 8,
      "extensions": {
        "EXT_meshopt_compression": {
          "buffer": 0,
          "byteOffset": 362284,
          "byteLength": 9598,
          "mode": "ATTRIBUTES",
          "byteStride": 8,
          "count": 1563
        }
      }
    },
    {
      "buffer": 1,
      "byteOffset": 663384,
      "byteLength": 6252,
      "target": 34962,
      "byteStride": 4,
      "extensions": {
        "EXT_meshopt_compression": {
          "buffer": 0,
          "byteOffset": 371884,
          "byteLength": 1361,
          "mode": "ATTRIBUTES",
          "byteStride": 4,
          "count": 1563
        }
      }
    },
    {
      "buffer": 1,
      "byteOffset": 669636,
      "byteLength": 1336,
      "target": 34962,
      "byteStride": 8,
      "extensions": {
        "EXT_meshopt_compression": {
          "buffer": 0,
          "byteOffset": 373248,
          "byteLength": 827,
          "mode": "ATTRIBUTES",
          "byteStride": 8,
          "count": 167
        }
      }
    },
    {
      "buffer": 1,
      "byteOffset": 670972,
      "byteLength": 1336,
      "target": 34962,
      "byteStride": 8,
      "extensions": {
        "EXT_meshopt_compression": {
          "buffer": 0,
          "byteOffset": 374076,
          "byteLength": 1083,
          "mode": "ATTRIBUTES",
          "byteStride": 8,
          "count": 167
        }
      }
    },
    {
      "buffer": 1,
      "byteOffset": 672308,
      "byteLength": 668,
      "target": 34962,
      "byteStride": 4,
      "extensions": {
        "EXT_meshopt_compression": {
          "buffer": 0,
          "byteOffset": 375160,
          "byteLength": 429,
          "mode": "ATTRIBUTES",
          "byteStride": 4,
          "count": 167
        }
      }
    },
    {
      "buffer": 1,
      "byteOffset": 672976,
      "byteLength": 1400,
      "target": 34962,
      "byteStride": 8,
      "extensions": {
        "EXT_meshopt_compression": {
          "buffer": 0,
          "byteOffset": 375592,
          "byteLength": 784,
          "mode": "ATTRIBUTES",
          "byteStride": 8,
          "count": 175
        }
      }
    },
    {
      "buffer": 1,
      "byteOffset": 674376,
      "byteLength": 1400,
      "target": 34962,
      "byteStride": 8,
      "extensions": {
        "EXT_meshopt_compression": {
          "buffer": 0,
          "byteOffset": 376376,
          "byteLength": 1113,
          "mode": "ATTRIBUTES",
          "byteStride": 8,
          "count": 175
        }
      }
    },
    {
      "buffer": 1,
      "byteOffset": 675776,
      "byteLength": 700,
      "target": 34962,
      "byteStride": 4,
      "extensions": {
        "EXT_meshopt_compression": {
          "buffer": 0,
          "byteOffset": 377492,
          "byteLength": 45,
          "mode": "ATTRIBUTES",
          "byteStride": 4,
          "count": 175
        }
      }
    },
    {
      "buffer": 1,
      "byteOffset": 676476,
      "byteLength": 992,
      "target": 34962,
      "byteStride": 8,
      "extensions": {
        "EXT_meshopt_compression": {
          "buffer": 0,
          "byteOffset": 377540,
          "byteLength": 747,
          "mode": "ATTRIBUTES",
          "byteStride": 8,
          "count": 124
        }
      }
    },
    {
      "buffer": 1,
      "byteOffset": 677468,
      "byteLength": 992,
      "target": 34962,
      "byteStride": 8,
      "extensions": {
        "EXT_meshopt_compression": {
          "buffer": 0,
          "byteOffset": 378288,
          "byteLength": 813,
          "mode": "ATTRIBUTES",
          "byteStride": 8,
          "count": 124
        }
      }
    },
    {
      "buffer": 1,
      "byteOffset": 678460,
      "byteLength": 496,
      "target": 34962,
      "byteStride": 4,
      "extensions": {
        "EXT_meshopt_compression": {
          "buffer": 0,
          "byteOffset": 379104,
          "byteLength": 246,
          "mode": "ATTRIBUTES",
          "byteStride": 4,
          "count": 124
        }
      }
    },
    {
      "buffer": 1,
      "byteOffset": 678956,
      "byteLength": 2688,
      "target": 34962,
      "byteStride": 8,
      "extensions": {
        "EXT_meshopt_compression": {
          "buffer": 0,
          "byteOffset": 379352,
          "byteLength": 1704,
          "mode": "ATTRIBUTES",
          "byteStride": 8,
          "count": 336
        }
      }
    },
    {
      "buffer": 1,
      "byteOffset": 681644,
      "byteLength": 2688,
      "target": 34962,
      "byteStride": 8,
      "extensions": {
        "EXT_meshopt_compression": {
          "buffer": 0,
          "byteOffset": 381056,
          "byteLength": 1150,
          "mode": "ATTRIBUTES",
          "byteStride": 8,
          "count": 336
        }
      }
    },
    {
      "buffer": 1,
      "byteOffset": 684332,
      "byteLength": 1344,
      "target": 34962,
      "byteStride": 4,
      "extensions": {
        "EXT_meshopt_compression": {
          "buffer": 0,
          "byteOffset": 382208,
          "byteLength": 57,
          "mode": "ATTRIBUTES",
          "byteStride": 4,
          "count": 336
        }
      }
    },
    {
      "buffer": 1,
      "byteOffset": 685676,
      "byteLength": 1960,
      "target": 34962,
      "byteStride": 8,
      "extensions": {
        "EXT_meshopt_compression": {
          "buffer": 0,
          "byteOffset": 382268,
          "byteLength": 1448,
          "mode": "ATTRIBUTES",
          "byteStride": 8,
          "count": 245
        }
      }
    },
    {
      "buffer": 1,
      "byteOffset": 687636,
      "byteLength": 1960,
      "target": 34962,
      "byteStride": 8,
      "extensions": {
        "EXT_meshopt_compression": {
          "buffer": 0,
          "byteOffset": 383716,
          "byteLength": 1559,
          "mode": "ATTRIBUTES",
          "byteStride": 8,
          "count": 245
        }
      }
    },
    {
      "buffer": 1,
      "byteOffset": 689596,
      "byteLength": 980,
      "target": 34962,
      "byteStride": 4,
      "extensions": {
        "EXT_meshopt_compression": {
          "buffer": 0,
          "byteOffset": 385276,
          "byteLength": 49,
          "mode": "ATTRIBUTES",
          "byteStride": 4,
          "count": 245
        }
      }
    },
    {
      "buffer": 1,
      "byteOffset": 690576,
      "byteLength": 17088,
      "target": 34962,
      "byteStride": 8,
      "extensions": {
        "EXT_meshopt_compression": {
          "buffer": 0,
          "byteOffset": 385328,
          "byteLength": 11465,
          "mode": "ATTRIBUTES",
          "byteStride": 8,
          "count": 2136
        }
      }
    },
    {
      "buffer": 1,
      "byteOffset": 707664,
      "byteLength": 17088,
      "target": 34962,
      "byteStride": 8,
      "extensions": {
        "EXT_meshopt_compression": {
          "buffer": 0,
          "byteOffset": 396796,
          "byteLength": 11199,
          "mode": "ATTRIBUTES",
          "byteStride": 8,
          "count": 2136
        }
      }
    },
    {
      "buffer": 1,
      "byteOffset": 724752,
      "byteLength": 8544,
      "target": 34962,
      "byteStride": 4,
      "extensions": {
        "EXT_meshopt_compression": {
          "buffer": 0,
          "byteOffset": 407996,
          "byteLength": 2593,
          "mode": "ATTRIBUTES",
          "byteStride": 4,
          "count": 2136
        }
      }
    },
    {
      "buffer": 1,
      "byteOffset": 733296,
      "byteLength": 17088,
      "target": 34962,
      "byteStride": 8,
      "extensions": {
        "EXT_meshopt_compression": {
          "buffer": 0,
          "byteOffset": 410592,
          "byteLength": 11480,
          "mode": "ATTRIBUTES",
          "byteStride": 8,
          "count": 2136
        }
      }
    },
    {
      "buffer": 1,
      "byteOffset": 750384,
      "byteLength": 17088,
      "target": 34962,
      "byteStride": 8,
      "extensions": {
        "EXT_meshopt_compression": {
          "buffer": 0,
          "byteOffset": 422072,
          "byteLength": 11219,
          "mode": "ATTRIBUTES",
          "byteStride": 8,
          "count": 2136
        }
      }
    },
    {
      "buffer": 1,
      "byteOffset": 767472,
      "byteLength": 8544,
      "target": 34962,
      "byteStride": 4,
      "extensions": {
        "EXT_meshopt_compression": {
          "buffer": 0,
          "byteOffset": 433292,
          "byteLength": 2601,
          "mode": "ATTRIBUTES",
          "byteStride": 4,
          "count": 2136
        }
      }
    },
    {
      "buffer": 1,
      "byteOffset": 776016,
      "byteLength": 20888,
      "target": 34962,
      "byteStride": 8,
      "extensions": {
        "EXT_meshopt_compression": {
          "buffer": 0,
          "byteOffset": 435896,
          "byteLength": 13070,
          "mode": "ATTRIBUTES",
          "byteStride": 8,
          "count": 2611
        }
      }
    },
    {
      "buffer": 1,
      "byteOffset": 796904,
      "byteLength": 20888,
      "target": 34962,
      "byteStride": 8,
      "extensions": {
        "EXT_meshopt_compression": {
          "buffer": 0,
          "byteOffset": 448968,
          "byteLength": 14166,
          "mode": "ATTRIBUTES",
          "byteStride": 8,
          "count": 2611
        }
      }
    },
    {
      "buffer": 1,
      "byteOffset": 817792,
      "byteLength": 2464,
      "target": 34962,
      "byteStride": 8,
      "extensions": {
        "EXT_meshopt_compression": {
          "buffer": 0,
          "byteOffset": 463136,
          "byteLength": 1539,
          "mode": "ATTRIBUTES",
          "byteStride": 8,
          "count": 308
        }
      }
    },
    {
      "buffer": 1,
      "byteOffset": 820256,
      "byteLength": 2464,
      "target": 34962,
      "byteStride": 8,
      "extensions": {
        "EXT_meshopt_compression": {
          "buffer": 0,
          "byteOffset": 464676,
          "byteLength": 1845,
          "mode": "ATTRIBUTES",
          "byteStride": 8,
          "count": 308
        }
      }
    },
    {
      "buffer": 1,
      "byteOffset": 822720,
      "byteLength": 864,
      "target": 34962,
      "byteStride": 8,
      "extensions": {
        "EXT_meshopt_compression": {
          "buffer": 0,
          "byteOffset": 466524,
          "byteLength": 610,
          "mode": "ATTRIBUTES",
          "byteStride": 8,
          "count": 108
        }
      }
    },
    {
      "buffer": 1,
      "byteOffset": 823584,
      "byteLength": 864,
      "target": 34962,
      "byteStride": 8,
      "extensions": {
        "EXT_meshopt_compression": {
          "buffer": 0,
          "byteOffset": 467136,
          "byteLength": 606,
          "mode": "ATTRIBUTES",
          "byteStride": 8,
          "count": 108
        }
      }
    },
    {
      "buffer": 1,
      "byteOffset": 824448,
      "byteLength": 1560,
      "target": 34962,
      "byteStride": 8,
      "extensions": {
        "EXT_meshopt_compression": {
          "buffer": 0,
          "byteOffset": 467744,
          "byteLength": 1155,
          "mode": "ATTRIBUTES",
          "byteStride": 8,
          "count": 195
        }
      }
    },
    {
      "buffer": 1,
      "byteOffset": 826008,
      "byteLength": 1560,
      "target": 34962,
      "byteStride": 8,
      "extensions": {
        "EXT_meshopt_compression": {
          "buffer": 0,
          "byteOffset": 468900,
          "byteLength": 1247,
          "mode": "ATTRIBUTES",
          "byteStride": 8,
          "count": 195
        }
      }
    },
    {
      "buffer": 1,
      "byteOffset": 827568,
      "byteLength": 2464,
      "target": 34962,
      "byteStride": 8,
      "extensions": {
        "EXT_meshopt_compression": {
          "buffer": 0,
          "byteOffset": 470148,
          "byteLength": 1865,
          "mode": "ATTRIBUTES",
          "byteStride": 8,
          "count": 308
        }
      }
    },
    {
      "buffer": 1,
      "byteOffset": 830032,
      "byteLength": 2464,
      "target": 34962,
      "byteStride": 8,
      "extensions": {
        "EXT_meshopt_compression": {
          "buffer": 0,
          "byteOffset": 472016,
          "byteLength": 1945,
          "mode": "ATTRIBUTES",
          "byteStride": 8,
          "count": 308
        }
      }
    },
    {
      "buffer": 1,
      "byteOffset": 832496,
      "byteLength": 1232,
      "target": 34962,
      "byteStride": 4,
      "extensions": {
        "EXT_meshopt_compression": {
          "buffer": 0,
          "byteOffset": 473964,
          "byteLength": 53,
          "mode": "ATTRIBUTES",
          "byteStride": 4,
          "count": 308
        }
      }
    },
    {
      "buffer": 1,
      "byteOffset": 833728,
      "byteLength": 2688,
      "target": 34962,
      "byteStride": 8,
      "extensions": {
        "EXT_meshopt_compression": {
          "buffer": 0,
          "byteOffset": 474020,
          "byteLength": 1775,
          "mode": "ATTRIBUTES",
          "byteStride": 8,
          "count": 336
        }
      }
    },
    {
      "buffer": 1,
      "byteOffset": 836416,
      "byteLength": 2688,
      "target": 34962,
      "byteStride": 8,
      "extensions": {
        "EXT_meshopt_compression": {
          "buffer": 0,
          "byteOffset": 475796,
          "byteLength": 1150,
          "mode": "ATTRIBUTES",
          "byteStride": 8,
          "count": 336
        }
      }
    },
    {
      "buffer": 1,
      "byteOffset": 839104,
      "byteLength": 25432,
      "target": 34962,
      "byteStride": 8,
      "extensions": {
        "EXT_meshopt_compression": {
          "buffer": 0,
          "byteOffset": 476948,
          "byteLength": 17149,
          "mode": "ATTRIBUTES",
          "byteStride": 8,
          "count": 3179
        }
      }
    },
    {
      "buffer": 1,
      "byteOffset": 864536,
      "byteLength": 25432,
      "target": 34962,
      "byteStride": 8,
      "extensions": {
        "EXT_meshopt_compression": {
          "buffer": 0,
          "byteOffset": 494100,
          "byteLength": 15791,
          "mode": "ATTRIBUTES",
          "byteStride": 8,
          "count": 3179
        }
      }
    },
    {
      "buffer": 1,
      "byteOffset": 889968,
      "byteLength": 12716,
      "target": 34962,
      "byteStride": 4,
      "extensions": {
        "EXT_meshopt_compression": {
          "buffer": 0,
          "byteOffset": 509892,
          "byteLength": 3951,
          "mode": "ATTRIBUTES",
          "byteStride": 4,
          "count": 3179
        }
      }
    }
  ],
  "samplers": [
    {
      "magFilter": 9729,
      "minFilter": 9987,
      "wrapS": 10497,
      "wrapT": 10497
    }
  ],
  "textures": [
    {
      "sampler": 0,
      "extensions": {
        "EXT_texture_webp": {
          "source": 1
        }
      }
    },
    {
      "sampler": 0,
      "extensions": {
        "EXT_texture_webp": {
          "source": 0
        }
      }
    },
    {
      "sampler": 0,
      "extensions": {
        "EXT_texture_webp": {
          "source": 2
        }
      }
    },
    {
      "sampler": 0,
      "extensions": {
        "EXT_texture_webp": {
          "source": 4
        }
      }
    },
    {
      "sampler": 0,
      "extensions": {
        "EXT_texture_webp": {
          "source": 3
        }
      }
    },
    {
      "sampler": 0,
      "extensions": {
        "EXT_texture_webp": {
          "source": 5
        }
      }
    },
    {
      "sampler": 0,
      "extensions": {
        "EXT_texture_webp": {
          "source": 7
        }
      }
    },
    {
      "sampler": 0,
      "extensions": {
        "EXT_texture_webp": {
          "source": 6
        }
      }
    },
    {
      "sampler": 0,
      "extensions": {
        "EXT_texture_webp": {
          "source": 8
        }
      }
    },
    {
      "sampler": 0,
      "extensions": {
        "EXT_texture_webp": {
          "source": 10
        }
      }
    },
    {
      "sampler": 0,
      "extensions": {
        "EXT_texture_webp": {
          "source": 9
        }
      }
    },
    {
      "sampler": 0,
      "extensions": {
        "EXT_texture_webp": {
          "source": 11
        }
      }
    },
    {
      "sampler": 0,
      "extensions": {
        "EXT_texture_webp": {
          "source": 13
        }
      }
    },
    {
      "sampler": 0,
      "extensions": {
        "EXT_texture_webp": {
          "source": 12
        }
      }
    },
    {
      "sampler": 0,
      "extensions": {
        "EXT_texture_webp": {
          "source": 14
        }
      }
    }
  ],
  "images": [
    {
      "name": "Forged iron normal",
      "mimeType": "image/webp",
      "uri": "textures/surface-fb516ec6c866d7b9.webp"
    },
    {
      "name": "Forged iron color",
      "mimeType": "image/webp",
      "uri": "textures/surface-25be23cebf724530.webp"
    },
    {
      "name": "Forged iron roughness metalness",
      "mimeType": "image/webp",
      "uri": "textures/surface-6fb9fef78a463bef.webp"
    },
    {
      "name": "Dark leather normal",
      "mimeType": "image/webp",
      "uri": "textures/surface-0bba31db93ee7930.webp"
    },
    {
      "name": "Dark leather color",
      "mimeType": "image/webp",
      "uri": "textures/surface-15c7f5964deff57a.webp"
    },
    {
      "name": "Dark leather roughness metalness",
      "mimeType": "image/webp",
      "uri": "textures/surface-ac0465c35b5aefec.webp"
    },
    {
      "name": "Skin and bone normal",
      "mimeType": "image/webp",
      "uri": "textures/surface-4559974a06565aa7.webp"
    },
    {
      "name": "Skin and bone color",
      "mimeType": "image/webp",
      "uri": "textures/surface-a9f4de518b3c7cb7.webp"
    },
    {
      "name": "Skin and bone roughness metalness",
      "mimeType": "image/webp",
      "uri": "textures/surface-b996c2b2f691ba30.webp"
    },
    {
      "name": "Woven cloth normal",
      "mimeType": "image/webp",
      "uri": "textures/surface-15c84119ca507c8c.webp"
    },
    {
      "name": "Woven cloth color",
      "mimeType": "image/webp",
      "uri": "textures/surface-4c574f63fd10e874.webp"
    },
    {
      "name": "Woven cloth roughness metalness",
      "mimeType": "image/webp",
      "uri": "textures/surface-a12b74f6e814638e.webp"
    },
    {
      "name": "Weathered stone normal",
      "mimeType": "image/webp",
      "uri": "textures/surface-4853a2902092cc7c.webp"
    },
    {
      "name": "Weathered stone color",
      "mimeType": "image/webp",
      "uri": "textures/surface-eb11894954d89b5d.webp"
    },
    {
      "name": "Weathered stone roughness metalness",
      "mimeType": "image/webp",
      "uri": "textures/surface-74120f0f7fbce6d0.webp"
    }
  ],
  "buffers": [
    {
      "uri": "nyra.bin",
      "byteLength": 513844
    },
    {
      "byteLength": 902684,
      "extensions": {
        "EXT_meshopt_compression": {
          "fallback": true
        }
      }
    }
  ],
  "materials": [
    {
      "name": "Rift · Forged iron",
      "extras": {
        "riftTextured": true
      },
      "pbrMetallicRoughness": {
        "baseColorTexture": {
          "index": 0
        },
        "metallicRoughnessTexture": {
          "index": 2
        }
      },
      "normalTexture": {
        "index": 1,
        "scale": 0.550000011920929
      }
    },
    {
      "name": "Material_8.001",
      "extras": {
        "riftBaseColor": [
          0.37626212298046485,
          0.02217388478862708,
          0.8631572134510892,
          1
        ]
      },
      "pbrMetallicRoughness": {
        "baseColorFactor": [
          0.3762621283531189,
          0.022173885256052017,
          0.8631572127342224,
          1
        ],
        "roughnessFactor": 0.30000001192092896,
        "metallicFactor": 0
      },
      "emissiveFactor": [
        0.4359137858110849,
        0.025689277606580865,
        1
      ],
      "extensions": {
        "KHR_materials_emissive_strength": {
          "emissiveStrength": 1.0357886964396101
        }
      }
    },
    {
      "name": "Rift · Dark leather",
      "extras": {
        "riftTextured": true
      },
      "pbrMetallicRoughness": {
        "baseColorTexture": {
          "index": 3
        },
        "metallicRoughnessTexture": {
          "index": 5
        }
      },
      "normalTexture": {
        "index": 4,
        "scale": 0.550000011920929
      }
    },
    {
      "name": "Rift · Skin and bone",
      "extras": {
        "riftTextured": true
      },
      "pbrMetallicRoughness": {
        "baseColorTexture": {
          "index": 6
        },
        "metallicRoughnessTexture": {
          "index": 8
        }
      },
      "normalTexture": {
        "index": 7,
        "scale": 0.550000011920929
      }
    },
    {
      "name": "Rift · Woven cloth",
      "extras": {
        "riftTextured": true
      },
      "doubleSided": true,
      "pbrMetallicRoughness": {
        "baseColorTexture": {
          "index": 9
        },
        "metallicRoughnessTexture": {
          "index": 11
        }
      },
      "normalTexture": {
        "index": 10,
        "scale": 0.550000011920929
      }
    },
    {
      "name": "Rift · Weathered stone",
      "extras": {
        "riftTextured": true
      },
      "pbrMetallicRoughness": {
        "baseColorTexture": {
          "index": 12
        },
        "metallicRoughnessTexture": {
          "index": 14
        }
      },
      "normalTexture": {
        "index": 13,
        "scale": 0.550000011920929
      }
    },
    {
      "name": "Material_0.001",
      "extras": {
        "riftBaseColor": [
          0.48514994004665124,
          0.030713443727452196,
          1,
          1
        ]
      },
      "pbrMetallicRoughness": {
        "baseColorFactor": [
          0.48514994978904724,
          0.03071344457566738,
          1,
          1
        ],
        "roughnessFactor": 0.25,
        "metallicFactor": 0.25
      },
      "emissiveFactor": [
        0.48514994978904724,
        0.03071344457566738,
        1
      ],
      "extensions": {
        "KHR_materials_emissive_strength": {
          "emissiveStrength": 1.5
        }
      }
    }
  ],
  "meshes": [
    {
      "name": "Mesh_19.001",
      "primitives": [
        {
          "attributes": {
            "TEXCOORD_0": 14,
            "POSITION": 62,
            "NORMAL": 63,
            "COLOR_0": 64
          },
          "mode": 4,
          "material": 0,
          "indices": 13
        },
        {
          "attributes": {
            "POSITION": 65,
            "NORMAL": 66,
            "COLOR_0": 67
          },
          "mode": 4,
          "material": 1,
          "indices": 15
        },
        {
          "attributes": {
            "TEXCOORD_0": 17,
            "POSITION": 68,
            "NORMAL": 69,
            "COLOR_0": 70
          },
          "mode": 4,
          "material": 2,
          "indices": 16
        }
      ]
    },
    {
      "name": "Mesh_12.001",
      "primitives": [
        {
          "attributes": {
            "TEXCOORD_0": 19,
            "POSITION": 71,
            "NORMAL": 72,
            "COLOR_0": 73
          },
          "mode": 4,
          "material": 3,
          "indices": 18
        },
        {
          "attributes": {
            "TEXCOORD_0": 21,
            "POSITION": 74,
            "NORMAL": 75,
            "COLOR_0": 76
          },
          "mode": 4,
          "material": 0,
          "indices": 20
        },
        {
          "attributes": {
            "POSITION": 77,
            "NORMAL": 78,
            "COLOR_0": 79
          },
          "mode": 4,
          "material": 1,
          "indices": 22
        }
      ]
    },
    {
      "name": "Mesh_32.001",
      "primitives": [
        {
          "attributes": {
            "TEXCOORD_0": 24,
            "POSITION": 80,
            "NORMAL": 81,
            "COLOR_0": 82
          },
          "mode": 4,
          "material": 0,
          "indices": 23
        },
        {
          "attributes": {
            "POSITION": 83,
            "NORMAL": 66,
            "COLOR_0": 67
          },
          "mode": 4,
          "material": 1,
          "indices": 15
        },
        {
          "attributes": {
            "POSITION": 84,
            "TEXCOORD_0": 17,
            "NORMAL": 69,
            "COLOR_0": 70
          },
          "mode": 4,
          "material": 2,
          "indices": 16
        }
      ]
    },
    {
      "name": "Mesh_28.001",
      "primitives": [
        {
          "attributes": {
            "NORMAL": 85,
            "POSITION": 77,
            "COLOR_0": 79
          },
          "mode": 4,
          "material": 1,
          "indices": 22
        },
        {
          "attributes": {
            "TEXCOORD_0": 19,
            "POSITION": 71,
            "NORMAL": 72,
            "COLOR_0": 73
          },
          "mode": 4,
          "material": 3,
          "indices": 18
        },
        {
          "attributes": {
            "TEXCOORD_0": 21,
            "POSITION": 74,
            "NORMAL": 75,
            "COLOR_0": 76
          },
          "mode": 4,
          "material": 0,
          "indices": 20
        }
      ]
    },
    {
      "name": "Mesh_40",
      "primitives": [
        {
          "attributes": {
            "TEXCOORD_0": 26,
            "COLOR_0": 27,
            "POSITION": 86,
            "NORMAL": 87
          },
          "mode": 4,
          "material": 4,
          "indices": 25
        },
        {
          "attributes": {
            "TEXCOORD_0": 29,
            "COLOR_0": 30,
            "POSITION": 88,
            "NORMAL": 89
          },
          "mode": 4,
          "material": 0,
          "indices": 28
        }
      ]
    },
    {
      "name": "Mesh_10.001",
      "primitives": [
        {
          "attributes": {
            "TEXCOORD_0": 32,
            "POSITION": 90,
            "NORMAL": 91,
            "COLOR_0": 92
          },
          "mode": 4,
          "material": 5,
          "indices": 31
        },
        {
          "attributes": {
            "TEXCOORD_0": 34,
            "POSITION": 93,
            "NORMAL": 94,
            "COLOR_0": 95
          },
          "mode": 4,
          "material": 3,
          "indices": 33
        },
        {
          "attributes": {
            "TEXCOORD_0": 36,
            "POSITION": 96,
            "NORMAL": 97,
            "COLOR_0": 98
          },
          "mode": 4,
          "material": 4,
          "indices": 35
        },
        {
          "attributes": {
            "POSITION": 99,
            "NORMAL": 100,
            "COLOR_0": 101
          },
          "mode": 4,
          "material": 1,
          "indices": 37
        },
        {
          "attributes": {
            "TEXCOORD_0": 39,
            "POSITION": 102,
            "NORMAL": 103,
            "COLOR_0": 104
          },
          "mode": 4,
          "material": 0,
          "indices": 38
        }
      ]
    },
    {
      "name": "Mesh_22.001",
      "primitives": [
        {
          "attributes": {
            "POSITION": 105,
            "NORMAL": 106,
            "COLOR_0": 107
          },
          "mode": 4,
          "material": 6,
          "indices": 28
        },
        {
          "attributes": {
            "TEXCOORD_0": 41,
            "POSITION": 108,
            "NORMAL": 109,
            "COLOR_0": 110
          },
          "mode": 4,
          "material": 2,
          "indices": 40
        },
        {
          "attributes": {
            "TEXCOORD_0": 43,
            "POSITION": 111,
            "NORMAL": 112,
            "COLOR_0": 113
          },
          "mode": 4,
          "material": 0,
          "indices": 42
        }
      ]
    },
    {
      "name": "Mesh_39.001",
      "primitives": [
        {
          "attributes": {
            "TEXCOORD_0": 45,
            "POSITION": 114,
            "NORMAL": 115,
            "COLOR_0": 116
          },
          "mode": 4,
          "material": 0,
          "indices": 44
        },
        {
          "attributes": {
            "POSITION": 105,
            "NORMAL": 106,
            "COLOR_0": 107
          },
          "mode": 4,
          "material": 6,
          "indices": 28
        },
        {
          "attributes": {
            "TEXCOORD_0": 41,
            "POSITION": 108,
            "NORMAL": 109,
            "COLOR_0": 110
          },
          "mode": 4,
          "material": 2,
          "indices": 40
        }
      ]
    },
    {
      "name": "Mesh_45",
      "primitives": [
        {
          "attributes": {
            "TEXCOORD_0": 47,
            "COLOR_0": 48,
            "POSITION": 117,
            "NORMAL": 118
          },
          "mode": 4,
          "material": 0,
          "indices": 46
        },
        {
          "attributes": {
            "TEXCOORD_0": 50,
            "COLOR_0": 51,
            "POSITION": 119,
            "NORMAL": 120
          },
          "mode": 4,
          "material": 2,
          "indices": 49
        },
        {
          "attributes": {
            "TEXCOORD_0": 53,
            "COLOR_0": 54,
            "POSITION": 121,
            "NORMAL": 122
          },
          "mode": 4,
          "material": 3,
          "indices": 52
        },
        {
          "attributes": {
            "TEXCOORD_0": 56,
            "COLOR_0": 57,
            "POSITION": 123,
            "NORMAL": 124
          },
          "mode": 4,
          "material": 5,
          "indices": 55
        }
      ]
    },
    {
      "name": "Mesh_1.001",
      "primitives": [
        {
          "attributes": {
            "TEXCOORD_0": 59,
            "POSITION": 125,
            "NORMAL": 126,
            "COLOR_0": 127
          },
          "mode": 4,
          "material": 2,
          "indices": 58
        },
        {
          "attributes": {
            "POSITION": 128,
            "NORMAL": 129,
            "COLOR_0": 107
          },
          "mode": 4,
          "material": 6,
          "indices": 28
        },
        {
          "attributes": {
            "TEXCOORD_0": 61,
            "POSITION": 130,
            "NORMAL": 131,
            "COLOR_0": 132
          },
          "mode": 4,
          "material": 0,
          "indices": 60
        }
      ]
    }
  ],
  "nodes": [
    {
      "name": "nyra__Mesh_19",
      "extras": {
        "riftTextured": true
      },
      "translation": [
        -0.1543930098414421,
        -0.4957425743341446,
        0.08503551781177521
      ],
      "scale": [
        0.9069367498159409,
        0.9069367498159409,
        0.9069367498159409
      ],
      "mesh": 0
    },
    {
      "name": "nyra__Mesh_12",
      "extras": {
        "riftTextured": true
      },
      "translation": [
        0.010537184774875641,
        -0.4380134157836437,
        0.0160411074757576
      ],
      "scale": [
        0.5380134172737598,
        0.5380134172737598,
        0.5380134172737598
      ],
      "mesh": 1
    },
    {
      "name": "nyra__weapon",
      "translation": [
        0,
        -1.25,
        0.15000000596046448
      ],
      "rotation": [
        0,
        0,
        0.0998334139585495,
        0.9950041770935059
      ],
      "children": [
        1
      ]
    },
    {
      "name": "nyra__arm_l",
      "translation": [
        -0.6204000115394592,
        3.0999999046325684,
        0
      ],
      "scale": [
        0.7799999713897705,
        1,
        0.8199999928474426
      ],
      "children": [
        0,
        2
      ]
    },
    {
      "name": "nyra__Mesh_32",
      "extras": {
        "riftTextured": true
      },
      "translation": [
        0.15415778756141663,
        -0.49558719992637634,
        0.08503551781177521
      ],
      "scale": [
        0.9070921242237091,
        0.9070921242237091,
        0.9070921242237091
      ],
      "mesh": 2
    },
    {
      "name": "nyra__Mesh_28",
      "extras": {
        "riftTextured": true
      },
      "translation": [
        0.010537184774875641,
        -0.43801337853074074,
        0.0160411037504673
      ],
      "scale": [
        0.5380134545266628,
        0.5380134545266628,
        0.5380134545266628
      ],
      "mesh": 3
    },
    {
      "name": "nyra__weapon.001",
      "translation": [
        0,
        -1.25,
        0.15000000596046448
      ],
      "rotation": [
        0,
        0,
        -0.0998334139585495,
        0.9950041770935059
      ],
      "children": [
        5
      ]
    },
    {
      "name": "nyra__arm_r",
      "translation": [
        0.6204000115394592,
        3.0999999046325684,
        0
      ],
      "scale": [
        0.7799999713897705,
        1,
        0.8199999928474426
      ],
      "children": [
        4,
        6
      ]
    },
    {
      "name": "nyra__Mesh_40",
      "extras": {
        "riftTextured": true
      },
      "translation": [
        0,
        -1.3788361305450962,
        -0.26141773036215454
      ],
      "scale": [
        1.3789305930877163,
        1.3789305930877163,
        1.3789305930877163
      ],
      "mesh": 4
    },
    {
      "name": "nyra__cape",
      "translation": [
        0,
        3.2300000190734863,
        -0.33000001311302185
      ],
      "children": [
        8
      ]
    },
    {
      "name": "nyra__Mesh_10",
      "extras": {
        "riftTextured": true
      },
      "translation": [
        -0.00015109777450561523,
        -0.07786381244659424,
        0.010494552552700043
      ],
      "scale": [
        0.7728582620620728,
        0.7728582620620728,
        0.7728582620620728
      ],
      "mesh": 5
    },
    {
      "name": "nyra__head",
      "translation": [
        0,
        3.4600000381469727,
        0
      ],
      "children": [
        10
      ]
    },
    {
      "name": "nyra__Mesh_22",
      "extras": {
        "riftTextured": true
      },
      "translation": [
        0,
        -0.6898654401302338,
        0.1898912787437439
      ],
      "scale": [
        0.7598653733730316,
        0.7598653733730316,
        0.7598653733730316
      ],
      "mesh": 6
    },
    {
      "name": "nyra__leg_l",
      "translation": [
        -0.27000001072883606,
        1.6699999570846558,
        0
      ],
      "scale": [
        0.8399999737739563,
        1.1399999856948853,
        0.8399999737739563
      ],
      "children": [
        12
      ]
    },
    {
      "name": "nyra__Mesh_39",
      "extras": {
        "riftTextured": true
      },
      "translation": [
        0,
        -0.6898654960095882,
        0.1898913010954857
      ],
      "scale": [
        0.7598653770983219,
        0.7598653770983219,
        0.7598653770983219
      ],
      "mesh": 7
    },
    {
      "name": "nyra__leg_r",
      "translation": [
        0.27000001072883606,
        1.6699999570846558,
        0
      ],
      "scale": [
        0.8399999737739563,
        1.1399999856948853,
        0.8399999737739563
      ],
      "children": [
        14
      ]
    },
    {
      "name": "nyra__Mesh_45",
      "extras": {
        "riftTextured": true
      },
      "translation": [
        0.0000055730342864990234,
        1.1368799805641174,
        0.07267312705516815
      ],
      "scale": [
        0.8408568501472473,
        0.8408568501472473,
        0.8408568501472473
      ],
      "mesh": 8
    },
    {
      "name": "nyra__Mesh_1",
      "extras": {
        "riftTextured": true
      },
      "translation": [
        0,
        0,
        0.07998065650463104
      ],
      "scale": [
        0.7300000190734863,
        0.7300000190734863,
        0.7300000190734863
      ],
      "mesh": 9
    },
    {
      "name": "nyra__torso",
      "translation": [
        0,
        2.549999952316284,
        0
      ],
      "scale": [
        0.9100000262260437,
        1,
        0.9300000071525574
      ],
      "children": [
        17
      ]
    },
    {
      "name": "nyra",
      "extras": {
        "asset": "nyra",
        "category": "Heroes",
        "title": "Veil of Death",
        "rig": {
          "torso": "torso",
          "head": "head",
          "arms": [
            "arm_l",
            "arm_r"
          ],
          "legs": [
            "leg_l",
            "leg_r"
          ],
          "cape": "cape"
        },
        "referencePass": 2,
        "riftAsset": "nyra",
        "authoring": "Blender 4.5 · UV/PBR surfaces · rigid articulated animation"
      },
      "children": [
        3,
        7,
        9,
        11,
        13,
        15,
        16,
        18
      ]
    }
  ],
  "animations": [
    {
      "name": "Attack",
      "samplers": [
        {
          "input": 0,
          "output": 1,
          "interpolation": "LINEAR"
        },
        {
          "input": 0,
          "output": 2,
          "interpolation": "LINEAR"
        },
        {
          "input": 0,
          "output": 3,
          "interpolation": "LINEAR"
        },
        {
          "input": 0,
          "output": 4,
          "interpolation": "LINEAR"
        }
      ],
      "channels": [
        {
          "sampler": 0,
          "target": {
            "node": 3,
            "path": "rotation"
          }
        },
        {
          "sampler": 1,
          "target": {
            "node": 2,
            "path": "rotation"
          }
        },
        {
          "sampler": 2,
          "target": {
            "node": 7,
            "path": "rotation"
          }
        },
        {
          "sampler": 3,
          "target": {
            "node": 18,
            "path": "rotation"
          }
        }
      ]
    },
    {
      "name": "Walk",
      "samplers": [
        {
          "input": 0,
          "output": 5,
          "interpolation": "LINEAR"
        },
        {
          "input": 0,
          "output": 6,
          "interpolation": "LINEAR"
        },
        {
          "input": 0,
          "output": 7,
          "interpolation": "LINEAR"
        },
        {
          "input": 0,
          "output": 8,
          "interpolation": "LINEAR"
        },
        {
          "input": 0,
          "output": 9,
          "interpolation": "LINEAR"
        }
      ],
      "channels": [
        {
          "sampler": 0,
          "target": {
            "node": 3,
            "path": "rotation"
          }
        },
        {
          "sampler": 1,
          "target": {
            "node": 7,
            "path": "rotation"
          }
        },
        {
          "sampler": 2,
          "target": {
            "node": 9,
            "path": "rotation"
          }
        },
        {
          "sampler": 3,
          "target": {
            "node": 13,
            "path": "rotation"
          }
        },
        {
          "sampler": 4,
          "target": {
            "node": 15,
            "path": "rotation"
          }
        }
      ]
    },
    {
      "name": "Idle",
      "samplers": [
        {
          "input": 10,
          "output": 11,
          "interpolation": "LINEAR"
        },
        {
          "input": 10,
          "output": 12,
          "interpolation": "LINEAR"
        }
      ],
      "channels": [
        {
          "sampler": 0,
          "target": {
            "node": 9,
            "path": "rotation"
          }
        },
        {
          "sampler": 1,
          "target": {
            "node": 18,
            "path": "rotation"
          }
        }
      ]
    }
  ],
  "scenes": [
    {
      "name": "Scene",
      "nodes": [
        19
      ]
    }
  ],
  "scene": 0,
  "extensionsUsed": [
    "EXT_meshopt_compression",
    "EXT_texture_webp",
    "KHR_materials_emissive_strength",
    "KHR_mesh_quantization"
  ],
  "extensionsRequired": [
    "EXT_meshopt_compression",
    "EXT_texture_webp",
    "KHR_mesh_quantization"
  ]
}