{
  "asset": {
    "generator": "glTF-Transform v4.5.0",
    "version": "2.0"
  },
  "accessors": [
    {
      "type": "SCALAR",
      "componentType": 5123,
      "count": 1380,
      "normalized": false,
      "byteOffset": 0,
      "bufferView": 0
    },
    {
      "type": "VEC2",
      "componentType": 5126,
      "count": 409,
      "normalized": false,
      "byteOffset": 0,
      "bufferView": 1
    },
    {
      "type": "VEC4",
      "componentType": 5121,
      "count": 409,
      "normalized": true,
      "byteOffset": 0,
      "bufferView": 2
    },
    {
      "type": "SCALAR",
      "componentType": 5123,
      "count": 372,
      "normalized": false,
      "byteOffset": 2760,
      "bufferView": 0
    },
    {
      "type": "VEC2",
      "componentType": 5126,
      "count": 336,
      "normalized": false,
      "byteOffset": 0,
      "bufferView": 3
    },
    {
      "type": "VEC4",
      "componentType": 5121,
      "count": 336,
      "normalized": true,
      "byteOffset": 0,
      "bufferView": 4
    },
    {
      "type": "SCALAR",
      "componentType": 5123,
      "count": 24,
      "normalized": false,
      "byteOffset": 3504,
      "bufferView": 0
    },
    {
      "type": "SCALAR",
      "componentType": 5123,
      "count": 9528,
      "normalized": false,
      "byteOffset": 3552,
      "bufferView": 0
    },
    {
      "type": "VEC2",
      "componentType": 5126,
      "count": 3430,
      "normalized": false,
      "byteOffset": 0,
      "bufferView": 5
    },
    {
      "type": "SCALAR",
      "componentType": 5123,
      "count": 96,
      "normalized": false,
      "byteOffset": 22608,
      "bufferView": 0
    },
    {
      "type": "VEC2",
      "componentType": 5126,
      "count": 38,
      "normalized": false,
      "byteOffset": 0,
      "bufferView": 6
    },
    {
      "type": "SCALAR",
      "componentType": 5123,
      "count": 1128,
      "normalized": false,
      "byteOffset": 22800,
      "bufferView": 0
    },
    {
      "type": "VEC2",
      "componentType": 5126,
      "count": 698,
      "normalized": false,
      "byteOffset": 0,
      "bufferView": 7
    },
    {
      "type": "SCALAR",
      "componentType": 5123,
      "count": 96,
      "normalized": false,
      "byteOffset": 25056,
      "bufferView": 0
    },
    {
      "type": "SCALAR",
      "componentType": 5123,
      "count": 576,
      "normalized": false,
      "byteOffset": 25248,
      "bufferView": 0
    },
    {
      "type": "VEC3",
      "componentType": 5122,
      "count": 409,
      "max": [
        10159,
        32767,
        7471
      ],
      "min": [
        -10159,
        -32767,
        -7471
      ],
      "normalized": true,
      "byteOffset": 0,
      "bufferView": 8
    },
    {
      "type": "VEC3",
      "componentType": 5122,
      "count": 409,
      "normalized": true,
      "byteOffset": 0,
      "bufferView": 9
    },
    {
      "type": "VEC3",
      "componentType": 5122,
      "count": 336,
      "max": [
        16692,
        32767,
        4284
      ],
      "min": [
        -16692,
        -32767,
        -4284
      ],
      "normalized": true,
      "byteOffset": 0,
      "bufferView": 10
    },
    {
      "type": "VEC3",
      "componentType": 5122,
      "count": 336,
      "normalized": true,
      "byteOffset": 0,
      "bufferView": 11
    },
    {
      "type": "VEC3",
      "componentType": 5122,
      "count": 24,
      "max": [
        32767,
        32767,
        32767
      ],
      "min": [
        -32767,
        -32767,
        -32767
      ],
      "normalized": true,
      "byteOffset": 0,
      "bufferView": 12
    },
    {
      "type": "VEC3",
      "componentType": 5122,
      "count": 24,
      "normalized": true,
      "byteOffset": 0,
      "bufferView": 13
    },
    {
      "type": "VEC3",
      "componentType": 5121,
      "count": 24,
      "normalized": true,
      "byteOffset": 0,
      "bufferView": 14
    },
    {
      "type": "VEC3",
      "componentType": 5122,
      "count": 3430,
      "max": [
        21900,
        32767,
        21900
      ],
      "min": [
        -21900,
        -24510,
        -21900
      ],
      "normalized": true,
      "byteOffset": 0,
      "bufferView": 15
    },
    {
      "type": "VEC3",
      "componentType": 5122,
      "count": 3430,
      "normalized": true,
      "byteOffset": 0,
      "bufferView": 16
    },
    {
      "type": "VEC3",
      "componentType": 5121,
      "count": 3430,
      "normalized": true,
      "byteOffset": 0,
      "bufferView": 17
    },
    {
      "type": "VEC3",
      "componentType": 5122,
      "count": 38,
      "max": [
        12494,
        24459,
        12494
      ],
      "min": [
        -12494,
        -22930,
        -12494
      ],
      "normalized": true,
      "byteOffset": 0,
      "bufferView": 18
    },
    {
      "type": "VEC3",
      "componentType": 5122,
      "count": 38,
      "normalized": true,
      "byteOffset": 0,
      "bufferView": 19
    },
    {
      "type": "VEC3",
      "componentType": 5121,
      "count": 38,
      "normalized": true,
      "byteOffset": 0,
      "bufferView": 20
    },
    {
      "type": "VEC3",
      "componentType": 5122,
      "count": 698,
      "max": [
        22833,
        -22571,
        22833
      ],
      "min": [
        -22833,
        -32767,
        -22833
      ],
      "normalized": true,
      "byteOffset": 0,
      "bufferView": 21
    },
    {
      "type": "VEC3",
      "componentType": 5122,
      "count": 698,
      "normalized": true,
      "byteOffset": 0,
      "bufferView": 22
    },
    {
      "type": "VEC3",
      "componentType": 5121,
      "count": 698,
      "normalized": true,
      "byteOffset": 0,
      "bufferView": 23
    },
    {
      "type": "VEC3",
      "componentType": 5122,
      "count": 96,
      "max": [
        12456,
        10099,
        12456
      ],
      "min": [
        -12456,
        -7134,
        -12456
      ],
      "normalized": true,
      "byteOffset": 0,
      "bufferView": 24
    },
    {
      "type": "VEC3",
      "componentType": 5122,
      "count": 96,
      "normalized": true,
      "byteOffset": 0,
      "bufferView": 25
    },
    {
      "type": "VEC3",
      "componentType": 5121,
      "count": 96,
      "normalized": true,
      "byteOffset": 0,
      "bufferView": 26
    },
    {
      "type": "VEC3",
      "componentType": 5122,
      "count": 536,
      "max": [
        12640,
        7801,
        12640
      ],
      "min": [
        -12640,
        -20920,
        -12640
      ],
      "normalized": true,
      "byteOffset": 0,
      "bufferView": 27
    },
    {
      "type": "VEC3",
      "componentType": 5122,
      "count": 536,
      "normalized": true,
      "byteOffset": 0,
      "bufferView": 28
    },
    {
      "type": "VEC3",
      "componentType": 5121,
      "count": 536,
      "normalized": true,
      "byteOffset": 0,
      "bufferView": 29
    }
  ],
  "bufferViews": [
    {
      "buffer": 1,
      "byteOffset": 0,
      "byteLength": 26400,
      "target": 34963,
      "extensions": {
        "EXT_meshopt_compression": {
          "buffer": 0,
          "byteOffset": 0,
          "byteLength": 4690,
          "mode": "TRIANGLES",
          "byteStride": 2,
          "count": 13200
        }
      }
    },
    {
      "buffer": 1,
      "byteOffset": 26400,
      "byteLength": 3272,
      "target": 34962,
      "byteStride": 8,
      "extensions": {
        "EXT_meshopt_compression": {
          "buffer": 0,
          "byteOffset": 4692,
          "byteLength": 2765,
          "mode": "ATTRIBUTES",
          "byteStride": 8,
          "count": 409
        }
      }
    },
    {
      "buffer": 1,
      "byteOffset": 29672,
      "byteLength": 1636,
      "target": 34962,
      "byteStride": 4,
      "extensions": {
        "EXT_meshopt_compression": {
          "buffer": 0,
          "byteOffset": 7460,
          "byteLength": 61,
          "mode": "ATTRIBUTES",
          "byteStride": 4,
          "count": 409
        }
      }
    },
    {
      "buffer": 1,
      "byteOffset": 31308,
      "byteLength": 2688,
      "target": 34962,
      "byteStride": 8,
      "extensions": {
        "EXT_meshopt_compression": {
          "buffer": 0,
          "byteOffset": 7524,
          "byteLength": 2166,
          "mode": "ATTRIBUTES",
          "byteStride": 8,
          "count": 336
        }
      }
    },
    {
      "buffer": 1,
      "byteOffset": 33996,
      "byteLength": 1344,
      "target": 34962,
      "byteStride": 4,
      "extensions": {
        "EXT_meshopt_compression": {
          "buffer": 0,
          "byteOffset": 9692,
          "byteLength": 57,
          "mode": "ATTRIBUTES",
          "byteStride": 4,
          "count": 336
        }
      }
    },
    {
      "buffer": 1,
      "byteOffset": 35340,
      "byteLength": 27440,
      "target": 34962,
      "byteStride": 8,
      "extensions": {
        "EXT_meshopt_compression": {
          "buffer": 0,
          "byteOffset": 9752,
          "byteLength": 22601,
          "mode": "ATTRIBUTES",
          "byteStride": 8,
          "count": 3430
        }
      }
    },
    {
      "buffer": 1,
      "byteOffset": 62780,
      "byteLength": 304,
      "target": 34962,
      "byteStride": 8,
      "extensions": {
        "EXT_meshopt_compression": {
          "buffer": 0,
          "byteOffset": 32356,
          "byteLength": 355,
          "mode": "ATTRIBUTES",
          "byteStride": 8,
          "count": 38
        }
      }
    },
    {
      "buffer": 1,
      "byteOffset": 63084,
      "byteLength": 5584,
      "target": 34962,
      "byteStride": 8,
      "extensions": {
        "EXT_meshopt_compression": {
          "buffer": 0,
          "byteOffset": 32712,
          "byteLength": 4704,
          "mode": "ATTRIBUTES",
          "byteStride": 8,
          "count": 698
        }
      }
    },
    {
      "buffer": 1,
      "byteOffset": 68668,
      "byteLength": 3272,
      "target": 34962,
      "byteStride": 8,
      "extensions": {
        "EXT_meshopt_compression": {
          "buffer": 0,
          "byteOffset": 37416,
          "byteLength": 2256,
          "mode": "ATTRIBUTES",
          "byteStride": 8,
          "count": 409
        }
      }
    },
    {
      "buffer": 1,
      "byteOffset": 71940,
      "byteLength": 3272,
      "target": 34962,
      "byteStride": 8,
      "extensions": {
        "EXT_meshopt_compression": {
          "buffer": 0,
          "byteOffset": 39672,
          "byteLength": 2480,
          "mode": "ATTRIBUTES",
          "byteStride": 8,
          "count": 409
        }
      }
    },
    {
      "buffer": 1,
      "byteOffset": 75212,
      "byteLength": 2688,
      "target": 34962,
      "byteStride": 8,
      "extensions": {
        "EXT_meshopt_compression": {
          "buffer": 0,
          "byteOffset": 42152,
          "byteLength": 1839,
          "mode": "ATTRIBUTES",
          "byteStride": 8,
          "count": 336
        }
      }
    },
    {
      "buffer": 1,
      "byteOffset": 77900,
      "byteLength": 2688,
      "target": 34962,
      "byteStride": 8,
      "extensions": {
        "EXT_meshopt_compression": {
          "buffer": 0,
          "byteOffset": 43992,
          "byteLength": 1144,
          "mode": "ATTRIBUTES",
          "byteStride": 8,
          "count": 336
        }
      }
    },
    {
      "buffer": 1,
      "byteOffset": 80588,
      "byteLength": 192,
      "target": 34962,
      "byteStride": 8,
      "extensions": {
        "EXT_meshopt_compression": {
          "buffer": 0,
          "byteOffset": 45136,
          "byteLength": 135,
          "mode": "ATTRIBUTES",
          "byteStride": 8,
          "count": 24
        }
      }
    },
    {
      "buffer": 1,
      "byteOffset": 80780,
      "byteLength": 192,
      "target": 34962,
      "byteStride": 8,
      "extensions": {
        "EXT_meshopt_compression": {
          "buffer": 0,
          "byteOffset": 45272,
          "byteLength": 95,
          "mode": "ATTRIBUTES",
          "byteStride": 8,
          "count": 24
        }
      }
    },
    {
      "buffer": 1,
      "byteOffset": 80972,
      "byteLength": 96,
      "target": 34962,
      "byteStride": 4,
      "extensions": {
        "EXT_meshopt_compression": {
          "buffer": 0,
          "byteOffset": 45368,
          "byteLength": 37,
          "mode": "ATTRIBUTES",
          "byteStride": 4,
          "count": 24
        }
      }
    },
    {
      "buffer": 1,
      "byteOffset": 81068,
      "byteLength": 27440,
      "target": 34962,
      "byteStride": 8,
      "extensions": {
        "EXT_meshopt_compression": {
          "buffer": 0,
          "byteOffset": 45408,
          "byteLength": 16994,
          "mode": "ATTRIBUTES",
          "byteStride": 8,
          "count": 3430
        }
      }
    },
    {
      "buffer": 1,
      "byteOffset": 108508,
      "byteLength": 27440,
      "target": 34962,
      "byteStride": 8,
      "extensions": {
        "EXT_meshopt_compression": {
          "buffer": 0,
          "byteOffset": 62404,
          "byteLength": 19460,
          "mode": "ATTRIBUTES",
          "byteStride": 8,
          "count": 3430
        }
      }
    },
    {
      "buffer": 1,
      "byteOffset": 135948,
      "byteLength": 13720,
      "target": 34962,
      "byteStride": 4,
      "extensions": {
        "EXT_meshopt_compression": {
          "buffer": 0,
          "byteOffset": 81864,
          "byteLength": 5252,
          "mode": "ATTRIBUTES",
          "byteStride": 4,
          "count": 3430
        }
      }
    },
    {
      "buffer": 1,
      "byteOffset": 149668,
      "byteLength": 304,
      "target": 34962,
      "byteStride": 8,
      "extensions": {
        "EXT_meshopt_compression": {
          "buffer": 0,
          "byteOffset": 87116,
          "byteLength": 261,
          "mode": "ATTRIBUTES",
          "byteStride": 8,
          "count": 38
        }
      }
    },
    {
      "buffer": 1,
      "byteOffset": 149972,
      "byteLength": 304,
      "target": 34962,
      "byteStride": 8,
      "extensions": {
        "EXT_meshopt_compression": {
          "buffer": 0,
          "byteOffset": 87380,
          "byteLength": 138,
          "mode": "ATTRIBUTES",
          "byteStride": 8,
          "count": 38
        }
      }
    },
    {
      "buffer": 1,
      "byteOffset": 150276,
      "byteLength": 152,
      "target": 34962,
      "byteStride": 4,
      "extensions": {
        "EXT_meshopt_compression": {
          "buffer": 0,
          "byteOffset": 87520,
          "byteLength": 37,
          "mode": "ATTRIBUTES",
          "byteStride": 4,
          "count": 38
        }
      }
    },
    {
      "buffer": 1,
      "byteOffset": 150428,
      "byteLength": 5584,
      "target": 34962,
      "byteStride": 8,
      "extensions": {
        "EXT_meshopt_compression": {
          "buffer": 0,
          "byteOffset": 87560,
          "byteLength": 3841,
          "mode": "ATTRIBUTES",
          "byteStride": 8,
          "count": 698
        }
      }
    },
    {
      "buffer": 1,
      "byteOffset": 156012,
      "byteLength": 5584,
      "target": 34962,
      "byteStride": 8,
      "extensions": {
        "EXT_meshopt_compression": {
          "buffer": 0,
          "byteOffset": 91404,
          "byteLength": 2370,
          "mode": "ATTRIBUTES",
          "byteStride": 8,
          "count": 698
        }
      }
    },
    {
      "buffer": 1,
      "byteOffset": 161596,
      "byteLength": 2792,
      "target": 34962,
      "byteStride": 4,
      "extensions": {
        "EXT_meshopt_compression": {
          "buffer": 0,
          "byteOffset": 93776,
          "byteLength": 1012,
          "mode": "ATTRIBUTES",
          "byteStride": 4,
          "count": 698
        }
      }
    },
    {
      "buffer": 1,
      "byteOffset": 164388,
      "byteLength": 768,
      "target": 34962,
      "byteStride": 8,
      "extensions": {
        "EXT_meshopt_compression": {
          "buffer": 0,
          "byteOffset": 94788,
          "byteLength": 501,
          "mode": "ATTRIBUTES",
          "byteStride": 8,
          "count": 96
        }
      }
    },
    {
      "buffer": 1,
      "byteOffset": 165156,
      "byteLength": 768,
      "target": 34962,
      "byteStride": 8,
      "extensions": {
        "EXT_meshopt_compression": {
          "buffer": 0,
          "byteOffset": 95292,
          "byteLength": 255,
          "mode": "ATTRIBUTES",
          "byteStride": 8,
          "count": 96
        }
      }
    },
    {
      "buffer": 1,
      "byteOffset": 165924,
      "byteLength": 384,
      "target": 34962,
      "byteStride": 4,
      "extensions": {
        "EXT_meshopt_compression": {
          "buffer": 0,
          "byteOffset": 95548,
          "byteLength": 41,
          "mode": "ATTRIBUTES",
          "byteStride": 4,
          "count": 96
        }
      }
    },
    {
      "buffer": 1,
      "byteOffset": 166308,
      "byteLength": 4288,
      "target": 34962,
      "byteStride": 8,
      "extensions": {
        "EXT_meshopt_compression": {
          "buffer": 0,
          "byteOffset": 95592,
          "byteLength": 2436,
          "mode": "ATTRIBUTES",
          "byteStride": 8,
          "count": 536
        }
      }
    },
    {
      "buffer": 1,
      "byteOffset": 170596,
      "byteLength": 4288,
      "target": 34962,
      "byteStride": 8,
      "extensions": {
        "EXT_meshopt_compression": {
          "buffer": 0,
          "byteOffset": 98028,
          "byteLength": 1487,
          "mode": "ATTRIBUTES",
          "byteStride": 8,
          "count": 536
        }
      }
    },
    {
      "buffer": 1,
      "byteOffset": 174884,
      "byteLength": 2144,
      "target": 34962,
      "byteStride": 4,
      "extensions": {
        "EXT_meshopt_compression": {
          "buffer": 0,
          "byteOffset": 99516,
          "byteLength": 69,
          "mode": "ATTRIBUTES",
          "byteStride": 4,
          "count": 536
        }
      }
    }
  ],
  "samplers": [
    {
      "magFilter": 9729,
      "minFilter": 9987,
      "wrapS": 10497,
      "wrapT": 10497
    }
  ],
  "textures": [
    {
      "sampler": 0,
      "extensions": {
        "EXT_texture_webp": {
          "source": 1
        }
      }
    },
    {
      "sampler": 0,
      "extensions": {
        "EXT_texture_webp": {
          "source": 0
        }
      }
    },
    {
      "sampler": 0,
      "extensions": {
        "EXT_texture_webp": {
          "source": 2
        }
      }
    },
    {
      "sampler": 0,
      "extensions": {
        "EXT_texture_webp": {
          "source": 4
        }
      }
    },
    {
      "sampler": 0,
      "extensions": {
        "EXT_texture_webp": {
          "source": 3
        }
      }
    },
    {
      "sampler": 0,
      "extensions": {
        "EXT_texture_webp": {
          "source": 5
        }
      }
    },
    {
      "sampler": 0,
      "extensions": {
        "EXT_texture_webp": {
          "source": 7
        }
      }
    },
    {
      "sampler": 0,
      "extensions": {
        "EXT_texture_webp": {
          "source": 6
        }
      }
    },
    {
      "sampler": 0,
      "extensions": {
        "EXT_texture_webp": {
          "source": 8
        }
      }
    },
    {
      "sampler": 0,
      "extensions": {
        "EXT_texture_webp": {
          "source": 10
        }
      }
    },
    {
      "sampler": 0,
      "extensions": {
        "EXT_texture_webp": {
          "source": 9
        }
      }
    },
    {
      "sampler": 0,
      "extensions": {
        "EXT_texture_webp": {
          "source": 11
        }
      }
    }
  ],
  "images": [
    {
      "name": "Woven cloth normal",
      "mimeType": "image/webp",
      "uri": "textures/surface-15c84119ca507c8c.webp"
    },
    {
      "name": "Woven cloth color",
      "mimeType": "image/webp",
      "uri": "textures/surface-4c574f63fd10e874.webp"
    },
    {
      "name": "Woven cloth roughness metalness",
      "mimeType": "image/webp",
      "uri": "textures/surface-a12b74f6e814638e.webp"
    },
    {
      "name": "Forged iron normal",
      "mimeType": "image/webp",
      "uri": "textures/surface-fb516ec6c866d7b9.webp"
    },
    {
      "name": "Forged iron color",
      "mimeType": "image/webp",
      "uri": "textures/surface-25be23cebf724530.webp"
    },
    {
      "name": "Forged iron roughness metalness",
      "mimeType": "image/webp",
      "uri": "textures/surface-6fb9fef78a463bef.webp"
    },
    {
      "name": "Dark leather normal",
      "mimeType": "image/webp",
      "uri": "textures/surface-0bba31db93ee7930.webp"
    },
    {
      "name": "Dark leather color",
      "mimeType": "image/webp",
      "uri": "textures/surface-15c7f5964deff57a.webp"
    },
    {
      "name": "Dark leather roughness metalness",
      "mimeType": "image/webp",
      "uri": "textures/surface-ac0465c35b5aefec.webp"
    },
    {
      "name": "Weathered stone normal",
      "mimeType": "image/webp",
      "uri": "textures/surface-4853a2902092cc7c.webp"
    },
    {
      "name": "Weathered stone color",
      "mimeType": "image/webp",
      "uri": "textures/surface-eb11894954d89b5d.webp"
    },
    {
      "name": "Weathered stone roughness metalness",
      "mimeType": "image/webp",
      "uri": "textures/surface-74120f0f7fbce6d0.webp"
    }
  ],
  "buffers": [
    {
      "uri": "red_defense_tower.bin",
      "byteLength": 99588
    },
    {
      "byteLength": 177028,
      "extensions": {
        "EXT_meshopt_compression": {
          "fallback": true
        }
      }
    }
  ],
  "materials": [
    {
      "name": "Rift · Woven cloth",
      "extras": {
        "riftTextured": true
      },
      "doubleSided": true,
      "pbrMetallicRoughness": {
        "baseColorTexture": {
          "index": 0
        },
        "metallicRoughnessTexture": {
          "index": 2
        }
      },
      "normalTexture": {
        "index": 1,
        "scale": 0.550000011920929
      }
    },
    {
      "name": "Rift · Forged iron",
      "extras": {
        "riftTextured": true
      },
      "pbrMetallicRoughness": {
        "baseColorTexture": {
          "index": 3
        },
        "metallicRoughnessTexture": {
          "index": 5
        }
      },
      "normalTexture": {
        "index": 4,
        "scale": 0.550000011920929
      }
    },
    {
      "name": "Material_1.028",
      "extras": {
        "riftBaseColor": [
          0.8387990117372213,
          0.019382360952473074,
          0.06301001764564068,
          1
        ]
      },
      "pbrMetallicRoughness": {
        "baseColorFactor": [
          0.838798999786377,
          0.019382361322641373,
          0.06301001459360123,
          1
        ],
        "roughnessFactor": 0.25,
        "metallicFactor": 0.25
      },
      "emissiveFactor": [
        1,
        0.023107277580895567,
        0.0751193249034017
      ],
      "extensions": {
        "KHR_materials_emissive_strength": {
          "emissiveStrength": 1.2581984996795654
        }
      }
    },
    {
      "name": "Rift · Dark leather",
      "extras": {
        "riftTextured": true
      },
      "pbrMetallicRoughness": {
        "baseColorTexture": {
          "index": 6
        },
        "metallicRoughnessTexture": {
          "index": 8
        }
      },
      "normalTexture": {
        "index": 7,
        "scale": 0.550000011920929
      }
    },
    {
      "name": "Rift · Weathered stone",
      "extras": {
        "riftTextured": true
      },
      "pbrMetallicRoughness": {
        "baseColorTexture": {
          "index": 9
        },
        "metallicRoughnessTexture": {
          "index": 11
        }
      },
      "normalTexture": {
        "index": 10,
        "scale": 0.550000011920929
      }
    },
    {
      "name": "Material_8.015",
      "extras": {
        "riftBaseColor": [
          0.8631572134510892,
          0.02028856305209031,
          0.061246054224174035,
          1
        ]
      },
      "pbrMetallicRoughness": {
        "baseColorFactor": [
          0.8631572127342224,
          0.020288562402129173,
          0.061246052384376526,
          1
        ],
        "roughnessFactor": 0.30000001192092896,
        "metallicFactor": 0
      },
      "emissiveFactor": [
        1,
        0.023505060379280282,
        0.07095584846052257
      ],
      "extensions": {
        "KHR_materials_emissive_strength": {
          "emissiveStrength": 1.0357886964396101
        }
      }
    }
  ],
  "meshes": [
    {
      "name": "Mesh_2.028",
      "primitives": [
        {
          "attributes": {
            "TEXCOORD_0": 1,
            "COLOR_0": 2,
            "POSITION": 15,
            "NORMAL": 16
          },
          "mode": 4,
          "material": 0,
          "indices": 0
        }
      ]
    },
    {
      "name": "Mesh_3.028",
      "primitives": [
        {
          "attributes": {
            "TEXCOORD_0": 4,
            "COLOR_0": 5,
            "POSITION": 17,
            "NORMAL": 18
          },
          "mode": 4,
          "material": 1,
          "indices": 3
        }
      ]
    },
    {
      "name": "Mesh_1.028",
      "primitives": [
        {
          "attributes": {
            "POSITION": 19,
            "NORMAL": 20,
            "COLOR_0": 21
          },
          "mode": 4,
          "material": 2,
          "indices": 6
        }
      ]
    },
    {
      "name": "Mesh_17.020",
      "primitives": [
        {
          "attributes": {
            "TEXCOORD_0": 8,
            "POSITION": 22,
            "NORMAL": 23,
            "COLOR_0": 24
          },
          "mode": 4,
          "material": 1,
          "indices": 7
        },
        {
          "attributes": {
            "TEXCOORD_0": 10,
            "POSITION": 25,
            "NORMAL": 26,
            "COLOR_0": 27
          },
          "mode": 4,
          "material": 3,
          "indices": 9
        },
        {
          "attributes": {
            "TEXCOORD_0": 12,
            "POSITION": 28,
            "NORMAL": 29,
            "COLOR_0": 30
          },
          "mode": 4,
          "material": 4,
          "indices": 11
        },
        {
          "attributes": {
            "POSITION": 31,
            "NORMAL": 32,
            "COLOR_0": 33
          },
          "mode": 4,
          "material": 2,
          "indices": 13
        },
        {
          "attributes": {
            "POSITION": 34,
            "NORMAL": 35,
            "COLOR_0": 36
          },
          "mode": 4,
          "material": 5,
          "indices": 14
        }
      ]
    }
  ],
  "nodes": [
    {
      "name": "red_defense_tower__Mesh_2",
      "extras": {
        "riftTextured": true
      },
      "translation": [
        0,
        -1.1288797341314876,
        -0.2617987890262157
      ],
      "scale": [
        1.128886989501325,
        1.128886989501325,
        1.128886989501325
      ],
      "mesh": 0
    },
    {
      "name": "red_defense_tower__cloth_0",
      "children": [
        0
      ]
    },
    {
      "name": "red_defense_tower__Mesh_3",
      "extras": {
        "riftTextured": true
      },
      "translation": [
        0,
        -0.7300002574920654,
        0.06600000616163015
      ],
      "scale": [
        0.27535533905029297,
        0.27535533905029297,
        0.27535533905029297
      ],
      "mesh": 1
    },
    {
      "name": "red_defense_tower__banner_0",
      "translation": [
        0,
        3.799999713897705,
        0.7899999618530273
      ],
      "children": [
        1,
        2
      ]
    },
    {
      "name": "red_defense_tower__Mesh_4",
      "extras": {
        "riftTextured": true
      },
      "translation": [
        0,
        -1.1288797341314876,
        -0.2617987890262157
      ],
      "scale": [
        1.128886989501325,
        1.128886989501325,
        1.128886989501325
      ],
      "mesh": 0
    },
    {
      "name": "red_defense_tower__cloth_1",
      "children": [
        4
      ]
    },
    {
      "name": "red_defense_tower__Mesh_5",
      "extras": {
        "riftTextured": true
      },
      "translation": [
        0,
        -0.7300000190734863,
        0.06600000616163015
      ],
      "scale": [
        0.27535533905029297,
        0.27535533905029297,
        0.27535533905029297
      ],
      "mesh": 1
    },
    {
      "name": "red_defense_tower__banner_1",
      "translation": [
        0.7899999618530273,
        3.799999713897705,
        0
      ],
      "rotation": [
        0,
        0.7071068286895752,
        0,
        0.7071067094802856
      ],
      "children": [
        5,
        6
      ]
    },
    {
      "name": "red_defense_tower__Mesh_6",
      "extras": {
        "riftTextured": true
      },
      "translation": [
        0,
        -1.1288797341314876,
        -0.2617987890262157
      ],
      "scale": [
        1.128886989501325,
        1.128886989501325,
        1.128886989501325
      ],
      "mesh": 0
    },
    {
      "name": "red_defense_tower__cloth_2",
      "children": [
        8
      ]
    },
    {
      "name": "red_defense_tower__Mesh_7",
      "extras": {
        "riftTextured": true
      },
      "translation": [
        0,
        -0.7300002574920654,
        0.06600000616163015
      ],
      "scale": [
        0.27535533905029297,
        0.27535533905029297,
        0.27535533905029297
      ],
      "mesh": 1
    },
    {
      "name": "red_defense_tower__banner_2",
      "translation": [
        0,
        3.799999713897705,
        -0.7899999618530273
      ],
      "rotation": [
        0,
        1,
        0,
        6.123234262925839e-17
      ],
      "children": [
        9,
        10
      ]
    },
    {
      "name": "red_defense_tower__Mesh_8",
      "extras": {
        "riftTextured": true
      },
      "translation": [
        0,
        -1.1288797341314876,
        -0.2617987890262157
      ],
      "scale": [
        1.128886989501325,
        1.128886989501325,
        1.128886989501325
      ],
      "mesh": 0
    },
    {
      "name": "red_defense_tower__cloth_3",
      "children": [
        12
      ]
    },
    {
      "name": "red_defense_tower__Mesh_9",
      "extras": {
        "riftTextured": true
      },
      "translation": [
        0,
        -0.7300000190734863,
        0.06600000616163015
      ],
      "scale": [
        0.27535533905029297,
        0.27535533905029297,
        0.27535533905029297
      ],
      "mesh": 1
    },
    {
      "name": "red_defense_tower__banner_3",
      "translation": [
        -0.7899999618530273,
        3.799999713897705,
        0
      ],
      "rotation": [
        0,
        -0.7071068286895752,
        0,
        0.7071067094802856
      ],
      "children": [
        13,
        14
      ]
    },
    {
      "name": "red_defense_tower__crystal",
      "extras": {
        "riftTextured": true
      },
      "translation": [
        0,
        4.699999809265137,
        0
      ],
      "scale": [
        0.4699999690055847,
        0.9399999976158142,
        0.4699999690055847
      ],
      "mesh": 2
    },
    {
      "name": "red_defense_tower__Mesh_17",
      "extras": {
        "riftTextured": true
      },
      "translation": [
        0,
        2.2967661092989147,
        0
      ],
      "scale": [
        2.281766109634191,
        2.281766109634191,
        2.281766109634191
      ],
      "mesh": 3
    },
    {
      "name": "red_defense_tower",
      "extras": {
        "asset": "red_defense_tower",
        "category": "Structures",
        "referencePass": 2,
        "riftAsset": "red_defense_tower",
        "title": "RED DEFENSE_TOWER",
        "authoring": "Blender 4.5 · UV/PBR surfaces · rigid articulated animation"
      },
      "scale": [
        1.2000000476837158,
        1.1200000047683716,
        1.2000000476837158
      ],
      "children": [
        3,
        7,
        11,
        15,
        16,
        17
      ]
    }
  ],
  "scenes": [
    {
      "name": "Scene",
      "nodes": [
        18
      ]
    }
  ],
  "scene": 0,
  "extensionsUsed": [
    "EXT_meshopt_compression",
    "EXT_texture_webp",
    "KHR_materials_emissive_strength",
    "KHR_mesh_quantization"
  ],
  "extensionsRequired": [
    "EXT_meshopt_compression",
    "EXT_texture_webp",
    "KHR_mesh_quantization"
  ]
}