{
  "asset": {
    "generator": "glTF-Transform v4.5.0",
    "version": "2.0"
  },
  "accessors": [
    {
      "type": "SCALAR",
      "componentType": 5126,
      "count": 25,
      "max": [
        1.0416666269302368
      ],
      "min": [
        0.0416666679084301
      ],
      "normalized": false,
      "byteOffset": 0,
      "bufferView": 0
    },
    {
      "type": "VEC4",
      "componentType": 5126,
      "count": 25,
      "normalized": false,
      "byteOffset": 0,
      "bufferView": 1
    },
    {
      "type": "VEC4",
      "componentType": 5126,
      "count": 25,
      "normalized": false,
      "byteOffset": 400,
      "bufferView": 1
    },
    {
      "type": "VEC4",
      "componentType": 5126,
      "count": 25,
      "normalized": false,
      "byteOffset": 800,
      "bufferView": 1
    },
    {
      "type": "VEC4",
      "componentType": 5126,
      "count": 25,
      "normalized": false,
      "byteOffset": 1200,
      "bufferView": 1
    },
    {
      "type": "VEC4",
      "componentType": 5126,
      "count": 25,
      "normalized": false,
      "byteOffset": 1600,
      "bufferView": 1
    },
    {
      "type": "VEC4",
      "componentType": 5126,
      "count": 25,
      "normalized": false,
      "byteOffset": 2000,
      "bufferView": 1
    },
    {
      "type": "VEC4",
      "componentType": 5126,
      "count": 25,
      "normalized": false,
      "byteOffset": 2400,
      "bufferView": 1
    },
    {
      "type": "SCALAR",
      "componentType": 5126,
      "count": 49,
      "max": [
        2.0416667461395264
      ],
      "min": [
        0.0416666679084301
      ],
      "normalized": false,
      "byteOffset": 100,
      "bufferView": 0
    },
    {
      "type": "VEC4",
      "componentType": 5126,
      "count": 49,
      "normalized": false,
      "byteOffset": 2800,
      "bufferView": 1
    },
    {
      "type": "SCALAR",
      "componentType": 5123,
      "count": 108,
      "normalized": false,
      "byteOffset": 0,
      "bufferView": 2
    },
    {
      "type": "SCALAR",
      "componentType": 5123,
      "count": 2214,
      "normalized": false,
      "byteOffset": 216,
      "bufferView": 2
    },
    {
      "type": "VEC2",
      "componentType": 5126,
      "count": 905,
      "normalized": false,
      "byteOffset": 0,
      "bufferView": 3
    },
    {
      "type": "SCALAR",
      "componentType": 5123,
      "count": 390,
      "normalized": false,
      "byteOffset": 4644,
      "bufferView": 2
    },
    {
      "type": "VEC2",
      "componentType": 5126,
      "count": 134,
      "normalized": false,
      "byteOffset": 0,
      "bufferView": 4
    },
    {
      "type": "SCALAR",
      "componentType": 5123,
      "count": 576,
      "normalized": false,
      "byteOffset": 5424,
      "bufferView": 2
    },
    {
      "type": "VEC2",
      "componentType": 5126,
      "count": 144,
      "normalized": false,
      "byteOffset": 0,
      "bufferView": 5
    },
    {
      "type": "SCALAR",
      "componentType": 5123,
      "count": 2214,
      "normalized": false,
      "byteOffset": 6576,
      "bufferView": 2
    },
    {
      "type": "VEC2",
      "componentType": 5126,
      "count": 900,
      "normalized": false,
      "byteOffset": 0,
      "bufferView": 6
    },
    {
      "type": "SCALAR",
      "componentType": 5123,
      "count": 390,
      "normalized": false,
      "byteOffset": 11004,
      "bufferView": 2
    },
    {
      "type": "VEC2",
      "componentType": 5126,
      "count": 134,
      "normalized": false,
      "byteOffset": 0,
      "bufferView": 7
    },
    {
      "type": "VEC2",
      "componentType": 5126,
      "count": 144,
      "normalized": false,
      "byteOffset": 0,
      "bufferView": 8
    },
    {
      "type": "SCALAR",
      "componentType": 5123,
      "count": 912,
      "normalized": false,
      "byteOffset": 11784,
      "bufferView": 2
    },
    {
      "type": "VEC2",
      "componentType": 5126,
      "count": 259,
      "normalized": false,
      "byteOffset": 0,
      "bufferView": 9
    },
    {
      "type": "SCALAR",
      "componentType": 5123,
      "count": 1842,
      "normalized": false,
      "byteOffset": 13608,
      "bufferView": 2
    },
    {
      "type": "VEC2",
      "componentType": 5126,
      "count": 899,
      "normalized": false,
      "byteOffset": 0,
      "bufferView": 10
    },
    {
      "type": "SCALAR",
      "componentType": 5123,
      "count": 738,
      "normalized": false,
      "byteOffset": 17292,
      "bufferView": 2
    },
    {
      "type": "SCALAR",
      "componentType": 5123,
      "count": 72,
      "normalized": false,
      "byteOffset": 18768,
      "bufferView": 2
    },
    {
      "type": "VEC2",
      "componentType": 5126,
      "count": 38,
      "normalized": false,
      "byteOffset": 0,
      "bufferView": 11
    },
    {
      "type": "SCALAR",
      "componentType": 5123,
      "count": 96,
      "normalized": false,
      "byteOffset": 18912,
      "bufferView": 2
    },
    {
      "type": "VEC2",
      "componentType": 5126,
      "count": 38,
      "normalized": false,
      "byteOffset": 0,
      "bufferView": 12
    },
    {
      "type": "VEC4",
      "componentType": 5121,
      "count": 38,
      "normalized": true,
      "byteOffset": 0,
      "bufferView": 13
    },
    {
      "type": "SCALAR",
      "componentType": 5123,
      "count": 2178,
      "normalized": false,
      "byteOffset": 19104,
      "bufferView": 2
    },
    {
      "type": "VEC2",
      "componentType": 5126,
      "count": 896,
      "normalized": false,
      "byteOffset": 0,
      "bufferView": 14
    },
    {
      "type": "VEC4",
      "componentType": 5121,
      "count": 896,
      "normalized": true,
      "byteOffset": 0,
      "bufferView": 15
    },
    {
      "type": "VEC2",
      "componentType": 5126,
      "count": 144,
      "normalized": false,
      "byteOffset": 0,
      "bufferView": 16
    },
    {
      "type": "VEC4",
      "componentType": 5121,
      "count": 144,
      "normalized": true,
      "byteOffset": 0,
      "bufferView": 17
    },
    {
      "type": "SCALAR",
      "componentType": 5123,
      "count": 354,
      "normalized": false,
      "byteOffset": 23460,
      "bufferView": 2
    },
    {
      "type": "VEC2",
      "componentType": 5126,
      "count": 98,
      "normalized": false,
      "byteOffset": 0,
      "bufferView": 18
    },
    {
      "type": "VEC4",
      "componentType": 5121,
      "count": 98,
      "normalized": true,
      "byteOffset": 0,
      "bufferView": 19
    },
    {
      "type": "SCALAR",
      "componentType": 5123,
      "count": 1170,
      "normalized": false,
      "byteOffset": 24168,
      "bufferView": 2
    },
    {
      "type": "VEC2",
      "componentType": 5126,
      "count": 339,
      "normalized": false,
      "byteOffset": 0,
      "bufferView": 20
    },
    {
      "type": "SCALAR",
      "componentType": 5123,
      "count": 10932,
      "normalized": false,
      "byteOffset": 26508,
      "bufferView": 2
    },
    {
      "type": "VEC2",
      "componentType": 5126,
      "count": 5373,
      "normalized": false,
      "byteOffset": 0,
      "bufferView": 21
    },
    {
      "type": "SCALAR",
      "componentType": 5123,
      "count": 624,
      "normalized": false,
      "byteOffset": 48372,
      "bufferView": 2
    },
    {
      "type": "SCALAR",
      "componentType": 5123,
      "count": 2208,
      "normalized": false,
      "byteOffset": 49620,
      "bufferView": 2
    },
    {
      "type": "VEC3",
      "componentType": 5122,
      "count": 57,
      "max": [
        5046,
        -21012,
        11443
      ],
      "min": [
        -6729,
        -32767,
        5767
      ],
      "normalized": true,
      "byteOffset": 0,
      "bufferView": 22
    },
    {
      "type": "VEC3",
      "componentType": 5122,
      "count": 57,
      "normalized": true,
      "byteOffset": 0,
      "bufferView": 23
    },
    {
      "type": "VEC3",
      "componentType": 5121,
      "count": 57,
      "normalized": true,
      "byteOffset": 0,
      "bufferView": 24
    },
    {
      "type": "VEC3",
      "componentType": 5122,
      "count": 905,
      "max": [
        14334,
        32767,
        11794
      ],
      "min": [
        -14334,
        -17896,
        -12165
      ],
      "normalized": true,
      "byteOffset": 0,
      "bufferView": 25
    },
    {
      "type": "VEC3",
      "componentType": 5122,
      "count": 905,
      "normalized": true,
      "byteOffset": 0,
      "bufferView": 26
    },
    {
      "type": "VEC3",
      "componentType": 5121,
      "count": 905,
      "normalized": true,
      "byteOffset": 0,
      "bufferView": 27
    },
    {
      "type": "VEC3",
      "componentType": 5122,
      "count": 134,
      "max": [
        9121,
        11644,
        10223
      ],
      "min": [
        -8549,
        -27212,
        -8244
      ],
      "normalized": true,
      "byteOffset": 0,
      "bufferView": 28
    },
    {
      "type": "VEC3",
      "componentType": 5122,
      "count": 134,
      "normalized": true,
      "byteOffset": 0,
      "bufferView": 29
    },
    {
      "type": "VEC3",
      "componentType": 5121,
      "count": 134,
      "normalized": true,
      "byteOffset": 0,
      "bufferView": 30
    },
    {
      "type": "VEC3",
      "componentType": 5122,
      "count": 144,
      "max": [
        4470,
        -224,
        12165
      ],
      "min": [
        -6152,
        -11648,
        10722
      ],
      "normalized": true,
      "byteOffset": 0,
      "bufferView": 31
    },
    {
      "type": "VEC3",
      "componentType": 5122,
      "count": 144,
      "normalized": true,
      "byteOffset": 0,
      "bufferView": 32
    },
    {
      "type": "VEC3",
      "componentType": 5121,
      "count": 144,
      "normalized": true,
      "byteOffset": 0,
      "bufferView": 33
    },
    {
      "type": "VEC3",
      "componentType": 5122,
      "count": 900,
      "max": [
        14334,
        32767,
        11794
      ],
      "min": [
        -14334,
        -17896,
        -12165
      ],
      "normalized": true,
      "byteOffset": 0,
      "bufferView": 34
    },
    {
      "type": "VEC3",
      "componentType": 5122,
      "count": 900,
      "normalized": true,
      "byteOffset": 0,
      "bufferView": 35
    },
    {
      "type": "VEC3",
      "componentType": 5121,
      "count": 900,
      "normalized": true,
      "byteOffset": 0,
      "bufferView": 36
    },
    {
      "type": "VEC3",
      "componentType": 5122,
      "count": 134,
      "max": [
        8549,
        11644,
        10223
      ],
      "min": [
        -9121,
        -27212,
        -8244
      ],
      "normalized": true,
      "byteOffset": 0,
      "bufferView": 37
    },
    {
      "type": "VEC3",
      "componentType": 5122,
      "count": 134,
      "normalized": true,
      "byteOffset": 0,
      "bufferView": 38
    },
    {
      "type": "VEC3",
      "componentType": 5121,
      "count": 134,
      "normalized": true,
      "byteOffset": 0,
      "bufferView": 39
    },
    {
      "type": "VEC3",
      "componentType": 5122,
      "count": 144,
      "max": [
        6152,
        -224,
        12165
      ],
      "min": [
        -4470,
        -11648,
        10722
      ],
      "normalized": true,
      "byteOffset": 0,
      "bufferView": 40
    },
    {
      "type": "VEC3",
      "componentType": 5122,
      "count": 144,
      "normalized": true,
      "byteOffset": 0,
      "bufferView": 41
    },
    {
      "type": "VEC3",
      "componentType": 5122,
      "count": 57,
      "max": [
        6729,
        -21012,
        11443
      ],
      "min": [
        -5046,
        -32767,
        5767
      ],
      "normalized": true,
      "byteOffset": 0,
      "bufferView": 42
    },
    {
      "type": "VEC3",
      "componentType": 5122,
      "count": 259,
      "max": [
        17374,
        543,
        19005
      ],
      "min": [
        -17374,
        -32767,
        -19005
      ],
      "normalized": true,
      "byteOffset": 0,
      "bufferView": 43
    },
    {
      "type": "VEC3",
      "componentType": 5122,
      "count": 259,
      "normalized": true,
      "byteOffset": 0,
      "bufferView": 44
    },
    {
      "type": "VEC3",
      "componentType": 5121,
      "count": 259,
      "normalized": true,
      "byteOffset": 0,
      "bufferView": 45
    },
    {
      "type": "VEC3",
      "componentType": 5122,
      "count": 899,
      "max": [
        26069,
        18284,
        14861
      ],
      "min": [
        -26069,
        -23146,
        -11769
      ],
      "normalized": true,
      "byteOffset": 0,
      "bufferView": 46
    },
    {
      "type": "VEC3",
      "componentType": 5122,
      "count": 899,
      "normalized": true,
      "byteOffset": 0,
      "bufferView": 47
    },
    {
      "type": "VEC3",
      "componentType": 5121,
      "count": 899,
      "normalized": true,
      "byteOffset": 0,
      "bufferView": 48
    },
    {
      "type": "VEC3",
      "componentType": 5122,
      "count": 239,
      "max": [
        28663,
        32767,
        13754
      ],
      "min": [
        -28663,
        -15204,
        -14913
      ],
      "normalized": true,
      "byteOffset": 0,
      "bufferView": 49
    },
    {
      "type": "VEC3",
      "componentType": 5122,
      "count": 239,
      "normalized": true,
      "byteOffset": 0,
      "bufferView": 50
    },
    {
      "type": "VEC3",
      "componentType": 5121,
      "count": 239,
      "normalized": true,
      "byteOffset": 0,
      "bufferView": 51
    },
    {
      "type": "VEC3",
      "componentType": 5122,
      "count": 38,
      "max": [
        9227,
        -22493,
        13214
      ],
      "min": [
        -9227,
        -32767,
        8971
      ],
      "normalized": true,
      "byteOffset": 0,
      "bufferView": 52
    },
    {
      "type": "VEC3",
      "componentType": 5122,
      "count": 38,
      "normalized": true,
      "byteOffset": 0,
      "bufferView": 53
    },
    {
      "type": "VEC3",
      "componentType": 5121,
      "count": 38,
      "normalized": true,
      "byteOffset": 0,
      "bufferView": 54
    },
    {
      "type": "VEC3",
      "componentType": 5122,
      "count": 38,
      "max": [
        10277,
        10456,
        14780
      ],
      "min": [
        -18534,
        -32767,
        -14031
      ],
      "normalized": true,
      "byteOffset": 0,
      "bufferView": 55
    },
    {
      "type": "VEC3",
      "componentType": 5122,
      "count": 38,
      "normalized": true,
      "byteOffset": 0,
      "bufferView": 56
    },
    {
      "type": "VEC3",
      "componentType": 5122,
      "count": 896,
      "max": [
        18956,
        32767,
        19341
      ],
      "min": [
        -18956,
        -23034,
        -19341
      ],
      "normalized": true,
      "byteOffset": 0,
      "bufferView": 57
    },
    {
      "type": "VEC3",
      "componentType": 5122,
      "count": 896,
      "normalized": true,
      "byteOffset": 0,
      "bufferView": 58
    },
    {
      "type": "VEC3",
      "componentType": 5122,
      "count": 144,
      "max": [
        14620,
        6374,
        -5580
      ],
      "min": [
        1225,
        -14614,
        -17677
      ],
      "normalized": true,
      "byteOffset": 0,
      "bufferView": 59
    },
    {
      "type": "VEC3",
      "componentType": 5122,
      "count": 144,
      "normalized": true,
      "byteOffset": 0,
      "bufferView": 60
    },
    {
      "type": "VEC3",
      "componentType": 5122,
      "count": 144,
      "max": [
        8901,
        14902,
        12832
      ],
      "min": [
        -8901,
        -5255,
        10168
      ],
      "normalized": true,
      "byteOffset": 0,
      "bufferView": 61
    },
    {
      "type": "VEC3",
      "componentType": 5122,
      "count": 144,
      "normalized": true,
      "byteOffset": 0,
      "bufferView": 62
    },
    {
      "type": "VEC3",
      "componentType": 5122,
      "count": 38,
      "max": [
        14197,
        32767,
        6947
      ],
      "min": [
        -14197,
        -12752,
        -22614
      ],
      "normalized": true,
      "byteOffset": 0,
      "bufferView": 63
    },
    {
      "type": "VEC3",
      "componentType": 5122,
      "count": 38,
      "normalized": true,
      "byteOffset": 0,
      "bufferView": 64
    },
    {
      "type": "VEC3",
      "componentType": 5122,
      "count": 896,
      "max": [
        16901,
        22226,
        22614
      ],
      "min": [
        -16901,
        -32767,
        -19195
      ],
      "normalized": true,
      "byteOffset": 0,
      "bufferView": 65
    },
    {
      "type": "VEC3",
      "componentType": 5122,
      "count": 896,
      "normalized": true,
      "byteOffset": 0,
      "bufferView": 66
    },
    {
      "type": "VEC3",
      "componentType": 5122,
      "count": 98,
      "max": [
        32767,
        32725,
        32767
      ],
      "min": [
        -32767,
        -32725,
        -32767
      ],
      "normalized": true,
      "byteOffset": 0,
      "bufferView": 67
    },
    {
      "type": "VEC3",
      "componentType": 5122,
      "count": 98,
      "normalized": true,
      "byteOffset": 0,
      "bufferView": 68
    },
    {
      "type": "VEC3",
      "componentType": 5122,
      "count": 339,
      "max": [
        22487,
        1869,
        12757
      ],
      "min": [
        -22495,
        -27917,
        10924
      ],
      "normalized": true,
      "byteOffset": 0,
      "bufferView": 69
    },
    {
      "type": "VEC3",
      "componentType": 5122,
      "count": 339,
      "normalized": true,
      "byteOffset": 0,
      "bufferView": 70
    },
    {
      "type": "VEC3",
      "componentType": 5121,
      "count": 339,
      "normalized": true,
      "byteOffset": 0,
      "bufferView": 71
    },
    {
      "type": "VEC3",
      "componentType": 5122,
      "count": 5373,
      "max": [
        26528,
        5063,
        12316
      ],
      "min": [
        -26528,
        -32767,
        5391
      ],
      "normalized": true,
      "byteOffset": 0,
      "bufferView": 72
    },
    {
      "type": "VEC3",
      "componentType": 5122,
      "count": 5373,
      "normalized": true,
      "byteOffset": 0,
      "bufferView": 73
    },
    {
      "type": "VEC3",
      "componentType": 5121,
      "count": 5373,
      "normalized": true,
      "byteOffset": 0,
      "bufferView": 74
    },
    {
      "type": "VEC3",
      "componentType": 5122,
      "count": 471,
      "max": [
        20276,
        31464,
        13589
      ],
      "min": [
        -20283,
        -27283,
        -11163
      ],
      "normalized": true,
      "byteOffset": 0,
      "bufferView": 75
    },
    {
      "type": "VEC3",
      "componentType": 5122,
      "count": 471,
      "normalized": true,
      "byteOffset": 0,
      "bufferView": 76
    },
    {
      "type": "VEC3",
      "componentType": 5121,
      "count": 471,
      "normalized": true,
      "byteOffset": 0,
      "bufferView": 77
    },
    {
      "type": "VEC3",
      "componentType": 5122,
      "count": 765,
      "max": [
        23177,
        32767,
        11909
      ],
      "min": [
        -23192,
        -30957,
        -13589
      ],
      "normalized": true,
      "byteOffset": 0,
      "bufferView": 78
    },
    {
      "type": "VEC3",
      "componentType": 5122,
      "count": 765,
      "normalized": true,
      "byteOffset": 0,
      "bufferView": 79
    },
    {
      "type": "VEC3",
      "componentType": 5121,
      "count": 765,
      "normalized": true,
      "byteOffset": 0,
      "bufferView": 80
    }
  ],
  "bufferViews": [
    {
      "buffer": 1,
      "byteOffset": 0,
      "byteLength": 296,
      "extensions": {
        "EXT_meshopt_compression": {
          "buffer": 0,
          "byteOffset": 0,
          "byteLength": 279,
          "mode": "ATTRIBUTES",
          "byteStride": 4,
          "count": 74
        }
      }
    },
    {
      "buffer": 1,
      "byteOffset": 296,
      "byteLength": 3584,
      "extensions": {
        "EXT_meshopt_compression": {
          "buffer": 0,
          "byteOffset": 280,
          "byteLength": 1398,
          "mode": "ATTRIBUTES",
          "byteStride": 16,
          "count": 224
        }
      }
    },
    {
      "buffer": 1,
      "byteOffset": 3880,
      "byteLength": 54036,
      "target": 34963,
      "extensions": {
        "EXT_meshopt_compression": {
          "buffer": 0,
          "byteOffset": 1680,
          "byteLength": 9527,
          "mode": "TRIANGLES",
          "byteStride": 2,
          "count": 27018
        }
      }
    },
    {
      "buffer": 1,
      "byteOffset": 57916,
      "byteLength": 7240,
      "target": 34962,
      "byteStride": 8,
      "extensions": {
        "EXT_meshopt_compression": {
          "buffer": 0,
          "byteOffset": 11208,
          "byteLength": 5757,
          "mode": "ATTRIBUTES",
          "byteStride": 8,
          "count": 905
        }
      }
    },
    {
      "buffer": 1,
      "byteOffset": 65156,
      "byteLength": 1072,
      "target": 34962,
      "byteStride": 8,
      "extensions": {
        "EXT_meshopt_compression": {
          "buffer": 0,
          "byteOffset": 16968,
          "byteLength": 963,
          "mode": "ATTRIBUTES",
          "byteStride": 8,
          "count": 134
        }
      }
    },
    {
      "buffer": 1,
      "byteOffset": 66228,
      "byteLength": 1152,
      "target": 34962,
      "byteStride": 8,
      "extensions": {
        "EXT_meshopt_compression": {
          "buffer": 0,
          "byteOffset": 17932,
          "byteLength": 875,
          "mode": "ATTRIBUTES",
          "byteStride": 8,
          "count": 144
        }
      }
    },
    {
      "buffer": 1,
      "byteOffset": 67380,
      "byteLength": 7200,
      "target": 34962,
      "byteStride": 8,
      "extensions": {
        "EXT_meshopt_compression": {
          "buffer": 0,
          "byteOffset": 18808,
          "byteLength": 5778,
          "mode": "ATTRIBUTES",
          "byteStride": 8,
          "count": 900
        }
      }
    },
    {
      "buffer": 1,
      "byteOffset": 74580,
      "byteLength": 1072,
      "target": 34962,
      "byteStride": 8,
      "extensions": {
        "EXT_meshopt_compression": {
          "buffer": 0,
          "byteOffset": 24588,
          "byteLength": 966,
          "mode": "ATTRIBUTES",
          "byteStride": 8,
          "count": 134
        }
      }
    },
    {
      "buffer": 1,
      "byteOffset": 75652,
      "byteLength": 1152,
      "target": 34962,
      "byteStride": 8,
      "extensions": {
        "EXT_meshopt_compression": {
          "buffer": 0,
          "byteOffset": 25556,
          "byteLength": 876,
          "mode": "ATTRIBUTES",
          "byteStride": 8,
          "count": 144
        }
      }
    },
    {
      "buffer": 1,
      "byteOffset": 76804,
      "byteLength": 2072,
      "target": 34962,
      "byteStride": 8,
      "extensions": {
        "EXT_meshopt_compression": {
          "buffer": 0,
          "byteOffset": 26432,
          "byteLength": 1780,
          "mode": "ATTRIBUTES",
          "byteStride": 8,
          "count": 259
        }
      }
    },
    {
      "buffer": 1,
      "byteOffset": 78876,
      "byteLength": 7192,
      "target": 34962,
      "byteStride": 8,
      "extensions": {
        "EXT_meshopt_compression": {
          "buffer": 0,
          "byteOffset": 28212,
          "byteLength": 5746,
          "mode": "ATTRIBUTES",
          "byteStride": 8,
          "count": 899
        }
      }
    },
    {
      "buffer": 1,
      "byteOffset": 86068,
      "byteLength": 304,
      "target": 34962,
      "byteStride": 8,
      "extensions": {
        "EXT_meshopt_compression": {
          "buffer": 0,
          "byteOffset": 33960,
          "byteLength": 295,
          "mode": "ATTRIBUTES",
          "byteStride": 8,
          "count": 38
        }
      }
    },
    {
      "buffer": 1,
      "byteOffset": 86372,
      "byteLength": 304,
      "target": 34962,
      "byteStride": 8,
      "extensions": {
        "EXT_meshopt_compression": {
          "buffer": 0,
          "byteOffset": 34256,
          "byteLength": 333,
          "mode": "ATTRIBUTES",
          "byteStride": 8,
          "count": 38
        }
      }
    },
    {
      "buffer": 1,
      "byteOffset": 86676,
      "byteLength": 152,
      "target": 34962,
      "byteStride": 4,
      "extensions": {
        "EXT_meshopt_compression": {
          "buffer": 0,
          "byteOffset": 34592,
          "byteLength": 37,
          "mode": "ATTRIBUTES",
          "byteStride": 4,
          "count": 38
        }
      }
    },
    {
      "buffer": 1,
      "byteOffset": 86828,
      "byteLength": 7168,
      "target": 34962,
      "byteStride": 8,
      "extensions": {
        "EXT_meshopt_compression": {
          "buffer": 0,
          "byteOffset": 34632,
          "byteLength": 5777,
          "mode": "ATTRIBUTES",
          "byteStride": 8,
          "count": 896
        }
      }
    },
    {
      "buffer": 1,
      "byteOffset": 93996,
      "byteLength": 3584,
      "target": 34962,
      "byteStride": 4,
      "extensions": {
        "EXT_meshopt_compression": {
          "buffer": 0,
          "byteOffset": 40412,
          "byteLength": 89,
          "mode": "ATTRIBUTES",
          "byteStride": 4,
          "count": 896
        }
      }
    },
    {
      "buffer": 1,
      "byteOffset": 97580,
      "byteLength": 1152,
      "target": 34962,
      "byteStride": 8,
      "extensions": {
        "EXT_meshopt_compression": {
          "buffer": 0,
          "byteOffset": 40504,
          "byteLength": 865,
          "mode": "ATTRIBUTES",
          "byteStride": 8,
          "count": 144
        }
      }
    },
    {
      "buffer": 1,
      "byteOffset": 98732,
      "byteLength": 576,
      "target": 34962,
      "byteStride": 4,
      "extensions": {
        "EXT_meshopt_compression": {
          "buffer": 0,
          "byteOffset": 41372,
          "byteLength": 45,
          "mode": "ATTRIBUTES",
          "byteStride": 4,
          "count": 144
        }
      }
    },
    {
      "buffer": 1,
      "byteOffset": 99308,
      "byteLength": 784,
      "target": 34962,
      "byteStride": 8,
      "extensions": {
        "EXT_meshopt_compression": {
          "buffer": 0,
          "byteOffset": 41420,
          "byteLength": 757,
          "mode": "ATTRIBUTES",
          "byteStride": 8,
          "count": 98
        }
      }
    },
    {
      "buffer": 1,
      "byteOffset": 100092,
      "byteLength": 392,
      "target": 34962,
      "byteStride": 4,
      "extensions": {
        "EXT_meshopt_compression": {
          "buffer": 0,
          "byteOffset": 42180,
          "byteLength": 41,
          "mode": "ATTRIBUTES",
          "byteStride": 4,
          "count": 98
        }
      }
    },
    {
      "buffer": 1,
      "byteOffset": 100484,
      "byteLength": 2712,
      "target": 34962,
      "byteStride": 8,
      "extensions": {
        "EXT_meshopt_compression": {
          "buffer": 0,
          "byteOffset": 42224,
          "byteLength": 2223,
          "mode": "ATTRIBUTES",
          "byteStride": 8,
          "count": 339
        }
      }
    },
    {
      "buffer": 1,
      "byteOffset": 103196,
      "byteLength": 42984,
      "target": 34962,
      "byteStride": 8,
      "extensions": {
        "EXT_meshopt_compression": {
          "buffer": 0,
          "byteOffset": 44448,
          "byteLength": 32952,
          "mode": "ATTRIBUTES",
          "byteStride": 8,
          "count": 5373
        }
      }
    },
    {
      "buffer": 1,
      "byteOffset": 146180,
      "byteLength": 456,
      "target": 34962,
      "byteStride": 8,
      "extensions": {
        "EXT_meshopt_compression": {
          "buffer": 0,
          "byteOffset": 77400,
          "byteLength": 380,
          "mode": "ATTRIBUTES",
          "byteStride": 8,
          "count": 57
        }
      }
    },
    {
      "buffer": 1,
      "byteOffset": 146636,
      "byteLength": 456,
      "target": 34962,
      "byteStride": 8,
      "extensions": {
        "EXT_meshopt_compression": {
          "buffer": 0,
          "byteOffset": 77780,
          "byteLength": 355,
          "mode": "ATTRIBUTES",
          "byteStride": 8,
          "count": 57
        }
      }
    },
    {
      "buffer": 1,
      "byteOffset": 147092,
      "byteLength": 228,
      "target": 34962,
      "byteStride": 4,
      "extensions": {
        "EXT_meshopt_compression": {
          "buffer": 0,
          "byteOffset": 78136,
          "byteLength": 37,
          "mode": "ATTRIBUTES",
          "byteStride": 4,
          "count": 57
        }
      }
    },
    {
      "buffer": 1,
      "byteOffset": 147320,
      "byteLength": 7240,
      "target": 34962,
      "byteStride": 8,
      "extensions": {
        "EXT_meshopt_compression": {
          "buffer": 0,
          "byteOffset": 78176,
          "byteLength": 4773,
          "mode": "ATTRIBUTES",
          "byteStride": 8,
          "count": 905
        }
      }
    },
    {
      "buffer": 1,
      "byteOffset": 154560,
      "byteLength": 7240,
      "target": 34962,
      "byteStride": 8,
      "extensions": {
        "EXT_meshopt_compression": {
          "buffer": 0,
          "byteOffset": 82952,
          "byteLength": 4888,
          "mode": "ATTRIBUTES",
          "byteStride": 8,
          "count": 905
        }
      }
    },
    {
      "buffer": 1,
      "byteOffset": 161800,
      "byteLength": 3620,
      "target": 34962,
      "byteStride": 4,
      "extensions": {
        "EXT_meshopt_compression": {
          "buffer": 0,
          "byteOffset": 87840,
          "byteLength": 1142,
          "mode": "ATTRIBUTES",
          "byteStride": 4,
          "count": 905
        }
      }
    },
    {
      "buffer": 1,
      "byteOffset": 165420,
      "byteLength": 1072,
      "target": 34962,
      "byteStride": 8,
      "extensions": {
        "EXT_meshopt_compression": {
          "buffer": 0,
          "byteOffset": 88984,
          "byteLength": 866,
          "mode": "ATTRIBUTES",
          "byteStride": 8,
          "count": 134
        }
      }
    },
    {
      "buffer": 1,
      "byteOffset": 166492,
      "byteLength": 1072,
      "target": 34962,
      "byteStride": 8,
      "extensions": {
        "EXT_meshopt_compression": {
          "buffer": 0,
          "byteOffset": 89852,
          "byteLength": 850,
          "mode": "ATTRIBUTES",
          "byteStride": 8,
          "count": 134
        }
      }
    },
    {
      "buffer": 1,
      "byteOffset": 167564,
      "byteLength": 536,
      "target": 34962,
      "byteStride": 4,
      "extensions": {
        "EXT_meshopt_compression": {
          "buffer": 0,
          "byteOffset": 90704,
          "byteLength": 185,
          "mode": "ATTRIBUTES",
          "byteStride": 4,
          "count": 134
        }
      }
    },
    {
      "buffer": 1,
      "byteOffset": 168100,
      "byteLength": 1152,
      "target": 34962,
      "byteStride": 8,
      "extensions": {
        "EXT_meshopt_compression": {
          "buffer": 0,
          "byteOffset": 90892,
          "byteLength": 687,
          "mode": "ATTRIBUTES",
          "byteStride": 8,
          "count": 144
        }
      }
    },
    {
      "buffer": 1,
      "byteOffset": 169252,
      "byteLength": 1152,
      "target": 34962,
      "byteStride": 8,
      "extensions": {
        "EXT_meshopt_compression": {
          "buffer": 0,
          "byteOffset": 91580,
          "byteLength": 918,
          "mode": "ATTRIBUTES",
          "byteStride": 8,
          "count": 144
        }
      }
    },
    {
      "buffer": 1,
      "byteOffset": 170404,
      "byteLength": 576,
      "target": 34962,
      "byteStride": 4,
      "extensions": {
        "EXT_meshopt_compression": {
          "buffer": 0,
          "byteOffset": 92500,
          "byteLength": 45,
          "mode": "ATTRIBUTES",
          "byteStride": 4,
          "count": 144
        }
      }
    },
    {
      "buffer": 1,
      "byteOffset": 170980,
      "byteLength": 7200,
      "target": 34962,
      "byteStride": 8,
      "extensions": {
        "EXT_meshopt_compression": {
          "buffer": 0,
          "byteOffset": 92548,
          "byteLength": 4757,
          "mode": "ATTRIBUTES",
          "byteStride": 8,
          "count": 900
        }
      }
    },
    {
      "buffer": 1,
      "byteOffset": 178180,
      "byteLength": 7200,
      "target": 34962,
      "byteStride": 8,
      "extensions": {
        "EXT_meshopt_compression": {
          "buffer": 0,
          "byteOffset": 97308,
          "byteLength": 4911,
          "mode": "ATTRIBUTES",
          "byteStride": 8,
          "count": 900
        }
      }
    },
    {
      "buffer": 1,
      "byteOffset": 185380,
      "byteLength": 3600,
      "target": 34962,
      "byteStride": 4,
      "extensions": {
        "EXT_meshopt_compression": {
          "buffer": 0,
          "byteOffset": 102220,
          "byteLength": 1138,
          "mode": "ATTRIBUTES",
          "byteStride": 4,
          "count": 900
        }
      }
    },
    {
      "buffer": 1,
      "byteOffset": 188980,
      "byteLength": 1072,
      "target": 34962,
      "byteStride": 8,
      "extensions": {
        "EXT_meshopt_compression": {
          "buffer": 0,
          "byteOffset": 103360,
          "byteLength": 866,
          "mode": "ATTRIBUTES",
          "byteStride": 8,
          "count": 134
        }
      }
    },
    {
      "buffer": 1,
      "byteOffset": 190052,
      "byteLength": 1072,
      "target": 34962,
      "byteStride": 8,
      "extensions": {
        "EXT_meshopt_compression": {
          "buffer": 0,
          "byteOffset": 104228,
          "byteLength": 848,
          "mode": "ATTRIBUTES",
          "byteStride": 8,
          "count": 134
        }
      }
    },
    {
      "buffer": 1,
      "byteOffset": 191124,
      "byteLength": 536,
      "target": 34962,
      "byteStride": 4,
      "extensions": {
        "EXT_meshopt_compression": {
          "buffer": 0,
          "byteOffset": 105076,
          "byteLength": 186,
          "mode": "ATTRIBUTES",
          "byteStride": 4,
          "count": 134
        }
      }
    },
    {
      "buffer": 1,
      "byteOffset": 191660,
      "byteLength": 1152,
      "target": 34962,
      "byteStride": 8,
      "extensions": {
        "EXT_meshopt_compression": {
          "buffer": 0,
          "byteOffset": 105264,
          "byteLength": 685,
          "mode": "ATTRIBUTES",
          "byteStride": 8,
          "count": 144
        }
      }
    },
    {
      "buffer": 1,
      "byteOffset": 192812,
      "byteLength": 1152,
      "target": 34962,
      "byteStride": 8,
      "extensions": {
        "EXT_meshopt_compression": {
          "buffer": 0,
          "byteOffset": 105952,
          "byteLength": 918,
          "mode": "ATTRIBUTES",
          "byteStride": 8,
          "count": 144
        }
      }
    },
    {
      "buffer": 1,
      "byteOffset": 193964,
      "byteLength": 456,
      "target": 34962,
      "byteStride": 8,
      "extensions": {
        "EXT_meshopt_compression": {
          "buffer": 0,
          "byteOffset": 106872,
          "byteLength": 380,
          "mode": "ATTRIBUTES",
          "byteStride": 8,
          "count": 57
        }
      }
    },
    {
      "buffer": 1,
      "byteOffset": 194420,
      "byteLength": 2072,
      "target": 34962,
      "byteStride": 8,
      "extensions": {
        "EXT_meshopt_compression": {
          "buffer": 0,
          "byteOffset": 107252,
          "byteLength": 1615,
          "mode": "ATTRIBUTES",
          "byteStride": 8,
          "count": 259
        }
      }
    },
    {
      "buffer": 1,
      "byteOffset": 196492,
      "byteLength": 2072,
      "target": 34962,
      "byteStride": 8,
      "extensions": {
        "EXT_meshopt_compression": {
          "buffer": 0,
          "byteOffset": 108868,
          "byteLength": 1648,
          "mode": "ATTRIBUTES",
          "byteStride": 8,
          "count": 259
        }
      }
    },
    {
      "buffer": 1,
      "byteOffset": 198564,
      "byteLength": 1036,
      "target": 34962,
      "byteStride": 4,
      "extensions": {
        "EXT_meshopt_compression": {
          "buffer": 0,
          "byteOffset": 110516,
          "byteLength": 53,
          "mode": "ATTRIBUTES",
          "byteStride": 4,
          "count": 259
        }
      }
    },
    {
      "buffer": 1,
      "byteOffset": 199600,
      "byteLength": 7192,
      "target": 34962,
      "byteStride": 8,
      "extensions": {
        "EXT_meshopt_compression": {
          "buffer": 0,
          "byteOffset": 110572,
          "byteLength": 4789,
          "mode": "ATTRIBUTES",
          "byteStride": 8,
          "count": 899
        }
      }
    },
    {
      "buffer": 1,
      "byteOffset": 206792,
      "byteLength": 7192,
      "target": 34962,
      "byteStride": 8,
      "extensions": {
        "EXT_meshopt_compression": {
          "buffer": 0,
          "byteOffset": 115364,
          "byteLength": 4525,
          "mode": "ATTRIBUTES",
          "byteStride": 8,
          "count": 899
        }
      }
    },
    {
      "buffer": 1,
      "byteOffset": 213984,
      "byteLength": 3596,
      "target": 34962,
      "byteStride": 4,
      "extensions": {
        "EXT_meshopt_compression": {
          "buffer": 0,
          "byteOffset": 119892,
          "byteLength": 1093,
          "mode": "ATTRIBUTES",
          "byteStride": 4,
          "count": 899
        }
      }
    },
    {
      "buffer": 1,
      "byteOffset": 217580,
      "byteLength": 1912,
      "target": 34962,
      "byteStride": 8,
      "extensions": {
        "EXT_meshopt_compression": {
          "buffer": 0,
          "byteOffset": 120988,
          "byteLength": 1247,
          "mode": "ATTRIBUTES",
          "byteStride": 8,
          "count": 239
        }
      }
    },
    {
      "buffer": 1,
      "byteOffset": 219492,
      "byteLength": 1912,
      "target": 34962,
      "byteStride": 8,
      "extensions": {
        "EXT_meshopt_compression": {
          "buffer": 0,
          "byteOffset": 122236,
          "byteLength": 1490,
          "mode": "ATTRIBUTES",
          "byteStride": 8,
          "count": 239
        }
      }
    },
    {
      "buffer": 1,
      "byteOffset": 221404,
      "byteLength": 956,
      "target": 34962,
      "byteStride": 4,
      "extensions": {
        "EXT_meshopt_compression": {
          "buffer": 0,
          "byteOffset": 123728,
          "byteLength": 49,
          "mode": "ATTRIBUTES",
          "byteStride": 4,
          "count": 239
        }
      }
    },
    {
      "buffer": 1,
      "byteOffset": 222360,
      "byteLength": 304,
      "target": 34962,
      "byteStride": 8,
      "extensions": {
        "EXT_meshopt_compression": {
          "buffer": 0,
          "byteOffset": 123780,
          "byteLength": 270,
          "mode": "ATTRIBUTES",
          "byteStride": 8,
          "count": 38
        }
      }
    },
    {
      "buffer": 1,
      "byteOffset": 222664,
      "byteLength": 304,
      "target": 34962,
      "byteStride": 8,
      "extensions": {
        "EXT_meshopt_compression": {
          "buffer": 0,
          "byteOffset": 124052,
          "byteLength": 233,
          "mode": "ATTRIBUTES",
          "byteStride": 8,
          "count": 38
        }
      }
    },
    {
      "buffer": 1,
      "byteOffset": 222968,
      "byteLength": 152,
      "target": 34962,
      "byteStride": 4,
      "extensions": {
        "EXT_meshopt_compression": {
          "buffer": 0,
          "byteOffset": 124288,
          "byteLength": 152,
          "mode": "ATTRIBUTES",
          "byteStride": 4,
          "count": 38
        }
      }
    },
    {
      "buffer": 1,
      "byteOffset": 223120,
      "byteLength": 304,
      "target": 34962,
      "byteStride": 8,
      "extensions": {
        "EXT_meshopt_compression": {
          "buffer": 0,
          "byteOffset": 124440,
          "byteLength": 261,
          "mode": "ATTRIBUTES",
          "byteStride": 8,
          "count": 38
        }
      }
    },
    {
      "buffer": 1,
      "byteOffset": 223424,
      "byteLength": 304,
      "target": 34962,
      "byteStride": 8,
      "extensions": {
        "EXT_meshopt_compression": {
          "buffer": 0,
          "byteOffset": 124704,
          "byteLength": 138,
          "mode": "ATTRIBUTES",
          "byteStride": 8,
          "count": 38
        }
      }
    },
    {
      "buffer": 1,
      "byteOffset": 223728,
      "byteLength": 7168,
      "target": 34962,
      "byteStride": 8,
      "extensions": {
        "EXT_meshopt_compression": {
          "buffer": 0,
          "byteOffset": 124844,
          "byteLength": 4972,
          "mode": "ATTRIBUTES",
          "byteStride": 8,
          "count": 896
        }
      }
    },
    {
      "buffer": 1,
      "byteOffset": 230896,
      "byteLength": 7168,
      "target": 34962,
      "byteStride": 8,
      "extensions": {
        "EXT_meshopt_compression": {
          "buffer": 0,
          "byteOffset": 129816,
          "byteLength": 4762,
          "mode": "ATTRIBUTES",
          "byteStride": 8,
          "count": 896
        }
      }
    },
    {
      "buffer": 1,
      "byteOffset": 238064,
      "byteLength": 1152,
      "target": 34962,
      "byteStride": 8,
      "extensions": {
        "EXT_meshopt_compression": {
          "buffer": 0,
          "byteOffset": 134580,
          "byteLength": 719,
          "mode": "ATTRIBUTES",
          "byteStride": 8,
          "count": 144
        }
      }
    },
    {
      "buffer": 1,
      "byteOffset": 239216,
      "byteLength": 1152,
      "target": 34962,
      "byteStride": 8,
      "extensions": {
        "EXT_meshopt_compression": {
          "buffer": 0,
          "byteOffset": 135300,
          "byteLength": 919,
          "mode": "ATTRIBUTES",
          "byteStride": 8,
          "count": 144
        }
      }
    },
    {
      "buffer": 1,
      "byteOffset": 240368,
      "byteLength": 1152,
      "target": 34962,
      "byteStride": 8,
      "extensions": {
        "EXT_meshopt_compression": {
          "buffer": 0,
          "byteOffset": 136220,
          "byteLength": 722,
          "mode": "ATTRIBUTES",
          "byteStride": 8,
          "count": 144
        }
      }
    },
    {
      "buffer": 1,
      "byteOffset": 241520,
      "byteLength": 1152,
      "target": 34962,
      "byteStride": 8,
      "extensions": {
        "EXT_meshopt_compression": {
          "buffer": 0,
          "byteOffset": 136944,
          "byteLength": 917,
          "mode": "ATTRIBUTES",
          "byteStride": 8,
          "count": 144
        }
      }
    },
    {
      "buffer": 1,
      "byteOffset": 242672,
      "byteLength": 304,
      "target": 34962,
      "byteStride": 8,
      "extensions": {
        "EXT_meshopt_compression": {
          "buffer": 0,
          "byteOffset": 137864,
          "byteLength": 290,
          "mode": "ATTRIBUTES",
          "byteStride": 8,
          "count": 38
        }
      }
    },
    {
      "buffer": 1,
      "byteOffset": 242976,
      "byteLength": 304,
      "target": 34962,
      "byteStride": 8,
      "extensions": {
        "EXT_meshopt_compression": {
          "buffer": 0,
          "byteOffset": 138156,
          "byteLength": 159,
          "mode": "ATTRIBUTES",
          "byteStride": 8,
          "count": 38
        }
      }
    },
    {
      "buffer": 1,
      "byteOffset": 243280,
      "byteLength": 7168,
      "target": 34962,
      "byteStride": 8,
      "extensions": {
        "EXT_meshopt_compression": {
          "buffer": 0,
          "byteOffset": 138316,
          "byteLength": 4898,
          "mode": "ATTRIBUTES",
          "byteStride": 8,
          "count": 896
        }
      }
    },
    {
      "buffer": 1,
      "byteOffset": 250448,
      "byteLength": 7168,
      "target": 34962,
      "byteStride": 8,
      "extensions": {
        "EXT_meshopt_compression": {
          "buffer": 0,
          "byteOffset": 143216,
          "byteLength": 4751,
          "mode": "ATTRIBUTES",
          "byteStride": 8,
          "count": 896
        }
      }
    },
    {
      "buffer": 1,
      "byteOffset": 257616,
      "byteLength": 784,
      "target": 34962,
      "byteStride": 8,
      "extensions": {
        "EXT_meshopt_compression": {
          "buffer": 0,
          "byteOffset": 147968,
          "byteLength": 661,
          "mode": "ATTRIBUTES",
          "byteStride": 8,
          "count": 98
        }
      }
    },
    {
      "buffer": 1,
      "byteOffset": 258400,
      "byteLength": 784,
      "target": 34962,
      "byteStride": 8,
      "extensions": {
        "EXT_meshopt_compression": {
          "buffer": 0,
          "byteOffset": 148632,
          "byteLength": 661,
          "mode": "ATTRIBUTES",
          "byteStride": 8,
          "count": 98
        }
      }
    },
    {
      "buffer": 1,
      "byteOffset": 259184,
      "byteLength": 2712,
      "target": 34962,
      "byteStride": 8,
      "extensions": {
        "EXT_meshopt_compression": {
          "buffer": 0,
          "byteOffset": 149296,
          "byteLength": 1837,
          "mode": "ATTRIBUTES",
          "byteStride": 8,
          "count": 339
        }
      }
    },
    {
      "buffer": 1,
      "byteOffset": 261896,
      "byteLength": 2712,
      "target": 34962,
      "byteStride": 8,
      "extensions": {
        "EXT_meshopt_compression": {
          "buffer": 0,
          "byteOffset": 151136,
          "byteLength": 2139,
          "mode": "ATTRIBUTES",
          "byteStride": 8,
          "count": 339
        }
      }
    },
    {
      "buffer": 1,
      "byteOffset": 264608,
      "byteLength": 1356,
      "target": 34962,
      "byteStride": 4,
      "extensions": {
        "EXT_meshopt_compression": {
          "buffer": 0,
          "byteOffset": 153276,
          "byteLength": 57,
          "mode": "ATTRIBUTES",
          "byteStride": 4,
          "count": 339
        }
      }
    },
    {
      "buffer": 1,
      "byteOffset": 265964,
      "byteLength": 42984,
      "target": 34962,
      "byteStride": 8,
      "extensions": {
        "EXT_meshopt_compression": {
          "buffer": 0,
          "byteOffset": 153336,
          "byteLength": 27635,
          "mode": "ATTRIBUTES",
          "byteStride": 8,
          "count": 5373
        }
      }
    },
    {
      "buffer": 1,
      "byteOffset": 308948,
      "byteLength": 42984,
      "target": 34962,
      "byteStride": 8,
      "extensions": {
        "EXT_meshopt_compression": {
          "buffer": 0,
          "byteOffset": 180972,
          "byteLength": 25756,
          "mode": "ATTRIBUTES",
          "byteStride": 8,
          "count": 5373
        }
      }
    },
    {
      "buffer": 1,
      "byteOffset": 351932,
      "byteLength": 21492,
      "target": 34962,
      "byteStride": 4,
      "extensions": {
        "EXT_meshopt_compression": {
          "buffer": 0,
          "byteOffset": 206728,
          "byteLength": 6481,
          "mode": "ATTRIBUTES",
          "byteStride": 4,
          "count": 5373
        }
      }
    },
    {
      "buffer": 1,
      "byteOffset": 373424,
      "byteLength": 3768,
      "target": 34962,
      "byteStride": 8,
      "extensions": {
        "EXT_meshopt_compression": {
          "buffer": 0,
          "byteOffset": 213212,
          "byteLength": 2560,
          "mode": "ATTRIBUTES",
          "byteStride": 8,
          "count": 471
        }
      }
    },
    {
      "buffer": 1,
      "byteOffset": 377192,
      "byteLength": 3768,
      "target": 34962,
      "byteStride": 8,
      "extensions": {
        "EXT_meshopt_compression": {
          "buffer": 0,
          "byteOffset": 215772,
          "byteLength": 1895,
          "mode": "ATTRIBUTES",
          "byteStride": 8,
          "count": 471
        }
      }
    },
    {
      "buffer": 1,
      "byteOffset": 380960,
      "byteLength": 1884,
      "target": 34962,
      "byteStride": 4,
      "extensions": {
        "EXT_meshopt_compression": {
          "buffer": 0,
          "byteOffset": 217668,
          "byteLength": 65,
          "mode": "ATTRIBUTES",
          "byteStride": 4,
          "count": 471
        }
      }
    },
    {
      "buffer": 1,
      "byteOffset": 382844,
      "byteLength": 6120,
      "target": 34962,
      "byteStride": 8,
      "extensions": {
        "EXT_meshopt_compression": {
          "buffer": 0,
          "byteOffset": 217736,
          "byteLength": 4343,
          "mode": "ATTRIBUTES",
          "byteStride": 8,
          "count": 765
        }
      }
    },
    {
      "buffer": 1,
      "byteOffset": 388964,
      "byteLength": 6120,
      "target": 34962,
      "byteStride": 8,
      "extensions": {
        "EXT_meshopt_compression": {
          "buffer": 0,
          "byteOffset": 222080,
          "byteLength": 4737,
          "mode": "ATTRIBUTES",
          "byteStride": 8,
          "count": 765
        }
      }
    },
    {
      "buffer": 1,
      "byteOffset": 395084,
      "byteLength": 3060,
      "target": 34962,
      "byteStride": 4,
      "extensions": {
        "EXT_meshopt_compression": {
          "buffer": 0,
          "byteOffset": 226820,
          "byteLength": 81,
          "mode": "ATTRIBUTES",
          "byteStride": 4,
          "count": 765
        }
      }
    }
  ],
  "samplers": [
    {
      "magFilter": 9729,
      "minFilter": 9987,
      "wrapS": 10497,
      "wrapT": 10497
    }
  ],
  "textures": [
    {
      "sampler": 0,
      "extensions": {
        "EXT_texture_webp": {
          "source": 1
        }
      }
    },
    {
      "sampler": 0,
      "extensions": {
        "EXT_texture_webp": {
          "source": 0
        }
      }
    },
    {
      "sampler": 0,
      "extensions": {
        "EXT_texture_webp": {
          "source": 2
        }
      }
    },
    {
      "sampler": 0,
      "extensions": {
        "EXT_texture_webp": {
          "source": 4
        }
      }
    },
    {
      "sampler": 0,
      "extensions": {
        "EXT_texture_webp": {
          "source": 3
        }
      }
    },
    {
      "sampler": 0,
      "extensions": {
        "EXT_texture_webp": {
          "source": 5
        }
      }
    },
    {
      "sampler": 0,
      "extensions": {
        "EXT_texture_webp": {
          "source": 7
        }
      }
    },
    {
      "sampler": 0,
      "extensions": {
        "EXT_texture_webp": {
          "source": 6
        }
      }
    },
    {
      "sampler": 0,
      "extensions": {
        "EXT_texture_webp": {
          "source": 8
        }
      }
    },
    {
      "sampler": 0,
      "extensions": {
        "EXT_texture_webp": {
          "source": 10
        }
      }
    },
    {
      "sampler": 0,
      "extensions": {
        "EXT_texture_webp": {
          "source": 9
        }
      }
    },
    {
      "sampler": 0,
      "extensions": {
        "EXT_texture_webp": {
          "source": 11
        }
      }
    }
  ],
  "images": [
    {
      "name": "Forged iron normal",
      "mimeType": "image/webp",
      "uri": "textures/surface-fb516ec6c866d7b9.webp"
    },
    {
      "name": "Forged iron color",
      "mimeType": "image/webp",
      "uri": "textures/surface-25be23cebf724530.webp"
    },
    {
      "name": "Forged iron roughness metalness",
      "mimeType": "image/webp",
      "uri": "textures/surface-6fb9fef78a463bef.webp"
    },
    {
      "name": "Weathered stone normal",
      "mimeType": "image/webp",
      "uri": "textures/surface-4853a2902092cc7c.webp"
    },
    {
      "name": "Weathered stone color",
      "mimeType": "image/webp",
      "uri": "textures/surface-eb11894954d89b5d.webp"
    },
    {
      "name": "Weathered stone roughness metalness",
      "mimeType": "image/webp",
      "uri": "textures/surface-74120f0f7fbce6d0.webp"
    },
    {
      "name": "Dark leather normal",
      "mimeType": "image/webp",
      "uri": "textures/surface-0bba31db93ee7930.webp"
    },
    {
      "name": "Dark leather color",
      "mimeType": "image/webp",
      "uri": "textures/surface-15c7f5964deff57a.webp"
    },
    {
      "name": "Dark leather roughness metalness",
      "mimeType": "image/webp",
      "uri": "textures/surface-ac0465c35b5aefec.webp"
    },
    {
      "name": "Skin and bone normal",
      "mimeType": "image/webp",
      "uri": "textures/surface-4559974a06565aa7.webp"
    },
    {
      "name": "Skin and bone color",
      "mimeType": "image/webp",
      "uri": "textures/surface-a9f4de518b3c7cb7.webp"
    },
    {
      "name": "Skin and bone roughness metalness",
      "mimeType": "image/webp",
      "uri": "textures/surface-b996c2b2f691ba30.webp"
    }
  ],
  "buffers": [
    {
      "uri": "scorchbeast.bin",
      "byteLength": 226904
    },
    {
      "byteLength": 398144,
      "extensions": {
        "EXT_meshopt_compression": {
          "fallback": true
        }
      }
    }
  ],
  "materials": [
    {
      "name": "Material_4.013",
      "extras": {
        "riftBaseColor": [
          0.8387990117372213,
          0.019382360952473074,
          0.06301001764564068,
          1
        ]
      },
      "pbrMetallicRoughness": {
        "baseColorFactor": [
          0.838798999786377,
          0.019382361322641373,
          0.06301001459360123,
          1
        ],
        "roughnessFactor": 0.25,
        "metallicFactor": 0.25
      },
      "emissiveFactor": [
        1,
        0.023107277580895567,
        0.0751193249034017
      ],
      "extensions": {
        "KHR_materials_emissive_strength": {
          "emissiveStrength": 1.2581984996795654
        }
      }
    },
    {
      "name": "Rift · Forged iron",
      "extras": {
        "riftTextured": true
      },
      "pbrMetallicRoughness": {
        "baseColorTexture": {
          "index": 0
        },
        "metallicRoughnessTexture": {
          "index": 2
        }
      },
      "normalTexture": {
        "index": 1,
        "scale": 0.550000011920929
      }
    },
    {
      "name": "Rift · Weathered stone",
      "extras": {
        "riftTextured": true
      },
      "pbrMetallicRoughness": {
        "baseColorTexture": {
          "index": 3
        },
        "metallicRoughnessTexture": {
          "index": 5
        }
      },
      "normalTexture": {
        "index": 4,
        "scale": 0.550000011920929
      }
    },
    {
      "name": "Rift · Dark leather",
      "extras": {
        "riftTextured": true
      },
      "pbrMetallicRoughness": {
        "baseColorTexture": {
          "index": 6
        },
        "metallicRoughnessTexture": {
          "index": 8
        }
      },
      "normalTexture": {
        "index": 7,
        "scale": 0.550000011920929
      }
    },
    {
      "name": "Rift · Skin and bone",
      "extras": {
        "riftTextured": true
      },
      "pbrMetallicRoughness": {
        "baseColorTexture": {
          "index": 9
        },
        "metallicRoughnessTexture": {
          "index": 11
        }
      },
      "normalTexture": {
        "index": 10,
        "scale": 0.550000011920929
      }
    },
    {
      "name": "Material_5.013",
      "extras": {
        "riftBaseColor": [
          0.8631572134510892,
          0.02028856305209031,
          0.061246054224174035,
          1
        ]
      },
      "pbrMetallicRoughness": {
        "baseColorFactor": [
          0.8631572127342224,
          0.020288562402129173,
          0.061246052384376526,
          1
        ],
        "roughnessFactor": 0.30000001192092896,
        "metallicFactor": 0
      },
      "emissiveFactor": [
        1,
        0.023505060379280282,
        0.07095584846052257
      ],
      "extensions": {
        "KHR_materials_emissive_strength": {
          "emissiveStrength": 1.0357886964396101
        }
      }
    }
  ],
  "meshes": [
    {
      "name": "Mesh_15.013",
      "primitives": [
        {
          "attributes": {
            "POSITION": 46,
            "NORMAL": 47,
            "COLOR_0": 48
          },
          "mode": 4,
          "material": 0,
          "indices": 10
        },
        {
          "attributes": {
            "TEXCOORD_0": 12,
            "POSITION": 49,
            "NORMAL": 50,
            "COLOR_0": 51
          },
          "mode": 4,
          "material": 1,
          "indices": 11
        },
        {
          "attributes": {
            "TEXCOORD_0": 14,
            "POSITION": 52,
            "NORMAL": 53,
            "COLOR_0": 54
          },
          "mode": 4,
          "material": 2,
          "indices": 13
        },
        {
          "attributes": {
            "TEXCOORD_0": 16,
            "POSITION": 55,
            "NORMAL": 56,
            "COLOR_0": 57
          },
          "mode": 4,
          "material": 3,
          "indices": 15
        }
      ]
    },
    {
      "name": "Mesh_22.013",
      "primitives": [
        {
          "attributes": {
            "TEXCOORD_0": 18,
            "POSITION": 58,
            "NORMAL": 59,
            "COLOR_0": 60
          },
          "mode": 4,
          "material": 1,
          "indices": 17
        },
        {
          "attributes": {
            "TEXCOORD_0": 20,
            "POSITION": 61,
            "NORMAL": 62,
            "COLOR_0": 63
          },
          "mode": 4,
          "material": 2,
          "indices": 19
        },
        {
          "attributes": {
            "TEXCOORD_0": 21,
            "POSITION": 64,
            "NORMAL": 65,
            "COLOR_0": 57
          },
          "mode": 4,
          "material": 3,
          "indices": 15
        },
        {
          "attributes": {
            "POSITION": 66,
            "NORMAL": 47,
            "COLOR_0": 48
          },
          "mode": 4,
          "material": 0,
          "indices": 10
        }
      ]
    },
    {
      "name": "Mesh_6.013",
      "primitives": [
        {
          "attributes": {
            "TEXCOORD_0": 23,
            "POSITION": 67,
            "NORMAL": 68,
            "COLOR_0": 69
          },
          "mode": 4,
          "material": 3,
          "indices": 22
        },
        {
          "attributes": {
            "TEXCOORD_0": 25,
            "POSITION": 70,
            "NORMAL": 71,
            "COLOR_0": 72
          },
          "mode": 4,
          "material": 1,
          "indices": 24
        },
        {
          "attributes": {
            "POSITION": 73,
            "NORMAL": 74,
            "COLOR_0": 75
          },
          "mode": 4,
          "material": 0,
          "indices": 26
        },
        {
          "attributes": {
            "TEXCOORD_0": 28,
            "POSITION": 76,
            "NORMAL": 77,
            "COLOR_0": 78
          },
          "mode": 4,
          "material": 4,
          "indices": 27
        }
      ]
    },
    {
      "name": "Mesh_16.013",
      "primitives": [
        {
          "attributes": {
            "TEXCOORD_0": 30,
            "COLOR_0": 31,
            "POSITION": 79,
            "NORMAL": 80
          },
          "mode": 4,
          "material": 2,
          "indices": 29
        },
        {
          "attributes": {
            "TEXCOORD_0": 33,
            "COLOR_0": 34,
            "POSITION": 81,
            "NORMAL": 82
          },
          "mode": 4,
          "material": 1,
          "indices": 32
        },
        {
          "attributes": {
            "TEXCOORD_0": 35,
            "COLOR_0": 36,
            "POSITION": 83,
            "NORMAL": 84
          },
          "mode": 4,
          "material": 3,
          "indices": 15
        }
      ]
    },
    {
      "name": "Mesh_28.010",
      "primitives": [
        {
          "attributes": {
            "POSITION": 85,
            "NORMAL": 86,
            "TEXCOORD_0": 35,
            "COLOR_0": 36
          },
          "mode": 4,
          "material": 3,
          "indices": 15
        },
        {
          "attributes": {
            "POSITION": 87,
            "NORMAL": 88,
            "TEXCOORD_0": 30,
            "COLOR_0": 31
          },
          "mode": 4,
          "material": 2,
          "indices": 29
        },
        {
          "attributes": {
            "POSITION": 89,
            "NORMAL": 90,
            "TEXCOORD_0": 33,
            "COLOR_0": 34
          },
          "mode": 4,
          "material": 1,
          "indices": 32
        }
      ]
    },
    {
      "name": "Mesh_0.013",
      "primitives": [
        {
          "attributes": {
            "TEXCOORD_0": 38,
            "COLOR_0": 39,
            "POSITION": 91,
            "NORMAL": 92
          },
          "mode": 4,
          "material": 2,
          "indices": 37
        }
      ]
    },
    {
      "name": "Mesh_3.013",
      "primitives": [
        {
          "attributes": {
            "TEXCOORD_0": 41,
            "POSITION": 93,
            "NORMAL": 94,
            "COLOR_0": 95
          },
          "mode": 4,
          "material": 3,
          "indices": 40
        },
        {
          "attributes": {
            "TEXCOORD_0": 43,
            "POSITION": 96,
            "NORMAL": 97,
            "COLOR_0": 98
          },
          "mode": 4,
          "material": 1,
          "indices": 42
        },
        {
          "attributes": {
            "POSITION": 99,
            "NORMAL": 100,
            "COLOR_0": 101
          },
          "mode": 4,
          "material": 0,
          "indices": 44
        },
        {
          "attributes": {
            "POSITION": 102,
            "NORMAL": 103,
            "COLOR_0": 104
          },
          "mode": 4,
          "material": 5,
          "indices": 45
        }
      ]
    }
  ],
  "nodes": [
    {
      "name": "scorchbeast__Mesh_15",
      "extras": {
        "riftTextured": true
      },
      "translation": [
        -0.2050827443599701,
        -0.6599999964237213,
        0.04507055878639221
      ],
      "scale": [
        1.3599999845027924,
        1.3599999845027924,
        1.3599999845027924
      ],
      "mesh": 0
    },
    {
      "name": "scorchbeast__arm_l",
      "translation": [
        -0.8700000047683716,
        2.8299999237060547,
        0
      ],
      "children": [
        0
      ]
    },
    {
      "name": "scorchbeast__Mesh_22",
      "extras": {
        "riftTextured": true
      },
      "translation": [
        0.2050827443599701,
        -0.6599999964237213,
        0.04507055878639221
      ],
      "scale": [
        1.3599999845027924,
        1.3599999845027924,
        1.3599999845027924
      ],
      "mesh": 1
    },
    {
      "name": "scorchbeast__arm_r",
      "translation": [
        0.8700000047683716,
        2.8299999237060547,
        0
      ],
      "children": [
        2
      ]
    },
    {
      "name": "scorchbeast__Mesh_6",
      "extras": {
        "riftTextured": true
      },
      "translation": [
        0,
        0.4450000077486038,
        0.08503726124763489
      ],
      "scale": [
        0.9050000160932541,
        0.9050000160932541,
        0.9050000160932541
      ],
      "mesh": 2
    },
    {
      "name": "scorchbeast__head",
      "translation": [
        0,
        3.299999952316284,
        0.07000000029802322
      ],
      "children": [
        4
      ]
    },
    {
      "name": "scorchbeast__Mesh_16",
      "extras": {
        "riftTextured": true
      },
      "translation": [
        0.02475657489493148,
        -0.7142777811427086,
        0.1657773152016101
      ],
      "rotation": [
        0.9308741718371952,
        -1.560190559099437e-10,
        0.35802853222685216,
        0.07272445474461628
      ],
      "scale": [
        0.7278785246519641,
        0.7278785165319008,
        0.7278785177330936
      ],
      "mesh": 3
    },
    {
      "name": "scorchbeast__leg_l",
      "translation": [
        -0.4300000071525574,
        1.4199999570846558,
        0
      ],
      "children": [
        6
      ]
    },
    {
      "name": "scorchbeast__Mesh_28",
      "extras": {
        "riftTextured": true
      },
      "translation": [
        0,
        -0.6931622624397278,
        0.19158388674259186
      ],
      "scale": [
        0.7364885210990906,
        0.7364885210990906,
        0.7364885210990906
      ],
      "mesh": 4
    },
    {
      "name": "scorchbeast__leg_r",
      "translation": [
        0.4300000071525574,
        1.4199999570846558,
        0
      ],
      "children": [
        8
      ]
    },
    {
      "name": "scorchbeast__body",
      "extras": {
        "riftTextured": true
      },
      "scale": [
        0.8997129798011514,
        0.9996811151504517,
        0.549824625249876
      ],
      "mesh": 5
    },
    {
      "name": "scorchbeast__Mesh_3",
      "extras": {
        "riftTextured": true
      },
      "translation": [
        0.00011706352233886719,
        0.5541675686836243,
        0.21394655853509903
      ],
      "scale": [
        1.0683231949806213,
        1.0683231949806213,
        1.0683231949806213
      ],
      "mesh": 6
    },
    {
      "name": "scorchbeast__torso",
      "translation": [
        0,
        2.0999999046325684,
        0
      ],
      "children": [
        10,
        11
      ]
    },
    {
      "name": "scorchbeast",
      "extras": {
        "asset": "scorchbeast",
        "category": "Creatures",
        "referencePass": 2,
        "riftAsset": "scorchbeast",
        "title": "SCORCHBEAST",
        "authoring": "Blender 4.5 · UV/PBR surfaces · rigid articulated animation"
      },
      "children": [
        1,
        3,
        5,
        7,
        9,
        12
      ]
    }
  ],
  "animations": [
    {
      "name": "Attack",
      "samplers": [
        {
          "input": 0,
          "output": 1,
          "interpolation": "LINEAR"
        },
        {
          "input": 0,
          "output": 2,
          "interpolation": "LINEAR"
        },
        {
          "input": 0,
          "output": 3,
          "interpolation": "LINEAR"
        }
      ],
      "channels": [
        {
          "sampler": 0,
          "target": {
            "node": 1,
            "path": "rotation"
          }
        },
        {
          "sampler": 1,
          "target": {
            "node": 3,
            "path": "rotation"
          }
        },
        {
          "sampler": 2,
          "target": {
            "node": 12,
            "path": "rotation"
          }
        }
      ]
    },
    {
      "name": "Walk",
      "samplers": [
        {
          "input": 0,
          "output": 4,
          "interpolation": "LINEAR"
        },
        {
          "input": 0,
          "output": 5,
          "interpolation": "LINEAR"
        },
        {
          "input": 0,
          "output": 6,
          "interpolation": "LINEAR"
        },
        {
          "input": 0,
          "output": 7,
          "interpolation": "LINEAR"
        }
      ],
      "channels": [
        {
          "sampler": 0,
          "target": {
            "node": 1,
            "path": "rotation"
          }
        },
        {
          "sampler": 1,
          "target": {
            "node": 3,
            "path": "rotation"
          }
        },
        {
          "sampler": 2,
          "target": {
            "node": 7,
            "path": "rotation"
          }
        },
        {
          "sampler": 3,
          "target": {
            "node": 9,
            "path": "rotation"
          }
        }
      ]
    },
    {
      "name": "Idle",
      "samplers": [
        {
          "input": 8,
          "output": 9,
          "interpolation": "LINEAR"
        }
      ],
      "channels": [
        {
          "sampler": 0,
          "target": {
            "node": 12,
            "path": "rotation"
          }
        }
      ]
    }
  ],
  "scenes": [
    {
      "name": "Scene",
      "nodes": [
        13
      ]
    }
  ],
  "scene": 0,
  "extensionsUsed": [
    "EXT_meshopt_compression",
    "EXT_texture_webp",
    "KHR_materials_emissive_strength",
    "KHR_mesh_quantization"
  ],
  "extensionsRequired": [
    "EXT_meshopt_compression",
    "EXT_texture_webp",
    "KHR_mesh_quantization"
  ]
}