{
  "asset": {
    "generator": "glTF-Transform v4.5.0",
    "version": "2.0"
  },
  "accessors": [
    {
      "type": "SCALAR",
      "componentType": 5126,
      "count": 25,
      "max": [
        1.0416666269302368
      ],
      "min": [
        0.0416666679084301
      ],
      "normalized": false,
      "byteOffset": 0,
      "bufferView": 0
    },
    {
      "type": "VEC4",
      "componentType": 5126,
      "count": 25,
      "normalized": false,
      "byteOffset": 0,
      "bufferView": 1
    },
    {
      "type": "VEC4",
      "componentType": 5126,
      "count": 25,
      "normalized": false,
      "byteOffset": 400,
      "bufferView": 1
    },
    {
      "type": "VEC4",
      "componentType": 5126,
      "count": 25,
      "normalized": false,
      "byteOffset": 800,
      "bufferView": 1
    },
    {
      "type": "SCALAR",
      "componentType": 5126,
      "count": 49,
      "max": [
        2.0416667461395264
      ],
      "min": [
        0.0416666679084301
      ],
      "normalized": false,
      "byteOffset": 100,
      "bufferView": 0
    },
    {
      "type": "VEC4",
      "componentType": 5126,
      "count": 49,
      "normalized": false,
      "byteOffset": 1200,
      "bufferView": 1
    },
    {
      "type": "SCALAR",
      "componentType": 5123,
      "count": 72,
      "normalized": false,
      "byteOffset": 0,
      "bufferView": 2
    },
    {
      "type": "VEC2",
      "componentType": 5126,
      "count": 38,
      "normalized": false,
      "byteOffset": 0,
      "bufferView": 3
    },
    {
      "type": "SCALAR",
      "componentType": 5123,
      "count": 912,
      "normalized": false,
      "byteOffset": 144,
      "bufferView": 2
    },
    {
      "type": "VEC2",
      "componentType": 5126,
      "count": 259,
      "normalized": false,
      "byteOffset": 0,
      "bufferView": 4
    },
    {
      "type": "SCALAR",
      "componentType": 5123,
      "count": 1842,
      "normalized": false,
      "byteOffset": 1968,
      "bufferView": 2
    },
    {
      "type": "VEC2",
      "componentType": 5126,
      "count": 899,
      "normalized": false,
      "byteOffset": 0,
      "bufferView": 5
    },
    {
      "type": "SCALAR",
      "componentType": 5123,
      "count": 738,
      "normalized": false,
      "byteOffset": 5652,
      "bufferView": 2
    },
    {
      "type": "SCALAR",
      "componentType": 5123,
      "count": 96,
      "normalized": false,
      "byteOffset": 7128,
      "bufferView": 2
    },
    {
      "type": "VEC2",
      "componentType": 5126,
      "count": 38,
      "normalized": false,
      "byteOffset": 0,
      "bufferView": 6
    },
    {
      "type": "VEC4",
      "componentType": 5121,
      "count": 38,
      "normalized": true,
      "byteOffset": 0,
      "bufferView": 7
    },
    {
      "type": "SCALAR",
      "componentType": 5123,
      "count": 390,
      "normalized": false,
      "byteOffset": 7320,
      "bufferView": 2
    },
    {
      "type": "VEC2",
      "componentType": 5126,
      "count": 132,
      "normalized": false,
      "byteOffset": 0,
      "bufferView": 8
    },
    {
      "type": "VEC4",
      "componentType": 5121,
      "count": 132,
      "normalized": true,
      "byteOffset": 0,
      "bufferView": 9
    },
    {
      "type": "SCALAR",
      "componentType": 5123,
      "count": 108,
      "normalized": false,
      "byteOffset": 8100,
      "bufferView": 2
    },
    {
      "type": "VEC2",
      "componentType": 5126,
      "count": 61,
      "normalized": false,
      "byteOffset": 0,
      "bufferView": 10
    },
    {
      "type": "VEC4",
      "componentType": 5121,
      "count": 61,
      "normalized": true,
      "byteOffset": 0,
      "bufferView": 11
    },
    {
      "type": "SCALAR",
      "componentType": 5123,
      "count": 108,
      "normalized": false,
      "byteOffset": 8316,
      "bufferView": 2
    },
    {
      "type": "VEC2",
      "componentType": 5126,
      "count": 61,
      "normalized": false,
      "byteOffset": 0,
      "bufferView": 12
    },
    {
      "type": "SCALAR",
      "componentType": 5123,
      "count": 390,
      "normalized": false,
      "byteOffset": 8532,
      "bufferView": 2
    },
    {
      "type": "VEC2",
      "componentType": 5126,
      "count": 132,
      "normalized": false,
      "byteOffset": 0,
      "bufferView": 13
    },
    {
      "type": "SCALAR",
      "componentType": 5123,
      "count": 354,
      "normalized": false,
      "byteOffset": 9312,
      "bufferView": 2
    },
    {
      "type": "VEC2",
      "componentType": 5126,
      "count": 98,
      "normalized": false,
      "byteOffset": 0,
      "bufferView": 14
    },
    {
      "type": "VEC4",
      "componentType": 5121,
      "count": 98,
      "normalized": true,
      "byteOffset": 0,
      "bufferView": 15
    },
    {
      "type": "SCALAR",
      "componentType": 5123,
      "count": 15960,
      "normalized": false,
      "byteOffset": 10020,
      "bufferView": 2
    },
    {
      "type": "VEC2",
      "componentType": 5126,
      "count": 5876,
      "normalized": false,
      "byteOffset": 0,
      "bufferView": 16
    },
    {
      "type": "SCALAR",
      "componentType": 5123,
      "count": 1170,
      "normalized": false,
      "byteOffset": 41940,
      "bufferView": 2
    },
    {
      "type": "VEC2",
      "componentType": 5126,
      "count": 339,
      "normalized": false,
      "byteOffset": 0,
      "bufferView": 17
    },
    {
      "type": "SCALAR",
      "componentType": 5123,
      "count": 468,
      "normalized": false,
      "byteOffset": 44280,
      "bufferView": 2
    },
    {
      "type": "SCALAR",
      "componentType": 5123,
      "count": 2319,
      "normalized": false,
      "byteOffset": 45216,
      "bufferView": 2
    },
    {
      "type": "VEC2",
      "componentType": 5126,
      "count": 1949,
      "normalized": false,
      "byteOffset": 0,
      "bufferView": 18
    },
    {
      "type": "SCALAR",
      "componentType": 5123,
      "count": 192,
      "normalized": false,
      "byteOffset": 49854,
      "bufferView": 2
    },
    {
      "type": "VEC3",
      "componentType": 5122,
      "count": 38,
      "max": [
        9227,
        -22493,
        13214
      ],
      "min": [
        -9227,
        -32767,
        8971
      ],
      "normalized": true,
      "byteOffset": 0,
      "bufferView": 19
    },
    {
      "type": "VEC3",
      "componentType": 5122,
      "count": 38,
      "normalized": true,
      "byteOffset": 0,
      "bufferView": 20
    },
    {
      "type": "VEC3",
      "componentType": 5121,
      "count": 38,
      "normalized": true,
      "byteOffset": 0,
      "bufferView": 21
    },
    {
      "type": "VEC3",
      "componentType": 5122,
      "count": 259,
      "max": [
        17374,
        543,
        19005
      ],
      "min": [
        -17374,
        -32767,
        -19005
      ],
      "normalized": true,
      "byteOffset": 0,
      "bufferView": 22
    },
    {
      "type": "VEC3",
      "componentType": 5122,
      "count": 259,
      "normalized": true,
      "byteOffset": 0,
      "bufferView": 23
    },
    {
      "type": "VEC3",
      "componentType": 5121,
      "count": 259,
      "normalized": true,
      "byteOffset": 0,
      "bufferView": 24
    },
    {
      "type": "VEC3",
      "componentType": 5122,
      "count": 899,
      "max": [
        26069,
        18284,
        14861
      ],
      "min": [
        -26069,
        -23146,
        -11769
      ],
      "normalized": true,
      "byteOffset": 0,
      "bufferView": 25
    },
    {
      "type": "VEC3",
      "componentType": 5122,
      "count": 899,
      "normalized": true,
      "byteOffset": 0,
      "bufferView": 26
    },
    {
      "type": "VEC3",
      "componentType": 5121,
      "count": 899,
      "normalized": true,
      "byteOffset": 0,
      "bufferView": 27
    },
    {
      "type": "VEC3",
      "componentType": 5122,
      "count": 239,
      "max": [
        28663,
        32767,
        13754
      ],
      "min": [
        -28663,
        -15204,
        -14913
      ],
      "normalized": true,
      "byteOffset": 0,
      "bufferView": 28
    },
    {
      "type": "VEC3",
      "componentType": 5122,
      "count": 239,
      "normalized": true,
      "byteOffset": 0,
      "bufferView": 29
    },
    {
      "type": "VEC3",
      "componentType": 5121,
      "count": 239,
      "normalized": true,
      "byteOffset": 0,
      "bufferView": 30
    },
    {
      "type": "VEC3",
      "componentType": 5122,
      "count": 38,
      "max": [
        15812,
        18702,
        15746
      ],
      "min": [
        -6165,
        1423,
        -6231
      ],
      "normalized": true,
      "byteOffset": 0,
      "bufferView": 31
    },
    {
      "type": "VEC3",
      "componentType": 5122,
      "count": 38,
      "normalized": true,
      "byteOffset": 0,
      "bufferView": 32
    },
    {
      "type": "VEC3",
      "componentType": 5122,
      "count": 132,
      "max": [
        21590,
        32767,
        17316
      ],
      "min": [
        -14729,
        -32767,
        -17316
      ],
      "normalized": true,
      "byteOffset": 0,
      "bufferView": 33
    },
    {
      "type": "VEC3",
      "componentType": 5122,
      "count": 132,
      "normalized": true,
      "byteOffset": 0,
      "bufferView": 34
    },
    {
      "type": "VEC3",
      "componentType": 5122,
      "count": 61,
      "max": [
        -2341,
        30966,
        8492
      ],
      "min": [
        -21590,
        18931,
        -11785
      ],
      "normalized": true,
      "byteOffset": 0,
      "bufferView": 35
    },
    {
      "type": "VEC3",
      "componentType": 5122,
      "count": 61,
      "normalized": true,
      "byteOffset": 0,
      "bufferView": 36
    },
    {
      "type": "VEC3",
      "componentType": 5122,
      "count": 61,
      "max": [
        11956,
        -17489,
        26051
      ],
      "min": [
        -9037,
        -24775,
        11897
      ],
      "normalized": true,
      "byteOffset": 0,
      "bufferView": 37
    },
    {
      "type": "VEC3",
      "componentType": 5122,
      "count": 61,
      "normalized": true,
      "byteOffset": 0,
      "bufferView": 38
    },
    {
      "type": "VEC3",
      "componentType": 5122,
      "count": 38,
      "max": [
        12383,
        -533,
        8405
      ],
      "min": [
        -9293,
        -23543,
        -14335
      ],
      "normalized": true,
      "byteOffset": 0,
      "bufferView": 39
    },
    {
      "type": "VEC3",
      "componentType": 5122,
      "count": 38,
      "normalized": true,
      "byteOffset": 0,
      "bufferView": 40
    },
    {
      "type": "VEC3",
      "componentType": 5122,
      "count": 132,
      "max": [
        16326,
        32767,
        20326
      ],
      "min": [
        -16326,
        -32767,
        -26051
      ],
      "normalized": true,
      "byteOffset": 0,
      "bufferView": 41
    },
    {
      "type": "VEC3",
      "componentType": 5122,
      "count": 132,
      "normalized": true,
      "byteOffset": 0,
      "bufferView": 42
    },
    {
      "type": "VEC3",
      "componentType": 5122,
      "count": 98,
      "max": [
        32767,
        32725,
        32767
      ],
      "min": [
        -32767,
        -32725,
        -32767
      ],
      "normalized": true,
      "byteOffset": 0,
      "bufferView": 43
    },
    {
      "type": "VEC3",
      "componentType": 5122,
      "count": 98,
      "normalized": true,
      "byteOffset": 0,
      "bufferView": 44
    },
    {
      "type": "VEC3",
      "componentType": 5122,
      "count": 5876,
      "max": [
        23862,
        9698,
        28655
      ],
      "min": [
        -22000,
        -24667,
        -31752
      ],
      "normalized": true,
      "byteOffset": 0,
      "bufferView": 45
    },
    {
      "type": "VEC3",
      "componentType": 5122,
      "count": 5876,
      "normalized": true,
      "byteOffset": 0,
      "bufferView": 46
    },
    {
      "type": "VEC3",
      "componentType": 5121,
      "count": 5876,
      "normalized": true,
      "byteOffset": 0,
      "bufferView": 47
    },
    {
      "type": "VEC3",
      "componentType": 5122,
      "count": 339,
      "max": [
        20041,
        6910,
        26696
      ],
      "min": [
        -18180,
        -20251,
        25025
      ],
      "normalized": true,
      "byteOffset": 0,
      "bufferView": 48
    },
    {
      "type": "VEC3",
      "componentType": 5122,
      "count": 339,
      "normalized": true,
      "byteOffset": 0,
      "bufferView": 49
    },
    {
      "type": "VEC3",
      "componentType": 5121,
      "count": 339,
      "normalized": true,
      "byteOffset": 0,
      "bufferView": 50
    },
    {
      "type": "VEC3",
      "componentType": 5122,
      "count": 436,
      "max": [
        15614,
        14878,
        27734
      ],
      "min": [
        -13753,
        -19673,
        -6303
      ],
      "normalized": true,
      "byteOffset": 0,
      "bufferView": 51
    },
    {
      "type": "VEC3",
      "componentType": 5122,
      "count": 436,
      "normalized": true,
      "byteOffset": 0,
      "bufferView": 52
    },
    {
      "type": "VEC3",
      "componentType": 5121,
      "count": 436,
      "normalized": true,
      "byteOffset": 0,
      "bufferView": 53
    },
    {
      "type": "VEC3",
      "componentType": 5122,
      "count": 1949,
      "max": [
        27329,
        24667,
        32767
      ],
      "min": [
        -27329,
        -6558,
        -32767
      ],
      "normalized": true,
      "byteOffset": 0,
      "bufferView": 54
    },
    {
      "type": "VEC3",
      "componentType": 5122,
      "count": 1949,
      "normalized": true,
      "byteOffset": 0,
      "bufferView": 55
    },
    {
      "type": "VEC3",
      "componentType": 5121,
      "count": 1949,
      "normalized": true,
      "byteOffset": 0,
      "bufferView": 56
    },
    {
      "type": "VEC3",
      "componentType": 5122,
      "count": 172,
      "max": [
        22496,
        10963,
        26280
      ],
      "min": [
        -21095,
        1453,
        -27345
      ],
      "normalized": true,
      "byteOffset": 0,
      "bufferView": 57
    },
    {
      "type": "VEC3",
      "componentType": 5122,
      "count": 172,
      "normalized": true,
      "byteOffset": 0,
      "bufferView": 58
    },
    {
      "type": "VEC3",
      "componentType": 5121,
      "count": 172,
      "normalized": true,
      "byteOffset": 0,
      "bufferView": 59
    }
  ],
  "bufferViews": [
    {
      "buffer": 1,
      "byteOffset": 0,
      "byteLength": 296,
      "extensions": {
        "EXT_meshopt_compression": {
          "buffer": 0,
          "byteOffset": 0,
          "byteLength": 279,
          "mode": "ATTRIBUTES",
          "byteStride": 4,
          "count": 74
        }
      }
    },
    {
      "buffer": 1,
      "byteOffset": 296,
      "byteLength": 1984,
      "extensions": {
        "EXT_meshopt_compression": {
          "buffer": 0,
          "byteOffset": 280,
          "byteLength": 778,
          "mode": "ATTRIBUTES",
          "byteStride": 16,
          "count": 124
        }
      }
    },
    {
      "buffer": 1,
      "byteOffset": 2280,
      "byteLength": 50238,
      "target": 34963,
      "extensions": {
        "EXT_meshopt_compression": {
          "buffer": 0,
          "byteOffset": 1060,
          "byteLength": 8761,
          "mode": "TRIANGLES",
          "byteStride": 2,
          "count": 25119
        }
      }
    },
    {
      "buffer": 1,
      "byteOffset": 52520,
      "byteLength": 304,
      "target": 34962,
      "byteStride": 8,
      "extensions": {
        "EXT_meshopt_compression": {
          "buffer": 0,
          "byteOffset": 9824,
          "byteLength": 295,
          "mode": "ATTRIBUTES",
          "byteStride": 8,
          "count": 38
        }
      }
    },
    {
      "buffer": 1,
      "byteOffset": 52824,
      "byteLength": 2072,
      "target": 34962,
      "byteStride": 8,
      "extensions": {
        "EXT_meshopt_compression": {
          "buffer": 0,
          "byteOffset": 10120,
          "byteLength": 1780,
          "mode": "ATTRIBUTES",
          "byteStride": 8,
          "count": 259
        }
      }
    },
    {
      "buffer": 1,
      "byteOffset": 54896,
      "byteLength": 7192,
      "target": 34962,
      "byteStride": 8,
      "extensions": {
        "EXT_meshopt_compression": {
          "buffer": 0,
          "byteOffset": 11900,
          "byteLength": 5746,
          "mode": "ATTRIBUTES",
          "byteStride": 8,
          "count": 899
        }
      }
    },
    {
      "buffer": 1,
      "byteOffset": 62088,
      "byteLength": 304,
      "target": 34962,
      "byteStride": 8,
      "extensions": {
        "EXT_meshopt_compression": {
          "buffer": 0,
          "byteOffset": 17648,
          "byteLength": 308,
          "mode": "ATTRIBUTES",
          "byteStride": 8,
          "count": 38
        }
      }
    },
    {
      "buffer": 1,
      "byteOffset": 62392,
      "byteLength": 152,
      "target": 34962,
      "byteStride": 4,
      "extensions": {
        "EXT_meshopt_compression": {
          "buffer": 0,
          "byteOffset": 17956,
          "byteLength": 37,
          "mode": "ATTRIBUTES",
          "byteStride": 4,
          "count": 38
        }
      }
    },
    {
      "buffer": 1,
      "byteOffset": 62544,
      "byteLength": 1056,
      "target": 34962,
      "byteStride": 8,
      "extensions": {
        "EXT_meshopt_compression": {
          "buffer": 0,
          "byteOffset": 17996,
          "byteLength": 958,
          "mode": "ATTRIBUTES",
          "byteStride": 8,
          "count": 132
        }
      }
    },
    {
      "buffer": 1,
      "byteOffset": 63600,
      "byteLength": 528,
      "target": 34962,
      "byteStride": 4,
      "extensions": {
        "EXT_meshopt_compression": {
          "buffer": 0,
          "byteOffset": 18956,
          "byteLength": 45,
          "mode": "ATTRIBUTES",
          "byteStride": 4,
          "count": 132
        }
      }
    },
    {
      "buffer": 1,
      "byteOffset": 64128,
      "byteLength": 488,
      "target": 34962,
      "byteStride": 8,
      "extensions": {
        "EXT_meshopt_compression": {
          "buffer": 0,
          "byteOffset": 19004,
          "byteLength": 451,
          "mode": "ATTRIBUTES",
          "byteStride": 8,
          "count": 61
        }
      }
    },
    {
      "buffer": 1,
      "byteOffset": 64616,
      "byteLength": 244,
      "target": 34962,
      "byteStride": 4,
      "extensions": {
        "EXT_meshopt_compression": {
          "buffer": 0,
          "byteOffset": 19456,
          "byteLength": 37,
          "mode": "ATTRIBUTES",
          "byteStride": 4,
          "count": 61
        }
      }
    },
    {
      "buffer": 1,
      "byteOffset": 64860,
      "byteLength": 488,
      "target": 34962,
      "byteStride": 8,
      "extensions": {
        "EXT_meshopt_compression": {
          "buffer": 0,
          "byteOffset": 19496,
          "byteLength": 450,
          "mode": "ATTRIBUTES",
          "byteStride": 8,
          "count": 61
        }
      }
    },
    {
      "buffer": 1,
      "byteOffset": 65348,
      "byteLength": 1056,
      "target": 34962,
      "byteStride": 8,
      "extensions": {
        "EXT_meshopt_compression": {
          "buffer": 0,
          "byteOffset": 19948,
          "byteLength": 964,
          "mode": "ATTRIBUTES",
          "byteStride": 8,
          "count": 132
        }
      }
    },
    {
      "buffer": 1,
      "byteOffset": 66404,
      "byteLength": 784,
      "target": 34962,
      "byteStride": 8,
      "extensions": {
        "EXT_meshopt_compression": {
          "buffer": 0,
          "byteOffset": 20912,
          "byteLength": 757,
          "mode": "ATTRIBUTES",
          "byteStride": 8,
          "count": 98
        }
      }
    },
    {
      "buffer": 1,
      "byteOffset": 67188,
      "byteLength": 392,
      "target": 34962,
      "byteStride": 4,
      "extensions": {
        "EXT_meshopt_compression": {
          "buffer": 0,
          "byteOffset": 21672,
          "byteLength": 41,
          "mode": "ATTRIBUTES",
          "byteStride": 4,
          "count": 98
        }
      }
    },
    {
      "buffer": 1,
      "byteOffset": 67580,
      "byteLength": 47008,
      "target": 34962,
      "byteStride": 8,
      "extensions": {
        "EXT_meshopt_compression": {
          "buffer": 0,
          "byteOffset": 21716,
          "byteLength": 37143,
          "mode": "ATTRIBUTES",
          "byteStride": 8,
          "count": 5876
        }
      }
    },
    {
      "buffer": 1,
      "byteOffset": 114588,
      "byteLength": 2712,
      "target": 34962,
      "byteStride": 8,
      "extensions": {
        "EXT_meshopt_compression": {
          "buffer": 0,
          "byteOffset": 58860,
          "byteLength": 2208,
          "mode": "ATTRIBUTES",
          "byteStride": 8,
          "count": 339
        }
      }
    },
    {
      "buffer": 1,
      "byteOffset": 117300,
      "byteLength": 15592,
      "target": 34962,
      "byteStride": 8,
      "extensions": {
        "EXT_meshopt_compression": {
          "buffer": 0,
          "byteOffset": 61068,
          "byteLength": 13630,
          "mode": "ATTRIBUTES",
          "byteStride": 8,
          "count": 1949
        }
      }
    },
    {
      "buffer": 1,
      "byteOffset": 132892,
      "byteLength": 304,
      "target": 34962,
      "byteStride": 8,
      "extensions": {
        "EXT_meshopt_compression": {
          "buffer": 0,
          "byteOffset": 74700,
          "byteLength": 270,
          "mode": "ATTRIBUTES",
          "byteStride": 8,
          "count": 38
        }
      }
    },
    {
      "buffer": 1,
      "byteOffset": 133196,
      "byteLength": 304,
      "target": 34962,
      "byteStride": 8,
      "extensions": {
        "EXT_meshopt_compression": {
          "buffer": 0,
          "byteOffset": 74972,
          "byteLength": 233,
          "mode": "ATTRIBUTES",
          "byteStride": 8,
          "count": 38
        }
      }
    },
    {
      "buffer": 1,
      "byteOffset": 133500,
      "byteLength": 152,
      "target": 34962,
      "byteStride": 4,
      "extensions": {
        "EXT_meshopt_compression": {
          "buffer": 0,
          "byteOffset": 75208,
          "byteLength": 152,
          "mode": "ATTRIBUTES",
          "byteStride": 4,
          "count": 38
        }
      }
    },
    {
      "buffer": 1,
      "byteOffset": 133652,
      "byteLength": 2072,
      "target": 34962,
      "byteStride": 8,
      "extensions": {
        "EXT_meshopt_compression": {
          "buffer": 0,
          "byteOffset": 75360,
          "byteLength": 1615,
          "mode": "ATTRIBUTES",
          "byteStride": 8,
          "count": 259
        }
      }
    },
    {
      "buffer": 1,
      "byteOffset": 135724,
      "byteLength": 2072,
      "target": 34962,
      "byteStride": 8,
      "extensions": {
        "EXT_meshopt_compression": {
          "buffer": 0,
          "byteOffset": 76976,
          "byteLength": 1648,
          "mode": "ATTRIBUTES",
          "byteStride": 8,
          "count": 259
        }
      }
    },
    {
      "buffer": 1,
      "byteOffset": 137796,
      "byteLength": 1036,
      "target": 34962,
      "byteStride": 4,
      "extensions": {
        "EXT_meshopt_compression": {
          "buffer": 0,
          "byteOffset": 78624,
          "byteLength": 53,
          "mode": "ATTRIBUTES",
          "byteStride": 4,
          "count": 259
        }
      }
    },
    {
      "buffer": 1,
      "byteOffset": 138832,
      "byteLength": 7192,
      "target": 34962,
      "byteStride": 8,
      "extensions": {
        "EXT_meshopt_compression": {
          "buffer": 0,
          "byteOffset": 78680,
          "byteLength": 4789,
          "mode": "ATTRIBUTES",
          "byteStride": 8,
          "count": 899
        }
      }
    },
    {
      "buffer": 1,
      "byteOffset": 146024,
      "byteLength": 7192,
      "target": 34962,
      "byteStride": 8,
      "extensions": {
        "EXT_meshopt_compression": {
          "buffer": 0,
          "byteOffset": 83472,
          "byteLength": 4525,
          "mode": "ATTRIBUTES",
          "byteStride": 8,
          "count": 899
        }
      }
    },
    {
      "buffer": 1,
      "byteOffset": 153216,
      "byteLength": 3596,
      "target": 34962,
      "byteStride": 4,
      "extensions": {
        "EXT_meshopt_compression": {
          "buffer": 0,
          "byteOffset": 88000,
          "byteLength": 1093,
          "mode": "ATTRIBUTES",
          "byteStride": 4,
          "count": 899
        }
      }
    },
    {
      "buffer": 1,
      "byteOffset": 156812,
      "byteLength": 1912,
      "target": 34962,
      "byteStride": 8,
      "extensions": {
        "EXT_meshopt_compression": {
          "buffer": 0,
          "byteOffset": 89096,
          "byteLength": 1247,
          "mode": "ATTRIBUTES",
          "byteStride": 8,
          "count": 239
        }
      }
    },
    {
      "buffer": 1,
      "byteOffset": 158724,
      "byteLength": 1912,
      "target": 34962,
      "byteStride": 8,
      "extensions": {
        "EXT_meshopt_compression": {
          "buffer": 0,
          "byteOffset": 90344,
          "byteLength": 1490,
          "mode": "ATTRIBUTES",
          "byteStride": 8,
          "count": 239
        }
      }
    },
    {
      "buffer": 1,
      "byteOffset": 160636,
      "byteLength": 956,
      "target": 34962,
      "byteStride": 4,
      "extensions": {
        "EXT_meshopt_compression": {
          "buffer": 0,
          "byteOffset": 91836,
          "byteLength": 49,
          "mode": "ATTRIBUTES",
          "byteStride": 4,
          "count": 239
        }
      }
    },
    {
      "buffer": 1,
      "byteOffset": 161592,
      "byteLength": 304,
      "target": 34962,
      "byteStride": 8,
      "extensions": {
        "EXT_meshopt_compression": {
          "buffer": 0,
          "byteOffset": 91888,
          "byteLength": 259,
          "mode": "ATTRIBUTES",
          "byteStride": 8,
          "count": 38
        }
      }
    },
    {
      "buffer": 1,
      "byteOffset": 161896,
      "byteLength": 304,
      "target": 34962,
      "byteStride": 8,
      "extensions": {
        "EXT_meshopt_compression": {
          "buffer": 0,
          "byteOffset": 92148,
          "byteLength": 138,
          "mode": "ATTRIBUTES",
          "byteStride": 8,
          "count": 38
        }
      }
    },
    {
      "buffer": 1,
      "byteOffset": 162200,
      "byteLength": 1056,
      "target": 34962,
      "byteStride": 8,
      "extensions": {
        "EXT_meshopt_compression": {
          "buffer": 0,
          "byteOffset": 92288,
          "byteLength": 869,
          "mode": "ATTRIBUTES",
          "byteStride": 8,
          "count": 132
        }
      }
    },
    {
      "buffer": 1,
      "byteOffset": 163256,
      "byteLength": 1056,
      "target": 34962,
      "byteStride": 8,
      "extensions": {
        "EXT_meshopt_compression": {
          "buffer": 0,
          "byteOffset": 93160,
          "byteLength": 834,
          "mode": "ATTRIBUTES",
          "byteStride": 8,
          "count": 132
        }
      }
    },
    {
      "buffer": 1,
      "byteOffset": 164312,
      "byteLength": 488,
      "target": 34962,
      "byteStride": 8,
      "extensions": {
        "EXT_meshopt_compression": {
          "buffer": 0,
          "byteOffset": 93996,
          "byteLength": 413,
          "mode": "ATTRIBUTES",
          "byteStride": 8,
          "count": 61
        }
      }
    },
    {
      "buffer": 1,
      "byteOffset": 164800,
      "byteLength": 488,
      "target": 34962,
      "byteStride": 8,
      "extensions": {
        "EXT_meshopt_compression": {
          "buffer": 0,
          "byteOffset": 94412,
          "byteLength": 382,
          "mode": "ATTRIBUTES",
          "byteStride": 8,
          "count": 61
        }
      }
    },
    {
      "buffer": 1,
      "byteOffset": 165288,
      "byteLength": 488,
      "target": 34962,
      "byteStride": 8,
      "extensions": {
        "EXT_meshopt_compression": {
          "buffer": 0,
          "byteOffset": 94796,
          "byteLength": 398,
          "mode": "ATTRIBUTES",
          "byteStride": 8,
          "count": 61
        }
      }
    },
    {
      "buffer": 1,
      "byteOffset": 165776,
      "byteLength": 488,
      "target": 34962,
      "byteStride": 8,
      "extensions": {
        "EXT_meshopt_compression": {
          "buffer": 0,
          "byteOffset": 95196,
          "byteLength": 381,
          "mode": "ATTRIBUTES",
          "byteStride": 8,
          "count": 61
        }
      }
    },
    {
      "buffer": 1,
      "byteOffset": 166264,
      "byteLength": 304,
      "target": 34962,
      "byteStride": 8,
      "extensions": {
        "EXT_meshopt_compression": {
          "buffer": 0,
          "byteOffset": 95580,
          "byteLength": 289,
          "mode": "ATTRIBUTES",
          "byteStride": 8,
          "count": 38
        }
      }
    },
    {
      "buffer": 1,
      "byteOffset": 166568,
      "byteLength": 304,
      "target": 34962,
      "byteStride": 8,
      "extensions": {
        "EXT_meshopt_compression": {
          "buffer": 0,
          "byteOffset": 95872,
          "byteLength": 163,
          "mode": "ATTRIBUTES",
          "byteStride": 8,
          "count": 38
        }
      }
    },
    {
      "buffer": 1,
      "byteOffset": 166872,
      "byteLength": 1056,
      "target": 34962,
      "byteStride": 8,
      "extensions": {
        "EXT_meshopt_compression": {
          "buffer": 0,
          "byteOffset": 96036,
          "byteLength": 863,
          "mode": "ATTRIBUTES",
          "byteStride": 8,
          "count": 132
        }
      }
    },
    {
      "buffer": 1,
      "byteOffset": 167928,
      "byteLength": 1056,
      "target": 34962,
      "byteStride": 8,
      "extensions": {
        "EXT_meshopt_compression": {
          "buffer": 0,
          "byteOffset": 96900,
          "byteLength": 830,
          "mode": "ATTRIBUTES",
          "byteStride": 8,
          "count": 132
        }
      }
    },
    {
      "buffer": 1,
      "byteOffset": 168984,
      "byteLength": 784,
      "target": 34962,
      "byteStride": 8,
      "extensions": {
        "EXT_meshopt_compression": {
          "buffer": 0,
          "byteOffset": 97732,
          "byteLength": 661,
          "mode": "ATTRIBUTES",
          "byteStride": 8,
          "count": 98
        }
      }
    },
    {
      "buffer": 1,
      "byteOffset": 169768,
      "byteLength": 784,
      "target": 34962,
      "byteStride": 8,
      "extensions": {
        "EXT_meshopt_compression": {
          "buffer": 0,
          "byteOffset": 98396,
          "byteLength": 661,
          "mode": "ATTRIBUTES",
          "byteStride": 8,
          "count": 98
        }
      }
    },
    {
      "buffer": 1,
      "byteOffset": 170552,
      "byteLength": 47008,
      "target": 34962,
      "byteStride": 8,
      "extensions": {
        "EXT_meshopt_compression": {
          "buffer": 0,
          "byteOffset": 99060,
          "byteLength": 31118,
          "mode": "ATTRIBUTES",
          "byteStride": 8,
          "count": 5876
        }
      }
    },
    {
      "buffer": 1,
      "byteOffset": 217560,
      "byteLength": 47008,
      "target": 34962,
      "byteStride": 8,
      "extensions": {
        "EXT_meshopt_compression": {
          "buffer": 0,
          "byteOffset": 130180,
          "byteLength": 32369,
          "mode": "ATTRIBUTES",
          "byteStride": 8,
          "count": 5876
        }
      }
    },
    {
      "buffer": 1,
      "byteOffset": 264568,
      "byteLength": 23504,
      "target": 34962,
      "byteStride": 4,
      "extensions": {
        "EXT_meshopt_compression": {
          "buffer": 0,
          "byteOffset": 162552,
          "byteLength": 6868,
          "mode": "ATTRIBUTES",
          "byteStride": 4,
          "count": 5876
        }
      }
    },
    {
      "buffer": 1,
      "byteOffset": 288072,
      "byteLength": 2712,
      "target": 34962,
      "byteStride": 8,
      "extensions": {
        "EXT_meshopt_compression": {
          "buffer": 0,
          "byteOffset": 169420,
          "byteLength": 1835,
          "mode": "ATTRIBUTES",
          "byteStride": 8,
          "count": 339
        }
      }
    },
    {
      "buffer": 1,
      "byteOffset": 290784,
      "byteLength": 2712,
      "target": 34962,
      "byteStride": 8,
      "extensions": {
        "EXT_meshopt_compression": {
          "buffer": 0,
          "byteOffset": 171256,
          "byteLength": 2139,
          "mode": "ATTRIBUTES",
          "byteStride": 8,
          "count": 339
        }
      }
    },
    {
      "buffer": 1,
      "byteOffset": 293496,
      "byteLength": 1356,
      "target": 34962,
      "byteStride": 4,
      "extensions": {
        "EXT_meshopt_compression": {
          "buffer": 0,
          "byteOffset": 173396,
          "byteLength": 57,
          "mode": "ATTRIBUTES",
          "byteStride": 4,
          "count": 339
        }
      }
    },
    {
      "buffer": 1,
      "byteOffset": 294852,
      "byteLength": 3488,
      "target": 34962,
      "byteStride": 8,
      "extensions": {
        "EXT_meshopt_compression": {
          "buffer": 0,
          "byteOffset": 173456,
          "byteLength": 2274,
          "mode": "ATTRIBUTES",
          "byteStride": 8,
          "count": 436
        }
      }
    },
    {
      "buffer": 1,
      "byteOffset": 298340,
      "byteLength": 3488,
      "target": 34962,
      "byteStride": 8,
      "extensions": {
        "EXT_meshopt_compression": {
          "buffer": 0,
          "byteOffset": 175732,
          "byteLength": 1403,
          "mode": "ATTRIBUTES",
          "byteStride": 8,
          "count": 436
        }
      }
    },
    {
      "buffer": 1,
      "byteOffset": 301828,
      "byteLength": 1744,
      "target": 34962,
      "byteStride": 4,
      "extensions": {
        "EXT_meshopt_compression": {
          "buffer": 0,
          "byteOffset": 177136,
          "byteLength": 61,
          "mode": "ATTRIBUTES",
          "byteStride": 4,
          "count": 436
        }
      }
    },
    {
      "buffer": 1,
      "byteOffset": 303572,
      "byteLength": 15592,
      "target": 34962,
      "byteStride": 8,
      "extensions": {
        "EXT_meshopt_compression": {
          "buffer": 0,
          "byteOffset": 177200,
          "byteLength": 11950,
          "mode": "ATTRIBUTES",
          "byteStride": 8,
          "count": 1949
        }
      }
    },
    {
      "buffer": 1,
      "byteOffset": 319164,
      "byteLength": 15592,
      "target": 34962,
      "byteStride": 8,
      "extensions": {
        "EXT_meshopt_compression": {
          "buffer": 0,
          "byteOffset": 189152,
          "byteLength": 7921,
          "mode": "ATTRIBUTES",
          "byteStride": 8,
          "count": 1949
        }
      }
    },
    {
      "buffer": 1,
      "byteOffset": 334756,
      "byteLength": 7796,
      "target": 34962,
      "byteStride": 4,
      "extensions": {
        "EXT_meshopt_compression": {
          "buffer": 0,
          "byteOffset": 197076,
          "byteLength": 2749,
          "mode": "ATTRIBUTES",
          "byteStride": 4,
          "count": 1949
        }
      }
    },
    {
      "buffer": 1,
      "byteOffset": 342552,
      "byteLength": 1376,
      "target": 34962,
      "byteStride": 8,
      "extensions": {
        "EXT_meshopt_compression": {
          "buffer": 0,
          "byteOffset": 199828,
          "byteLength": 943,
          "mode": "ATTRIBUTES",
          "byteStride": 8,
          "count": 172
        }
      }
    },
    {
      "buffer": 1,
      "byteOffset": 343928,
      "byteLength": 1376,
      "target": 34962,
      "byteStride": 8,
      "extensions": {
        "EXT_meshopt_compression": {
          "buffer": 0,
          "byteOffset": 200772,
          "byteLength": 517,
          "mode": "ATTRIBUTES",
          "byteStride": 8,
          "count": 172
        }
      }
    },
    {
      "buffer": 1,
      "byteOffset": 345304,
      "byteLength": 688,
      "target": 34962,
      "byteStride": 4,
      "extensions": {
        "EXT_meshopt_compression": {
          "buffer": 0,
          "byteOffset": 201292,
          "byteLength": 45,
          "mode": "ATTRIBUTES",
          "byteStride": 4,
          "count": 172
        }
      }
    }
  ],
  "samplers": [
    {
      "magFilter": 9729,
      "minFilter": 9987,
      "wrapS": 10497,
      "wrapT": 10497
    }
  ],
  "textures": [
    {
      "sampler": 0,
      "extensions": {
        "EXT_texture_webp": {
          "source": 1
        }
      }
    },
    {
      "sampler": 0,
      "extensions": {
        "EXT_texture_webp": {
          "source": 0
        }
      }
    },
    {
      "sampler": 0,
      "extensions": {
        "EXT_texture_webp": {
          "source": 2
        }
      }
    },
    {
      "sampler": 0,
      "extensions": {
        "EXT_texture_webp": {
          "source": 4
        }
      }
    },
    {
      "sampler": 0,
      "extensions": {
        "EXT_texture_webp": {
          "source": 3
        }
      }
    },
    {
      "sampler": 0,
      "extensions": {
        "EXT_texture_webp": {
          "source": 5
        }
      }
    },
    {
      "sampler": 0,
      "extensions": {
        "EXT_texture_webp": {
          "source": 7
        }
      }
    },
    {
      "sampler": 0,
      "extensions": {
        "EXT_texture_webp": {
          "source": 6
        }
      }
    },
    {
      "sampler": 0,
      "extensions": {
        "EXT_texture_webp": {
          "source": 8
        }
      }
    },
    {
      "sampler": 0,
      "extensions": {
        "EXT_texture_webp": {
          "source": 10
        }
      }
    },
    {
      "sampler": 0,
      "extensions": {
        "EXT_texture_webp": {
          "source": 9
        }
      }
    },
    {
      "sampler": 0,
      "extensions": {
        "EXT_texture_webp": {
          "source": 11
        }
      }
    }
  ],
  "images": [
    {
      "name": "Skin and bone normal",
      "mimeType": "image/webp",
      "uri": "textures/surface-4559974a06565aa7.webp"
    },
    {
      "name": "Skin and bone color",
      "mimeType": "image/webp",
      "uri": "textures/surface-a9f4de518b3c7cb7.webp"
    },
    {
      "name": "Skin and bone roughness metalness",
      "mimeType": "image/webp",
      "uri": "textures/surface-b996c2b2f691ba30.webp"
    },
    {
      "name": "Dark leather normal",
      "mimeType": "image/webp",
      "uri": "textures/surface-0bba31db93ee7930.webp"
    },
    {
      "name": "Dark leather color",
      "mimeType": "image/webp",
      "uri": "textures/surface-15c7f5964deff57a.webp"
    },
    {
      "name": "Dark leather roughness metalness",
      "mimeType": "image/webp",
      "uri": "textures/surface-ac0465c35b5aefec.webp"
    },
    {
      "name": "Forged iron normal",
      "mimeType": "image/webp",
      "uri": "textures/surface-fb516ec6c866d7b9.webp"
    },
    {
      "name": "Forged iron color",
      "mimeType": "image/webp",
      "uri": "textures/surface-25be23cebf724530.webp"
    },
    {
      "name": "Forged iron roughness metalness",
      "mimeType": "image/webp",
      "uri": "textures/surface-6fb9fef78a463bef.webp"
    },
    {
      "name": "Weathered stone normal",
      "mimeType": "image/webp",
      "uri": "textures/surface-4853a2902092cc7c.webp"
    },
    {
      "name": "Weathered stone color",
      "mimeType": "image/webp",
      "uri": "textures/surface-eb11894954d89b5d.webp"
    },
    {
      "name": "Weathered stone roughness metalness",
      "mimeType": "image/webp",
      "uri": "textures/surface-74120f0f7fbce6d0.webp"
    }
  ],
  "buffers": [
    {
      "uri": "stoneback.bin",
      "byteLength": 201340
    },
    {
      "byteLength": 345992,
      "extensions": {
        "EXT_meshopt_compression": {
          "fallback": true
        }
      }
    }
  ],
  "materials": [
    {
      "name": "Rift · Skin and bone",
      "extras": {
        "riftTextured": true
      },
      "pbrMetallicRoughness": {
        "baseColorTexture": {
          "index": 0
        },
        "metallicRoughnessTexture": {
          "index": 2
        }
      },
      "normalTexture": {
        "index": 1,
        "scale": 0.550000011920929
      }
    },
    {
      "name": "Rift · Dark leather",
      "extras": {
        "riftTextured": true
      },
      "pbrMetallicRoughness": {
        "baseColorTexture": {
          "index": 3
        },
        "metallicRoughnessTexture": {
          "index": 5
        }
      },
      "normalTexture": {
        "index": 4,
        "scale": 0.550000011920929
      }
    },
    {
      "name": "Rift · Forged iron",
      "extras": {
        "riftTextured": true
      },
      "pbrMetallicRoughness": {
        "baseColorTexture": {
          "index": 6
        },
        "metallicRoughnessTexture": {
          "index": 8
        }
      },
      "normalTexture": {
        "index": 7,
        "scale": 0.550000011920929
      }
    },
    {
      "name": "Material_4.010",
      "extras": {
        "riftBaseColor": [
          1,
          0.5209955731953768,
          0.038204371589236,
          1
        ]
      },
      "pbrMetallicRoughness": {
        "baseColorFactor": [
          1,
          0.520995557308197,
          0.0382043719291687,
          1
        ],
        "roughnessFactor": 0.25,
        "metallicFactor": 0.25
      },
      "emissiveFactor": [
        1,
        0.520995557308197,
        0.0382043719291687
      ],
      "extensions": {
        "KHR_materials_emissive_strength": {
          "emissiveStrength": 1.5
        }
      }
    },
    {
      "name": "Rift · Weathered stone",
      "extras": {
        "riftTextured": true
      },
      "pbrMetallicRoughness": {
        "baseColorTexture": {
          "index": 9
        },
        "metallicRoughnessTexture": {
          "index": 11
        }
      },
      "normalTexture": {
        "index": 10,
        "scale": 0.550000011920929
      }
    },
    {
      "name": "Material_6.010",
      "extras": {
        "riftBaseColor": [
          0.7379104087672317,
          0.37626212298046485,
          0.02732089163382382,
          1
        ]
      },
      "pbrMetallicRoughness": {
        "baseColorFactor": [
          0.7379103899002075,
          0.3762621283531189,
          0.027320891618728638,
          1
        ],
        "roughnessFactor": 0.30000001192092896,
        "metallicFactor": 0
      },
      "emissiveFactor": [
        0.8854925030665584,
        0.4515145719653191,
        0.032785071245236
      ]
    }
  ],
  "meshes": [
    {
      "name": "Mesh_12.010",
      "primitives": [
        {
          "attributes": {
            "TEXCOORD_0": 7,
            "POSITION": 37,
            "NORMAL": 38,
            "COLOR_0": 39
          },
          "mode": 4,
          "material": 0,
          "indices": 6
        },
        {
          "attributes": {
            "TEXCOORD_0": 9,
            "POSITION": 40,
            "NORMAL": 41,
            "COLOR_0": 42
          },
          "mode": 4,
          "material": 1,
          "indices": 8
        },
        {
          "attributes": {
            "TEXCOORD_0": 11,
            "POSITION": 43,
            "NORMAL": 44,
            "COLOR_0": 45
          },
          "mode": 4,
          "material": 2,
          "indices": 10
        },
        {
          "attributes": {
            "POSITION": 46,
            "NORMAL": 47,
            "COLOR_0": 48
          },
          "mode": 4,
          "material": 3,
          "indices": 12
        }
      ]
    },
    {
      "name": "Mesh_13.010",
      "primitives": [
        {
          "attributes": {
            "TEXCOORD_0": 14,
            "COLOR_0": 15,
            "POSITION": 49,
            "NORMAL": 50
          },
          "mode": 4,
          "material": 2,
          "indices": 13
        },
        {
          "attributes": {
            "TEXCOORD_0": 17,
            "COLOR_0": 18,
            "POSITION": 51,
            "NORMAL": 52
          },
          "mode": 4,
          "material": 4,
          "indices": 16
        },
        {
          "attributes": {
            "TEXCOORD_0": 20,
            "COLOR_0": 21,
            "POSITION": 53,
            "NORMAL": 54
          },
          "mode": 4,
          "material": 0,
          "indices": 19
        }
      ]
    },
    {
      "name": "Mesh_21.010",
      "primitives": [
        {
          "attributes": {
            "TEXCOORD_0": 23,
            "POSITION": 55,
            "NORMAL": 56,
            "COLOR_0": 21
          },
          "mode": 4,
          "material": 0,
          "indices": 22
        },
        {
          "attributes": {
            "POSITION": 57,
            "NORMAL": 58,
            "TEXCOORD_0": 14,
            "COLOR_0": 15
          },
          "mode": 4,
          "material": 2,
          "indices": 13
        },
        {
          "attributes": {
            "TEXCOORD_0": 25,
            "POSITION": 59,
            "NORMAL": 60,
            "COLOR_0": 18
          },
          "mode": 4,
          "material": 4,
          "indices": 24
        }
      ]
    },
    {
      "name": "Mesh_23.010",
      "primitives": [
        {
          "attributes": {
            "TEXCOORD_0": 25,
            "COLOR_0": 18,
            "POSITION": 59,
            "NORMAL": 60
          },
          "mode": 4,
          "material": 4,
          "indices": 24
        },
        {
          "attributes": {
            "TEXCOORD_0": 14,
            "COLOR_0": 15,
            "POSITION": 57,
            "NORMAL": 58
          },
          "mode": 4,
          "material": 2,
          "indices": 13
        },
        {
          "attributes": {
            "TEXCOORD_0": 23,
            "COLOR_0": 21,
            "POSITION": 55,
            "NORMAL": 56
          },
          "mode": 4,
          "material": 0,
          "indices": 22
        }
      ]
    },
    {
      "name": "Mesh_0.010",
      "primitives": [
        {
          "attributes": {
            "TEXCOORD_0": 27,
            "COLOR_0": 28,
            "POSITION": 61,
            "NORMAL": 62
          },
          "mode": 4,
          "material": 4,
          "indices": 26
        }
      ]
    },
    {
      "name": "Mesh_2.010",
      "primitives": [
        {
          "attributes": {
            "TEXCOORD_0": 30,
            "POSITION": 63,
            "NORMAL": 64,
            "COLOR_0": 65
          },
          "mode": 4,
          "material": 2,
          "indices": 29
        },
        {
          "attributes": {
            "TEXCOORD_0": 32,
            "POSITION": 66,
            "NORMAL": 67,
            "COLOR_0": 68
          },
          "mode": 4,
          "material": 1,
          "indices": 31
        },
        {
          "attributes": {
            "POSITION": 69,
            "NORMAL": 70,
            "COLOR_0": 71
          },
          "mode": 4,
          "material": 3,
          "indices": 33
        },
        {
          "attributes": {
            "TEXCOORD_0": 35,
            "POSITION": 72,
            "NORMAL": 73,
            "COLOR_0": 74
          },
          "mode": 4,
          "material": 4,
          "indices": 34
        },
        {
          "attributes": {
            "POSITION": 75,
            "NORMAL": 76,
            "COLOR_0": 77
          },
          "mode": 4,
          "material": 5,
          "indices": 36
        }
      ]
    }
  ],
  "nodes": [
    {
      "name": "stoneback__Mesh_12",
      "extras": {
        "riftTextured": true
      },
      "translation": [
        0,
        0.4450000077486038,
        0.08503720164299011
      ],
      "scale": [
        0.9050000160932541,
        0.9050000160932541,
        0.9050000160932541
      ],
      "mesh": 0
    },
    {
      "name": "stoneback__head",
      "translation": [
        0,
        1.25,
        1.100000023841858
      ],
      "scale": [
        1.0299999713897705,
        0.7799999713897705,
        1.2000000476837158
      ],
      "children": [
        0
      ]
    },
    {
      "name": "stoneback__Mesh_13",
      "extras": {
        "riftTextured": true
      },
      "translation": [
        -0.13767845756465036,
        -0.48930456817451773,
        0.2555875304771881
      ],
      "rotation": [
        0.8381776641261084,
        -2.807188579523597e-9,
        -0.5238610991752303,
        0.15174897736399953
      ],
      "scale": [
        0.5963799197295672,
        0.5963799550331482,
        0.596379941242684
      ],
      "mesh": 1
    },
    {
      "name": "stoneback__leg_-1_-1",
      "translation": [
        -0.6499999761581421,
        1.0499999523162842,
        -0.6499999761581421
      ],
      "children": [
        2
      ]
    },
    {
      "name": "stoneback__Mesh_16",
      "extras": {
        "riftTextured": true
      },
      "translation": [
        -0.13767845756465036,
        -0.48930456817451773,
        0.2555875304771881
      ],
      "rotation": [
        0.8381776641261084,
        -2.807188579523597e-9,
        -0.5238610991752303,
        0.15174897736399953
      ],
      "scale": [
        0.5963799197295672,
        0.5963799550331482,
        0.596379941242684
      ],
      "mesh": 1
    },
    {
      "name": "stoneback__leg_-1_1",
      "translation": [
        -0.6499999761581421,
        1.0499999523162842,
        0.6499999761581421
      ],
      "children": [
        4
      ]
    },
    {
      "name": "stoneback__Mesh_21",
      "extras": {
        "riftTextured": true
      },
      "translation": [
        0.09448237717151642,
        -0.49682873487472534,
        0.2645222097635269
      ],
      "scale": [
        0.5729007124900818,
        0.5729007124900818,
        0.5729007124900818
      ],
      "mesh": 2
    },
    {
      "name": "stoneback__leg_1_-1",
      "translation": [
        0.6499999761581421,
        1.0499999523162842,
        -0.6499999761581421
      ],
      "children": [
        6
      ]
    },
    {
      "name": "stoneback__Mesh_23",
      "extras": {
        "riftTextured": true
      },
      "translation": [
        0.09448237717151642,
        -0.49682873487472534,
        0.2645222097635269
      ],
      "scale": [
        0.5729007124900818,
        0.5729007124900818,
        0.5729007124900818
      ],
      "mesh": 3
    },
    {
      "name": "stoneback__leg_1_1",
      "translation": [
        0.6499999761581421,
        1.0499999523162842,
        0.6499999761581421
      ],
      "children": [
        8
      ]
    },
    {
      "name": "stoneback__body",
      "extras": {
        "riftTextured": true
      },
      "scale": [
        0.7997449040374889,
        0.5998086929245261,
        1.1496332585887643
      ],
      "mesh": 4
    },
    {
      "name": "stoneback__Mesh_2",
      "extras": {
        "riftTextured": true
      },
      "translation": [
        -0.033278316259384155,
        0.368043452501297,
        0.05537593364715576
      ],
      "scale": [
        1.17155921459198,
        1.17155921459198,
        1.17155921459198
      ],
      "mesh": 5
    },
    {
      "name": "stoneback__torso",
      "translation": [
        0,
        1.100000023841858,
        0
      ],
      "children": [
        10,
        11
      ]
    },
    {
      "name": "stoneback",
      "extras": {
        "asset": "stoneback",
        "category": "Creatures",
        "referencePass": 2,
        "riftAsset": "stoneback",
        "title": "STONEBACK",
        "authoring": "Blender 4.5 · UV/PBR surfaces · rigid articulated animation"
      },
      "children": [
        1,
        3,
        5,
        7,
        9,
        12
      ]
    }
  ],
  "animations": [
    {
      "name": "Walk",
      "samplers": [
        {
          "input": 0,
          "output": 1,
          "interpolation": "LINEAR"
        },
        {
          "input": 0,
          "output": 1,
          "interpolation": "LINEAR"
        },
        {
          "input": 0,
          "output": 2,
          "interpolation": "LINEAR"
        },
        {
          "input": 0,
          "output": 2,
          "interpolation": "LINEAR"
        }
      ],
      "channels": [
        {
          "sampler": 0,
          "target": {
            "node": 3,
            "path": "rotation"
          }
        },
        {
          "sampler": 1,
          "target": {
            "node": 5,
            "path": "rotation"
          }
        },
        {
          "sampler": 2,
          "target": {
            "node": 7,
            "path": "rotation"
          }
        },
        {
          "sampler": 3,
          "target": {
            "node": 9,
            "path": "rotation"
          }
        }
      ]
    },
    {
      "name": "Attack",
      "samplers": [
        {
          "input": 0,
          "output": 3,
          "interpolation": "LINEAR"
        }
      ],
      "channels": [
        {
          "sampler": 0,
          "target": {
            "node": 12,
            "path": "rotation"
          }
        }
      ]
    },
    {
      "name": "Idle",
      "samplers": [
        {
          "input": 4,
          "output": 5,
          "interpolation": "LINEAR"
        }
      ],
      "channels": [
        {
          "sampler": 0,
          "target": {
            "node": 12,
            "path": "rotation"
          }
        }
      ]
    }
  ],
  "scenes": [
    {
      "name": "Scene",
      "nodes": [
        13
      ]
    }
  ],
  "scene": 0,
  "extensionsUsed": [
    "EXT_meshopt_compression",
    "EXT_texture_webp",
    "KHR_materials_emissive_strength",
    "KHR_mesh_quantization"
  ],
  "extensionsRequired": [
    "EXT_meshopt_compression",
    "EXT_texture_webp",
    "KHR_mesh_quantization"
  ]
}