{
  "asset": {
    "generator": "glTF-Transform v4.5.0",
    "version": "2.0"
  },
  "accessors": [
    {
      "type": "SCALAR",
      "componentType": 5126,
      "count": 25,
      "max": [
        1.0416666269302368
      ],
      "min": [
        0.0416666679084301
      ],
      "normalized": false,
      "byteOffset": 0,
      "bufferView": 0
    },
    {
      "type": "VEC4",
      "componentType": 5126,
      "count": 25,
      "normalized": false,
      "byteOffset": 0,
      "bufferView": 1
    },
    {
      "type": "VEC4",
      "componentType": 5126,
      "count": 25,
      "normalized": false,
      "byteOffset": 400,
      "bufferView": 1
    },
    {
      "type": "VEC4",
      "componentType": 5126,
      "count": 25,
      "normalized": false,
      "byteOffset": 800,
      "bufferView": 1
    },
    {
      "type": "VEC4",
      "componentType": 5126,
      "count": 25,
      "normalized": false,
      "byteOffset": 1200,
      "bufferView": 1
    },
    {
      "type": "VEC4",
      "componentType": 5126,
      "count": 25,
      "normalized": false,
      "byteOffset": 1600,
      "bufferView": 1
    },
    {
      "type": "VEC4",
      "componentType": 5126,
      "count": 25,
      "normalized": false,
      "byteOffset": 2000,
      "bufferView": 1
    },
    {
      "type": "VEC4",
      "componentType": 5126,
      "count": 25,
      "normalized": false,
      "byteOffset": 2400,
      "bufferView": 1
    },
    {
      "type": "VEC4",
      "componentType": 5126,
      "count": 25,
      "normalized": false,
      "byteOffset": 2800,
      "bufferView": 1
    },
    {
      "type": "SCALAR",
      "componentType": 5126,
      "count": 49,
      "max": [
        2.0416667461395264
      ],
      "min": [
        0.0416666679084301
      ],
      "normalized": false,
      "byteOffset": 100,
      "bufferView": 0
    },
    {
      "type": "VEC4",
      "componentType": 5126,
      "count": 49,
      "normalized": false,
      "byteOffset": 3200,
      "bufferView": 1
    },
    {
      "type": "VEC4",
      "componentType": 5126,
      "count": 49,
      "normalized": false,
      "byteOffset": 3984,
      "bufferView": 1
    },
    {
      "type": "SCALAR",
      "componentType": 5123,
      "count": 6066,
      "normalized": false,
      "byteOffset": 0,
      "bufferView": 2
    },
    {
      "type": "VEC2",
      "componentType": 5126,
      "count": 2055,
      "normalized": false,
      "byteOffset": 0,
      "bufferView": 3
    },
    {
      "type": "VEC4",
      "componentType": 5121,
      "count": 2055,
      "normalized": true,
      "byteOffset": 0,
      "bufferView": 4
    },
    {
      "type": "SCALAR",
      "componentType": 5123,
      "count": 1038,
      "normalized": false,
      "byteOffset": 12132,
      "bufferView": 2
    },
    {
      "type": "VEC2",
      "componentType": 5126,
      "count": 387,
      "normalized": false,
      "byteOffset": 0,
      "bufferView": 5
    },
    {
      "type": "VEC4",
      "componentType": 5121,
      "count": 387,
      "normalized": true,
      "byteOffset": 0,
      "bufferView": 6
    },
    {
      "type": "SCALAR",
      "componentType": 5123,
      "count": 1038,
      "normalized": false,
      "byteOffset": 14208,
      "bufferView": 2
    },
    {
      "type": "VEC2",
      "componentType": 5126,
      "count": 387,
      "normalized": false,
      "byteOffset": 0,
      "bufferView": 7
    },
    {
      "type": "SCALAR",
      "componentType": 5123,
      "count": 6066,
      "normalized": false,
      "byteOffset": 16284,
      "bufferView": 2
    },
    {
      "type": "VEC2",
      "componentType": 5126,
      "count": 2053,
      "normalized": false,
      "byteOffset": 0,
      "bufferView": 8
    },
    {
      "type": "VEC4",
      "componentType": 5121,
      "count": 2053,
      "normalized": true,
      "byteOffset": 0,
      "bufferView": 9
    },
    {
      "type": "SCALAR",
      "componentType": 5123,
      "count": 372,
      "normalized": false,
      "byteOffset": 28416,
      "bufferView": 2
    },
    {
      "type": "VEC2",
      "componentType": 5126,
      "count": 336,
      "normalized": false,
      "byteOffset": 0,
      "bufferView": 10
    },
    {
      "type": "VEC4",
      "componentType": 5121,
      "count": 336,
      "normalized": true,
      "byteOffset": 0,
      "bufferView": 11
    },
    {
      "type": "SCALAR",
      "componentType": 5123,
      "count": 777,
      "normalized": false,
      "byteOffset": 29160,
      "bufferView": 2
    },
    {
      "type": "VEC2",
      "componentType": 5126,
      "count": 281,
      "normalized": false,
      "byteOffset": 0,
      "bufferView": 12
    },
    {
      "type": "VEC4",
      "componentType": 5121,
      "count": 281,
      "normalized": true,
      "byteOffset": 0,
      "bufferView": 13
    },
    {
      "type": "SCALAR",
      "componentType": 5123,
      "count": 9966,
      "normalized": false,
      "byteOffset": 30714,
      "bufferView": 2
    },
    {
      "type": "VEC2",
      "componentType": 5126,
      "count": 3543,
      "normalized": false,
      "byteOffset": 0,
      "bufferView": 14
    },
    {
      "type": "SCALAR",
      "componentType": 5123,
      "count": 702,
      "normalized": false,
      "byteOffset": 50646,
      "bufferView": 2
    },
    {
      "type": "VEC2",
      "componentType": 5126,
      "count": 360,
      "normalized": false,
      "byteOffset": 0,
      "bufferView": 15
    },
    {
      "type": "SCALAR",
      "componentType": 5123,
      "count": 570,
      "normalized": false,
      "byteOffset": 52050,
      "bufferView": 2
    },
    {
      "type": "SCALAR",
      "componentType": 5123,
      "count": 72,
      "normalized": false,
      "byteOffset": 53190,
      "bufferView": 2
    },
    {
      "type": "VEC2",
      "componentType": 5126,
      "count": 38,
      "normalized": false,
      "byteOffset": 0,
      "bufferView": 16
    },
    {
      "type": "SCALAR",
      "componentType": 5123,
      "count": 444,
      "normalized": false,
      "byteOffset": 53334,
      "bufferView": 2
    },
    {
      "type": "VEC2",
      "componentType": 5126,
      "count": 151,
      "normalized": false,
      "byteOffset": 0,
      "bufferView": 17
    },
    {
      "type": "VEC4",
      "componentType": 5121,
      "count": 151,
      "normalized": true,
      "byteOffset": 0,
      "bufferView": 18
    },
    {
      "type": "SCALAR",
      "componentType": 5123,
      "count": 690,
      "normalized": false,
      "byteOffset": 54222,
      "bufferView": 2
    },
    {
      "type": "VEC2",
      "componentType": 5126,
      "count": 215,
      "normalized": false,
      "byteOffset": 0,
      "bufferView": 19
    },
    {
      "type": "VEC4",
      "componentType": 5121,
      "count": 215,
      "normalized": true,
      "byteOffset": 0,
      "bufferView": 20
    },
    {
      "type": "SCALAR",
      "componentType": 5123,
      "count": 888,
      "normalized": false,
      "byteOffset": 55602,
      "bufferView": 2
    },
    {
      "type": "VEC2",
      "componentType": 5126,
      "count": 308,
      "normalized": false,
      "byteOffset": 0,
      "bufferView": 21
    },
    {
      "type": "VEC4",
      "componentType": 5121,
      "count": 308,
      "normalized": true,
      "byteOffset": 0,
      "bufferView": 22
    },
    {
      "type": "SCALAR",
      "componentType": 5123,
      "count": 552,
      "normalized": false,
      "byteOffset": 57378,
      "bufferView": 2
    },
    {
      "type": "VEC2",
      "componentType": 5126,
      "count": 164,
      "normalized": false,
      "byteOffset": 0,
      "bufferView": 23
    },
    {
      "type": "VEC4",
      "componentType": 5121,
      "count": 164,
      "normalized": true,
      "byteOffset": 0,
      "bufferView": 24
    },
    {
      "type": "SCALAR",
      "componentType": 5123,
      "count": 294,
      "normalized": false,
      "byteOffset": 58482,
      "bufferView": 2
    },
    {
      "type": "VEC2",
      "componentType": 5126,
      "count": 108,
      "normalized": false,
      "byteOffset": 0,
      "bufferView": 25
    },
    {
      "type": "VEC4",
      "componentType": 5121,
      "count": 108,
      "normalized": true,
      "byteOffset": 0,
      "bufferView": 26
    },
    {
      "type": "SCALAR",
      "componentType": 5123,
      "count": 6000,
      "normalized": false,
      "byteOffset": 59070,
      "bufferView": 2
    },
    {
      "type": "VEC2",
      "componentType": 5126,
      "count": 2608,
      "normalized": false,
      "byteOffset": 0,
      "bufferView": 27
    },
    {
      "type": "VEC4",
      "componentType": 5121,
      "count": 2608,
      "normalized": true,
      "byteOffset": 0,
      "bufferView": 28
    },
    {
      "type": "SCALAR",
      "componentType": 5123,
      "count": 288,
      "normalized": false,
      "byteOffset": 71070,
      "bufferView": 2
    },
    {
      "type": "VEC2",
      "componentType": 5126,
      "count": 154,
      "normalized": false,
      "byteOffset": 0,
      "bufferView": 29
    },
    {
      "type": "SCALAR",
      "componentType": 5123,
      "count": 906,
      "normalized": false,
      "byteOffset": 71646,
      "bufferView": 2
    },
    {
      "type": "VEC2",
      "componentType": 5126,
      "count": 292,
      "normalized": false,
      "byteOffset": 0,
      "bufferView": 30
    },
    {
      "type": "SCALAR",
      "componentType": 5123,
      "count": 5784,
      "normalized": false,
      "byteOffset": 73458,
      "bufferView": 2
    },
    {
      "type": "VEC2",
      "componentType": 5126,
      "count": 2901,
      "normalized": false,
      "byteOffset": 0,
      "bufferView": 31
    },
    {
      "type": "SCALAR",
      "componentType": 5123,
      "count": 9684,
      "normalized": false,
      "byteOffset": 85026,
      "bufferView": 2
    },
    {
      "type": "VEC2",
      "componentType": 5126,
      "count": 3471,
      "normalized": false,
      "byteOffset": 0,
      "bufferView": 32
    },
    {
      "type": "VEC3",
      "componentType": 5122,
      "count": 2055,
      "max": [
        13635,
        24087,
        9324
      ],
      "min": [
        -7970,
        -24946,
        -15345
      ],
      "normalized": true,
      "byteOffset": 0,
      "bufferView": 33
    },
    {
      "type": "VEC3",
      "componentType": 5122,
      "count": 2055,
      "normalized": true,
      "byteOffset": 0,
      "bufferView": 34
    },
    {
      "type": "VEC3",
      "componentType": 5122,
      "count": 387,
      "max": [
        9017,
        32767,
        15345
      ],
      "min": [
        -13635,
        -32767,
        -11705
      ],
      "normalized": true,
      "byteOffset": 0,
      "bufferView": 35
    },
    {
      "type": "VEC3",
      "componentType": 5122,
      "count": 387,
      "normalized": true,
      "byteOffset": 0,
      "bufferView": 36
    },
    {
      "type": "VEC3",
      "componentType": 5122,
      "count": 387,
      "max": [
        13308,
        32767,
        15345
      ],
      "min": [
        -9336,
        -32767,
        -11715
      ],
      "normalized": true,
      "byteOffset": 0,
      "bufferView": 37
    },
    {
      "type": "VEC3",
      "componentType": 5122,
      "count": 387,
      "normalized": true,
      "byteOffset": 0,
      "bufferView": 38
    },
    {
      "type": "VEC3",
      "componentType": 5122,
      "count": 2053,
      "max": [
        9530,
        24086,
        9324
      ],
      "min": [
        -13308,
        -24946,
        -15345
      ],
      "normalized": true,
      "byteOffset": 0,
      "bufferView": 39
    },
    {
      "type": "VEC3",
      "componentType": 5122,
      "count": 2053,
      "normalized": true,
      "byteOffset": 0,
      "bufferView": 40
    },
    {
      "type": "VEC3",
      "componentType": 5122,
      "count": 336,
      "max": [
        4816,
        22198,
        -2491
      ],
      "min": [
        -4816,
        2933,
        -4201
      ],
      "normalized": true,
      "byteOffset": 0,
      "bufferView": 41
    },
    {
      "type": "VEC3",
      "componentType": 5122,
      "count": 336,
      "normalized": true,
      "byteOffset": 0,
      "bufferView": 42
    },
    {
      "type": "VEC3",
      "componentType": 5122,
      "count": 281,
      "max": [
        20792,
        32767,
        6115
      ],
      "min": [
        -20792,
        -32767,
        -6115
      ],
      "normalized": true,
      "byteOffset": 0,
      "bufferView": 43
    },
    {
      "type": "VEC3",
      "componentType": 5122,
      "count": 281,
      "normalized": true,
      "byteOffset": 0,
      "bufferView": 44
    },
    {
      "type": "VEC3",
      "componentType": 5122,
      "count": 3543,
      "max": [
        15583,
        8351,
        11727
      ],
      "min": [
        -14686,
        -22691,
        -7454
      ],
      "normalized": true,
      "byteOffset": 0,
      "bufferView": 45
    },
    {
      "type": "VEC3",
      "componentType": 5122,
      "count": 3543,
      "normalized": true,
      "byteOffset": 0,
      "bufferView": 46
    },
    {
      "type": "VEC3",
      "componentType": 5121,
      "count": 3543,
      "normalized": true,
      "byteOffset": 0,
      "bufferView": 47
    },
    {
      "type": "VEC3",
      "componentType": 5122,
      "count": 360,
      "max": [
        21363,
        32767,
        11411
      ],
      "min": [
        -21363,
        -32767,
        -11727
      ],
      "normalized": true,
      "byteOffset": 0,
      "bufferView": 48
    },
    {
      "type": "VEC3",
      "componentType": 5122,
      "count": 360,
      "normalized": true,
      "byteOffset": 0,
      "bufferView": 49
    },
    {
      "type": "VEC3",
      "componentType": 5121,
      "count": 360,
      "normalized": true,
      "byteOffset": 0,
      "bufferView": 50
    },
    {
      "type": "VEC3",
      "componentType": 5122,
      "count": 167,
      "max": [
        10070,
        11369,
        3325
      ],
      "min": [
        -10070,
        7905,
        1606
      ],
      "normalized": true,
      "byteOffset": 0,
      "bufferView": 51
    },
    {
      "type": "VEC3",
      "componentType": 5122,
      "count": 167,
      "normalized": true,
      "byteOffset": 0,
      "bufferView": 52
    },
    {
      "type": "VEC3",
      "componentType": 5121,
      "count": 167,
      "normalized": true,
      "byteOffset": 0,
      "bufferView": 53
    },
    {
      "type": "VEC3",
      "componentType": 5122,
      "count": 38,
      "max": [
        5846,
        160,
        8235
      ],
      "min": [
        -5846,
        -8866,
        6175
      ],
      "normalized": true,
      "byteOffset": 0,
      "bufferView": 54
    },
    {
      "type": "VEC3",
      "componentType": 5122,
      "count": 38,
      "normalized": true,
      "byteOffset": 0,
      "bufferView": 55
    },
    {
      "type": "VEC3",
      "componentType": 5121,
      "count": 38,
      "normalized": true,
      "byteOffset": 0,
      "bufferView": 56
    },
    {
      "type": "VEC3",
      "componentType": 5122,
      "count": 151,
      "max": [
        7414,
        -23325,
        19246
      ],
      "min": [
        -7414,
        -27738,
        8072
      ],
      "normalized": true,
      "byteOffset": 0,
      "bufferView": 57
    },
    {
      "type": "VEC3",
      "componentType": 5122,
      "count": 151,
      "normalized": true,
      "byteOffset": 0,
      "bufferView": 58
    },
    {
      "type": "VEC3",
      "componentType": 5122,
      "count": 215,
      "max": [
        12447,
        32767,
        14519
      ],
      "min": [
        -12447,
        -32767,
        -19246
      ],
      "normalized": true,
      "byteOffset": 0,
      "bufferView": 59
    },
    {
      "type": "VEC3",
      "componentType": 5122,
      "count": 215,
      "normalized": true,
      "byteOffset": 0,
      "bufferView": 60
    },
    {
      "type": "VEC3",
      "componentType": 5122,
      "count": 308,
      "max": [
        19290,
        18844,
        32767
      ],
      "min": [
        -19290,
        4409,
        7935
      ],
      "normalized": true,
      "byteOffset": 0,
      "bufferView": 61
    },
    {
      "type": "VEC3",
      "componentType": 5122,
      "count": 308,
      "normalized": true,
      "byteOffset": 0,
      "bufferView": 62
    },
    {
      "type": "VEC3",
      "componentType": 5122,
      "count": 164,
      "max": [
        16034,
        17828,
        10604
      ],
      "min": [
        -5087,
        -20933,
        -32767
      ],
      "normalized": true,
      "byteOffset": 0,
      "bufferView": 63
    },
    {
      "type": "VEC3",
      "componentType": 5122,
      "count": 164,
      "normalized": true,
      "byteOffset": 0,
      "bufferView": 64
    },
    {
      "type": "VEC3",
      "componentType": 5122,
      "count": 108,
      "max": [
        4315,
        20933,
        32503
      ],
      "min": [
        -4316,
        10588,
        27767
      ],
      "normalized": true,
      "byteOffset": 0,
      "bufferView": 65
    },
    {
      "type": "VEC3",
      "componentType": 5122,
      "count": 108,
      "normalized": true,
      "byteOffset": 0,
      "bufferView": 66
    },
    {
      "type": "VEC3",
      "componentType": 5122,
      "count": 2608,
      "max": [
        21692,
        19120,
        32271
      ],
      "min": [
        -21692,
        -1876,
        21452
      ],
      "normalized": true,
      "byteOffset": 0,
      "bufferView": 67
    },
    {
      "type": "VEC3",
      "componentType": 5122,
      "count": 2608,
      "normalized": true,
      "byteOffset": 0,
      "bufferView": 68
    },
    {
      "type": "VEC3",
      "componentType": 5122,
      "count": 154,
      "max": [
        32767,
        20844,
        -3916
      ],
      "min": [
        -32767,
        -11320,
        -15935
      ],
      "normalized": true,
      "byteOffset": 0,
      "bufferView": 69
    },
    {
      "type": "VEC3",
      "componentType": 5122,
      "count": 154,
      "normalized": true,
      "byteOffset": 0,
      "bufferView": 70
    },
    {
      "type": "VEC3",
      "componentType": 5121,
      "count": 154,
      "normalized": true,
      "byteOffset": 0,
      "bufferView": 71
    },
    {
      "type": "VEC3",
      "componentType": 5122,
      "count": 336,
      "max": [
        4507,
        14475,
        15495
      ],
      "min": [
        -4507,
        -3140,
        13012
      ],
      "normalized": true,
      "byteOffset": 0,
      "bufferView": 72
    },
    {
      "type": "VEC3",
      "componentType": 5122,
      "count": 336,
      "normalized": true,
      "byteOffset": 0,
      "bufferView": 73
    },
    {
      "type": "VEC3",
      "componentType": 5121,
      "count": 336,
      "normalized": true,
      "byteOffset": 0,
      "bufferView": 74
    },
    {
      "type": "VEC3",
      "componentType": 5122,
      "count": 292,
      "max": [
        23109,
        25328,
        15935
      ],
      "min": [
        -23109,
        -25030,
        -13715
      ],
      "normalized": true,
      "byteOffset": 0,
      "bufferView": 75
    },
    {
      "type": "VEC3",
      "componentType": 5122,
      "count": 292,
      "normalized": true,
      "byteOffset": 0,
      "bufferView": 76
    },
    {
      "type": "VEC3",
      "componentType": 5121,
      "count": 292,
      "normalized": true,
      "byteOffset": 0,
      "bufferView": 77
    },
    {
      "type": "VEC3",
      "componentType": 5122,
      "count": 2901,
      "max": [
        22103,
        18550,
        15443
      ],
      "min": [
        -22115,
        -23413,
        7128
      ],
      "normalized": true,
      "byteOffset": 0,
      "bufferView": 78
    },
    {
      "type": "VEC3",
      "componentType": 5122,
      "count": 2901,
      "normalized": true,
      "byteOffset": 0,
      "bufferView": 79
    },
    {
      "type": "VEC3",
      "componentType": 5121,
      "count": 2901,
      "normalized": true,
      "byteOffset": 0,
      "bufferView": 80
    },
    {
      "type": "VEC3",
      "componentType": 5122,
      "count": 3471,
      "max": [
        20909,
        19427,
        14836
      ],
      "min": [
        -19705,
        -25328,
        1785
      ],
      "normalized": true,
      "byteOffset": 0,
      "bufferView": 81
    },
    {
      "type": "VEC3",
      "componentType": 5122,
      "count": 3471,
      "normalized": true,
      "byteOffset": 0,
      "bufferView": 82
    },
    {
      "type": "VEC3",
      "componentType": 5121,
      "count": 3471,
      "normalized": true,
      "byteOffset": 0,
      "bufferView": 83
    }
  ],
  "bufferViews": [
    {
      "buffer": 1,
      "byteOffset": 0,
      "byteLength": 296,
      "extensions": {
        "EXT_meshopt_compression": {
          "buffer": 0,
          "byteOffset": 0,
          "byteLength": 279,
          "mode": "ATTRIBUTES",
          "byteStride": 4,
          "count": 74
        }
      }
    },
    {
      "buffer": 1,
      "byteOffset": 296,
      "byteLength": 4768,
      "extensions": {
        "EXT_meshopt_compression": {
          "buffer": 0,
          "byteOffset": 280,
          "byteLength": 1836,
          "mode": "ATTRIBUTES",
          "byteStride": 16,
          "count": 298
        }
      }
    },
    {
      "buffer": 1,
      "byteOffset": 5064,
      "byteLength": 104394,
      "target": 34963,
      "extensions": {
        "EXT_meshopt_compression": {
          "buffer": 0,
          "byteOffset": 2116,
          "byteLength": 18161,
          "mode": "TRIANGLES",
          "byteStride": 2,
          "count": 52197
        }
      }
    },
    {
      "buffer": 1,
      "byteOffset": 109460,
      "byteLength": 16440,
      "target": 34962,
      "byteStride": 8,
      "extensions": {
        "EXT_meshopt_compression": {
          "buffer": 0,
          "byteOffset": 20280,
          "byteLength": 13254,
          "mode": "ATTRIBUTES",
          "byteStride": 8,
          "count": 2055
        }
      }
    },
    {
      "buffer": 1,
      "byteOffset": 125900,
      "byteLength": 8220,
      "target": 34962,
      "byteStride": 4,
      "extensions": {
        "EXT_meshopt_compression": {
          "buffer": 0,
          "byteOffset": 33536,
          "byteLength": 165,
          "mode": "ATTRIBUTES",
          "byteStride": 4,
          "count": 2055
        }
      }
    },
    {
      "buffer": 1,
      "byteOffset": 134120,
      "byteLength": 3096,
      "target": 34962,
      "byteStride": 8,
      "extensions": {
        "EXT_meshopt_compression": {
          "buffer": 0,
          "byteOffset": 33704,
          "byteLength": 2573,
          "mode": "ATTRIBUTES",
          "byteStride": 8,
          "count": 387
        }
      }
    },
    {
      "buffer": 1,
      "byteOffset": 137216,
      "byteLength": 1548,
      "target": 34962,
      "byteStride": 4,
      "extensions": {
        "EXT_meshopt_compression": {
          "buffer": 0,
          "byteOffset": 36280,
          "byteLength": 61,
          "mode": "ATTRIBUTES",
          "byteStride": 4,
          "count": 387
        }
      }
    },
    {
      "buffer": 1,
      "byteOffset": 138764,
      "byteLength": 3096,
      "target": 34962,
      "byteStride": 8,
      "extensions": {
        "EXT_meshopt_compression": {
          "buffer": 0,
          "byteOffset": 36344,
          "byteLength": 2589,
          "mode": "ATTRIBUTES",
          "byteStride": 8,
          "count": 387
        }
      }
    },
    {
      "buffer": 1,
      "byteOffset": 141860,
      "byteLength": 16424,
      "target": 34962,
      "byteStride": 8,
      "extensions": {
        "EXT_meshopt_compression": {
          "buffer": 0,
          "byteOffset": 38936,
          "byteLength": 13356,
          "mode": "ATTRIBUTES",
          "byteStride": 8,
          "count": 2053
        }
      }
    },
    {
      "buffer": 1,
      "byteOffset": 158284,
      "byteLength": 8212,
      "target": 34962,
      "byteStride": 4,
      "extensions": {
        "EXT_meshopt_compression": {
          "buffer": 0,
          "byteOffset": 52292,
          "byteLength": 165,
          "mode": "ATTRIBUTES",
          "byteStride": 4,
          "count": 2053
        }
      }
    },
    {
      "buffer": 1,
      "byteOffset": 166496,
      "byteLength": 2688,
      "target": 34962,
      "byteStride": 8,
      "extensions": {
        "EXT_meshopt_compression": {
          "buffer": 0,
          "byteOffset": 52460,
          "byteLength": 2148,
          "mode": "ATTRIBUTES",
          "byteStride": 8,
          "count": 336
        }
      }
    },
    {
      "buffer": 1,
      "byteOffset": 169184,
      "byteLength": 1344,
      "target": 34962,
      "byteStride": 4,
      "extensions": {
        "EXT_meshopt_compression": {
          "buffer": 0,
          "byteOffset": 54608,
          "byteLength": 57,
          "mode": "ATTRIBUTES",
          "byteStride": 4,
          "count": 336
        }
      }
    },
    {
      "buffer": 1,
      "byteOffset": 170528,
      "byteLength": 2248,
      "target": 34962,
      "byteStride": 8,
      "extensions": {
        "EXT_meshopt_compression": {
          "buffer": 0,
          "byteOffset": 54668,
          "byteLength": 1940,
          "mode": "ATTRIBUTES",
          "byteStride": 8,
          "count": 281
        }
      }
    },
    {
      "buffer": 1,
      "byteOffset": 172776,
      "byteLength": 1124,
      "target": 34962,
      "byteStride": 4,
      "extensions": {
        "EXT_meshopt_compression": {
          "buffer": 0,
          "byteOffset": 56608,
          "byteLength": 53,
          "mode": "ATTRIBUTES",
          "byteStride": 4,
          "count": 281
        }
      }
    },
    {
      "buffer": 1,
      "byteOffset": 173900,
      "byteLength": 28344,
      "target": 34962,
      "byteStride": 8,
      "extensions": {
        "EXT_meshopt_compression": {
          "buffer": 0,
          "byteOffset": 56664,
          "byteLength": 22767,
          "mode": "ATTRIBUTES",
          "byteStride": 8,
          "count": 3543
        }
      }
    },
    {
      "buffer": 1,
      "byteOffset": 202244,
      "byteLength": 2880,
      "target": 34962,
      "byteStride": 8,
      "extensions": {
        "EXT_meshopt_compression": {
          "buffer": 0,
          "byteOffset": 79432,
          "byteLength": 2532,
          "mode": "ATTRIBUTES",
          "byteStride": 8,
          "count": 360
        }
      }
    },
    {
      "buffer": 1,
      "byteOffset": 205124,
      "byteLength": 304,
      "target": 34962,
      "byteStride": 8,
      "extensions": {
        "EXT_meshopt_compression": {
          "buffer": 0,
          "byteOffset": 81964,
          "byteLength": 290,
          "mode": "ATTRIBUTES",
          "byteStride": 8,
          "count": 38
        }
      }
    },
    {
      "buffer": 1,
      "byteOffset": 205428,
      "byteLength": 1208,
      "target": 34962,
      "byteStride": 8,
      "extensions": {
        "EXT_meshopt_compression": {
          "buffer": 0,
          "byteOffset": 82256,
          "byteLength": 1021,
          "mode": "ATTRIBUTES",
          "byteStride": 8,
          "count": 151
        }
      }
    },
    {
      "buffer": 1,
      "byteOffset": 206636,
      "byteLength": 604,
      "target": 34962,
      "byteStride": 4,
      "extensions": {
        "EXT_meshopt_compression": {
          "buffer": 0,
          "byteOffset": 83280,
          "byteLength": 45,
          "mode": "ATTRIBUTES",
          "byteStride": 4,
          "count": 151
        }
      }
    },
    {
      "buffer": 1,
      "byteOffset": 207240,
      "byteLength": 1720,
      "target": 34962,
      "byteStride": 8,
      "extensions": {
        "EXT_meshopt_compression": {
          "buffer": 0,
          "byteOffset": 83328,
          "byteLength": 1530,
          "mode": "ATTRIBUTES",
          "byteStride": 8,
          "count": 215
        }
      }
    },
    {
      "buffer": 1,
      "byteOffset": 208960,
      "byteLength": 860,
      "target": 34962,
      "byteStride": 4,
      "extensions": {
        "EXT_meshopt_compression": {
          "buffer": 0,
          "byteOffset": 84860,
          "byteLength": 49,
          "mode": "ATTRIBUTES",
          "byteStride": 4,
          "count": 215
        }
      }
    },
    {
      "buffer": 1,
      "byteOffset": 209820,
      "byteLength": 2464,
      "target": 34962,
      "byteStride": 8,
      "extensions": {
        "EXT_meshopt_compression": {
          "buffer": 0,
          "byteOffset": 84912,
          "byteLength": 1907,
          "mode": "ATTRIBUTES",
          "byteStride": 8,
          "count": 308
        }
      }
    },
    {
      "buffer": 1,
      "byteOffset": 212284,
      "byteLength": 1232,
      "target": 34962,
      "byteStride": 4,
      "extensions": {
        "EXT_meshopt_compression": {
          "buffer": 0,
          "byteOffset": 86820,
          "byteLength": 53,
          "mode": "ATTRIBUTES",
          "byteStride": 4,
          "count": 308
        }
      }
    },
    {
      "buffer": 1,
      "byteOffset": 213516,
      "byteLength": 1312,
      "target": 34962,
      "byteStride": 8,
      "extensions": {
        "EXT_meshopt_compression": {
          "buffer": 0,
          "byteOffset": 86876,
          "byteLength": 1162,
          "mode": "ATTRIBUTES",
          "byteStride": 8,
          "count": 164
        }
      }
    },
    {
      "buffer": 1,
      "byteOffset": 214828,
      "byteLength": 656,
      "target": 34962,
      "byteStride": 4,
      "extensions": {
        "EXT_meshopt_compression": {
          "buffer": 0,
          "byteOffset": 88040,
          "byteLength": 45,
          "mode": "ATTRIBUTES",
          "byteStride": 4,
          "count": 164
        }
      }
    },
    {
      "buffer": 1,
      "byteOffset": 215484,
      "byteLength": 864,
      "target": 34962,
      "byteStride": 8,
      "extensions": {
        "EXT_meshopt_compression": {
          "buffer": 0,
          "byteOffset": 88088,
          "byteLength": 720,
          "mode": "ATTRIBUTES",
          "byteStride": 8,
          "count": 108
        }
      }
    },
    {
      "buffer": 1,
      "byteOffset": 216348,
      "byteLength": 432,
      "target": 34962,
      "byteStride": 4,
      "extensions": {
        "EXT_meshopt_compression": {
          "buffer": 0,
          "byteOffset": 88808,
          "byteLength": 41,
          "mode": "ATTRIBUTES",
          "byteStride": 4,
          "count": 108
        }
      }
    },
    {
      "buffer": 1,
      "byteOffset": 216780,
      "byteLength": 20864,
      "target": 34962,
      "byteStride": 8,
      "extensions": {
        "EXT_meshopt_compression": {
          "buffer": 0,
          "byteOffset": 88852,
          "byteLength": 16332,
          "mode": "ATTRIBUTES",
          "byteStride": 8,
          "count": 2608
        }
      }
    },
    {
      "buffer": 1,
      "byteOffset": 237644,
      "byteLength": 10432,
      "target": 34962,
      "byteStride": 4,
      "extensions": {
        "EXT_meshopt_compression": {
          "buffer": 0,
          "byteOffset": 105184,
          "byteLength": 197,
          "mode": "ATTRIBUTES",
          "byteStride": 4,
          "count": 2608
        }
      }
    },
    {
      "buffer": 1,
      "byteOffset": 248076,
      "byteLength": 1232,
      "target": 34962,
      "byteStride": 8,
      "extensions": {
        "EXT_meshopt_compression": {
          "buffer": 0,
          "byteOffset": 105384,
          "byteLength": 1063,
          "mode": "ATTRIBUTES",
          "byteStride": 8,
          "count": 154
        }
      }
    },
    {
      "buffer": 1,
      "byteOffset": 249308,
      "byteLength": 2336,
      "target": 34962,
      "byteStride": 8,
      "extensions": {
        "EXT_meshopt_compression": {
          "buffer": 0,
          "byteOffset": 106448,
          "byteLength": 2010,
          "mode": "ATTRIBUTES",
          "byteStride": 8,
          "count": 292
        }
      }
    },
    {
      "buffer": 1,
      "byteOffset": 251644,
      "byteLength": 23208,
      "target": 34962,
      "byteStride": 8,
      "extensions": {
        "EXT_meshopt_compression": {
          "buffer": 0,
          "byteOffset": 108460,
          "byteLength": 18255,
          "mode": "ATTRIBUTES",
          "byteStride": 8,
          "count": 2901
        }
      }
    },
    {
      "buffer": 1,
      "byteOffset": 274852,
      "byteLength": 27768,
      "target": 34962,
      "byteStride": 8,
      "extensions": {
        "EXT_meshopt_compression": {
          "buffer": 0,
          "byteOffset": 126716,
          "byteLength": 21964,
          "mode": "ATTRIBUTES",
          "byteStride": 8,
          "count": 3471
        }
      }
    },
    {
      "buffer": 1,
      "byteOffset": 302620,
      "byteLength": 16440,
      "target": 34962,
      "byteStride": 8,
      "extensions": {
        "EXT_meshopt_compression": {
          "buffer": 0,
          "byteOffset": 148680,
          "byteLength": 11254,
          "mode": "ATTRIBUTES",
          "byteStride": 8,
          "count": 2055
        }
      }
    },
    {
      "buffer": 1,
      "byteOffset": 319060,
      "byteLength": 16440,
      "target": 34962,
      "byteStride": 8,
      "extensions": {
        "EXT_meshopt_compression": {
          "buffer": 0,
          "byteOffset": 159936,
          "byteLength": 12632,
          "mode": "ATTRIBUTES",
          "byteStride": 8,
          "count": 2055
        }
      }
    },
    {
      "buffer": 1,
      "byteOffset": 335500,
      "byteLength": 3096,
      "target": 34962,
      "byteStride": 8,
      "extensions": {
        "EXT_meshopt_compression": {
          "buffer": 0,
          "byteOffset": 172568,
          "byteLength": 2266,
          "mode": "ATTRIBUTES",
          "byteStride": 8,
          "count": 387
        }
      }
    },
    {
      "buffer": 1,
      "byteOffset": 338596,
      "byteLength": 3096,
      "target": 34962,
      "byteStride": 8,
      "extensions": {
        "EXT_meshopt_compression": {
          "buffer": 0,
          "byteOffset": 174836,
          "byteLength": 2434,
          "mode": "ATTRIBUTES",
          "byteStride": 8,
          "count": 387
        }
      }
    },
    {
      "buffer": 1,
      "byteOffset": 341692,
      "byteLength": 3096,
      "target": 34962,
      "byteStride": 8,
      "extensions": {
        "EXT_meshopt_compression": {
          "buffer": 0,
          "byteOffset": 177272,
          "byteLength": 2282,
          "mode": "ATTRIBUTES",
          "byteStride": 8,
          "count": 387
        }
      }
    },
    {
      "buffer": 1,
      "byteOffset": 344788,
      "byteLength": 3096,
      "target": 34962,
      "byteStride": 8,
      "extensions": {
        "EXT_meshopt_compression": {
          "buffer": 0,
          "byteOffset": 179556,
          "byteLength": 2434,
          "mode": "ATTRIBUTES",
          "byteStride": 8,
          "count": 387
        }
      }
    },
    {
      "buffer": 1,
      "byteOffset": 347884,
      "byteLength": 16424,
      "target": 34962,
      "byteStride": 8,
      "extensions": {
        "EXT_meshopt_compression": {
          "buffer": 0,
          "byteOffset": 181992,
          "byteLength": 11251,
          "mode": "ATTRIBUTES",
          "byteStride": 8,
          "count": 2053
        }
      }
    },
    {
      "buffer": 1,
      "byteOffset": 364308,
      "byteLength": 16424,
      "target": 34962,
      "byteStride": 8,
      "extensions": {
        "EXT_meshopt_compression": {
          "buffer": 0,
          "byteOffset": 193244,
          "byteLength": 12620,
          "mode": "ATTRIBUTES",
          "byteStride": 8,
          "count": 2053
        }
      }
    },
    {
      "buffer": 1,
      "byteOffset": 380732,
      "byteLength": 2688,
      "target": 34962,
      "byteStride": 8,
      "extensions": {
        "EXT_meshopt_compression": {
          "buffer": 0,
          "byteOffset": 205864,
          "byteLength": 1708,
          "mode": "ATTRIBUTES",
          "byteStride": 8,
          "count": 336
        }
      }
    },
    {
      "buffer": 1,
      "byteOffset": 383420,
      "byteLength": 2688,
      "target": 34962,
      "byteStride": 8,
      "extensions": {
        "EXT_meshopt_compression": {
          "buffer": 0,
          "byteOffset": 207572,
          "byteLength": 1144,
          "mode": "ATTRIBUTES",
          "byteStride": 8,
          "count": 336
        }
      }
    },
    {
      "buffer": 1,
      "byteOffset": 386108,
      "byteLength": 2248,
      "target": 34962,
      "byteStride": 8,
      "extensions": {
        "EXT_meshopt_compression": {
          "buffer": 0,
          "byteOffset": 208716,
          "byteLength": 1643,
          "mode": "ATTRIBUTES",
          "byteStride": 8,
          "count": 281
        }
      }
    },
    {
      "buffer": 1,
      "byteOffset": 388356,
      "byteLength": 2248,
      "target": 34962,
      "byteStride": 8,
      "extensions": {
        "EXT_meshopt_compression": {
          "buffer": 0,
          "byteOffset": 210360,
          "byteLength": 1752,
          "mode": "ATTRIBUTES",
          "byteStride": 8,
          "count": 281
        }
      }
    },
    {
      "buffer": 1,
      "byteOffset": 390604,
      "byteLength": 28344,
      "target": 34962,
      "byteStride": 8,
      "extensions": {
        "EXT_meshopt_compression": {
          "buffer": 0,
          "byteOffset": 212112,
          "byteLength": 18480,
          "mode": "ATTRIBUTES",
          "byteStride": 8,
          "count": 3543
        }
      }
    },
    {
      "buffer": 1,
      "byteOffset": 418948,
      "byteLength": 28344,
      "target": 34962,
      "byteStride": 8,
      "extensions": {
        "EXT_meshopt_compression": {
          "buffer": 0,
          "byteOffset": 230592,
          "byteLength": 21763,
          "mode": "ATTRIBUTES",
          "byteStride": 8,
          "count": 3543
        }
      }
    },
    {
      "buffer": 1,
      "byteOffset": 447292,
      "byteLength": 14172,
      "target": 34962,
      "byteStride": 4,
      "extensions": {
        "EXT_meshopt_compression": {
          "buffer": 0,
          "byteOffset": 252356,
          "byteLength": 2561,
          "mode": "ATTRIBUTES",
          "byteStride": 4,
          "count": 3543
        }
      }
    },
    {
      "buffer": 1,
      "byteOffset": 461464,
      "byteLength": 2880,
      "target": 34962,
      "byteStride": 8,
      "extensions": {
        "EXT_meshopt_compression": {
          "buffer": 0,
          "byteOffset": 254920,
          "byteLength": 2235,
          "mode": "ATTRIBUTES",
          "byteStride": 8,
          "count": 360
        }
      }
    },
    {
      "buffer": 1,
      "byteOffset": 464344,
      "byteLength": 2880,
      "target": 34962,
      "byteStride": 8,
      "extensions": {
        "EXT_meshopt_compression": {
          "buffer": 0,
          "byteOffset": 257156,
          "byteLength": 2151,
          "mode": "ATTRIBUTES",
          "byteStride": 8,
          "count": 360
        }
      }
    },
    {
      "buffer": 1,
      "byteOffset": 467224,
      "byteLength": 1440,
      "target": 34962,
      "byteStride": 4,
      "extensions": {
        "EXT_meshopt_compression": {
          "buffer": 0,
          "byteOffset": 259308,
          "byteLength": 57,
          "mode": "ATTRIBUTES",
          "byteStride": 4,
          "count": 360
        }
      }
    },
    {
      "buffer": 1,
      "byteOffset": 468664,
      "byteLength": 1336,
      "target": 34962,
      "byteStride": 8,
      "extensions": {
        "EXT_meshopt_compression": {
          "buffer": 0,
          "byteOffset": 259368,
          "byteLength": 839,
          "mode": "ATTRIBUTES",
          "byteStride": 8,
          "count": 167
        }
      }
    },
    {
      "buffer": 1,
      "byteOffset": 470000,
      "byteLength": 1336,
      "target": 34962,
      "byteStride": 8,
      "extensions": {
        "EXT_meshopt_compression": {
          "buffer": 0,
          "byteOffset": 260208,
          "byteLength": 1082,
          "mode": "ATTRIBUTES",
          "byteStride": 8,
          "count": 167
        }
      }
    },
    {
      "buffer": 1,
      "byteOffset": 471336,
      "byteLength": 668,
      "target": 34962,
      "byteStride": 4,
      "extensions": {
        "EXT_meshopt_compression": {
          "buffer": 0,
          "byteOffset": 261292,
          "byteLength": 45,
          "mode": "ATTRIBUTES",
          "byteStride": 4,
          "count": 167
        }
      }
    },
    {
      "buffer": 1,
      "byteOffset": 472004,
      "byteLength": 304,
      "target": 34962,
      "byteStride": 8,
      "extensions": {
        "EXT_meshopt_compression": {
          "buffer": 0,
          "byteOffset": 261340,
          "byteLength": 230,
          "mode": "ATTRIBUTES",
          "byteStride": 8,
          "count": 38
        }
      }
    },
    {
      "buffer": 1,
      "byteOffset": 472308,
      "byteLength": 304,
      "target": 34962,
      "byteStride": 8,
      "extensions": {
        "EXT_meshopt_compression": {
          "buffer": 0,
          "byteOffset": 261572,
          "byteLength": 227,
          "mode": "ATTRIBUTES",
          "byteStride": 8,
          "count": 38
        }
      }
    },
    {
      "buffer": 1,
      "byteOffset": 472612,
      "byteLength": 152,
      "target": 34962,
      "byteStride": 4,
      "extensions": {
        "EXT_meshopt_compression": {
          "buffer": 0,
          "byteOffset": 261800,
          "byteLength": 133,
          "mode": "ATTRIBUTES",
          "byteStride": 4,
          "count": 38
        }
      }
    },
    {
      "buffer": 1,
      "byteOffset": 472764,
      "byteLength": 1208,
      "target": 34962,
      "byteStride": 8,
      "extensions": {
        "EXT_meshopt_compression": {
          "buffer": 0,
          "byteOffset": 261936,
          "byteLength": 830,
          "mode": "ATTRIBUTES",
          "byteStride": 8,
          "count": 151
        }
      }
    },
    {
      "buffer": 1,
      "byteOffset": 473972,
      "byteLength": 1208,
      "target": 34962,
      "byteStride": 8,
      "extensions": {
        "EXT_meshopt_compression": {
          "buffer": 0,
          "byteOffset": 262768,
          "byteLength": 987,
          "mode": "ATTRIBUTES",
          "byteStride": 8,
          "count": 151
        }
      }
    },
    {
      "buffer": 1,
      "byteOffset": 475180,
      "byteLength": 1720,
      "target": 34962,
      "byteStride": 8,
      "extensions": {
        "EXT_meshopt_compression": {
          "buffer": 0,
          "byteOffset": 263756,
          "byteLength": 1357,
          "mode": "ATTRIBUTES",
          "byteStride": 8,
          "count": 215
        }
      }
    },
    {
      "buffer": 1,
      "byteOffset": 476900,
      "byteLength": 1720,
      "target": 34962,
      "byteStride": 8,
      "extensions": {
        "EXT_meshopt_compression": {
          "buffer": 0,
          "byteOffset": 265116,
          "byteLength": 1378,
          "mode": "ATTRIBUTES",
          "byteStride": 8,
          "count": 215
        }
      }
    },
    {
      "buffer": 1,
      "byteOffset": 478620,
      "byteLength": 2464,
      "target": 34962,
      "byteStride": 8,
      "extensions": {
        "EXT_meshopt_compression": {
          "buffer": 0,
          "byteOffset": 266496,
          "byteLength": 1509,
          "mode": "ATTRIBUTES",
          "byteStride": 8,
          "count": 308
        }
      }
    },
    {
      "buffer": 1,
      "byteOffset": 481084,
      "byteLength": 2464,
      "target": 34962,
      "byteStride": 8,
      "extensions": {
        "EXT_meshopt_compression": {
          "buffer": 0,
          "byteOffset": 268008,
          "byteLength": 1845,
          "mode": "ATTRIBUTES",
          "byteStride": 8,
          "count": 308
        }
      }
    },
    {
      "buffer": 1,
      "byteOffset": 483548,
      "byteLength": 1312,
      "target": 34962,
      "byteStride": 8,
      "extensions": {
        "EXT_meshopt_compression": {
          "buffer": 0,
          "byteOffset": 269856,
          "byteLength": 1011,
          "mode": "ATTRIBUTES",
          "byteStride": 8,
          "count": 164
        }
      }
    },
    {
      "buffer": 1,
      "byteOffset": 484860,
      "byteLength": 1312,
      "target": 34962,
      "byteStride": 8,
      "extensions": {
        "EXT_meshopt_compression": {
          "buffer": 0,
          "byteOffset": 270868,
          "byteLength": 1065,
          "mode": "ATTRIBUTES",
          "byteStride": 8,
          "count": 164
        }
      }
    },
    {
      "buffer": 1,
      "byteOffset": 486172,
      "byteLength": 864,
      "target": 34962,
      "byteStride": 8,
      "extensions": {
        "EXT_meshopt_compression": {
          "buffer": 0,
          "byteOffset": 271936,
          "byteLength": 592,
          "mode": "ATTRIBUTES",
          "byteStride": 8,
          "count": 108
        }
      }
    },
    {
      "buffer": 1,
      "byteOffset": 487036,
      "byteLength": 864,
      "target": 34962,
      "byteStride": 8,
      "extensions": {
        "EXT_meshopt_compression": {
          "buffer": 0,
          "byteOffset": 272528,
          "byteLength": 606,
          "mode": "ATTRIBUTES",
          "byteStride": 8,
          "count": 108
        }
      }
    },
    {
      "buffer": 1,
      "byteOffset": 487900,
      "byteLength": 20864,
      "target": 34962,
      "byteStride": 8,
      "extensions": {
        "EXT_meshopt_compression": {
          "buffer": 0,
          "byteOffset": 273136,
          "byteLength": 12667,
          "mode": "ATTRIBUTES",
          "byteStride": 8,
          "count": 2608
        }
      }
    },
    {
      "buffer": 1,
      "byteOffset": 508764,
      "byteLength": 20864,
      "target": 34962,
      "byteStride": 8,
      "extensions": {
        "EXT_meshopt_compression": {
          "buffer": 0,
          "byteOffset": 285804,
          "byteLength": 14143,
          "mode": "ATTRIBUTES",
          "byteStride": 8,
          "count": 2608
        }
      }
    },
    {
      "buffer": 1,
      "byteOffset": 529628,
      "byteLength": 1232,
      "target": 34962,
      "byteStride": 8,
      "extensions": {
        "EXT_meshopt_compression": {
          "buffer": 0,
          "byteOffset": 299948,
          "byteLength": 1001,
          "mode": "ATTRIBUTES",
          "byteStride": 8,
          "count": 154
        }
      }
    },
    {
      "buffer": 1,
      "byteOffset": 530860,
      "byteLength": 1232,
      "target": 34962,
      "byteStride": 8,
      "extensions": {
        "EXT_meshopt_compression": {
          "buffer": 0,
          "byteOffset": 300952,
          "byteLength": 910,
          "mode": "ATTRIBUTES",
          "byteStride": 8,
          "count": 154
        }
      }
    },
    {
      "buffer": 1,
      "byteOffset": 532092,
      "byteLength": 616,
      "target": 34962,
      "byteStride": 4,
      "extensions": {
        "EXT_meshopt_compression": {
          "buffer": 0,
          "byteOffset": 301864,
          "byteLength": 483,
          "mode": "ATTRIBUTES",
          "byteStride": 4,
          "count": 154
        }
      }
    },
    {
      "buffer": 1,
      "byteOffset": 532708,
      "byteLength": 2688,
      "target": 34962,
      "byteStride": 8,
      "extensions": {
        "EXT_meshopt_compression": {
          "buffer": 0,
          "byteOffset": 302348,
          "byteLength": 1738,
          "mode": "ATTRIBUTES",
          "byteStride": 8,
          "count": 336
        }
      }
    },
    {
      "buffer": 1,
      "byteOffset": 535396,
      "byteLength": 2688,
      "target": 34962,
      "byteStride": 8,
      "extensions": {
        "EXT_meshopt_compression": {
          "buffer": 0,
          "byteOffset": 304088,
          "byteLength": 1150,
          "mode": "ATTRIBUTES",
          "byteStride": 8,
          "count": 336
        }
      }
    },
    {
      "buffer": 1,
      "byteOffset": 538084,
      "byteLength": 1344,
      "target": 34962,
      "byteStride": 4,
      "extensions": {
        "EXT_meshopt_compression": {
          "buffer": 0,
          "byteOffset": 305240,
          "byteLength": 57,
          "mode": "ATTRIBUTES",
          "byteStride": 4,
          "count": 336
        }
      }
    },
    {
      "buffer": 1,
      "byteOffset": 539428,
      "byteLength": 2336,
      "target": 34962,
      "byteStride": 8,
      "extensions": {
        "EXT_meshopt_compression": {
          "buffer": 0,
          "byteOffset": 305300,
          "byteLength": 1761,
          "mode": "ATTRIBUTES",
          "byteStride": 8,
          "count": 292
        }
      }
    },
    {
      "buffer": 1,
      "byteOffset": 541764,
      "byteLength": 2336,
      "target": 34962,
      "byteStride": 8,
      "extensions": {
        "EXT_meshopt_compression": {
          "buffer": 0,
          "byteOffset": 307064,
          "byteLength": 1848,
          "mode": "ATTRIBUTES",
          "byteStride": 8,
          "count": 292
        }
      }
    },
    {
      "buffer": 1,
      "byteOffset": 544100,
      "byteLength": 1168,
      "target": 34962,
      "byteStride": 4,
      "extensions": {
        "EXT_meshopt_compression": {
          "buffer": 0,
          "byteOffset": 308912,
          "byteLength": 53,
          "mode": "ATTRIBUTES",
          "byteStride": 4,
          "count": 292
        }
      }
    },
    {
      "buffer": 1,
      "byteOffset": 545268,
      "byteLength": 23208,
      "target": 34962,
      "byteStride": 8,
      "extensions": {
        "EXT_meshopt_compression": {
          "buffer": 0,
          "byteOffset": 308968,
          "byteLength": 15295,
          "mode": "ATTRIBUTES",
          "byteStride": 8,
          "count": 2901
        }
      }
    },
    {
      "buffer": 1,
      "byteOffset": 568476,
      "byteLength": 23208,
      "target": 34962,
      "byteStride": 8,
      "extensions": {
        "EXT_meshopt_compression": {
          "buffer": 0,
          "byteOffset": 324264,
          "byteLength": 14117,
          "mode": "ATTRIBUTES",
          "byteStride": 8,
          "count": 2901
        }
      }
    },
    {
      "buffer": 1,
      "byteOffset": 591684,
      "byteLength": 11604,
      "target": 34962,
      "byteStride": 4,
      "extensions": {
        "EXT_meshopt_compression": {
          "buffer": 0,
          "byteOffset": 338384,
          "byteLength": 3494,
          "mode": "ATTRIBUTES",
          "byteStride": 4,
          "count": 2901
        }
      }
    },
    {
      "buffer": 1,
      "byteOffset": 603288,
      "byteLength": 27768,
      "target": 34962,
      "byteStride": 8,
      "extensions": {
        "EXT_meshopt_compression": {
          "buffer": 0,
          "byteOffset": 341880,
          "byteLength": 18531,
          "mode": "ATTRIBUTES",
          "byteStride": 8,
          "count": 3471
        }
      }
    },
    {
      "buffer": 1,
      "byteOffset": 631056,
      "byteLength": 27768,
      "target": 34962,
      "byteStride": 8,
      "extensions": {
        "EXT_meshopt_compression": {
          "buffer": 0,
          "byteOffset": 360412,
          "byteLength": 21305,
          "mode": "ATTRIBUTES",
          "byteStride": 8,
          "count": 3471
        }
      }
    },
    {
      "buffer": 1,
      "byteOffset": 658824,
      "byteLength": 13884,
      "target": 34962,
      "byteStride": 4,
      "extensions": {
        "EXT_meshopt_compression": {
          "buffer": 0,
          "byteOffset": 381720,
          "byteLength": 2398,
          "mode": "ATTRIBUTES",
          "byteStride": 4,
          "count": 3471
        }
      }
    }
  ],
  "samplers": [
    {
      "magFilter": 9729,
      "minFilter": 9987,
      "wrapS": 10497,
      "wrapT": 10497
    }
  ],
  "textures": [
    {
      "sampler": 0,
      "extensions": {
        "EXT_texture_webp": {
          "source": 1
        }
      }
    },
    {
      "sampler": 0,
      "extensions": {
        "EXT_texture_webp": {
          "source": 0
        }
      }
    },
    {
      "sampler": 0,
      "extensions": {
        "EXT_texture_webp": {
          "source": 2
        }
      }
    },
    {
      "sampler": 0,
      "extensions": {
        "EXT_texture_webp": {
          "source": 4
        }
      }
    },
    {
      "sampler": 0,
      "extensions": {
        "EXT_texture_webp": {
          "source": 3
        }
      }
    },
    {
      "sampler": 0,
      "extensions": {
        "EXT_texture_webp": {
          "source": 5
        }
      }
    },
    {
      "sampler": 0,
      "extensions": {
        "EXT_texture_webp": {
          "source": 7
        }
      }
    },
    {
      "sampler": 0,
      "extensions": {
        "EXT_texture_webp": {
          "source": 6
        }
      }
    },
    {
      "sampler": 0,
      "extensions": {
        "EXT_texture_webp": {
          "source": 8
        }
      }
    },
    {
      "sampler": 0,
      "extensions": {
        "EXT_texture_webp": {
          "source": 10
        }
      }
    },
    {
      "sampler": 0,
      "extensions": {
        "EXT_texture_webp": {
          "source": 9
        }
      }
    },
    {
      "sampler": 0,
      "extensions": {
        "EXT_texture_webp": {
          "source": 11
        }
      }
    },
    {
      "sampler": 0,
      "extensions": {
        "EXT_texture_webp": {
          "source": 13
        }
      }
    },
    {
      "sampler": 0,
      "extensions": {
        "EXT_texture_webp": {
          "source": 12
        }
      }
    },
    {
      "sampler": 0,
      "extensions": {
        "EXT_texture_webp": {
          "source": 14
        }
      }
    }
  ],
  "images": [
    {
      "name": "Weathered stone normal",
      "mimeType": "image/webp",
      "uri": "textures/surface-4853a2902092cc7c.webp"
    },
    {
      "name": "Weathered stone color",
      "mimeType": "image/webp",
      "uri": "textures/surface-eb11894954d89b5d.webp"
    },
    {
      "name": "Weathered stone roughness metalness",
      "mimeType": "image/webp",
      "uri": "textures/surface-74120f0f7fbce6d0.webp"
    },
    {
      "name": "Skin and bone normal",
      "mimeType": "image/webp",
      "uri": "textures/surface-4559974a06565aa7.webp"
    },
    {
      "name": "Skin and bone color",
      "mimeType": "image/webp",
      "uri": "textures/surface-a9f4de518b3c7cb7.webp"
    },
    {
      "name": "Skin and bone roughness metalness",
      "mimeType": "image/webp",
      "uri": "textures/surface-b996c2b2f691ba30.webp"
    },
    {
      "name": "Forged iron normal",
      "mimeType": "image/webp",
      "uri": "textures/surface-fb516ec6c866d7b9.webp"
    },
    {
      "name": "Forged iron color",
      "mimeType": "image/webp",
      "uri": "textures/surface-25be23cebf724530.webp"
    },
    {
      "name": "Forged iron roughness metalness",
      "mimeType": "image/webp",
      "uri": "textures/surface-6fb9fef78a463bef.webp"
    },
    {
      "name": "Woven cloth normal",
      "mimeType": "image/webp",
      "uri": "textures/surface-15c84119ca507c8c.webp"
    },
    {
      "name": "Woven cloth color",
      "mimeType": "image/webp",
      "uri": "textures/surface-4c574f63fd10e874.webp"
    },
    {
      "name": "Woven cloth roughness metalness",
      "mimeType": "image/webp",
      "uri": "textures/surface-a12b74f6e814638e.webp"
    },
    {
      "name": "Dark leather normal",
      "mimeType": "image/webp",
      "uri": "textures/surface-0bba31db93ee7930.webp"
    },
    {
      "name": "Dark leather color",
      "mimeType": "image/webp",
      "uri": "textures/surface-15c7f5964deff57a.webp"
    },
    {
      "name": "Dark leather roughness metalness",
      "mimeType": "image/webp",
      "uri": "textures/surface-ac0465c35b5aefec.webp"
    }
  ],
  "buffers": [
    {
      "uri": "volkrin.bin",
      "byteLength": 384120
    },
    {
      "byteLength": 672708,
      "extensions": {
        "EXT_meshopt_compression": {
          "fallback": true
        }
      }
    }
  ],
  "materials": [
    {
      "name": "Rift · Weathered stone",
      "extras": {
        "riftTextured": true
      },
      "pbrMetallicRoughness": {
        "baseColorTexture": {
          "index": 0
        },
        "metallicRoughnessTexture": {
          "index": 2
        }
      },
      "normalTexture": {
        "index": 1,
        "scale": 0.550000011920929
      }
    },
    {
      "name": "Rift · Skin and bone",
      "extras": {
        "riftTextured": true
      },
      "pbrMetallicRoughness": {
        "baseColorTexture": {
          "index": 3
        },
        "metallicRoughnessTexture": {
          "index": 5
        }
      },
      "normalTexture": {
        "index": 4,
        "scale": 0.550000011920929
      }
    },
    {
      "name": "Rift · Forged iron",
      "extras": {
        "riftTextured": true
      },
      "pbrMetallicRoughness": {
        "baseColorTexture": {
          "index": 6
        },
        "metallicRoughnessTexture": {
          "index": 8
        }
      },
      "normalTexture": {
        "index": 7,
        "scale": 0.550000011920929
      }
    },
    {
      "name": "Rift · Woven cloth",
      "extras": {
        "riftTextured": true
      },
      "doubleSided": true,
      "pbrMetallicRoughness": {
        "baseColorTexture": {
          "index": 9
        },
        "metallicRoughnessTexture": {
          "index": 11
        }
      },
      "normalTexture": {
        "index": 10,
        "scale": 0.550000011920929
      }
    },
    {
      "name": "Rift · Dark leather",
      "extras": {
        "riftTextured": true
      },
      "pbrMetallicRoughness": {
        "baseColorTexture": {
          "index": 12
        },
        "metallicRoughnessTexture": {
          "index": 14
        }
      },
      "normalTexture": {
        "index": 13,
        "scale": 0.550000011920929
      }
    },
    {
      "name": "Material_0.012",
      "extras": {
        "riftBaseColor": [
          0.8387990117372213,
          0.019382360952473074,
          0.06301001764564068,
          1
        ]
      },
      "pbrMetallicRoughness": {
        "baseColorFactor": [
          0.838798999786377,
          0.019382361322641373,
          0.06301001459360123,
          1
        ],
        "roughnessFactor": 0.25,
        "metallicFactor": 0.25
      },
      "emissiveFactor": [
        1,
        0.023107277580895567,
        0.0751193249034017
      ],
      "extensions": {
        "KHR_materials_emissive_strength": {
          "emissiveStrength": 1.2581984996795654
        }
      }
    }
  ],
  "meshes": [
    {
      "name": "Mesh_11.008",
      "primitives": [
        {
          "attributes": {
            "TEXCOORD_0": 13,
            "COLOR_0": 14,
            "POSITION": 62,
            "NORMAL": 63
          },
          "mode": 4,
          "material": 0,
          "indices": 12
        },
        {
          "attributes": {
            "TEXCOORD_0": 16,
            "COLOR_0": 17,
            "POSITION": 64,
            "NORMAL": 65
          },
          "mode": 4,
          "material": 1,
          "indices": 15
        }
      ]
    },
    {
      "name": "Mesh_16.008",
      "primitives": [
        {
          "attributes": {
            "TEXCOORD_0": 19,
            "POSITION": 66,
            "NORMAL": 67,
            "COLOR_0": 17
          },
          "mode": 4,
          "material": 1,
          "indices": 18
        },
        {
          "attributes": {
            "TEXCOORD_0": 21,
            "COLOR_0": 22,
            "POSITION": 68,
            "NORMAL": 69
          },
          "mode": 4,
          "material": 0,
          "indices": 20
        }
      ]
    },
    {
      "name": "Mesh_20.008",
      "primitives": [
        {
          "attributes": {
            "TEXCOORD_0": 24,
            "COLOR_0": 25,
            "POSITION": 70,
            "NORMAL": 71
          },
          "mode": 4,
          "material": 2,
          "indices": 23
        },
        {
          "attributes": {
            "TEXCOORD_0": 27,
            "COLOR_0": 28,
            "POSITION": 72,
            "NORMAL": 73
          },
          "mode": 4,
          "material": 3,
          "indices": 26
        }
      ]
    },
    {
      "name": "Mesh_6.008",
      "primitives": [
        {
          "attributes": {
            "TEXCOORD_0": 30,
            "POSITION": 74,
            "NORMAL": 75,
            "COLOR_0": 76
          },
          "mode": 4,
          "material": 0,
          "indices": 29
        },
        {
          "attributes": {
            "TEXCOORD_0": 32,
            "POSITION": 77,
            "NORMAL": 78,
            "COLOR_0": 79
          },
          "mode": 4,
          "material": 4,
          "indices": 31
        },
        {
          "attributes": {
            "POSITION": 80,
            "NORMAL": 81,
            "COLOR_0": 82
          },
          "mode": 4,
          "material": 5,
          "indices": 33
        },
        {
          "attributes": {
            "TEXCOORD_0": 35,
            "POSITION": 83,
            "NORMAL": 84,
            "COLOR_0": 85
          },
          "mode": 4,
          "material": 1,
          "indices": 34
        }
      ]
    },
    {
      "name": "Mesh_14.008",
      "primitives": [
        {
          "attributes": {
            "TEXCOORD_0": 37,
            "COLOR_0": 38,
            "POSITION": 86,
            "NORMAL": 87
          },
          "mode": 4,
          "material": 1,
          "indices": 36
        },
        {
          "attributes": {
            "TEXCOORD_0": 40,
            "COLOR_0": 41,
            "POSITION": 88,
            "NORMAL": 89
          },
          "mode": 4,
          "material": 0,
          "indices": 39
        }
      ]
    },
    {
      "name": "Mesh_17.008",
      "primitives": [
        {
          "attributes": {
            "TEXCOORD_0": 40,
            "COLOR_0": 41,
            "POSITION": 88,
            "NORMAL": 89
          },
          "mode": 4,
          "material": 0,
          "indices": 39
        },
        {
          "attributes": {
            "TEXCOORD_0": 37,
            "COLOR_0": 38,
            "POSITION": 86,
            "NORMAL": 87
          },
          "mode": 4,
          "material": 1,
          "indices": 36
        }
      ]
    },
    {
      "name": "Mesh_22.008",
      "primitives": [
        {
          "attributes": {
            "TEXCOORD_0": 43,
            "COLOR_0": 44,
            "POSITION": 90,
            "NORMAL": 91
          },
          "mode": 4,
          "material": 4,
          "indices": 42
        },
        {
          "attributes": {
            "TEXCOORD_0": 46,
            "COLOR_0": 47,
            "POSITION": 92,
            "NORMAL": 93
          },
          "mode": 4,
          "material": 0,
          "indices": 45
        },
        {
          "attributes": {
            "TEXCOORD_0": 49,
            "COLOR_0": 50,
            "POSITION": 94,
            "NORMAL": 95
          },
          "mode": 4,
          "material": 1,
          "indices": 48
        },
        {
          "attributes": {
            "TEXCOORD_0": 52,
            "COLOR_0": 53,
            "POSITION": 96,
            "NORMAL": 97
          },
          "mode": 4,
          "material": 2,
          "indices": 51
        }
      ]
    },
    {
      "name": "Mesh_4.008",
      "primitives": [
        {
          "attributes": {
            "TEXCOORD_0": 55,
            "POSITION": 98,
            "NORMAL": 99,
            "COLOR_0": 100
          },
          "mode": 4,
          "material": 1,
          "indices": 54
        },
        {
          "attributes": {
            "POSITION": 101,
            "NORMAL": 102,
            "COLOR_0": 103
          },
          "mode": 4,
          "material": 5,
          "indices": 23
        },
        {
          "attributes": {
            "TEXCOORD_0": 57,
            "POSITION": 104,
            "NORMAL": 105,
            "COLOR_0": 106
          },
          "mode": 4,
          "material": 4,
          "indices": 56
        },
        {
          "attributes": {
            "TEXCOORD_0": 59,
            "POSITION": 107,
            "NORMAL": 108,
            "COLOR_0": 109
          },
          "mode": 4,
          "material": 2,
          "indices": 58
        },
        {
          "attributes": {
            "TEXCOORD_0": 61,
            "POSITION": 110,
            "NORMAL": 111,
            "COLOR_0": 112
          },
          "mode": 4,
          "material": 0,
          "indices": 60
        }
      ]
    }
  ],
  "nodes": [
    {
      "name": "volkrin__Mesh_11",
      "extras": {
        "riftTextured": true
      },
      "translation": [
        -0.16154570877552032,
        -0.6110826879739761,
        0.17759302258491516
      ],
      "scale": [
        1.0625359863042831,
        1.0625359863042831,
        1.0625359863042831
      ],
      "mesh": 0
    },
    {
      "name": "volkrin__arm_l",
      "translation": [
        -0.8500000238418579,
        3.0999999046325684,
        0
      ],
      "children": [
        0
      ]
    },
    {
      "name": "volkrin__Mesh_16",
      "extras": {
        "riftTextured": true
      },
      "translation": [
        0.17156058549880981,
        -0.6110602915287018,
        0.17759302258491516
      ],
      "scale": [
        1.0625583827495575,
        1.0625583827495575,
        1.0625583827495575
      ],
      "mesh": 1
    },
    {
      "name": "volkrin__arm_r",
      "translation": [
        0.8500000238418579,
        3.0999999046325684,
        0
      ],
      "children": [
        2
      ]
    },
    {
      "name": "volkrin__Mesh_20",
      "extras": {
        "riftTextured": true
      },
      "translation": [
        1.8591733141974863e-17,
        -1.3788072168827057,
        -0.2618129998445511
      ],
      "rotation": [
        0,
        1,
        0,
        6.123234262925839e-17
      ],
      "scale": [
        1.378959745168686,
        1.378959745168686,
        1.378959745168686
      ],
      "mesh": 2
    },
    {
      "name": "volkrin__cape",
      "translation": [
        0,
        3.2300000190734863,
        -0.33000001311302185
      ],
      "children": [
        4
      ]
    },
    {
      "name": "volkrin__Mesh_6",
      "extras": {
        "riftTextured": true
      },
      "translation": [
        0,
        -0.019999890578418444,
        0.19554111146444164
      ],
      "scale": [
        1.0736841439573368,
        0.8500000084073918,
        1.521052681709591
      ],
      "mesh": 3
    },
    {
      "name": "volkrin__head",
      "translation": [
        0,
        3.4600000381469727,
        0
      ],
      "scale": [
        1.0499999523162842,
        1,
        1.149999976158142
      ],
      "children": [
        6
      ]
    },
    {
      "name": "volkrin__Mesh_14",
      "extras": {
        "riftTextured": true
      },
      "translation": [
        0,
        -0.6139297634363174,
        0.15173324942588806
      ],
      "scale": [
        0.7631916850805283,
        0.7631916850805283,
        0.7631916850805283
      ],
      "mesh": 4
    },
    {
      "name": "volkrin__leg_l",
      "translation": [
        -0.27000001072883606,
        1.6699999570846558,
        0
      ],
      "scale": [
        1,
        1.1399999856948853,
        1
      ],
      "children": [
        8
      ]
    },
    {
      "name": "volkrin__Mesh_17",
      "extras": {
        "riftTextured": true
      },
      "translation": [
        0,
        -0.6139297634363174,
        0.15173324942588806
      ],
      "scale": [
        0.7631916850805283,
        0.7631916850805283,
        0.7631916850805283
      ],
      "mesh": 5
    },
    {
      "name": "volkrin__leg_r",
      "translation": [
        0.27000001072883606,
        1.6699999570846558,
        0
      ],
      "scale": [
        1,
        1.1399999856948853,
        1
      ],
      "children": [
        10
      ]
    },
    {
      "name": "volkrin__Mesh_22",
      "extras": {
        "riftTextured": true
      },
      "translation": [
        0.0000055730342864990234,
        1.2988684177398682,
        -0.587326854467392
      ],
      "scale": [
        1.0626731216907501,
        1.0626731216907501,
        1.0626731216907501
      ],
      "mesh": 6
    },
    {
      "name": "volkrin__Mesh_4",
      "extras": {
        "riftTextured": true
      },
      "translation": [
        0,
        -0.004314780235290527,
        0.047755151987075806
      ],
      "scale": [
        0.949999988079071,
        0.949999988079071,
        0.949999988079071
      ],
      "mesh": 7
    },
    {
      "name": "volkrin__torso",
      "translation": [
        0,
        2.549999952316284,
        0
      ],
      "children": [
        13
      ]
    },
    {
      "name": "volkrin",
      "extras": {
        "asset": "volkrin",
        "category": "Heroes",
        "title": "Beast of the Rift",
        "rig": {
          "torso": "torso",
          "head": "head",
          "arms": [
            "arm_l",
            "arm_r"
          ],
          "legs": [
            "leg_l",
            "leg_r"
          ],
          "cape": "cape"
        },
        "referencePass": 2,
        "riftAsset": "volkrin",
        "authoring": "Blender 4.5 · UV/PBR surfaces · rigid articulated animation"
      },
      "scale": [
        1.2200000286102295,
        1,
        1
      ],
      "children": [
        1,
        3,
        5,
        7,
        9,
        11,
        12,
        14
      ]
    }
  ],
  "animations": [
    {
      "name": "Attack",
      "samplers": [
        {
          "input": 0,
          "output": 1,
          "interpolation": "LINEAR"
        },
        {
          "input": 0,
          "output": 2,
          "interpolation": "LINEAR"
        },
        {
          "input": 0,
          "output": 3,
          "interpolation": "LINEAR"
        }
      ],
      "channels": [
        {
          "sampler": 0,
          "target": {
            "node": 1,
            "path": "rotation"
          }
        },
        {
          "sampler": 1,
          "target": {
            "node": 3,
            "path": "rotation"
          }
        },
        {
          "sampler": 2,
          "target": {
            "node": 14,
            "path": "rotation"
          }
        }
      ]
    },
    {
      "name": "Walk",
      "samplers": [
        {
          "input": 0,
          "output": 4,
          "interpolation": "LINEAR"
        },
        {
          "input": 0,
          "output": 5,
          "interpolation": "LINEAR"
        },
        {
          "input": 0,
          "output": 6,
          "interpolation": "LINEAR"
        },
        {
          "input": 0,
          "output": 7,
          "interpolation": "LINEAR"
        },
        {
          "input": 0,
          "output": 8,
          "interpolation": "LINEAR"
        }
      ],
      "channels": [
        {
          "sampler": 0,
          "target": {
            "node": 1,
            "path": "rotation"
          }
        },
        {
          "sampler": 1,
          "target": {
            "node": 3,
            "path": "rotation"
          }
        },
        {
          "sampler": 2,
          "target": {
            "node": 5,
            "path": "rotation"
          }
        },
        {
          "sampler": 3,
          "target": {
            "node": 9,
            "path": "rotation"
          }
        },
        {
          "sampler": 4,
          "target": {
            "node": 11,
            "path": "rotation"
          }
        }
      ]
    },
    {
      "name": "Idle",
      "samplers": [
        {
          "input": 9,
          "output": 10,
          "interpolation": "LINEAR"
        },
        {
          "input": 9,
          "output": 11,
          "interpolation": "LINEAR"
        }
      ],
      "channels": [
        {
          "sampler": 0,
          "target": {
            "node": 5,
            "path": "rotation"
          }
        },
        {
          "sampler": 1,
          "target": {
            "node": 14,
            "path": "rotation"
          }
        }
      ]
    }
  ],
  "scenes": [
    {
      "name": "Scene",
      "nodes": [
        15
      ]
    }
  ],
  "scene": 0,
  "extensionsUsed": [
    "EXT_meshopt_compression",
    "EXT_texture_webp",
    "KHR_materials_emissive_strength",
    "KHR_mesh_quantization"
  ],
  "extensionsRequired": [
    "EXT_meshopt_compression",
    "EXT_texture_webp",
    "KHR_mesh_quantization"
  ]
}