{
  "asset": {
    "generator": "glTF-Transform v4.5.0",
    "version": "2.0"
  },
  "accessors": [
    {
      "type": "SCALAR",
      "componentType": 5126,
      "count": 25,
      "max": [
        1.0416666269302368
      ],
      "min": [
        0.0416666679084301
      ],
      "normalized": false,
      "byteOffset": 0,
      "bufferView": 0
    },
    {
      "type": "VEC4",
      "componentType": 5126,
      "count": 25,
      "normalized": false,
      "byteOffset": 0,
      "bufferView": 1
    },
    {
      "type": "VEC4",
      "componentType": 5126,
      "count": 25,
      "normalized": false,
      "byteOffset": 400,
      "bufferView": 1
    },
    {
      "type": "VEC4",
      "componentType": 5126,
      "count": 25,
      "normalized": false,
      "byteOffset": 800,
      "bufferView": 1
    },
    {
      "type": "VEC4",
      "componentType": 5126,
      "count": 25,
      "normalized": false,
      "byteOffset": 1200,
      "bufferView": 1
    },
    {
      "type": "VEC4",
      "componentType": 5126,
      "count": 25,
      "normalized": false,
      "byteOffset": 1600,
      "bufferView": 1
    },
    {
      "type": "VEC4",
      "componentType": 5126,
      "count": 25,
      "normalized": false,
      "byteOffset": 2000,
      "bufferView": 1
    },
    {
      "type": "VEC4",
      "componentType": 5126,
      "count": 25,
      "normalized": false,
      "byteOffset": 2400,
      "bufferView": 1
    },
    {
      "type": "VEC4",
      "componentType": 5126,
      "count": 25,
      "normalized": false,
      "byteOffset": 2800,
      "bufferView": 1
    },
    {
      "type": "VEC4",
      "componentType": 5126,
      "count": 25,
      "normalized": false,
      "byteOffset": 3200,
      "bufferView": 1
    },
    {
      "type": "SCALAR",
      "componentType": 5126,
      "count": 49,
      "max": [
        2.0416667461395264
      ],
      "min": [
        0.0416666679084301
      ],
      "normalized": false,
      "byteOffset": 100,
      "bufferView": 0
    },
    {
      "type": "VEC4",
      "componentType": 5126,
      "count": 49,
      "normalized": false,
      "byteOffset": 3600,
      "bufferView": 1
    },
    {
      "type": "VEC4",
      "componentType": 5126,
      "count": 49,
      "normalized": false,
      "byteOffset": 4384,
      "bufferView": 1
    },
    {
      "type": "SCALAR",
      "componentType": 5123,
      "count": 14670,
      "normalized": false,
      "byteOffset": 0,
      "bufferView": 2
    },
    {
      "type": "VEC2",
      "componentType": 5126,
      "count": 5896,
      "normalized": false,
      "byteOffset": 0,
      "bufferView": 3
    },
    {
      "type": "SCALAR",
      "componentType": 5123,
      "count": 276,
      "normalized": false,
      "byteOffset": 29340,
      "bufferView": 2
    },
    {
      "type": "SCALAR",
      "componentType": 5123,
      "count": 594,
      "normalized": false,
      "byteOffset": 29892,
      "bufferView": 2
    },
    {
      "type": "VEC2",
      "componentType": 5126,
      "count": 189,
      "normalized": false,
      "byteOffset": 0,
      "bufferView": 4
    },
    {
      "type": "SCALAR",
      "componentType": 5123,
      "count": 564,
      "normalized": false,
      "byteOffset": 31080,
      "bufferView": 2
    },
    {
      "type": "VEC2",
      "componentType": 5126,
      "count": 374,
      "normalized": false,
      "byteOffset": 0,
      "bufferView": 5
    },
    {
      "type": "SCALAR",
      "componentType": 5123,
      "count": 2718,
      "normalized": false,
      "byteOffset": 32208,
      "bufferView": 2
    },
    {
      "type": "VEC2",
      "componentType": 5126,
      "count": 1169,
      "normalized": false,
      "byteOffset": 0,
      "bufferView": 6
    },
    {
      "type": "SCALAR",
      "componentType": 5123,
      "count": 426,
      "normalized": false,
      "byteOffset": 37644,
      "bufferView": 2
    },
    {
      "type": "SCALAR",
      "componentType": 5123,
      "count": 14670,
      "normalized": false,
      "byteOffset": 38496,
      "bufferView": 2
    },
    {
      "type": "VEC2",
      "componentType": 5126,
      "count": 5889,
      "normalized": false,
      "byteOffset": 0,
      "bufferView": 7
    },
    {
      "type": "SCALAR",
      "componentType": 5123,
      "count": 2718,
      "normalized": false,
      "byteOffset": 67836,
      "bufferView": 2
    },
    {
      "type": "VEC2",
      "componentType": 5126,
      "count": 1169,
      "normalized": false,
      "byteOffset": 0,
      "bufferView": 8
    },
    {
      "type": "SCALAR",
      "componentType": 5123,
      "count": 777,
      "normalized": false,
      "byteOffset": 73272,
      "bufferView": 2
    },
    {
      "type": "VEC2",
      "componentType": 5126,
      "count": 281,
      "normalized": false,
      "byteOffset": 0,
      "bufferView": 9
    },
    {
      "type": "VEC4",
      "componentType": 5121,
      "count": 281,
      "normalized": true,
      "byteOffset": 0,
      "bufferView": 10
    },
    {
      "type": "SCALAR",
      "componentType": 5123,
      "count": 372,
      "normalized": false,
      "byteOffset": 74826,
      "bufferView": 2
    },
    {
      "type": "VEC2",
      "componentType": 5126,
      "count": 336,
      "normalized": false,
      "byteOffset": 0,
      "bufferView": 11
    },
    {
      "type": "VEC4",
      "componentType": 5121,
      "count": 336,
      "normalized": true,
      "byteOffset": 0,
      "bufferView": 12
    },
    {
      "type": "SCALAR",
      "componentType": 5123,
      "count": 774,
      "normalized": false,
      "byteOffset": 75570,
      "bufferView": 2
    },
    {
      "type": "VEC2",
      "componentType": 5126,
      "count": 302,
      "normalized": false,
      "byteOffset": 0,
      "bufferView": 13
    },
    {
      "type": "SCALAR",
      "componentType": 5123,
      "count": 1470,
      "normalized": false,
      "byteOffset": 77118,
      "bufferView": 2
    },
    {
      "type": "VEC2",
      "componentType": 5126,
      "count": 590,
      "normalized": false,
      "byteOffset": 0,
      "bufferView": 14
    },
    {
      "type": "SCALAR",
      "componentType": 5123,
      "count": 360,
      "normalized": false,
      "byteOffset": 80058,
      "bufferView": 2
    },
    {
      "type": "SCALAR",
      "componentType": 5123,
      "count": 4908,
      "normalized": false,
      "byteOffset": 80778,
      "bufferView": 2
    },
    {
      "type": "VEC2",
      "componentType": 5126,
      "count": 2136,
      "normalized": false,
      "byteOffset": 0,
      "bufferView": 15
    },
    {
      "type": "SCALAR",
      "componentType": 5123,
      "count": 750,
      "normalized": false,
      "byteOffset": 90594,
      "bufferView": 2
    },
    {
      "type": "VEC2",
      "componentType": 5126,
      "count": 245,
      "normalized": false,
      "byteOffset": 0,
      "bufferView": 16
    },
    {
      "type": "SCALAR",
      "componentType": 5123,
      "count": 4908,
      "normalized": false,
      "byteOffset": 92094,
      "bufferView": 2
    },
    {
      "type": "VEC2",
      "componentType": 5126,
      "count": 2136,
      "normalized": false,
      "byteOffset": 0,
      "bufferView": 17
    },
    {
      "type": "SCALAR",
      "componentType": 5123,
      "count": 294,
      "normalized": false,
      "byteOffset": 101910,
      "bufferView": 2
    },
    {
      "type": "VEC2",
      "componentType": 5126,
      "count": 108,
      "normalized": false,
      "byteOffset": 0,
      "bufferView": 18
    },
    {
      "type": "VEC4",
      "componentType": 5121,
      "count": 108,
      "normalized": true,
      "byteOffset": 0,
      "bufferView": 19
    },
    {
      "type": "SCALAR",
      "componentType": 5123,
      "count": 888,
      "normalized": false,
      "byteOffset": 102498,
      "bufferView": 2
    },
    {
      "type": "VEC2",
      "componentType": 5126,
      "count": 308,
      "normalized": false,
      "byteOffset": 0,
      "bufferView": 20
    },
    {
      "type": "VEC4",
      "componentType": 5121,
      "count": 308,
      "normalized": true,
      "byteOffset": 0,
      "bufferView": 21
    },
    {
      "type": "SCALAR",
      "componentType": 5123,
      "count": 6000,
      "normalized": false,
      "byteOffset": 104274,
      "bufferView": 2
    },
    {
      "type": "VEC2",
      "componentType": 5126,
      "count": 2608,
      "normalized": false,
      "byteOffset": 0,
      "bufferView": 22
    },
    {
      "type": "VEC4",
      "componentType": 5121,
      "count": 2608,
      "normalized": true,
      "byteOffset": 0,
      "bufferView": 23
    },
    {
      "type": "SCALAR",
      "componentType": 5123,
      "count": 516,
      "normalized": false,
      "byteOffset": 116274,
      "bufferView": 2
    },
    {
      "type": "VEC2",
      "componentType": 5126,
      "count": 195,
      "normalized": false,
      "byteOffset": 0,
      "bufferView": 24
    },
    {
      "type": "VEC4",
      "componentType": 5121,
      "count": 195,
      "normalized": true,
      "byteOffset": 0,
      "bufferView": 25
    },
    {
      "type": "SCALAR",
      "componentType": 5123,
      "count": 6510,
      "normalized": false,
      "byteOffset": 117306,
      "bufferView": 2
    },
    {
      "type": "VEC2",
      "componentType": 5126,
      "count": 3177,
      "normalized": false,
      "byteOffset": 0,
      "bufferView": 26
    },
    {
      "type": "SCALAR",
      "componentType": 5123,
      "count": 906,
      "normalized": false,
      "byteOffset": 130326,
      "bufferView": 2
    },
    {
      "type": "VEC2",
      "componentType": 5126,
      "count": 292,
      "normalized": false,
      "byteOffset": 0,
      "bufferView": 27
    },
    {
      "type": "VEC3",
      "componentType": 5122,
      "count": 5896,
      "max": [
        17845,
        32767,
        9856
      ],
      "min": [
        -17845,
        -32767,
        -10224
      ],
      "normalized": true,
      "byteOffset": 0,
      "bufferView": 28
    },
    {
      "type": "VEC3",
      "componentType": 5122,
      "count": 5896,
      "normalized": true,
      "byteOffset": 0,
      "bufferView": 29
    },
    {
      "type": "VEC3",
      "componentType": 5121,
      "count": 5896,
      "normalized": true,
      "byteOffset": 0,
      "bufferView": 30
    },
    {
      "type": "VEC3",
      "componentType": 5122,
      "count": 240,
      "max": [
        7825,
        18272,
        4625
      ],
      "min": [
        2333,
        5546,
        3318
      ],
      "normalized": true,
      "byteOffset": 0,
      "bufferView": 31
    },
    {
      "type": "VEC3",
      "componentType": 5122,
      "count": 240,
      "normalized": true,
      "byteOffset": 0,
      "bufferView": 32
    },
    {
      "type": "VEC3",
      "componentType": 5121,
      "count": 240,
      "normalized": true,
      "byteOffset": 0,
      "bufferView": 33
    },
    {
      "type": "VEC3",
      "componentType": 5122,
      "count": 189,
      "max": [
        14463,
        15932,
        10224
      ],
      "min": [
        -283,
        -22654,
        -10223
      ],
      "normalized": true,
      "byteOffset": 0,
      "bufferView": 34
    },
    {
      "type": "VEC3",
      "componentType": 5122,
      "count": 189,
      "normalized": true,
      "byteOffset": 0,
      "bufferView": 35
    },
    {
      "type": "VEC3",
      "componentType": 5121,
      "count": 189,
      "normalized": true,
      "byteOffset": 0,
      "bufferView": 36
    },
    {
      "type": "VEC3",
      "componentType": 5122,
      "count": 374,
      "max": [
        4976,
        25486,
        2363
      ],
      "min": [
        -4976,
        -32498,
        -3146
      ],
      "normalized": true,
      "byteOffset": 0,
      "bufferView": 37
    },
    {
      "type": "VEC3",
      "componentType": 5122,
      "count": 374,
      "normalized": true,
      "byteOffset": 0,
      "bufferView": 38
    },
    {
      "type": "VEC3",
      "componentType": 5121,
      "count": 374,
      "normalized": true,
      "byteOffset": 0,
      "bufferView": 39
    },
    {
      "type": "VEC3",
      "componentType": 5122,
      "count": 1169,
      "max": [
        12323,
        32767,
        3160
      ],
      "min": [
        -12323,
        -32767,
        -4813
      ],
      "normalized": true,
      "byteOffset": 0,
      "bufferView": 40
    },
    {
      "type": "VEC3",
      "componentType": 5122,
      "count": 1169,
      "normalized": true,
      "byteOffset": 0,
      "bufferView": 41
    },
    {
      "type": "VEC3",
      "componentType": 5121,
      "count": 1169,
      "normalized": true,
      "byteOffset": 0,
      "bufferView": 42
    },
    {
      "type": "VEC3",
      "componentType": 5122,
      "count": 420,
      "max": [
        2954,
        14794,
        4813
      ],
      "min": [
        -2954,
        -27376,
        1528
      ],
      "normalized": true,
      "byteOffset": 0,
      "bufferView": 43
    },
    {
      "type": "VEC3",
      "componentType": 5122,
      "count": 420,
      "normalized": true,
      "byteOffset": 0,
      "bufferView": 44
    },
    {
      "type": "VEC3",
      "componentType": 5121,
      "count": 420,
      "normalized": true,
      "byteOffset": 0,
      "bufferView": 45
    },
    {
      "type": "VEC3",
      "componentType": 5122,
      "count": 5889,
      "max": [
        17842,
        32767,
        9854
      ],
      "min": [
        -17842,
        -32767,
        -10221
      ],
      "normalized": true,
      "byteOffset": 0,
      "bufferView": 46
    },
    {
      "type": "VEC3",
      "componentType": 5122,
      "count": 5889,
      "normalized": true,
      "byteOffset": 0,
      "bufferView": 47
    },
    {
      "type": "VEC3",
      "componentType": 5121,
      "count": 5889,
      "normalized": true,
      "byteOffset": 0,
      "bufferView": 48
    },
    {
      "type": "VEC3",
      "componentType": 5122,
      "count": 240,
      "max": [
        -2321,
        18261,
        4624
      ],
      "min": [
        -7812,
        5538,
        3317
      ],
      "normalized": true,
      "byteOffset": 0,
      "bufferView": 49
    },
    {
      "type": "VEC3",
      "componentType": 5122,
      "count": 189,
      "max": [
        293,
        15921,
        10221
      ],
      "min": [
        -14449,
        -22656,
        -10221
      ],
      "normalized": true,
      "byteOffset": 0,
      "bufferView": 50
    },
    {
      "type": "VEC3",
      "componentType": 5122,
      "count": 1169,
      "max": [
        12323,
        32767,
        3160
      ],
      "min": [
        -12323,
        -32767,
        -4813
      ],
      "normalized": true,
      "byteOffset": 0,
      "bufferView": 51
    },
    {
      "type": "VEC3",
      "componentType": 5122,
      "count": 1169,
      "normalized": true,
      "byteOffset": 0,
      "bufferView": 52
    },
    {
      "type": "VEC3",
      "componentType": 5121,
      "count": 1169,
      "normalized": true,
      "byteOffset": 0,
      "bufferView": 53
    },
    {
      "type": "VEC3",
      "componentType": 5122,
      "count": 281,
      "max": [
        20792,
        32767,
        6115
      ],
      "min": [
        -20792,
        -32767,
        -6115
      ],
      "normalized": true,
      "byteOffset": 0,
      "bufferView": 54
    },
    {
      "type": "VEC3",
      "componentType": 5122,
      "count": 281,
      "normalized": true,
      "byteOffset": 0,
      "bufferView": 55
    },
    {
      "type": "VEC3",
      "componentType": 5122,
      "count": 336,
      "max": [
        4816,
        22198,
        4201
      ],
      "min": [
        -4816,
        2933,
        2491
      ],
      "normalized": true,
      "byteOffset": 0,
      "bufferView": 56
    },
    {
      "type": "VEC3",
      "componentType": 5122,
      "count": 336,
      "normalized": true,
      "byteOffset": 0,
      "bufferView": 57
    },
    {
      "type": "VEC3",
      "componentType": 5122,
      "count": 302,
      "max": [
        8725,
        -13534,
        11629
      ],
      "min": [
        -8727,
        -23489,
        10025
      ],
      "normalized": true,
      "byteOffset": 0,
      "bufferView": 58
    },
    {
      "type": "VEC3",
      "componentType": 5122,
      "count": 302,
      "normalized": true,
      "byteOffset": 0,
      "bufferView": 59
    },
    {
      "type": "VEC3",
      "componentType": 5121,
      "count": 302,
      "normalized": true,
      "byteOffset": 0,
      "bufferView": 60
    },
    {
      "type": "VEC3",
      "componentType": 5122,
      "count": 590,
      "max": [
        14689,
        32767,
        12102
      ],
      "min": [
        -14689,
        -32767,
        -12512
      ],
      "normalized": true,
      "byteOffset": 0,
      "bufferView": 61
    },
    {
      "type": "VEC3",
      "componentType": 5122,
      "count": 590,
      "normalized": true,
      "byteOffset": 0,
      "bufferView": 62
    },
    {
      "type": "VEC3",
      "componentType": 5121,
      "count": 590,
      "normalized": true,
      "byteOffset": 0,
      "bufferView": 63
    },
    {
      "type": "VEC3",
      "componentType": 5122,
      "count": 136,
      "max": [
        9196,
        -2088,
        12512
      ],
      "min": [
        -9199,
        -29106,
        10077
      ],
      "normalized": true,
      "byteOffset": 0,
      "bufferView": 64
    },
    {
      "type": "VEC3",
      "componentType": 5122,
      "count": 136,
      "normalized": true,
      "byteOffset": 0,
      "bufferView": 65
    },
    {
      "type": "VEC3",
      "componentType": 5121,
      "count": 136,
      "normalized": true,
      "byteOffset": 0,
      "bufferView": 66
    },
    {
      "type": "VEC3",
      "componentType": 5122,
      "count": 2136,
      "max": [
        10777,
        30414,
        18353
      ],
      "min": [
        -10777,
        -32767,
        -18533
      ],
      "normalized": true,
      "byteOffset": 0,
      "bufferView": 67
    },
    {
      "type": "VEC3",
      "componentType": 5122,
      "count": 2136,
      "normalized": true,
      "byteOffset": 0,
      "bufferView": 68
    },
    {
      "type": "VEC3",
      "componentType": 5121,
      "count": 2136,
      "normalized": true,
      "byteOffset": 0,
      "bufferView": 69
    },
    {
      "type": "VEC3",
      "componentType": 5122,
      "count": 336,
      "max": [
        3979,
        6693,
        8069
      ],
      "min": [
        -3979,
        -8430,
        4964
      ],
      "normalized": true,
      "byteOffset": 0,
      "bufferView": 70
    },
    {
      "type": "VEC3",
      "componentType": 5122,
      "count": 336,
      "normalized": true,
      "byteOffset": 0,
      "bufferView": 71
    },
    {
      "type": "VEC3",
      "componentType": 5121,
      "count": 336,
      "normalized": true,
      "byteOffset": 0,
      "bufferView": 72
    },
    {
      "type": "VEC3",
      "componentType": 5122,
      "count": 245,
      "max": [
        9915,
        32767,
        18966
      ],
      "min": [
        -9915,
        -27234,
        -18966
      ],
      "normalized": true,
      "byteOffset": 0,
      "bufferView": 73
    },
    {
      "type": "VEC3",
      "componentType": 5122,
      "count": 245,
      "normalized": true,
      "byteOffset": 0,
      "bufferView": 74
    },
    {
      "type": "VEC3",
      "componentType": 5121,
      "count": 245,
      "normalized": true,
      "byteOffset": 0,
      "bufferView": 75
    },
    {
      "type": "VEC3",
      "componentType": 5122,
      "count": 2136,
      "max": [
        10777,
        30414,
        18353
      ],
      "min": [
        -10777,
        -32767,
        -18533
      ],
      "normalized": true,
      "byteOffset": 0,
      "bufferView": 76
    },
    {
      "type": "VEC3",
      "componentType": 5122,
      "count": 2136,
      "normalized": true,
      "byteOffset": 0,
      "bufferView": 77
    },
    {
      "type": "VEC3",
      "componentType": 5121,
      "count": 2136,
      "normalized": true,
      "byteOffset": 0,
      "bufferView": 78
    },
    {
      "type": "VEC3",
      "componentType": 5122,
      "count": 108,
      "max": [
        5454,
        32767,
        15358
      ],
      "min": [
        -5454,
        19694,
        9373
      ],
      "normalized": true,
      "byteOffset": 0,
      "bufferView": 79
    },
    {
      "type": "VEC3",
      "componentType": 5122,
      "count": 108,
      "normalized": true,
      "byteOffset": 0,
      "bufferView": 80
    },
    {
      "type": "VEC3",
      "componentType": 5122,
      "count": 308,
      "max": [
        24379,
        30127,
        15692
      ],
      "min": [
        -24379,
        11885,
        -15692
      ],
      "normalized": true,
      "byteOffset": 0,
      "bufferView": 81
    },
    {
      "type": "VEC3",
      "componentType": 5122,
      "count": 308,
      "normalized": true,
      "byteOffset": 0,
      "bufferView": 82
    },
    {
      "type": "VEC3",
      "componentType": 5122,
      "count": 2608,
      "max": [
        27415,
        30476,
        15065
      ],
      "min": [
        -27415,
        3942,
        1391
      ],
      "normalized": true,
      "byteOffset": 0,
      "bufferView": 83
    },
    {
      "type": "VEC3",
      "componentType": 5122,
      "count": 2608,
      "normalized": true,
      "byteOffset": 0,
      "bufferView": 84
    },
    {
      "type": "VEC3",
      "componentType": 5122,
      "count": 195,
      "max": [
        18122,
        26815,
        15519
      ],
      "min": [
        -18154,
        -32767,
        7725
      ],
      "normalized": true,
      "byteOffset": 0,
      "bufferView": 85
    },
    {
      "type": "VEC3",
      "componentType": 5122,
      "count": 195,
      "normalized": true,
      "byteOffset": 0,
      "bufferView": 86
    },
    {
      "type": "VEC3",
      "componentType": 5122,
      "count": 3177,
      "max": [
        28764,
        23947,
        18653
      ],
      "min": [
        -28780,
        -30663,
        7832
      ],
      "normalized": true,
      "byteOffset": 0,
      "bufferView": 87
    },
    {
      "type": "VEC3",
      "componentType": 5122,
      "count": 3177,
      "normalized": true,
      "byteOffset": 0,
      "bufferView": 88
    },
    {
      "type": "VEC3",
      "componentType": 5121,
      "count": 3177,
      "normalized": true,
      "byteOffset": 0,
      "bufferView": 89
    },
    {
      "type": "VEC3",
      "componentType": 5122,
      "count": 336,
      "max": [
        5865,
        18644,
        18721
      ],
      "min": [
        -5865,
        -4280,
        15489
      ],
      "normalized": true,
      "byteOffset": 0,
      "bufferView": 90
    },
    {
      "type": "VEC3",
      "componentType": 5122,
      "count": 336,
      "normalized": true,
      "byteOffset": 0,
      "bufferView": 91
    },
    {
      "type": "VEC3",
      "componentType": 5122,
      "count": 292,
      "max": [
        30074,
        32767,
        19293
      ],
      "min": [
        -30074,
        -32767,
        -19293
      ],
      "normalized": true,
      "byteOffset": 0,
      "bufferView": 92
    },
    {
      "type": "VEC3",
      "componentType": 5122,
      "count": 292,
      "normalized": true,
      "byteOffset": 0,
      "bufferView": 93
    },
    {
      "type": "VEC3",
      "componentType": 5121,
      "count": 292,
      "normalized": true,
      "byteOffset": 0,
      "bufferView": 94
    }
  ],
  "bufferViews": [
    {
      "buffer": 1,
      "byteOffset": 0,
      "byteLength": 296,
      "extensions": {
        "EXT_meshopt_compression": {
          "buffer": 0,
          "byteOffset": 0,
          "byteLength": 279,
          "mode": "ATTRIBUTES",
          "byteStride": 4,
          "count": 74
        }
      }
    },
    {
      "buffer": 1,
      "byteOffset": 296,
      "byteLength": 5168,
      "extensions": {
        "EXT_meshopt_compression": {
          "buffer": 0,
          "byteOffset": 280,
          "byteLength": 2222,
          "mode": "ATTRIBUTES",
          "byteStride": 16,
          "count": 323
        }
      }
    },
    {
      "buffer": 1,
      "byteOffset": 5464,
      "byteLength": 132138,
      "target": 34963,
      "extensions": {
        "EXT_meshopt_compression": {
          "buffer": 0,
          "byteOffset": 2504,
          "byteLength": 23545,
          "mode": "TRIANGLES",
          "byteStride": 2,
          "count": 66069
        }
      }
    },
    {
      "buffer": 1,
      "byteOffset": 137604,
      "byteLength": 47168,
      "target": 34962,
      "byteStride": 8,
      "extensions": {
        "EXT_meshopt_compression": {
          "buffer": 0,
          "byteOffset": 26052,
          "byteLength": 36469,
          "mode": "ATTRIBUTES",
          "byteStride": 8,
          "count": 5896
        }
      }
    },
    {
      "buffer": 1,
      "byteOffset": 184772,
      "byteLength": 1512,
      "target": 34962,
      "byteStride": 8,
      "extensions": {
        "EXT_meshopt_compression": {
          "buffer": 0,
          "byteOffset": 62524,
          "byteLength": 1292,
          "mode": "ATTRIBUTES",
          "byteStride": 8,
          "count": 189
        }
      }
    },
    {
      "buffer": 1,
      "byteOffset": 186284,
      "byteLength": 2992,
      "target": 34962,
      "byteStride": 8,
      "extensions": {
        "EXT_meshopt_compression": {
          "buffer": 0,
          "byteOffset": 63816,
          "byteLength": 2371,
          "mode": "ATTRIBUTES",
          "byteStride": 8,
          "count": 374
        }
      }
    },
    {
      "buffer": 1,
      "byteOffset": 189276,
      "byteLength": 9352,
      "target": 34962,
      "byteStride": 8,
      "extensions": {
        "EXT_meshopt_compression": {
          "buffer": 0,
          "byteOffset": 66188,
          "byteLength": 7569,
          "mode": "ATTRIBUTES",
          "byteStride": 8,
          "count": 1169
        }
      }
    },
    {
      "buffer": 1,
      "byteOffset": 198628,
      "byteLength": 47112,
      "target": 34962,
      "byteStride": 8,
      "extensions": {
        "EXT_meshopt_compression": {
          "buffer": 0,
          "byteOffset": 73760,
          "byteLength": 36422,
          "mode": "ATTRIBUTES",
          "byteStride": 8,
          "count": 5889
        }
      }
    },
    {
      "buffer": 1,
      "byteOffset": 245740,
      "byteLength": 9352,
      "target": 34962,
      "byteStride": 8,
      "extensions": {
        "EXT_meshopt_compression": {
          "buffer": 0,
          "byteOffset": 110184,
          "byteLength": 7569,
          "mode": "ATTRIBUTES",
          "byteStride": 8,
          "count": 1169
        }
      }
    },
    {
      "buffer": 1,
      "byteOffset": 255092,
      "byteLength": 2248,
      "target": 34962,
      "byteStride": 8,
      "extensions": {
        "EXT_meshopt_compression": {
          "buffer": 0,
          "byteOffset": 117756,
          "byteLength": 1940,
          "mode": "ATTRIBUTES",
          "byteStride": 8,
          "count": 281
        }
      }
    },
    {
      "buffer": 1,
      "byteOffset": 257340,
      "byteLength": 1124,
      "target": 34962,
      "byteStride": 4,
      "extensions": {
        "EXT_meshopt_compression": {
          "buffer": 0,
          "byteOffset": 119696,
          "byteLength": 53,
          "mode": "ATTRIBUTES",
          "byteStride": 4,
          "count": 281
        }
      }
    },
    {
      "buffer": 1,
      "byteOffset": 258464,
      "byteLength": 2688,
      "target": 34962,
      "byteStride": 8,
      "extensions": {
        "EXT_meshopt_compression": {
          "buffer": 0,
          "byteOffset": 119752,
          "byteLength": 2148,
          "mode": "ATTRIBUTES",
          "byteStride": 8,
          "count": 336
        }
      }
    },
    {
      "buffer": 1,
      "byteOffset": 261152,
      "byteLength": 1344,
      "target": 34962,
      "byteStride": 4,
      "extensions": {
        "EXT_meshopt_compression": {
          "buffer": 0,
          "byteOffset": 121900,
          "byteLength": 57,
          "mode": "ATTRIBUTES",
          "byteStride": 4,
          "count": 336
        }
      }
    },
    {
      "buffer": 1,
      "byteOffset": 262496,
      "byteLength": 2416,
      "target": 34962,
      "byteStride": 8,
      "extensions": {
        "EXT_meshopt_compression": {
          "buffer": 0,
          "byteOffset": 121960,
          "byteLength": 1843,
          "mode": "ATTRIBUTES",
          "byteStride": 8,
          "count": 302
        }
      }
    },
    {
      "buffer": 1,
      "byteOffset": 264912,
      "byteLength": 4720,
      "target": 34962,
      "byteStride": 8,
      "extensions": {
        "EXT_meshopt_compression": {
          "buffer": 0,
          "byteOffset": 123804,
          "byteLength": 4021,
          "mode": "ATTRIBUTES",
          "byteStride": 8,
          "count": 590
        }
      }
    },
    {
      "buffer": 1,
      "byteOffset": 269632,
      "byteLength": 17088,
      "target": 34962,
      "byteStride": 8,
      "extensions": {
        "EXT_meshopt_compression": {
          "buffer": 0,
          "byteOffset": 127828,
          "byteLength": 13632,
          "mode": "ATTRIBUTES",
          "byteStride": 8,
          "count": 2136
        }
      }
    },
    {
      "buffer": 1,
      "byteOffset": 286720,
      "byteLength": 1960,
      "target": 34962,
      "byteStride": 8,
      "extensions": {
        "EXT_meshopt_compression": {
          "buffer": 0,
          "byteOffset": 141460,
          "byteLength": 1657,
          "mode": "ATTRIBUTES",
          "byteStride": 8,
          "count": 245
        }
      }
    },
    {
      "buffer": 1,
      "byteOffset": 288680,
      "byteLength": 17088,
      "target": 34962,
      "byteStride": 8,
      "extensions": {
        "EXT_meshopt_compression": {
          "buffer": 0,
          "byteOffset": 143120,
          "byteLength": 13632,
          "mode": "ATTRIBUTES",
          "byteStride": 8,
          "count": 2136
        }
      }
    },
    {
      "buffer": 1,
      "byteOffset": 305768,
      "byteLength": 864,
      "target": 34962,
      "byteStride": 8,
      "extensions": {
        "EXT_meshopt_compression": {
          "buffer": 0,
          "byteOffset": 156752,
          "byteLength": 720,
          "mode": "ATTRIBUTES",
          "byteStride": 8,
          "count": 108
        }
      }
    },
    {
      "buffer": 1,
      "byteOffset": 306632,
      "byteLength": 432,
      "target": 34962,
      "byteStride": 4,
      "extensions": {
        "EXT_meshopt_compression": {
          "buffer": 0,
          "byteOffset": 157472,
          "byteLength": 41,
          "mode": "ATTRIBUTES",
          "byteStride": 4,
          "count": 108
        }
      }
    },
    {
      "buffer": 1,
      "byteOffset": 307064,
      "byteLength": 2464,
      "target": 34962,
      "byteStride": 8,
      "extensions": {
        "EXT_meshopt_compression": {
          "buffer": 0,
          "byteOffset": 157516,
          "byteLength": 1907,
          "mode": "ATTRIBUTES",
          "byteStride": 8,
          "count": 308
        }
      }
    },
    {
      "buffer": 1,
      "byteOffset": 309528,
      "byteLength": 1232,
      "target": 34962,
      "byteStride": 4,
      "extensions": {
        "EXT_meshopt_compression": {
          "buffer": 0,
          "byteOffset": 159424,
          "byteLength": 53,
          "mode": "ATTRIBUTES",
          "byteStride": 4,
          "count": 308
        }
      }
    },
    {
      "buffer": 1,
      "byteOffset": 310760,
      "byteLength": 20864,
      "target": 34962,
      "byteStride": 8,
      "extensions": {
        "EXT_meshopt_compression": {
          "buffer": 0,
          "byteOffset": 159480,
          "byteLength": 16332,
          "mode": "ATTRIBUTES",
          "byteStride": 8,
          "count": 2608
        }
      }
    },
    {
      "buffer": 1,
      "byteOffset": 331624,
      "byteLength": 10432,
      "target": 34962,
      "byteStride": 4,
      "extensions": {
        "EXT_meshopt_compression": {
          "buffer": 0,
          "byteOffset": 175812,
          "byteLength": 197,
          "mode": "ATTRIBUTES",
          "byteStride": 4,
          "count": 2608
        }
      }
    },
    {
      "buffer": 1,
      "byteOffset": 342056,
      "byteLength": 1560,
      "target": 34962,
      "byteStride": 8,
      "extensions": {
        "EXT_meshopt_compression": {
          "buffer": 0,
          "byteOffset": 176012,
          "byteLength": 1395,
          "mode": "ATTRIBUTES",
          "byteStride": 8,
          "count": 195
        }
      }
    },
    {
      "buffer": 1,
      "byteOffset": 343616,
      "byteLength": 780,
      "target": 34962,
      "byteStride": 4,
      "extensions": {
        "EXT_meshopt_compression": {
          "buffer": 0,
          "byteOffset": 177408,
          "byteLength": 49,
          "mode": "ATTRIBUTES",
          "byteStride": 4,
          "count": 195
        }
      }
    },
    {
      "buffer": 1,
      "byteOffset": 344396,
      "byteLength": 25416,
      "target": 34962,
      "byteStride": 8,
      "extensions": {
        "EXT_meshopt_compression": {
          "buffer": 0,
          "byteOffset": 177460,
          "byteLength": 19988,
          "mode": "ATTRIBUTES",
          "byteStride": 8,
          "count": 3177
        }
      }
    },
    {
      "buffer": 1,
      "byteOffset": 369812,
      "byteLength": 2336,
      "target": 34962,
      "byteStride": 8,
      "extensions": {
        "EXT_meshopt_compression": {
          "buffer": 0,
          "byteOffset": 197448,
          "byteLength": 2010,
          "mode": "ATTRIBUTES",
          "byteStride": 8,
          "count": 292
        }
      }
    },
    {
      "buffer": 1,
      "byteOffset": 372148,
      "byteLength": 47168,
      "target": 34962,
      "byteStride": 8,
      "extensions": {
        "EXT_meshopt_compression": {
          "buffer": 0,
          "byteOffset": 199460,
          "byteLength": 28016,
          "mode": "ATTRIBUTES",
          "byteStride": 8,
          "count": 5896
        }
      }
    },
    {
      "buffer": 1,
      "byteOffset": 419316,
      "byteLength": 47168,
      "target": 34962,
      "byteStride": 8,
      "extensions": {
        "EXT_meshopt_compression": {
          "buffer": 0,
          "byteOffset": 227476,
          "byteLength": 33060,
          "mode": "ATTRIBUTES",
          "byteStride": 8,
          "count": 5896
        }
      }
    },
    {
      "buffer": 1,
      "byteOffset": 466484,
      "byteLength": 23584,
      "target": 34962,
      "byteStride": 4,
      "extensions": {
        "EXT_meshopt_compression": {
          "buffer": 0,
          "byteOffset": 260536,
          "byteLength": 8182,
          "mode": "ATTRIBUTES",
          "byteStride": 4,
          "count": 5896
        }
      }
    },
    {
      "buffer": 1,
      "byteOffset": 490068,
      "byteLength": 1920,
      "target": 34962,
      "byteStride": 8,
      "extensions": {
        "EXT_meshopt_compression": {
          "buffer": 0,
          "byteOffset": 268720,
          "byteLength": 1180,
          "mode": "ATTRIBUTES",
          "byteStride": 8,
          "count": 240
        }
      }
    },
    {
      "buffer": 1,
      "byteOffset": 491988,
      "byteLength": 1920,
      "target": 34962,
      "byteStride": 8,
      "extensions": {
        "EXT_meshopt_compression": {
          "buffer": 0,
          "byteOffset": 269900,
          "byteLength": 831,
          "mode": "ATTRIBUTES",
          "byteStride": 8,
          "count": 240
        }
      }
    },
    {
      "buffer": 1,
      "byteOffset": 493908,
      "byteLength": 960,
      "target": 34962,
      "byteStride": 4,
      "extensions": {
        "EXT_meshopt_compression": {
          "buffer": 0,
          "byteOffset": 270732,
          "byteLength": 49,
          "mode": "ATTRIBUTES",
          "byteStride": 4,
          "count": 240
        }
      }
    },
    {
      "buffer": 1,
      "byteOffset": 494868,
      "byteLength": 1512,
      "target": 34962,
      "byteStride": 8,
      "extensions": {
        "EXT_meshopt_compression": {
          "buffer": 0,
          "byteOffset": 270784,
          "byteLength": 1145,
          "mode": "ATTRIBUTES",
          "byteStride": 8,
          "count": 189
        }
      }
    },
    {
      "buffer": 1,
      "byteOffset": 496380,
      "byteLength": 1512,
      "target": 34962,
      "byteStride": 8,
      "extensions": {
        "EXT_meshopt_compression": {
          "buffer": 0,
          "byteOffset": 271932,
          "byteLength": 1209,
          "mode": "ATTRIBUTES",
          "byteStride": 8,
          "count": 189
        }
      }
    },
    {
      "buffer": 1,
      "byteOffset": 497892,
      "byteLength": 756,
      "target": 34962,
      "byteStride": 4,
      "extensions": {
        "EXT_meshopt_compression": {
          "buffer": 0,
          "byteOffset": 273144,
          "byteLength": 45,
          "mode": "ATTRIBUTES",
          "byteStride": 4,
          "count": 189
        }
      }
    },
    {
      "buffer": 1,
      "byteOffset": 498648,
      "byteLength": 2992,
      "target": 34962,
      "byteStride": 8,
      "extensions": {
        "EXT_meshopt_compression": {
          "buffer": 0,
          "byteOffset": 273192,
          "byteLength": 1820,
          "mode": "ATTRIBUTES",
          "byteStride": 8,
          "count": 374
        }
      }
    },
    {
      "buffer": 1,
      "byteOffset": 501640,
      "byteLength": 2992,
      "target": 34962,
      "byteStride": 8,
      "extensions": {
        "EXT_meshopt_compression": {
          "buffer": 0,
          "byteOffset": 275012,
          "byteLength": 1253,
          "mode": "ATTRIBUTES",
          "byteStride": 8,
          "count": 374
        }
      }
    },
    {
      "buffer": 1,
      "byteOffset": 504632,
      "byteLength": 1496,
      "target": 34962,
      "byteStride": 4,
      "extensions": {
        "EXT_meshopt_compression": {
          "buffer": 0,
          "byteOffset": 276268,
          "byteLength": 57,
          "mode": "ATTRIBUTES",
          "byteStride": 4,
          "count": 374
        }
      }
    },
    {
      "buffer": 1,
      "byteOffset": 506128,
      "byteLength": 9352,
      "target": 34962,
      "byteStride": 8,
      "extensions": {
        "EXT_meshopt_compression": {
          "buffer": 0,
          "byteOffset": 276328,
          "byteLength": 5685,
          "mode": "ATTRIBUTES",
          "byteStride": 8,
          "count": 1169
        }
      }
    },
    {
      "buffer": 1,
      "byteOffset": 515480,
      "byteLength": 9352,
      "target": 34962,
      "byteStride": 8,
      "extensions": {
        "EXT_meshopt_compression": {
          "buffer": 0,
          "byteOffset": 282016,
          "byteLength": 6784,
          "mode": "ATTRIBUTES",
          "byteStride": 8,
          "count": 1169
        }
      }
    },
    {
      "buffer": 1,
      "byteOffset": 524832,
      "byteLength": 4676,
      "target": 34962,
      "byteStride": 4,
      "extensions": {
        "EXT_meshopt_compression": {
          "buffer": 0,
          "byteOffset": 288800,
          "byteLength": 1629,
          "mode": "ATTRIBUTES",
          "byteStride": 4,
          "count": 1169
        }
      }
    },
    {
      "buffer": 1,
      "byteOffset": 529508,
      "byteLength": 3360,
      "target": 34962,
      "byteStride": 8,
      "extensions": {
        "EXT_meshopt_compression": {
          "buffer": 0,
          "byteOffset": 290432,
          "byteLength": 2245,
          "mode": "ATTRIBUTES",
          "byteStride": 8,
          "count": 420
        }
      }
    },
    {
      "buffer": 1,
      "byteOffset": 532868,
      "byteLength": 3360,
      "target": 34962,
      "byteStride": 8,
      "extensions": {
        "EXT_meshopt_compression": {
          "buffer": 0,
          "byteOffset": 292680,
          "byteLength": 1487,
          "mode": "ATTRIBUTES",
          "byteStride": 8,
          "count": 420
        }
      }
    },
    {
      "buffer": 1,
      "byteOffset": 536228,
      "byteLength": 1680,
      "target": 34962,
      "byteStride": 4,
      "extensions": {
        "EXT_meshopt_compression": {
          "buffer": 0,
          "byteOffset": 294168,
          "byteLength": 61,
          "mode": "ATTRIBUTES",
          "byteStride": 4,
          "count": 420
        }
      }
    },
    {
      "buffer": 1,
      "byteOffset": 537908,
      "byteLength": 47112,
      "target": 34962,
      "byteStride": 8,
      "extensions": {
        "EXT_meshopt_compression": {
          "buffer": 0,
          "byteOffset": 294232,
          "byteLength": 27949,
          "mode": "ATTRIBUTES",
          "byteStride": 8,
          "count": 5889
        }
      }
    },
    {
      "buffer": 1,
      "byteOffset": 585020,
      "byteLength": 47112,
      "target": 34962,
      "byteStride": 8,
      "extensions": {
        "EXT_meshopt_compression": {
          "buffer": 0,
          "byteOffset": 322184,
          "byteLength": 33054,
          "mode": "ATTRIBUTES",
          "byteStride": 8,
          "count": 5889
        }
      }
    },
    {
      "buffer": 1,
      "byteOffset": 632132,
      "byteLength": 23556,
      "target": 34962,
      "byteStride": 4,
      "extensions": {
        "EXT_meshopt_compression": {
          "buffer": 0,
          "byteOffset": 355240,
          "byteLength": 8142,
          "mode": "ATTRIBUTES",
          "byteStride": 4,
          "count": 5889
        }
      }
    },
    {
      "buffer": 1,
      "byteOffset": 655688,
      "byteLength": 1920,
      "target": 34962,
      "byteStride": 8,
      "extensions": {
        "EXT_meshopt_compression": {
          "buffer": 0,
          "byteOffset": 363384,
          "byteLength": 1174,
          "mode": "ATTRIBUTES",
          "byteStride": 8,
          "count": 240
        }
      }
    },
    {
      "buffer": 1,
      "byteOffset": 657608,
      "byteLength": 1512,
      "target": 34962,
      "byteStride": 8,
      "extensions": {
        "EXT_meshopt_compression": {
          "buffer": 0,
          "byteOffset": 364560,
          "byteLength": 1143,
          "mode": "ATTRIBUTES",
          "byteStride": 8,
          "count": 189
        }
      }
    },
    {
      "buffer": 1,
      "byteOffset": 659120,
      "byteLength": 9352,
      "target": 34962,
      "byteStride": 8,
      "extensions": {
        "EXT_meshopt_compression": {
          "buffer": 0,
          "byteOffset": 365704,
          "byteLength": 5685,
          "mode": "ATTRIBUTES",
          "byteStride": 8,
          "count": 1169
        }
      }
    },
    {
      "buffer": 1,
      "byteOffset": 668472,
      "byteLength": 9352,
      "target": 34962,
      "byteStride": 8,
      "extensions": {
        "EXT_meshopt_compression": {
          "buffer": 0,
          "byteOffset": 371392,
          "byteLength": 6778,
          "mode": "ATTRIBUTES",
          "byteStride": 8,
          "count": 1169
        }
      }
    },
    {
      "buffer": 1,
      "byteOffset": 677824,
      "byteLength": 4676,
      "target": 34962,
      "byteStride": 4,
      "extensions": {
        "EXT_meshopt_compression": {
          "buffer": 0,
          "byteOffset": 378172,
          "byteLength": 1629,
          "mode": "ATTRIBUTES",
          "byteStride": 4,
          "count": 1169
        }
      }
    },
    {
      "buffer": 1,
      "byteOffset": 682500,
      "byteLength": 2248,
      "target": 34962,
      "byteStride": 8,
      "extensions": {
        "EXT_meshopt_compression": {
          "buffer": 0,
          "byteOffset": 379804,
          "byteLength": 1643,
          "mode": "ATTRIBUTES",
          "byteStride": 8,
          "count": 281
        }
      }
    },
    {
      "buffer": 1,
      "byteOffset": 684748,
      "byteLength": 2248,
      "target": 34962,
      "byteStride": 8,
      "extensions": {
        "EXT_meshopt_compression": {
          "buffer": 0,
          "byteOffset": 381448,
          "byteLength": 1752,
          "mode": "ATTRIBUTES",
          "byteStride": 8,
          "count": 281
        }
      }
    },
    {
      "buffer": 1,
      "byteOffset": 686996,
      "byteLength": 2688,
      "target": 34962,
      "byteStride": 8,
      "extensions": {
        "EXT_meshopt_compression": {
          "buffer": 0,
          "byteOffset": 383200,
          "byteLength": 1708,
          "mode": "ATTRIBUTES",
          "byteStride": 8,
          "count": 336
        }
      }
    },
    {
      "buffer": 1,
      "byteOffset": 689684,
      "byteLength": 2688,
      "target": 34962,
      "byteStride": 8,
      "extensions": {
        "EXT_meshopt_compression": {
          "buffer": 0,
          "byteOffset": 384908,
          "byteLength": 1144,
          "mode": "ATTRIBUTES",
          "byteStride": 8,
          "count": 336
        }
      }
    },
    {
      "buffer": 1,
      "byteOffset": 692372,
      "byteLength": 2416,
      "target": 34962,
      "byteStride": 8,
      "extensions": {
        "EXT_meshopt_compression": {
          "buffer": 0,
          "byteOffset": 386052,
          "byteLength": 1513,
          "mode": "ATTRIBUTES",
          "byteStride": 8,
          "count": 302
        }
      }
    },
    {
      "buffer": 1,
      "byteOffset": 694788,
      "byteLength": 2416,
      "target": 34962,
      "byteStride": 8,
      "extensions": {
        "EXT_meshopt_compression": {
          "buffer": 0,
          "byteOffset": 387568,
          "byteLength": 1894,
          "mode": "ATTRIBUTES",
          "byteStride": 8,
          "count": 302
        }
      }
    },
    {
      "buffer": 1,
      "byteOffset": 697204,
      "byteLength": 1208,
      "target": 34962,
      "byteStride": 4,
      "extensions": {
        "EXT_meshopt_compression": {
          "buffer": 0,
          "byteOffset": 389464,
          "byteLength": 53,
          "mode": "ATTRIBUTES",
          "byteStride": 4,
          "count": 302
        }
      }
    },
    {
      "buffer": 1,
      "byteOffset": 698412,
      "byteLength": 4720,
      "target": 34962,
      "byteStride": 8,
      "extensions": {
        "EXT_meshopt_compression": {
          "buffer": 0,
          "byteOffset": 389520,
          "byteLength": 3407,
          "mode": "ATTRIBUTES",
          "byteStride": 8,
          "count": 590
        }
      }
    },
    {
      "buffer": 1,
      "byteOffset": 703132,
      "byteLength": 4720,
      "target": 34962,
      "byteStride": 8,
      "extensions": {
        "EXT_meshopt_compression": {
          "buffer": 0,
          "byteOffset": 392928,
          "byteLength": 3309,
          "mode": "ATTRIBUTES",
          "byteStride": 8,
          "count": 590
        }
      }
    },
    {
      "buffer": 1,
      "byteOffset": 707852,
      "byteLength": 2360,
      "target": 34962,
      "byteStride": 4,
      "extensions": {
        "EXT_meshopt_compression": {
          "buffer": 0,
          "byteOffset": 396240,
          "byteLength": 673,
          "mode": "ATTRIBUTES",
          "byteStride": 4,
          "count": 590
        }
      }
    },
    {
      "buffer": 1,
      "byteOffset": 710212,
      "byteLength": 1088,
      "target": 34962,
      "byteStride": 8,
      "extensions": {
        "EXT_meshopt_compression": {
          "buffer": 0,
          "byteOffset": 396916,
          "byteLength": 726,
          "mode": "ATTRIBUTES",
          "byteStride": 8,
          "count": 136
        }
      }
    },
    {
      "buffer": 1,
      "byteOffset": 711300,
      "byteLength": 1088,
      "target": 34962,
      "byteStride": 8,
      "extensions": {
        "EXT_meshopt_compression": {
          "buffer": 0,
          "byteOffset": 397644,
          "byteLength": 896,
          "mode": "ATTRIBUTES",
          "byteStride": 8,
          "count": 136
        }
      }
    },
    {
      "buffer": 1,
      "byteOffset": 712388,
      "byteLength": 544,
      "target": 34962,
      "byteStride": 4,
      "extensions": {
        "EXT_meshopt_compression": {
          "buffer": 0,
          "byteOffset": 398540,
          "byteLength": 45,
          "mode": "ATTRIBUTES",
          "byteStride": 4,
          "count": 136
        }
      }
    },
    {
      "buffer": 1,
      "byteOffset": 712932,
      "byteLength": 17088,
      "target": 34962,
      "byteStride": 8,
      "extensions": {
        "EXT_meshopt_compression": {
          "buffer": 0,
          "byteOffset": 398588,
          "byteLength": 11480,
          "mode": "ATTRIBUTES",
          "byteStride": 8,
          "count": 2136
        }
      }
    },
    {
      "buffer": 1,
      "byteOffset": 730020,
      "byteLength": 17088,
      "target": 34962,
      "byteStride": 8,
      "extensions": {
        "EXT_meshopt_compression": {
          "buffer": 0,
          "byteOffset": 410068,
          "byteLength": 11219,
          "mode": "ATTRIBUTES",
          "byteStride": 8,
          "count": 2136
        }
      }
    },
    {
      "buffer": 1,
      "byteOffset": 747108,
      "byteLength": 8544,
      "target": 34962,
      "byteStride": 4,
      "extensions": {
        "EXT_meshopt_compression": {
          "buffer": 0,
          "byteOffset": 421288,
          "byteLength": 2601,
          "mode": "ATTRIBUTES",
          "byteStride": 4,
          "count": 2136
        }
      }
    },
    {
      "buffer": 1,
      "byteOffset": 755652,
      "byteLength": 2688,
      "target": 34962,
      "byteStride": 8,
      "extensions": {
        "EXT_meshopt_compression": {
          "buffer": 0,
          "byteOffset": 423892,
          "byteLength": 1704,
          "mode": "ATTRIBUTES",
          "byteStride": 8,
          "count": 336
        }
      }
    },
    {
      "buffer": 1,
      "byteOffset": 758340,
      "byteLength": 2688,
      "target": 34962,
      "byteStride": 8,
      "extensions": {
        "EXT_meshopt_compression": {
          "buffer": 0,
          "byteOffset": 425596,
          "byteLength": 1150,
          "mode": "ATTRIBUTES",
          "byteStride": 8,
          "count": 336
        }
      }
    },
    {
      "buffer": 1,
      "byteOffset": 761028,
      "byteLength": 1344,
      "target": 34962,
      "byteStride": 4,
      "extensions": {
        "EXT_meshopt_compression": {
          "buffer": 0,
          "byteOffset": 426748,
          "byteLength": 57,
          "mode": "ATTRIBUTES",
          "byteStride": 4,
          "count": 336
        }
      }
    },
    {
      "buffer": 1,
      "byteOffset": 762372,
      "byteLength": 1960,
      "target": 34962,
      "byteStride": 8,
      "extensions": {
        "EXT_meshopt_compression": {
          "buffer": 0,
          "byteOffset": 426808,
          "byteLength": 1448,
          "mode": "ATTRIBUTES",
          "byteStride": 8,
          "count": 245
        }
      }
    },
    {
      "buffer": 1,
      "byteOffset": 764332,
      "byteLength": 1960,
      "target": 34962,
      "byteStride": 8,
      "extensions": {
        "EXT_meshopt_compression": {
          "buffer": 0,
          "byteOffset": 428256,
          "byteLength": 1559,
          "mode": "ATTRIBUTES",
          "byteStride": 8,
          "count": 245
        }
      }
    },
    {
      "buffer": 1,
      "byteOffset": 766292,
      "byteLength": 980,
      "target": 34962,
      "byteStride": 4,
      "extensions": {
        "EXT_meshopt_compression": {
          "buffer": 0,
          "byteOffset": 429816,
          "byteLength": 49,
          "mode": "ATTRIBUTES",
          "byteStride": 4,
          "count": 245
        }
      }
    },
    {
      "buffer": 1,
      "byteOffset": 767272,
      "byteLength": 17088,
      "target": 34962,
      "byteStride": 8,
      "extensions": {
        "EXT_meshopt_compression": {
          "buffer": 0,
          "byteOffset": 429868,
          "byteLength": 11465,
          "mode": "ATTRIBUTES",
          "byteStride": 8,
          "count": 2136
        }
      }
    },
    {
      "buffer": 1,
      "byteOffset": 784360,
      "byteLength": 17088,
      "target": 34962,
      "byteStride": 8,
      "extensions": {
        "EXT_meshopt_compression": {
          "buffer": 0,
          "byteOffset": 441336,
          "byteLength": 11199,
          "mode": "ATTRIBUTES",
          "byteStride": 8,
          "count": 2136
        }
      }
    },
    {
      "buffer": 1,
      "byteOffset": 801448,
      "byteLength": 8544,
      "target": 34962,
      "byteStride": 4,
      "extensions": {
        "EXT_meshopt_compression": {
          "buffer": 0,
          "byteOffset": 452536,
          "byteLength": 2593,
          "mode": "ATTRIBUTES",
          "byteStride": 4,
          "count": 2136
        }
      }
    },
    {
      "buffer": 1,
      "byteOffset": 809992,
      "byteLength": 864,
      "target": 34962,
      "byteStride": 8,
      "extensions": {
        "EXT_meshopt_compression": {
          "buffer": 0,
          "byteOffset": 455132,
          "byteLength": 610,
          "mode": "ATTRIBUTES",
          "byteStride": 8,
          "count": 108
        }
      }
    },
    {
      "buffer": 1,
      "byteOffset": 810856,
      "byteLength": 864,
      "target": 34962,
      "byteStride": 8,
      "extensions": {
        "EXT_meshopt_compression": {
          "buffer": 0,
          "byteOffset": 455744,
          "byteLength": 606,
          "mode": "ATTRIBUTES",
          "byteStride": 8,
          "count": 108
        }
      }
    },
    {
      "buffer": 1,
      "byteOffset": 811720,
      "byteLength": 2464,
      "target": 34962,
      "byteStride": 8,
      "extensions": {
        "EXT_meshopt_compression": {
          "buffer": 0,
          "byteOffset": 456352,
          "byteLength": 1539,
          "mode": "ATTRIBUTES",
          "byteStride": 8,
          "count": 308
        }
      }
    },
    {
      "buffer": 1,
      "byteOffset": 814184,
      "byteLength": 2464,
      "target": 34962,
      "byteStride": 8,
      "extensions": {
        "EXT_meshopt_compression": {
          "buffer": 0,
          "byteOffset": 457892,
          "byteLength": 1845,
          "mode": "ATTRIBUTES",
          "byteStride": 8,
          "count": 308
        }
      }
    },
    {
      "buffer": 1,
      "byteOffset": 816648,
      "byteLength": 20864,
      "target": 34962,
      "byteStride": 8,
      "extensions": {
        "EXT_meshopt_compression": {
          "buffer": 0,
          "byteOffset": 459740,
          "byteLength": 13030,
          "mode": "ATTRIBUTES",
          "byteStride": 8,
          "count": 2608
        }
      }
    },
    {
      "buffer": 1,
      "byteOffset": 837512,
      "byteLength": 20864,
      "target": 34962,
      "byteStride": 8,
      "extensions": {
        "EXT_meshopt_compression": {
          "buffer": 0,
          "byteOffset": 472772,
          "byteLength": 14143,
          "mode": "ATTRIBUTES",
          "byteStride": 8,
          "count": 2608
        }
      }
    },
    {
      "buffer": 1,
      "byteOffset": 858376,
      "byteLength": 1560,
      "target": 34962,
      "byteStride": 8,
      "extensions": {
        "EXT_meshopt_compression": {
          "buffer": 0,
          "byteOffset": 486916,
          "byteLength": 1155,
          "mode": "ATTRIBUTES",
          "byteStride": 8,
          "count": 195
        }
      }
    },
    {
      "buffer": 1,
      "byteOffset": 859936,
      "byteLength": 1560,
      "target": 34962,
      "byteStride": 8,
      "extensions": {
        "EXT_meshopt_compression": {
          "buffer": 0,
          "byteOffset": 488072,
          "byteLength": 1247,
          "mode": "ATTRIBUTES",
          "byteStride": 8,
          "count": 195
        }
      }
    },
    {
      "buffer": 1,
      "byteOffset": 861496,
      "byteLength": 25416,
      "target": 34962,
      "byteStride": 8,
      "extensions": {
        "EXT_meshopt_compression": {
          "buffer": 0,
          "byteOffset": 489320,
          "byteLength": 17217,
          "mode": "ATTRIBUTES",
          "byteStride": 8,
          "count": 3177
        }
      }
    },
    {
      "buffer": 1,
      "byteOffset": 886912,
      "byteLength": 25416,
      "target": 34962,
      "byteStride": 8,
      "extensions": {
        "EXT_meshopt_compression": {
          "buffer": 0,
          "byteOffset": 506540,
          "byteLength": 15802,
          "mode": "ATTRIBUTES",
          "byteStride": 8,
          "count": 3177
        }
      }
    },
    {
      "buffer": 1,
      "byteOffset": 912328,
      "byteLength": 12708,
      "target": 34962,
      "byteStride": 4,
      "extensions": {
        "EXT_meshopt_compression": {
          "buffer": 0,
          "byteOffset": 522344,
          "byteLength": 3951,
          "mode": "ATTRIBUTES",
          "byteStride": 4,
          "count": 3177
        }
      }
    },
    {
      "buffer": 1,
      "byteOffset": 925036,
      "byteLength": 2688,
      "target": 34962,
      "byteStride": 8,
      "extensions": {
        "EXT_meshopt_compression": {
          "buffer": 0,
          "byteOffset": 526296,
          "byteLength": 1775,
          "mode": "ATTRIBUTES",
          "byteStride": 8,
          "count": 336
        }
      }
    },
    {
      "buffer": 1,
      "byteOffset": 927724,
      "byteLength": 2688,
      "target": 34962,
      "byteStride": 8,
      "extensions": {
        "EXT_meshopt_compression": {
          "buffer": 0,
          "byteOffset": 528072,
          "byteLength": 1150,
          "mode": "ATTRIBUTES",
          "byteStride": 8,
          "count": 336
        }
      }
    },
    {
      "buffer": 1,
      "byteOffset": 930412,
      "byteLength": 2336,
      "target": 34962,
      "byteStride": 8,
      "extensions": {
        "EXT_meshopt_compression": {
          "buffer": 0,
          "byteOffset": 529224,
          "byteLength": 1779,
          "mode": "ATTRIBUTES",
          "byteStride": 8,
          "count": 292
        }
      }
    },
    {
      "buffer": 1,
      "byteOffset": 932748,
      "byteLength": 2336,
      "target": 34962,
      "byteStride": 8,
      "extensions": {
        "EXT_meshopt_compression": {
          "buffer": 0,
          "byteOffset": 531004,
          "byteLength": 1848,
          "mode": "ATTRIBUTES",
          "byteStride": 8,
          "count": 292
        }
      }
    },
    {
      "buffer": 1,
      "byteOffset": 935084,
      "byteLength": 1168,
      "target": 34962,
      "byteStride": 4,
      "extensions": {
        "EXT_meshopt_compression": {
          "buffer": 0,
          "byteOffset": 532852,
          "byteLength": 53,
          "mode": "ATTRIBUTES",
          "byteStride": 4,
          "count": 292
        }
      }
    }
  ],
  "samplers": [
    {
      "magFilter": 9729,
      "minFilter": 9987,
      "wrapS": 10497,
      "wrapT": 10497
    }
  ],
  "textures": [
    {
      "sampler": 0,
      "extensions": {
        "EXT_texture_webp": {
          "source": 1
        }
      }
    },
    {
      "sampler": 0,
      "extensions": {
        "EXT_texture_webp": {
          "source": 0
        }
      }
    },
    {
      "sampler": 0,
      "extensions": {
        "EXT_texture_webp": {
          "source": 2
        }
      }
    },
    {
      "sampler": 0,
      "extensions": {
        "EXT_texture_webp": {
          "source": 4
        }
      }
    },
    {
      "sampler": 0,
      "extensions": {
        "EXT_texture_webp": {
          "source": 3
        }
      }
    },
    {
      "sampler": 0,
      "extensions": {
        "EXT_texture_webp": {
          "source": 5
        }
      }
    },
    {
      "sampler": 0,
      "extensions": {
        "EXT_texture_webp": {
          "source": 7
        }
      }
    },
    {
      "sampler": 0,
      "extensions": {
        "EXT_texture_webp": {
          "source": 6
        }
      }
    },
    {
      "sampler": 0,
      "extensions": {
        "EXT_texture_webp": {
          "source": 8
        }
      }
    },
    {
      "sampler": 0,
      "extensions": {
        "EXT_texture_webp": {
          "source": 10
        }
      }
    },
    {
      "sampler": 0,
      "extensions": {
        "EXT_texture_webp": {
          "source": 9
        }
      }
    },
    {
      "sampler": 0,
      "extensions": {
        "EXT_texture_webp": {
          "source": 11
        }
      }
    },
    {
      "sampler": 0,
      "extensions": {
        "EXT_texture_webp": {
          "source": 13
        }
      }
    },
    {
      "sampler": 0,
      "extensions": {
        "EXT_texture_webp": {
          "source": 12
        }
      }
    },
    {
      "sampler": 0,
      "extensions": {
        "EXT_texture_webp": {
          "source": 14
        }
      }
    }
  ],
  "images": [
    {
      "name": "Forged iron normal",
      "mimeType": "image/webp",
      "uri": "textures/surface-fb516ec6c866d7b9.webp"
    },
    {
      "name": "Forged iron color",
      "mimeType": "image/webp",
      "uri": "textures/surface-25be23cebf724530.webp"
    },
    {
      "name": "Forged iron roughness metalness",
      "mimeType": "image/webp",
      "uri": "textures/surface-6fb9fef78a463bef.webp"
    },
    {
      "name": "Dark leather normal",
      "mimeType": "image/webp",
      "uri": "textures/surface-0bba31db93ee7930.webp"
    },
    {
      "name": "Dark leather color",
      "mimeType": "image/webp",
      "uri": "textures/surface-15c7f5964deff57a.webp"
    },
    {
      "name": "Dark leather roughness metalness",
      "mimeType": "image/webp",
      "uri": "textures/surface-ac0465c35b5aefec.webp"
    },
    {
      "name": "Woven cloth normal",
      "mimeType": "image/webp",
      "uri": "textures/surface-15c84119ca507c8c.webp"
    },
    {
      "name": "Woven cloth color",
      "mimeType": "image/webp",
      "uri": "textures/surface-4c574f63fd10e874.webp"
    },
    {
      "name": "Woven cloth roughness metalness",
      "mimeType": "image/webp",
      "uri": "textures/surface-a12b74f6e814638e.webp"
    },
    {
      "name": "Skin and bone normal",
      "mimeType": "image/webp",
      "uri": "textures/surface-4559974a06565aa7.webp"
    },
    {
      "name": "Skin and bone color",
      "mimeType": "image/webp",
      "uri": "textures/surface-a9f4de518b3c7cb7.webp"
    },
    {
      "name": "Skin and bone roughness metalness",
      "mimeType": "image/webp",
      "uri": "textures/surface-b996c2b2f691ba30.webp"
    },
    {
      "name": "Weathered stone normal",
      "mimeType": "image/webp",
      "uri": "textures/surface-4853a2902092cc7c.webp"
    },
    {
      "name": "Weathered stone color",
      "mimeType": "image/webp",
      "uri": "textures/surface-eb11894954d89b5d.webp"
    },
    {
      "name": "Weathered stone roughness metalness",
      "mimeType": "image/webp",
      "uri": "textures/surface-74120f0f7fbce6d0.webp"
    }
  ],
  "buffers": [
    {
      "uri": "zyrel.bin",
      "byteLength": 532908
    },
    {
      "byteLength": 936252,
      "extensions": {
        "EXT_meshopt_compression": {
          "fallback": true
        }
      }
    }
  ],
  "materials": [
    {
      "name": "Rift · Forged iron",
      "extras": {
        "riftTextured": true
      },
      "pbrMetallicRoughness": {
        "baseColorTexture": {
          "index": 0
        },
        "metallicRoughnessTexture": {
          "index": 2
        }
      },
      "normalTexture": {
        "index": 1,
        "scale": 0.550000011920929
      }
    },
    {
      "name": "Material_6.009",
      "extras": {
        "riftBaseColor": [
          0.038204371589236,
          0.26225065751888765,
          1,
          1
        ]
      },
      "pbrMetallicRoughness": {
        "baseColorFactor": [
          0.0382043719291687,
          0.2622506618499756,
          1,
          1
        ],
        "roughnessFactor": 0.30000001192092896,
        "metallicFactor": 0
      },
      "emissiveFactor": [
        0.0382043719291687,
        0.2622506618499756,
        1
      ],
      "extensions": {
        "KHR_materials_emissive_strength": {
          "emissiveStrength": 1.2000000476837158
        }
      }
    },
    {
      "name": "Rift · Dark leather",
      "extras": {
        "riftTextured": true
      },
      "pbrMetallicRoughness": {
        "baseColorTexture": {
          "index": 3
        },
        "metallicRoughnessTexture": {
          "index": 5
        }
      },
      "normalTexture": {
        "index": 4,
        "scale": 0.550000011920929
      }
    },
    {
      "name": "Material_0.013",
      "extras": {
        "riftBaseColor": [
          0.018500220124016652,
          0.3231432091022285,
          1,
          1
        ]
      },
      "pbrMetallicRoughness": {
        "baseColorFactor": [
          0.01850022003054619,
          0.32314321398735046,
          1,
          1
        ],
        "roughnessFactor": 0.25,
        "metallicFactor": 0.25
      },
      "emissiveFactor": [
        0.01850022003054619,
        0.32314321398735046,
        1
      ],
      "extensions": {
        "KHR_materials_emissive_strength": {
          "emissiveStrength": 1.5
        }
      }
    },
    {
      "name": "Rift · Woven cloth",
      "extras": {
        "riftTextured": true
      },
      "doubleSided": true,
      "pbrMetallicRoughness": {
        "baseColorTexture": {
          "index": 6
        },
        "metallicRoughnessTexture": {
          "index": 8
        }
      },
      "normalTexture": {
        "index": 7,
        "scale": 0.550000011920929
      }
    },
    {
      "name": "Rift · Skin and bone",
      "extras": {
        "riftTextured": true
      },
      "pbrMetallicRoughness": {
        "baseColorTexture": {
          "index": 9
        },
        "metallicRoughnessTexture": {
          "index": 11
        }
      },
      "normalTexture": {
        "index": 10,
        "scale": 0.550000011920929
      }
    },
    {
      "name": "Rift · Weathered stone",
      "extras": {
        "riftTextured": true
      },
      "pbrMetallicRoughness": {
        "baseColorTexture": {
          "index": 12
        },
        "metallicRoughnessTexture": {
          "index": 14
        }
      },
      "normalTexture": {
        "index": 13,
        "scale": 0.550000011920929
      }
    }
  ],
  "meshes": [
    {
      "name": "Mesh_18.009",
      "primitives": [
        {
          "attributes": {
            "TEXCOORD_0": 14,
            "POSITION": 60,
            "NORMAL": 61,
            "COLOR_0": 62
          },
          "mode": 4,
          "material": 0,
          "indices": 13
        },
        {
          "attributes": {
            "POSITION": 63,
            "NORMAL": 64,
            "COLOR_0": 65
          },
          "mode": 4,
          "material": 1,
          "indices": 15
        },
        {
          "attributes": {
            "TEXCOORD_0": 17,
            "POSITION": 66,
            "NORMAL": 67,
            "COLOR_0": 68
          },
          "mode": 4,
          "material": 2,
          "indices": 16
        }
      ]
    },
    {
      "name": "Mesh_9.009",
      "primitives": [
        {
          "attributes": {
            "TEXCOORD_0": 19,
            "POSITION": 69,
            "NORMAL": 70,
            "COLOR_0": 71
          },
          "mode": 4,
          "material": 2,
          "indices": 18
        },
        {
          "attributes": {
            "TEXCOORD_0": 21,
            "POSITION": 72,
            "NORMAL": 73,
            "COLOR_0": 74
          },
          "mode": 4,
          "material": 0,
          "indices": 20
        },
        {
          "attributes": {
            "POSITION": 75,
            "NORMAL": 76,
            "COLOR_0": 77
          },
          "mode": 4,
          "material": 3,
          "indices": 22
        }
      ]
    },
    {
      "name": "Mesh_29.008",
      "primitives": [
        {
          "attributes": {
            "TEXCOORD_0": 24,
            "POSITION": 78,
            "NORMAL": 79,
            "COLOR_0": 80
          },
          "mode": 4,
          "material": 0,
          "indices": 23
        },
        {
          "attributes": {
            "POSITION": 81,
            "NORMAL": 64,
            "COLOR_0": 65
          },
          "mode": 4,
          "material": 1,
          "indices": 15
        },
        {
          "attributes": {
            "POSITION": 82,
            "TEXCOORD_0": 17,
            "NORMAL": 67,
            "COLOR_0": 68
          },
          "mode": 4,
          "material": 2,
          "indices": 16
        }
      ]
    },
    {
      "name": "Mesh_25.009",
      "primitives": [
        {
          "attributes": {
            "TEXCOORD_0": 26,
            "POSITION": 83,
            "NORMAL": 84,
            "COLOR_0": 85
          },
          "mode": 4,
          "material": 0,
          "indices": 25
        },
        {
          "attributes": {
            "TEXCOORD_0": 19,
            "POSITION": 69,
            "NORMAL": 70,
            "COLOR_0": 71
          },
          "mode": 4,
          "material": 2,
          "indices": 18
        },
        {
          "attributes": {
            "POSITION": 75,
            "NORMAL": 76,
            "COLOR_0": 77
          },
          "mode": 4,
          "material": 3,
          "indices": 22
        }
      ]
    },
    {
      "name": "Mesh_37.007",
      "primitives": [
        {
          "attributes": {
            "TEXCOORD_0": 28,
            "COLOR_0": 29,
            "POSITION": 86,
            "NORMAL": 87
          },
          "mode": 4,
          "material": 4,
          "indices": 27
        },
        {
          "attributes": {
            "TEXCOORD_0": 31,
            "COLOR_0": 32,
            "POSITION": 88,
            "NORMAL": 89
          },
          "mode": 4,
          "material": 0,
          "indices": 30
        }
      ]
    },
    {
      "name": "Mesh_8.009",
      "primitives": [
        {
          "attributes": {
            "TEXCOORD_0": 34,
            "POSITION": 90,
            "NORMAL": 91,
            "COLOR_0": 92
          },
          "mode": 4,
          "material": 5,
          "indices": 33
        },
        {
          "attributes": {
            "TEXCOORD_0": 36,
            "POSITION": 93,
            "NORMAL": 94,
            "COLOR_0": 95
          },
          "mode": 4,
          "material": 0,
          "indices": 35
        },
        {
          "attributes": {
            "POSITION": 96,
            "NORMAL": 97,
            "COLOR_0": 98
          },
          "mode": 4,
          "material": 1,
          "indices": 37
        }
      ]
    },
    {
      "name": "Mesh_22.009",
      "primitives": [
        {
          "attributes": {
            "TEXCOORD_0": 39,
            "POSITION": 99,
            "NORMAL": 100,
            "COLOR_0": 101
          },
          "mode": 4,
          "material": 0,
          "indices": 38
        },
        {
          "attributes": {
            "POSITION": 102,
            "NORMAL": 103,
            "COLOR_0": 104
          },
          "mode": 4,
          "material": 3,
          "indices": 30
        },
        {
          "attributes": {
            "TEXCOORD_0": 41,
            "POSITION": 105,
            "NORMAL": 106,
            "COLOR_0": 107
          },
          "mode": 4,
          "material": 2,
          "indices": 40
        }
      ]
    },
    {
      "name": "Mesh_35.008",
      "primitives": [
        {
          "attributes": {
            "TEXCOORD_0": 43,
            "POSITION": 108,
            "NORMAL": 109,
            "COLOR_0": 110
          },
          "mode": 4,
          "material": 0,
          "indices": 42
        },
        {
          "attributes": {
            "POSITION": 102,
            "NORMAL": 103,
            "COLOR_0": 104
          },
          "mode": 4,
          "material": 3,
          "indices": 30
        },
        {
          "attributes": {
            "TEXCOORD_0": 41,
            "POSITION": 105,
            "NORMAL": 106,
            "COLOR_0": 107
          },
          "mode": 4,
          "material": 2,
          "indices": 40
        }
      ]
    },
    {
      "name": "Mesh_40.006",
      "primitives": [
        {
          "attributes": {
            "TEXCOORD_0": 45,
            "COLOR_0": 46,
            "POSITION": 111,
            "NORMAL": 112
          },
          "mode": 4,
          "material": 5,
          "indices": 44
        },
        {
          "attributes": {
            "TEXCOORD_0": 48,
            "COLOR_0": 49,
            "POSITION": 113,
            "NORMAL": 114
          },
          "mode": 4,
          "material": 2,
          "indices": 47
        },
        {
          "attributes": {
            "TEXCOORD_0": 51,
            "COLOR_0": 52,
            "POSITION": 115,
            "NORMAL": 116
          },
          "mode": 4,
          "material": 0,
          "indices": 50
        },
        {
          "attributes": {
            "TEXCOORD_0": 54,
            "COLOR_0": 55,
            "POSITION": 117,
            "NORMAL": 118
          },
          "mode": 4,
          "material": 6,
          "indices": 53
        }
      ]
    },
    {
      "name": "Mesh_2.009",
      "primitives": [
        {
          "attributes": {
            "TEXCOORD_0": 57,
            "POSITION": 119,
            "NORMAL": 120,
            "COLOR_0": 121
          },
          "mode": 4,
          "material": 0,
          "indices": 56
        },
        {
          "attributes": {
            "POSITION": 122,
            "NORMAL": 123,
            "COLOR_0": 104
          },
          "mode": 4,
          "material": 3,
          "indices": 30
        },
        {
          "attributes": {
            "TEXCOORD_0": 59,
            "POSITION": 124,
            "NORMAL": 125,
            "COLOR_0": 126
          },
          "mode": 4,
          "material": 2,
          "indices": 58
        }
      ]
    }
  ],
  "nodes": [
    {
      "name": "zyrel__Mesh_18",
      "extras": {
        "riftTextured": true
      },
      "translation": [
        -0.21149729192256927,
        -0.42524778842926025,
        0.08503551781177521
      ],
      "scale": [
        0.9774315357208252,
        0.9774315357208252,
        0.9774315357208252
      ],
      "mesh": 0
    },
    {
      "name": "zyrel__Mesh_9",
      "extras": {
        "riftTextured": true
      },
      "translation": [
        0,
        -0.4731900095939636,
        0.022808745503425598
      ],
      "scale": [
        0.9040767550468445,
        0.9040767550468445,
        0.9040767550468445
      ],
      "mesh": 1
    },
    {
      "name": "zyrel__weapon",
      "translation": [
        0,
        -1.25,
        0.15000000596046448
      ],
      "rotation": [
        0,
        0,
        0.0998334065079689,
        0.9950041770935059
      ],
      "children": [
        1
      ]
    },
    {
      "name": "zyrel__arm_l",
      "translation": [
        -0.8500000238418579,
        3.0999999046325684,
        0
      ],
      "children": [
        0,
        2
      ]
    },
    {
      "name": "zyrel__Mesh_29",
      "extras": {
        "riftTextured": true
      },
      "translation": [
        0.2111750990152359,
        -0.42503494024276733,
        0.08503551781177521
      ],
      "scale": [
        0.9776443839073181,
        0.9776443839073181,
        0.9776443839073181
      ],
      "mesh": 2
    },
    {
      "name": "zyrel__Mesh_25",
      "extras": {
        "riftTextured": true
      },
      "translation": [
        0,
        -0.4731900244951248,
        0.022808752954006195
      ],
      "scale": [
        0.9040767401456833,
        0.9040767401456833,
        0.9040767401456833
      ],
      "mesh": 3
    },
    {
      "name": "zyrel__weapon.001",
      "translation": [
        0,
        -1.25,
        0.15000000596046448
      ],
      "rotation": [
        0,
        0,
        -0.0998334065079689,
        0.9950041770935059
      ],
      "children": [
        5
      ]
    },
    {
      "name": "zyrel__arm_r",
      "translation": [
        0.8500000238418579,
        3.0999999046325684,
        0
      ],
      "children": [
        4,
        6
      ]
    },
    {
      "name": "zyrel__Mesh_37",
      "extras": {
        "riftTextured": true
      },
      "translation": [
        0,
        -1.37880702115217,
        -0.26181305828504264
      ],
      "scale": [
        1.3789597024806426,
        1.3789597024806426,
        1.3789597024806426
      ],
      "mesh": 4
    },
    {
      "name": "zyrel__cape",
      "translation": [
        0,
        3.2300000190734863,
        -0.33000001311302185
      ],
      "children": [
        8
      ]
    },
    {
      "name": "zyrel__Mesh_8",
      "extras": {
        "riftTextured": true
      },
      "translation": [
        0.000028207898139953613,
        0.4020853638648987,
        0.03227418661117554
      ],
      "scale": [
        0.7680346369743347,
        0.7680346369743347,
        0.7680346369743347
      ],
      "mesh": 5
    },
    {
      "name": "zyrel__head",
      "translation": [
        0,
        3.4600000381469727,
        0
      ],
      "scale": [
        0.8700000047683716,
        1.0199999809265137,
        0.9200000166893005
      ],
      "children": [
        10
      ]
    },
    {
      "name": "zyrel__Mesh_22",
      "extras": {
        "riftTextured": true
      },
      "translation": [
        -2.9802322387695312e-8,
        -0.6898653768002987,
        0.18989132344722748
      ],
      "scale": [
        0.7598653770983219,
        0.7598653770983219,
        0.7598653770983219
      ],
      "mesh": 6
    },
    {
      "name": "zyrel__leg_l",
      "translation": [
        -0.27000001072883606,
        1.6699999570846558,
        0
      ],
      "scale": [
        1,
        1.1399999856948853,
        1
      ],
      "children": [
        12
      ]
    },
    {
      "name": "zyrel__Mesh_35",
      "extras": {
        "riftTextured": true
      },
      "translation": [
        0,
        -0.6898653768002987,
        0.18989132344722748
      ],
      "scale": [
        0.7598653770983219,
        0.7598653770983219,
        0.7598653770983219
      ],
      "mesh": 7
    },
    {
      "name": "zyrel__leg_r",
      "translation": [
        0.27000001072883606,
        1.6699999570846558,
        0
      ],
      "scale": [
        1,
        1.1399999856948853,
        1
      ],
      "children": [
        14
      ]
    },
    {
      "name": "zyrel__Mesh_40",
      "extras": {
        "riftTextured": true
      },
      "translation": [
        0.0000055730342864990234,
        1.1368799805641174,
        0.07267312705516815
      ],
      "scale": [
        0.8408568501472473,
        0.8408568501472473,
        0.8408568501472473
      ],
      "mesh": 8
    },
    {
      "name": "zyrel__Mesh_2",
      "extras": {
        "riftTextured": true
      },
      "translation": [
        0,
        0,
        0.07992754876613617
      ],
      "scale": [
        0.7300000190734863,
        0.7300000190734863,
        0.7300000190734863
      ],
      "mesh": 9
    },
    {
      "name": "zyrel__torso",
      "translation": [
        0,
        2.549999952316284,
        0
      ],
      "children": [
        17
      ]
    },
    {
      "name": "zyrel",
      "extras": {
        "asset": "zyrel",
        "category": "Heroes",
        "title": "Storm Heretic",
        "rig": {
          "torso": "torso",
          "head": "head",
          "arms": [
            "arm_l",
            "arm_r"
          ],
          "legs": [
            "leg_l",
            "leg_r"
          ],
          "cape": "cape"
        },
        "referencePass": 2,
        "riftAsset": "zyrel",
        "authoring": "Blender 4.5 · UV/PBR surfaces · rigid articulated animation"
      },
      "children": [
        3,
        7,
        9,
        11,
        13,
        15,
        16,
        18
      ]
    }
  ],
  "animations": [
    {
      "name": "Attack",
      "samplers": [
        {
          "input": 0,
          "output": 1,
          "interpolation": "LINEAR"
        },
        {
          "input": 0,
          "output": 2,
          "interpolation": "LINEAR"
        },
        {
          "input": 0,
          "output": 3,
          "interpolation": "LINEAR"
        },
        {
          "input": 0,
          "output": 4,
          "interpolation": "LINEAR"
        }
      ],
      "channels": [
        {
          "sampler": 0,
          "target": {
            "node": 3,
            "path": "rotation"
          }
        },
        {
          "sampler": 1,
          "target": {
            "node": 2,
            "path": "rotation"
          }
        },
        {
          "sampler": 2,
          "target": {
            "node": 7,
            "path": "rotation"
          }
        },
        {
          "sampler": 3,
          "target": {
            "node": 18,
            "path": "rotation"
          }
        }
      ]
    },
    {
      "name": "Walk",
      "samplers": [
        {
          "input": 0,
          "output": 5,
          "interpolation": "LINEAR"
        },
        {
          "input": 0,
          "output": 6,
          "interpolation": "LINEAR"
        },
        {
          "input": 0,
          "output": 7,
          "interpolation": "LINEAR"
        },
        {
          "input": 0,
          "output": 8,
          "interpolation": "LINEAR"
        },
        {
          "input": 0,
          "output": 9,
          "interpolation": "LINEAR"
        }
      ],
      "channels": [
        {
          "sampler": 0,
          "target": {
            "node": 3,
            "path": "rotation"
          }
        },
        {
          "sampler": 1,
          "target": {
            "node": 7,
            "path": "rotation"
          }
        },
        {
          "sampler": 2,
          "target": {
            "node": 9,
            "path": "rotation"
          }
        },
        {
          "sampler": 3,
          "target": {
            "node": 13,
            "path": "rotation"
          }
        },
        {
          "sampler": 4,
          "target": {
            "node": 15,
            "path": "rotation"
          }
        }
      ]
    },
    {
      "name": "Idle",
      "samplers": [
        {
          "input": 10,
          "output": 11,
          "interpolation": "LINEAR"
        },
        {
          "input": 10,
          "output": 12,
          "interpolation": "LINEAR"
        }
      ],
      "channels": [
        {
          "sampler": 0,
          "target": {
            "node": 9,
            "path": "rotation"
          }
        },
        {
          "sampler": 1,
          "target": {
            "node": 18,
            "path": "rotation"
          }
        }
      ]
    }
  ],
  "scenes": [
    {
      "name": "Scene",
      "nodes": [
        19
      ]
    }
  ],
  "scene": 0,
  "extensionsUsed": [
    "EXT_meshopt_compression",
    "EXT_texture_webp",
    "KHR_materials_emissive_strength",
    "KHR_mesh_quantization"
  ],
  "extensionsRequired": [
    "EXT_meshopt_compression",
    "EXT_texture_webp",
    "KHR_mesh_quantization"
  ]
}